<?xml version="1.0" standalone="no"?>
<!DOCTYPE svg PUBLIC "-//W3C//DTD SVG 1.1//EN" "http://www.w3.org/Graphics/SVG/1.1/DTD/svg11.dtd" >
<svg xmlns="http://www.w3.org/2000/svg" xmlns:xlink="http://www.w3.org/1999/xlink" version="1.1">
<metadata>
Created by FontForge 20170731 at Fri Jan 20 12:51:41 2023
 By Aleksey,,,
Copyright 2005 International Typeface Corporation. All rights reserved.
</metadata>
<defs>
<font id="SteppITCStd-Bold" horiz-adv-x="1024" >
  <font-face 
    font-family="Stepp ITC Std Medium"
    font-weight="700"
    font-stretch="normal"
    units-per-em="2048"
    panose-1="2 0 8 6 7 0 0 2 0 3"
    ascent="1638"
    descent="-410"
    x-height="942"
    cap-height="1466"
    bbox="-164 -535 1942 1913"
    underline-thickness="40"
    underline-position="-312"
    unicode-range="U+0020-FB02"
  />
<missing-glyph 
d="M25 0v1362h972v-1362h-972zM180 1266l332 -498l330 498h-662zM123 1178v-992q0 -1 82.5 123t164.5 249l83 124zM901 1178l-332 -496l332 -498v994zM842 98l-330 496l-332 -496h662z" />
    <glyph glyph-name="f_i" unicode="fi" horiz-adv-x="983" 
d="M932 0h-373v51q1 0 10.5 0.5t13.5 1t14 3t16 5.5t13.5 9t12 13.5t7.5 19.5t3 26v731h-289v-735q0 -19 6 -33.5t14.5 -21.5t21 -11.5t21 -5.5t19.5 -1.5t13 -0.5v-51h-373v51q1 0 10.5 0.5t13.5 1t14 3t16 5.5t13.5 9t12 13.5t7.5 19.5t3 26v731h-131l14 82h119l2 191
q4 224 88 313q105 113 281 113q77 0 137.5 -23t96.5 -61.5t54.5 -84t18.5 -94.5q0 -45 -28.5 -82.5t-88.5 -37.5q-38 0 -64 14t-37 35.5t-14.5 37.5t-3.5 31q0 7 3.5 36t3.5 46q0 107 -119 107q-76 0 -107 -58q-37 -65 -37 -233v-250h478v-819q0 -23 7.5 -38.5t21 -22t24 -9
t25.5 -2.5h16v-51z" />
    <glyph glyph-name="f_l" unicode="fl" horiz-adv-x="991" 
d="M940 0h-373v51q1 0 10.5 0.5t13.5 1t14 3t16 5.5t13.5 9t12 13.5t7.5 19.5t3 26v1049q0 167 -26 227q-32 78 -125 78q-78 0 -109 -58q-37 -65 -37 -233v-250h236l-12 -82h-224v-735q0 -19 6 -33.5t14.5 -21.5t21 -11.5t21 -5.5t19.5 -1.5t13 -0.5v-51h-373v51
q1 0 10.5 0.5t14 1t14.5 3t16 5.5t14 9t12.5 13.5t7.5 19.5t3 26v731h-133l14 82h119l2 191q4 224 88 313q105 113 281 113q51 0 98 -13h203v-1421q0 -19 6 -33.5t14 -21.5t20.5 -11.5t21 -5.5t19.5 -1.5t13 -0.5v-51z" />
    <glyph glyph-name=".notdef" 
d="M25 0v1362h972v-1362h-972zM180 1266l332 -498l330 498h-662zM123 1178v-992q0 -1 82.5 123t164.5 249l83 124zM901 1178l-332 -496l332 -498v994zM842 98l-330 496l-332 -496h662z" />
    <glyph glyph-name=".null" horiz-adv-x="0" 
 />
    <glyph glyph-name="nonmarkingreturn" horiz-adv-x="682" 
 />
    <glyph glyph-name="space" unicode=" " horiz-adv-x="409" 
 />
    <glyph glyph-name="exclam" unicode="!" horiz-adv-x="378" 
d="M297 1339q0 -87 -13 -230t-16 -206q-16 -265 -28 -532h-95l-30 528q-5 84 -18 229.5t-13 210.5q0 23 4.5 46t15 47.5t34 39.5t55.5 15q53 0 78.5 -45.5t25.5 -102.5zM317 119q0 -54 -37.5 -90.5t-91.5 -36.5t-90.5 36.5t-36.5 90.5t36.5 91.5t90.5 37.5t91.5 -37.5
t37.5 -91.5z" />
    <glyph glyph-name="quotedbl" unicode="&#x22;" horiz-adv-x="737" 
d="M655 1450q0 -75 -6 -107l-63 -344h-88l-64 344q-6 39 -6 107q0 41 26.5 71.5t88.5 30.5q61 0 86.5 -30.5t25.5 -71.5zM309 1450q0 -75 -6 -107l-63 -344h-88l-64 344q-6 39 -6 107q0 41 26.5 71.5t88.5 30.5q61 0 86.5 -30.5t25.5 -71.5z" />
    <glyph glyph-name="numbersign" unicode="#" horiz-adv-x="1105" 
d="M1104 991l-41 -129h-236l-71 -219h256l-41 -129h-256l-168 -514h-119l168 514h-229l-168 -514h-119l168 514h-225l40 129h226l71 219h-245l41 129h247l160 477h117l-160 -477h232l155 477h117l-156 -477h236zM709 862h-230l-71 -219h229z" />
    <glyph glyph-name="dollar" unicode="$" horiz-adv-x="901" 
d="M850 358q0 -169 -104.5 -274.5t-272.5 -110.5v-118h-90v127q-35 6 -83 23.5t-62 17.5q-19 0 -25 -23h-63l-119 344l61 16q25 -59 56.5 -107.5t61 -79.5t63 -55t59 -36t51.5 -21v629l-6 4q-54 35 -96 67.5t-85.5 76t-72 87.5t-46.5 99.5t-18 114.5q0 146 88 242t236 108
v90h90v-92q45 -6 91 -25.5t54 -19.5q18 0 21 26h57l80 -272l-59 -10q-77 178 -244 221v-541q10 -7 29.5 -20.5t29.5 -20.5q63 -44 97 -70.5t83 -74t74.5 -89.5t44.5 -103t19 -130zM383 934v481q-83 -8 -127.5 -58t-44.5 -138q0 -4 1 -11.5t1 -11.5q4 -73 48.5 -136
t121.5 -126zM686 301q0 4 -1 13t-1 14q-7 89 -56.5 156t-154.5 143v-576q93 7 153 77.5t60 172.5z" />
    <glyph glyph-name="percent" unicode="%" horiz-adv-x="1327" 
d="M621 1141q0 -145 -81 -246.5t-198 -101.5t-199 101.5t-82 246.5t82 247.5t199 102.5t198 -102.5t81 -247.5zM1026 1468l-614 -1468h-99l613 1464zM1266 317q0 -145 -81 -247.5t-198 -102.5t-198.5 102.5t-81.5 247.5t81.5 247t198.5 102t198 -102t81 -247zM475 1141
q0 136 -33.5 216.5t-101.5 80.5t-101.5 -80.5t-33.5 -216.5q0 -135 33.5 -215t101.5 -80t101.5 80t33.5 215zM1120 317q0 136 -33.5 216.5t-101.5 80.5t-101.5 -80.5t-33.5 -216.5q0 -135 33.5 -214.5t101.5 -79.5t101.5 79.5t33.5 214.5z" />
    <glyph glyph-name="ampersand" unicode="&#x26;" horiz-adv-x="1079" 
d="M1028 752q-1 0 -10 -0.5t-13.5 -1t-14 -3t-15 -5.5t-13.5 -9t-12 -13.5t-7 -19.5t-3 -26v-547q-31 -44 -81 -76.5t-100.5 -47.5t-96.5 -23.5t-74 -9.5l-29 -1q-117 0 -214.5 36t-161 97t-98 140t-34.5 166q0 77 26 142.5t63.5 107t84 72.5t82 45.5t62.5 19.5
q-30 7 -69.5 29.5t-82 60.5t-71.5 98.5t-29 130.5q0 163 115.5 268t302.5 105q50 0 89.5 -11.5t60 -23.5t24.5 -12q7 0 10 24h67l97 -282l-68 -11q-41 104 -116.5 174t-163.5 70q-99 0 -151 -69t-52 -228q0 -70 17 -125t39.5 -86t53 -52.5t49 -29t35.5 -10.5
q-1 -8 -4.5 -26.5t-3.5 -20.5q-34 -5 -60.5 -13t-64.5 -32.5t-63.5 -60.5t-44.5 -102t-19 -152q0 -361 297 -361q71 0 114.5 25.5t57.5 60.5v541q0 19 -7.5 34t-17 22.5t-24.5 12.5t-24 6t-23 2l-14 1v51h403v-51z" />
    <glyph glyph-name="quotesingle" unicode="'" horiz-adv-x="389" 
d="M309 1450q0 -64 -8 -107l-61 -344h-90l-62 344q-8 39 -8 107q0 41 26.5 71.5t90.5 30.5q60 0 86 -30.5t26 -71.5z" />
    <glyph glyph-name="parenleft" unicode="(" horiz-adv-x="563" 
d="M571 -524h-75q-74 76 -134.5 175t-97.5 195.5t-64.5 196.5t-40 184t-19.5 150.5t-8 104.5l-1 38q0 14 1 38t8 99t19.5 149.5t40.5 178.5t65.5 197t98.5 194t136 180h71q-65 -112 -112.5 -260t-69 -279.5t-34 -247t-13.5 -183.5l-2 -68q0 -25 1.5 -69t14 -173.5t34 -250.5
t69 -275.5t112.5 -273.5z" />
    <glyph glyph-name="parenright" unicode=")" horiz-adv-x="563" 
d="M446 520q0 -14 -0.5 -39t-8 -102t-19.5 -153t-39.5 -181.5t-64.5 -199t-97.5 -193.5t-134.5 -176h-76q65 119 112.5 270.5t69.5 282t34.5 244t13.5 179.5l2 66q0 26 -1.5 71.5t-14 177t-34.5 253.5t-69.5 273t-112.5 263h72q75 -79 136 -179t98.5 -196.5t65 -194.5
t40 -180.5t19.5 -147.5t8 -102z" />
    <glyph glyph-name="asterisk" unicode="*" horiz-adv-x="804" 
d="M743 936q0 -22 -10 -39q-23 -33 -63 -33q-35 0 -68 21q-42 26 -153 137q32 -155 32 -203q0 -57 -23 -80.5t-55 -23.5q-35 0 -56 27t-21 77q0 48 32 203q-111 -111 -153 -137q-37 -23 -70 -23q-41 0 -59 33q-13 19 -13 39q0 47 58 84q51 31 203 84q-158 55 -203 84
q-60 39 -60 82q0 17 13 39q22 32 61 32q36 0 70 -22q48 -30 153 -135q-32 155 -32 202q0 57 22 81t53 24q35 0 57.5 -28t22.5 -77q0 -47 -32 -202q105 105 153 135q39 24 70 24q41 0 59 -32q10 -15 10 -39q0 -47 -57 -84q-51 -31 -203 -84q158 -55 203 -84q59 -38 59 -82z
" />
    <glyph glyph-name="plus" unicode="+" horiz-adv-x="997" 
d="M936 416h-375v-373h-125v373h-375v123h375v374h125v-374h375v-123z" />
    <glyph glyph-name="comma" unicode="," horiz-adv-x="378" 
d="M324 51q-6 -79 -34.5 -148t-66 -110.5t-69.5 -66.5t-56 -33l-22 69q57 28 92 90.5t41 151.5q-18 -6 -29 -6h-8q-50 3 -83.5 41t-33.5 88q0 52 40 86.5t89 34.5h9q63 -4 97 -53.5t34 -120.5v-23z" />
    <glyph glyph-name="hyphen" unicode="-" horiz-adv-x="782" 
d="M721 506h-660v98h660v-98z" />
    <glyph glyph-name="period" unicode="." horiz-adv-x="378" 
d="M317 119q0 -54 -37.5 -90.5t-91.5 -36.5t-90.5 36.5t-36.5 90.5t36.5 91.5t90.5 37.5t91.5 -37.5t37.5 -91.5z" />
    <glyph glyph-name="slash" unicode="/" horiz-adv-x="761" 
d="M700 1561l-503 -1604h-136l506 1604h133z" />
    <glyph glyph-name="zero" unicode="0" horiz-adv-x="1007" 
d="M946 557q0 -160 -55 -293t-156.5 -211t-228.5 -78t-229.5 78t-159 211t-56.5 293t56.5 293t159 211t229.5 78t228.5 -78t156.5 -211t55 -293zM752 557q0 506 -248 506q-250 0 -250 -506q0 -504 250 -504q248 0 248 504z" />
    <glyph glyph-name="one" unicode="1" horiz-adv-x="499" 
d="M438 0h-377v51q1 0 10.5 0.5t14 1t14.5 3t15.5 5.5t13.5 9t12.5 13.5t7.5 19.5t3 26v852q0 17 -4 30t-11.5 21t-14.5 13.5t-17.5 8t-17 3.5t-16 1.5t-10.5 0.5v53h283v-989q0 -23 7.5 -38.5t21 -22t24 -9t25.5 -2.5h16v-51z" />
    <glyph glyph-name="two" unicode="2" horiz-adv-x="915" 
d="M854 266q-9 -35 -38.5 -119t-47.5 -110q-17 -24 -34.5 -30.5t-49.5 -6.5h-31h-553l-14 51q42 17 104.5 65t134 123.5t133 163t102 195t40.5 207.5q0 255 -213 258h-8q-49 0 -88 -11t-63 -26.5t-41.5 -39t-25.5 -41.5t-12.5 -41t-5 -31.5t-0.5 -18.5h-82v10q0 24 4 50
t24 69.5t54 76t101.5 57t158.5 24.5q108 0 197 -37t145 -115.5t56 -185.5q0 -86 -36 -177.5t-91 -167t-118.5 -144t-121.5 -116.5t-97.5 -76t-47.5 -30h121q146 0 215 35q97 49 168 156z" />
    <glyph glyph-name="three" unicode="3" horiz-adv-x="956" 
d="M895 -39q0 -93 -35.5 -181t-98.5 -156.5t-157.5 -110t-204.5 -41.5q-145 0 -241.5 58.5t-96.5 115.5q0 25 15 46t53 21q24 0 45 -17.5t39.5 -42.5t40.5 -50t60.5 -42.5t88.5 -17.5q23 0 43 2t51 11.5t56 25.5t52.5 47.5t46 74t30.5 108.5t12 147q0 111 -24.5 195.5
t-59.5 130t-82.5 74t-84 36.5t-72.5 8h-19l-30 70q29 4 52.5 8.5t58 15.5t61 26t55.5 41.5t48 59.5t31.5 82.5t12.5 108.5q0 43 -10.5 83t-33 78.5t-65 61.5t-100.5 23q-156 0 -156 -141q0 -12 1.5 -27t1.5 -16q0 -31 -19 -62t-65 -31q-45 0 -63.5 31t-18.5 66
q0 98 86.5 176t236.5 78q94 0 171 -27t125 -72.5t73.5 -102t25.5 -118.5q0 -60 -15 -112t-38 -87t-54.5 -64.5t-60 -46.5t-60 -29.5t-48.5 -17t-31 -7.5q76 -11 137 -44t99 -76.5t65.5 -94.5t40.5 -99t20 -88t8 -64z" />
    <glyph glyph-name="four" unicode="4" horiz-adv-x="1003" 
d="M946 90l-22 -90h-154v-483l-186 -49v532h-467l-54 55l582 1063h125v-1028h176zM584 90v739l-394 -739h394z" />
    <glyph glyph-name="five" unicode="5" horiz-adv-x="983" 
d="M922 37q0 -77 -17.5 -154t-57.5 -152t-98.5 -132t-147 -92t-195.5 -35q-127 0 -236 57t-109 117q0 22 14 43.5t48 21.5q24 0 46.5 -17t44 -41.5t46.5 -49t64 -42t86 -18.5h6q66 0 120 25t99 80t69.5 153.5t24.5 233.5q0 127 -24.5 226t-66 157.5t-92 88.5t-106.5 30
q-43 0 -78 -6t-56 -16.5t-33.5 -19.5t-22 -19t-10.5 -11q-29 8 -76 18l112 625h369h2h23q37 0 63 -23q23 -21 64 -114t49 -127q-15 -7 -62 -17q-5 8 -17.5 28.5t-18.5 29.5t-21 26t-29 25.5t-38.5 20t-53 17t-69.5 9.5t-91 4h-86l-79 -416q20 12 29 17t50.5 13.5t96.5 8.5
q48 0 96 -10t102.5 -33t100.5 -66.5t84 -104t60 -153t22 -206.5z" />
    <glyph glyph-name="six" unicode="6" horiz-adv-x="980" 
d="M920 481q0 -117 -34 -214t-92 -160t-133.5 -97.5t-158.5 -34.5q-191 0 -316 164t-125 434q0 159 35 303.5t93 251.5t131 194.5t150.5 142t150 83.5t131.5 29q43 0 43 -29q0 -17 -22 -29t-61 -26t-85 -34t-102.5 -64t-104.5 -105q-83 -108 -126.5 -301.5t-43.5 -408.5
q0 -259 65 -395t187 -136q118 0 173.5 101t55.5 325q0 213 -55.5 313.5t-145.5 100.5q-39 0 -69.5 -8.5t-49.5 -22t-30.5 -26t-19.5 -25.5t-9 -14l-51 20q12 43 40 75t60 47t62 23.5t49 9.5l20 1q69 0 137 -32t124.5 -90.5t91.5 -154t35 -211.5z" />
    <glyph glyph-name="seven" unicode="7" horiz-adv-x="935" 
d="M874 1047l-477 -1569l-116 22l491 1485h-344q-35 0 -65.5 -3t-53.5 -6.5t-44.5 -13.5t-35 -15t-29 -20t-22 -20t-18 -23.5t-14 -22.5t-12.5 -24.5t-11 -21.5q-20 4 -35.5 9t-21.5 8l-5 2q9 39 47.5 136t61.5 117q29 25 63 25h23h2h580z" />
    <glyph glyph-name="eight" unicode="8" horiz-adv-x="962" 
d="M901 426q0 -191 -118.5 -322t-301.5 -131t-301.5 131t-118.5 322q0 98 26.5 181t89 150.5t155.5 96.5q-100 40 -156.5 139t-56.5 211q0 158 101 266.5t261 108.5t260.5 -108t100.5 -267q0 -111 -56.5 -210.5t-152.5 -139.5q134 -45 201 -160.5t67 -267.5zM659 1206
q0 138 -48 218.5t-132 80.5t-130 -80.5t-46 -218.5q0 -139 45 -222.5t133 -82.5t133 83.5t45 221.5zM717 426q0 168 -61.5 275.5t-174.5 107.5q-107 0 -170 -110t-63 -277q0 -172 60 -274.5t175 -102.5t174.5 104t59.5 277z" />
    <glyph glyph-name="nine" unicode="9" horiz-adv-x="1011" 
d="M950 510q0 -165 -36 -314.5t-95.5 -260t-134.5 -201t-155 -146.5t-154.5 -86t-136.5 -30q-45 0 -45 28q0 18 22.5 30.5t63 27.5t87.5 36t106 66.5t108 108.5q86 112 131 312t45 423q0 268 -67 410.5t-193 142.5q-123 0 -181.5 -107t-58.5 -338q0 -220 58.5 -324
t152.5 -104q40 0 71.5 9t50.5 23.5t31 27.5t20 26.5t9 14.5l53 -23q-13 -45 -42 -78t-61.5 -48t-63 -23.5t-50.5 -9.5l-20 -1q-72 0 -142 33t-129.5 94t-96 160t-36.5 219q0 122 35.5 222.5t96 166t139 101t164.5 35.5q197 0 325.5 -171t128.5 -452z" />
    <glyph glyph-name="colon" unicode=":" horiz-adv-x="378" 
d="M317 827q0 -54 -37.5 -91.5t-91.5 -37.5q-53 0 -90 37.5t-37 91.5q0 53 37.5 90t89.5 37q54 0 91.5 -37t37.5 -90zM317 119q0 -53 -37.5 -90t-91.5 -37q-52 0 -89.5 37t-37.5 90q0 54 37 91.5t90 37.5q54 0 91.5 -37.5t37.5 -91.5z" />
    <glyph glyph-name="semicolon" unicode=";" horiz-adv-x="378" 
d="M313 827q0 -54 -37 -91.5t-90 -37.5q-54 0 -92.5 37.5t-38.5 91.5q0 53 38 90t91 37q54 0 91.5 -36.5t37.5 -90.5zM324 74h-2v-23q-5 -64 -25 -122t-46 -97t-56.5 -70t-54.5 -47t-42 -22l-22 69q57 28 92 90.5t41 151.5q-18 -6 -29 -6h-8q-50 3 -83.5 41t-33.5 88
q0 52 40 86.5t89 34.5h9q63 -4 97 -53.5t34 -120.5z" />
    <glyph glyph-name="less" unicode="&#x3c;" horiz-adv-x="997" 
d="M932 -45l-866 461v96l866 459v-127l-715 -381l715 -377v-131z" />
    <glyph glyph-name="equal" unicode="=" horiz-adv-x="997" 
d="M936 547h-875v125h875v-125zM936 299h-875v125h875v-125z" />
    <glyph glyph-name="greater" unicode="&#x3e;" horiz-adv-x="997" 
d="M932 416l-866 -461v131l714 377l-714 381v127l866 -459v-96z" />
    <glyph glyph-name="question" unicode="?" horiz-adv-x="790" 
d="M739 1106q0 -96 -38 -175.5t-90.5 -125.5t-113 -78.5t-101 -44t-58.5 -12.5l-19 -295h-94l-16 360h4q14 0 31 1.5t49 10t60.5 22.5t61 42t55.5 65.5t38.5 97t15.5 132.5q0 48 -2.5 85.5t-12.5 81.5t-26.5 73.5t-46.5 49t-71 19.5q-150 0 -150 -133q0 -12 1 -26t1 -17
q0 -106 -82 -106q-41 0 -62.5 33t-21.5 65q0 99 84 176.5t234 77.5q163 0 266.5 -109t103.5 -270zM399 119q0 -54 -37.5 -90.5t-91.5 -36.5t-91.5 36.5t-37.5 90.5t37.5 91.5t91.5 37.5t91.5 -37.5t37.5 -91.5z" />
    <glyph glyph-name="at" unicode="@" horiz-adv-x="1544" 
d="M1493 971q0 -162 -62 -310t-167.5 -239.5t-223.5 -91.5q-63 0 -106 41t-47 80q-74 -119 -205 -119q-18 0 -42 4t-63 22t-69.5 48t-53 88.5t-22.5 136.5q0 127 54.5 244.5t144.5 189.5t188 72q37 0 65 -10t42.5 -26.5t21.5 -30.5t10 -28l15 60h168l-60 -275
q-56 -255 -59 -321q0 -5 -1 -17t-1 -18q0 -68 43 -68q41 -1 83.5 38.5t77.5 109.5t57 179.5t22 236.5q0 240 -87.5 346t-302.5 106q-175 0 -325.5 -107t-239 -290.5t-88.5 -396.5q0 -137 46.5 -249t123 -181t170 -105.5t193.5 -36.5q169 0 304.5 71t258.5 202l39 -66
q-59 -67 -115 -115t-128.5 -89t-161 -62t-193.5 -21q-107 0 -208 20t-200.5 68.5t-173 121.5t-119 188.5t-45.5 259.5q0 167 66.5 324t180.5 275.5t277 189.5t345 71q251 0 412 -141.5t161 -378.5zM909 879q0 93 -19.5 142.5t-68.5 49.5q-52 0 -95.5 -46t-69.5 -115.5
t-40 -144t-14 -138.5v-4q0 -211 100 -211q50 0 90.5 42.5t65.5 111.5t38 150t13 163z" />
    <glyph glyph-name="A" unicode="A" horiz-adv-x="1026" 
d="M1047 0h-390v51q78 0 78 53q0 17 -2 25q-43 179 -110 446h-328q-25 -102 -53 -207.5t-45.5 -169t-18.5 -69.5q-2 -8 -2 -25q0 -53 78 -53v-51h-274v51q1 0 11.5 0.5t16.5 1.5t17.5 5.5t19.5 11.5t17 20.5t14 32.5l377 1372h118l377 -1372q5 -19 14 -32.5t17.5 -20.5
t20.5 -11.5t18.5 -5.5t17 -1.5t11.5 -0.5v-51zM600 653q-71 322 -141 568l-146 -568h287z" />
    <glyph glyph-name="B" unicode="B" horiz-adv-x="1021" 
d="M971 416q0 -92 -29 -166t-88.5 -131t-159.5 -88t-233 -31h-400v51q51 4 71 22q22 21 22 60v1206q0 19 -6 33.5t-14 22t-20.5 12.5t-20 6t-19.5 1.5t-13 0.5v51h388q54 0 106 -8.5t107.5 -31t97 -57.5t68 -94t26.5 -134q0 -10 -1.5 -27t-14.5 -62t-35 -82.5t-71 -75.5
t-116 -54q13 -3 34.5 -10t56 -24t69 -39t70.5 -57t63 -75.5t44.5 -97.5t17.5 -121zM760 428q0 87 -26.5 156t-60 106t-81 64t-72.5 34.5t-51 12.5v63q9 0 25.5 3.5t45.5 18.5t52 40.5t41 76t18 117.5q0 82 -19 137t-53.5 81.5t-70 36t-82.5 9.5q-9 0 -26 -1t-25 -1
q-15 2 -19 0v-1300h68q336 0 336 346z" />
    <glyph glyph-name="C" unicode="C" horiz-adv-x="1034" 
d="M1014 457q-1 -11 -5.5 -37.5t-18.5 -73.5t-33.5 -95.5t-53.5 -100t-76 -91t-103.5 -65t-133.5 -25.5q-162 0 -286 103t-188.5 275.5t-64.5 383.5q0 210 65.5 382.5t189.5 275t284 102.5q50 0 93 -11.5t69 -22.5t34 -11q14 0 17 24h59l94 -284l-59 -10q-27 53 -54.5 91.5
t-64.5 73.5t-84.5 53.5t-103.5 18.5q-88 0 -152 -51t-101.5 -145t-55 -214t-17.5 -270q0 -151 17.5 -270.5t54.5 -213.5t101.5 -145t152.5 -51q72 0 132.5 38t96 91t61 113.5t35 102t9.5 59.5h77h13z" />
    <glyph glyph-name="D" unicode="D" horiz-adv-x="1064" 
d="M1014 737q0 -138 -21.5 -250.5t-56 -187.5t-85 -131.5t-100.5 -87.5t-110 -50t-106 -24.5t-97 -5.5h-377v53q50 4 70 23q21 21 21 59v1200q0 17 -4 30t-11.5 21.5t-14.5 14t-18 8t-17 4t-16 1.5l-10 1v53h334q50 0 98 -5.5t112 -24.5t118.5 -50.5t109.5 -87.5t94 -130.5
t63 -185.5t24 -247zM801 731q0 129 -18 233.5t-45.5 172t-68 117.5t-77.5 75.5t-82.5 40t-74.5 18t-62 3.5h-17v-1311h37h4q38 0 62.5 1.5t71.5 14t78.5 36t71 71.5t63.5 115t40.5 173t16.5 240z" />
    <glyph glyph-name="E" unicode="E" horiz-adv-x="868" 
d="M868 262q-6 -31 -42 -123.5t-56 -113.5q-16 -16 -28 -20.5t-33 -4.5h-15h-633v51q1 0 10.5 0.5t14.5 1t15 3t16.5 5.5t14.5 9t12.5 13.5t8 19.5t3.5 26v1200q0 77 -91 86h-4v51h328h285h4q32 0 49 -28q18 -31 35.5 -98t19.5 -93q-16 -6 -51 -10q-31 70 -52 94
q-55 62 -165 62h-158v-475h215q3 11 10.5 29t33 57t55.5 59l55 -37q-86 -75 -86 -207q0 -43 8 -74q-14 -4 -65 -16q-17 37 -17 100v7h-209v-760h152q55 0 100.5 13.5t73.5 31t54.5 48.5t38.5 50.5t29 50.5q5 9 7 13q19 -5 33.5 -10.5t19.5 -8.5z" />
    <glyph glyph-name="F" unicode="F" horiz-adv-x="784" 
d="M784 1247q-18 -6 -53 -10q-31 70 -52 94q-55 62 -165 62h-158v-475h215q3 11 10.5 29t33 57t55.5 59l55 -37q-86 -75 -86 -207q0 -43 8 -74q-12 -4 -63 -16q-19 37 -19 100v7h-209v-693q0 -92 117 -92v-51h-412v51q1 0 10.5 0.5t14 1t14.5 3t16 5.5t14 9t12.5 13.5
t8 19.5t3.5 26v1202q0 12 -2 22t-5.5 18t-9 14t-11 10.5t-12.5 7.5t-12.5 5t-13 3.5t-11 2t-9.5 1t-7 0.5v51h330h283h4q33 -1 49 -28q18 -31 36.5 -98.5t20.5 -92.5z" />
    <glyph glyph-name="G" unicode="G" horiz-adv-x="1173" 
d="M1122 758q-61 -5 -83 -33q-15 -20 -15 -51v-512q-37 -53 -92.5 -92.5t-108.5 -57.5t-100 -28.5t-76 -11.5l-29 -1q-178 0 -308.5 103.5t-194.5 273.5t-64 383q0 211 64.5 383t189 275.5t287.5 103.5q50 0 93 -11.5t69 -23.5t34 -12q14 0 17 24h59l94 -282l-59 -12
q-58 112 -129 175.5t-178 63.5q-330 0 -330 -682q0 -123 9.5 -220t34 -185.5t64 -147t103 -93t148.5 -34.5q38 0 69.5 6t50 13.5t35 21t22.5 21t15 22t10 15.5v522q0 18 -4.5 32t-13.5 22.5t-18 14.5t-21 9t-20 4t-18 1.5t-11 0.5v51h405v-51z" />
    <glyph glyph-name="H" unicode="H" horiz-adv-x="1087" 
d="M1026 0h-389v51q24 1 37.5 3.5t29.5 10.5t23.5 26.5t7.5 47.5v801h-385v-801q0 -29 7.5 -47.5t24 -26.5t30 -10.5t37.5 -3.5v-51h-388v51q51 4 71 22q22 21 22 60v1206q0 15 -4.5 27t-12 20t-16 13.5t-19 8.5t-17.5 4t-15 2l-9 1v51h390v-51q-1 0 -10.5 -0.5t-15 -1
t-16 -3t-17.5 -5.5t-16 -9t-14 -13.5t-8.5 -19.5t-3.5 -26v-317h385v317q0 14 -3.5 26t-8.5 19.5t-13.5 13.5t-15.5 9t-17.5 5.5t-16 3t-15 1t-10.5 0.5v51h389v-51l-8 -1q-9 -1 -15.5 -2t-17 -4t-18 -8.5t-15.5 -13.5t-12 -20t-4 -27l-2 -1206q0 -75 89 -82h5v-51z" />
    <glyph glyph-name="I" unicode="I" horiz-adv-x="516" 
d="M455 0h-394v51q20 1 30.5 3t28 9.5t26 25.5t8.5 46v1196q0 23 -8 40t-16 24.5t-26 12.5t-22 5.5t-21 1.5v51h394v-51q-20 -1 -31.5 -3t-30 -9.5t-28 -25.5t-9.5 -46v-1200q0 -15 3.5 -27t8 -20t13 -14t14.5 -9t17.5 -5.5t15.5 -3t16 -0.5l11 -1v-51z" />
    <glyph glyph-name="J" unicode="J" horiz-adv-x="724" 
d="M674 1415q-1 0 -9.5 -0.5t-12.5 -1t-13.5 -2t-15.5 -4t-14 -6.5t-13.5 -10t-10.5 -13.5t-7.5 -18.5t-2.5 -24v-1036q0 -154 -67 -242t-191 -88q-47 0 -82 12t-53 24.5t-22 12.5q-7 0 -13 -20h-51l-116 338l65 10q35 -83 72 -143.5t65 -88.5t51.5 -43.5t35.5 -17.5l12 -2
q92 0 92 199v1085q0 17 -4 30t-11.5 21.5t-14.5 14t-18.5 8t-17 4t-15.5 1.5l-11 1v51h393v-51z" />
    <glyph glyph-name="K" unicode="K" horiz-adv-x="1038" 
d="M1100 0h-277q-20 87 -83 220t-144 249q-126 182 -244 287v-631q0 -19 6 -33.5t14.5 -21.5t21.5 -11.5t21.5 -5.5t20 -1.5t13.5 -0.5v-51h-388v51q1 0 10.5 0.5t14 1t14.5 3t16 5.5t14 9t12.5 13.5t8 19.5t3.5 26v1208q0 20 -5.5 34t-12 21.5t-18 12.5t-18.5 6t-18 1.5
t-12 0.5v53h370v-53q-1 0 -12 -0.5t-16 -1.5t-16 -3.5t-17 -7.5t-13 -13t-10.5 -21t-3.5 -29v-546q106 141 402 546q16 22 16 39q0 22 -25.5 30.5t-54.5 8.5v51h295v-53q-74 -6 -121 -70q-21 -23 -356 -487q233 -208 485 -731q6 -13 13 -23.5t14.5 -18.5t13.5 -14t14 -10
l13 -6.5t12.5 -4l10 -2t9.5 -0.5l7 -1v-20v-25z" />
    <glyph glyph-name="L" unicode="L" horiz-adv-x="884" 
d="M885 266q-6 -31 -41.5 -125.5t-55.5 -115.5q-16 -16 -28 -20.5t-33 -4.5h-14h-652v51q1 0 9.5 0.5t12 1t13 2t15 4t13.5 6.5t12.5 10t9.5 13.5t7.5 18.5t2.5 24v1200q0 84 -95 84v51h412v-51q-1 0 -13.5 -0.5t-20.5 -1.5t-21.5 -4t-23 -9t-19 -14.5t-14.5 -22.5t-5 -32
v-1255h164q42 0 79 8t63 18.5t51.5 31t40 34.5t32.5 40.5t24.5 37.5t20.5 37z" />
    <glyph glyph-name="M" unicode="M" horiz-adv-x="1439" 
d="M1378 0h-393v51q1 0 10.5 0.5t14 1t14.5 3t16 5.5t14 9t12.5 13.5t7.5 19.5t3 26l2 977l-360 -1126h-113l-373 1124v-979q0 -19 6 -33.5t13.5 -22t19.5 -11.5t20 -5t19 -1.5t13 -0.5v-51h-263v51q1 0 10 0.5t13 1t13.5 3t14.5 5.5t12.5 9t11 13.5t6.5 19.5t3 26v1339h177
l397 -1210l385 1210h176v-1339q0 -17 4.5 -30t12 -21t16 -13.5t19.5 -8t18.5 -3.5t17 -1.5t10.5 -0.5v-51z" />
    <glyph glyph-name="N" unicode="N" horiz-adv-x="1077" 
d="M1016 1415q-1 0 -10 -0.5t-13 -1t-14 -3t-15 -5.5t-12.5 -9t-11.5 -13.5t-7 -19.5t-3 -26v-1337h-133l-561 1155v-1030q0 -19 5.5 -33.5t13 -22t19 -11.5t19.5 -5t18.5 -1.5t12.5 -0.5v-51h-263v51q1 0 10 0.5t13 1t13.5 3t14.5 5.5t12.5 9t11 13.5t6.5 19.5t3 26v1337
h164l531 -1138v1013q0 19 -5.5 33.5t-13 22t-19 11.5t-19.5 5t-18.5 1.5t-12.5 0.5v51h264v-51z" />
    <glyph glyph-name="O" unicode="O" horiz-adv-x="1185" 
d="M1135 731q0 -211 -64 -383t-189.5 -275.5t-289.5 -103.5q-99 0 -185.5 39t-151 108.5t-111 164.5t-70 209.5t-23.5 240.5q0 211 63.5 382.5t188.5 274.5t289 103t289.5 -103t189.5 -274.5t64 -382.5zM924 733q0 680 -332 680q-330 0 -330 -680t330 -680q332 0 332 680z
" />
    <glyph glyph-name="P" unicode="P" horiz-adv-x="946" 
d="M905 1081q0 -85 -36.5 -155t-90 -112.5t-119.5 -71.5t-121.5 -40.5t-99.5 -11.5q-5 0 -12.5 1t-11.5 1v51v19h18q27 0 54 4.5t66.5 24t68.5 51.5t50 94t21 145q0 78 -17 136.5t-43 91t-64 52.5t-73 26t-77 6q-5 0 -15.5 -1t-15.5 -1q-15 2 -31 0v-1258q0 -17 5 -30.5
t14.5 -21.5t19 -14t23 -9t21 -4t19.5 -2l11 -1v-51h-408v51q14 1 19 1.5t22.5 6t26 13t17 24t8.5 39.5v1204q0 17 -4 30t-11.5 21t-15 13.5t-18.5 8t-17.5 3.5t-16 1.5t-10.5 0.5v51h340q504 0 504 -387z" />
    <glyph glyph-name="Q" unicode="Q" horiz-adv-x="1185" 
d="M1135 733q0 -190 -52 -349t-154 -266t-239 -136v-129q0 -52 8 -88t23.5 -55t26 -26t26.5 -14q-2 -5 -25 -22t-26 -23q-12 0 -35.5 5.5t-59 22.5t-66.5 43t-53 73.5t-22 107.5v107q-134 31 -234 138t-151 265t-51 346q0 211 63.5 382.5t188.5 274.5t289 103t289.5 -103
t189.5 -274.5t64 -382.5zM924 735q0 680 -332 680q-330 0 -330 -680t330 -680q332 0 332 680z" />
    <glyph glyph-name="R" unicode="R" horiz-adv-x="1044" 
d="M1075 0h-299q-17 102 -85.5 265.5t-153.5 304t-142 171.5v43v17q8 0 19.5 1t38.5 7.5t51.5 17.5t53 34t49 54t34.5 81t14 112q0 71 -14.5 123.5t-37 82.5t-56 48t-64.5 23.5t-69 5.5h-31q-17 0 -29 -2v-1260q0 -19 6.5 -34t14.5 -22.5t22 -12.5t22 -6t21 -2l13 -1v-51
h-392v51q51 4 71 22q22 21 22 60v1206q0 19 -6 33.5t-14 22t-20.5 12.5t-20 6t-19.5 1.5t-13 0.5v53h367q65 0 123.5 -9.5t118 -34t102 -62.5t69.5 -100t27 -142q0 -11 -1.5 -29.5t-15 -69t-37.5 -93.5t-75.5 -88.5t-122.5 -67.5q60 -49 169 -252t171 -379q1 -3 3.5 -8.5
t12.5 -20.5t22 -26.5t34 -22t47 -12.5v-51z" />
    <glyph glyph-name="S" unicode="S" horiz-adv-x="901" 
d="M850 358q0 -173 -108.5 -279t-282.5 -106q-65 0 -138.5 25t-82.5 25q-19 0 -25 -23h-63l-119 344l61 16q37 -88 87.5 -152t96 -93t86 -46t64.5 -19l25 -1q101 0 168 72t67 180q0 4 -1 13t-1 14q-6 73 -43 134t-96 110.5t-168 121.5q-54 35 -96 67.5t-85.5 76t-72 87.5
t-46.5 99.5t-18 114.5q0 156 100 254t265 98q48 0 90 -12.5t68.5 -24.5t35.5 -12q18 0 21 26h57l80 -272l-59 -10q-28 65 -69.5 112.5t-80.5 69t-74.5 34t-56.5 14.5l-22 1q-96 0 -149.5 -51t-53.5 -147q0 -4 1 -11.5t1 -11.5q2 -26 10 -52t16 -46.5t28.5 -46t31.5 -40.5
t41.5 -41t42 -36.5t50 -38t48 -34.5t51.5 -36q63 -44 97 -70.5t83 -74t74.5 -89.5t44.5 -103t19 -130z" />
    <glyph glyph-name="T" unicode="T" horiz-adv-x="731" 
d="M752 1233q-19 -4 -54 -8q-35 80 -62 110q-51 58 -134 58h-41v-1262q0 -17 4.5 -30t12.5 -21.5t16.5 -14t20 -8t18.5 -4t17 -2t11 -0.5v-51h-391v51q14 1 19 1.5t22.5 6t26 13t16.5 24t8 39.5v1258h-39q-25 0 -46.5 -5t-37 -11t-29.5 -19t-22.5 -22.5t-18.5 -27t-14 -27
t-12.5 -29.5t-11.5 -27l-51 8q2 28 19.5 101t35.5 104q17 28 49 28h4h553h4q32 0 49 -28q18 -31 37 -105t21 -100z" />
    <glyph glyph-name="U" unicode="U" horiz-adv-x="1054" 
d="M1004 1415q-1 0 -10 -0.5t-13.5 -1t-14.5 -3t-15.5 -5.5t-13 -9t-12 -13.5t-7.5 -19.5t-3 -26v-852q0 -49 -2 -90t-10.5 -96.5t-23 -98.5t-42 -88t-64.5 -75t-93.5 -49t-126.5 -19q-111 0 -196 42t-130 110q-50 75 -67 175t-17 239v798q0 12 -2 22t-5 17.5t-8.5 14
t-9.5 10.5t-11.5 7t-12 5t-13 3t-11.5 1.5t-10.5 1t-8.5 0.5v51h393v-51q-54 -5 -75 -22q-25 -20 -25 -60v-829q0 -66 3 -116.5t12 -104.5t26 -92.5t43 -70t66.5 -47.5t93.5 -16q232 0 235 422v860q0 19 -5.5 33.5t-13 22t-19.5 12.5t-19 6t-18.5 1.5t-12.5 0.5v51h269v-51z
" />
    <glyph glyph-name="V" unicode="V" horiz-adv-x="1028" 
d="M1049 1415q-1 0 -12 -0.5t-17.5 -1.5t-18.5 -5.5t-20.5 -11.5t-17 -20.5t-13.5 -32.5q-17 -57 -362 -1363h-123l-387 1363q-5 19 -14 32.5t-17 20.5t-20 11.5t-18.5 5.5t-17 1.5t-11.5 0.5v51h389v-51q-76 0 -76 -51q0 -7 4 -27q18 -57 287 -1069l268 1069q4 16 4 25
q0 53 -78 53v51h271v-51z" />
    <glyph glyph-name="W" unicode="W" horiz-adv-x="1572" 
d="M1593 1413q-2 0 -12.5 -0.5t-19 -1.5t-21 -5t-21.5 -11t-17.5 -21t-12.5 -33q-17 -58 -297 -1364h-119l-282 1131l-230 -1131h-119l-356 1362q-5 19 -14 33t-18 21.5t-22 12t-20.5 5.5t-19 1.5t-12.5 0.5v53h395v-53q-82 0 -82 -57q0 -15 2 -23q16 -59 252 -1001
l223 1153h119l299 -1153l203 1007q2 6 2 21q0 16 -6.5 27t-19.5 16t-21.5 7t-24.5 2l-16 1v53h288v-53z" />
    <glyph glyph-name="X" unicode="X" horiz-adv-x="956" 
d="M977 0h-408v51q11 0 23 1.5t28 6t26.5 16t10.5 27.5q0 12 -6 27l-209 465l-243 -465q-6 -15 -6 -29q0 -49 88 -49v-51h-301v51q83 9 120 80l297 563l-288 647q-5 10 -10.5 19t-10.5 15.5t-12 11.5t-12 9t-12.5 6.5t-11.5 4t-11 3t-10 2t-8.5 1t-6.5 0.5v53h395v-53
q-75 0 -75 -45q0 -19 6 -31l186 -417l219 417q6 15 6 29q0 47 -82 47v53h283v-53q-70 -8 -104 -72l-277 -522l307 -688q33 -72 109 -80v-51z" />
    <glyph glyph-name="Y" unicode="Y" horiz-adv-x="931" 
d="M973 1415q-74 -8 -105 -76q-17 -34 -130 -291t-156 -358v-18v-543q0 -17 4.5 -30t12 -21t16 -13.5t19.5 -8t18.5 -3.5t17 -1.5t10.5 -0.5v-51h-391v51q50 4 70 22q22 20 22 60v445v110q-205 434 -313 655q-8 15 -16.5 27t-18.5 19.5t-17.5 12.5t-18 7.5t-15.5 3.5t-14 1
l-9 1v51h363v-51q-56 0 -56 -39q0 -19 10 -39q27 -54 254 -542l238 542q8 16 8 35q0 43 -57 43v51h254v-51z" />
    <glyph glyph-name="Z" unicode="Z" horiz-adv-x="886" 
d="M887 266q-6 -31 -42.5 -125.5t-56.5 -115.5q-16 -16 -29 -20.5t-36 -4.5h-16h-707v45l643 1346h-283q-42 -1 -75 -10.5t-53 -22t-37 -35.5t-25 -38.5t-19 -41.5q-4 -9 -6 -14l-59 10q2 27 19.5 96.5t35.5 100.5q15 30 56 30h677l3 -45l-648 -1345h299q29 0 56 4t47.5 9.5
t41 17t34 19.5t29.5 24.5t24 25.5t20.5 28.5t16.5 26.5t15 27.5t13 24.5z" />
    <glyph glyph-name="bracketleft" unicode="[" horiz-adv-x="563" 
d="M526 -518h-381v2081h381v-58h-180v-1966h180v-57z" />
    <glyph glyph-name="backslash" unicode="\" horiz-adv-x="761" 
d="M700 -43h-135l-504 1604h134z" />
    <glyph glyph-name="bracketright" unicode="]" horiz-adv-x="563" 
d="M399 -518h-381v57h181v1966h-181v58h381v-2081z" />
    <glyph glyph-name="asciicircum" unicode="^" horiz-adv-x="997" 
d="M971 326h-131l-342 669l-342 -669h-129l430 815h90z" />
    <glyph glyph-name="underscore" unicode="_" 
d="M1022 -252h-1020v102h1020v-102z" />
    <glyph glyph-name="grave" unicode="`" 
d="M719 1059h-107l-233 147q-62 38 -62 78q0 26 19.5 42.5t48.5 16.5q26 0 45.5 -12.5t58.5 -50.5z" />
    <glyph glyph-name="a" unicode="a" horiz-adv-x="804" 
d="M780 0h-258l-10 129q-11 -44 -38 -76t-57.5 -46t-59 -22.5t-47.5 -8.5l-19 -1q-103 0 -176.5 72t-73.5 191q0 74 22 136t57.5 102t81 71t90.5 47.5t88.5 26t72.5 12t45 0.5q0 3 0.5 21.5t0 29t-1.5 32.5t-4 36.5t-8.5 35.5t-13.5 35t-20 29.5t-28 25t-37.5 15.5t-47.5 6
q-37 0 -70 -15t-53 -32t-41.5 -48t-28 -43.5t-18.5 -37.5q-12 0 -57 8l59 213h49q3 -12 14.5 -13t30.5 5t40.5 13.5t52.5 14.5t59 7q167 0 233 -66q14 -15 25.5 -31.5t19 -39.5t13.5 -38.5t9.5 -46.5t6 -44t3.5 -50t1 -45.5v-50v-45.5v-389q0 -23 7.5 -38.5t21 -22t24 -9
t25.5 -2.5h16v-53zM498 557q-13 0 -33 2t-46 -6t-52.5 -18t-52 -34t-45.5 -54t-32 -79t-12 -108q0 -53 9 -91.5t38 -67t76 -27.5q43 1 74.5 27t46 68.5t21 82t6.5 80.5q2 57 2 225z" />
    <glyph glyph-name="b" unicode="b" horiz-adv-x="974" 
d="M934 475q0 -213 -101.5 -355.5t-275.5 -142.5q-80 0 -143 44.5t-88 107.5q2 -43 2 -129h-277v51h16.5t26 2.5t24.5 9t21.5 22t7.5 38.5v1302q0 21 -7 35.5t-20 21.5t-23 10.5t-24.5 5t-15.5 1.5v51h279v-698q64 121 207 121q110 0 200 -67t140.5 -181t50.5 -250zM741 475
q0 98 -9 170t-31 130.5t-62.5 89t-99.5 30.5q-98 0 -150.5 -106t-52.5 -316q0 -205 53.5 -312.5t149.5 -107.5q59 0 99.5 30.5t62.5 90t31 131.5t9 170z" />
    <glyph glyph-name="c" unicode="c" horiz-adv-x="778" 
d="M768 289q0 -20 -10 -54.5t-34.5 -80.5t-60 -85t-94.5 -66.5t-129 -27.5q-57 0 -110 14t-107 50t-93.5 91t-64 143t-24.5 200q0 140 50.5 252.5t144 178t213.5 65.5q26 0 49.5 -3.5t39.5 -8.5t29.5 -10.5t22 -9.5t15 -6t9.5 0.5t4 10.5q17 2 54 2l57 -201l-63 -8
q-12 26 -19 39.5t-27.5 40t-41.5 40.5t-57.5 26t-80.5 12q-62 0 -105 -35t-64 -98.5t-29.5 -131.5t-8.5 -155q0 -75 11 -145.5t33.5 -134.5t64.5 -103t98 -39q53 0 96 20t67.5 48.5t41 63t22 61t5.5 45.5h96z" />
    <glyph glyph-name="d" unicode="d" horiz-adv-x="972" 
d="M922 0h-273v131q-25 -63 -88 -108.5t-143 -45.5q-174 0 -275.5 142.5t-101.5 355.5q0 136 50.5 250t140.5 181t200 67q143 0 207 -121v571q0 18 -5.5 31.5t-12 21t-18.5 12.5t-19 6.5t-20 3t-15 1.5v51h278v-1427q0 -23 7.5 -38.5t21.5 -22t24 -9t25.5 -2.5h16.5v-51z
M639 473q0 210 -52.5 316t-150.5 106q-59 0 -100 -30.5t-63 -89t-31 -131t-9 -169.5q0 -77 5.5 -138t19.5 -115.5t36.5 -90.5t58.5 -57t83 -21q96 0 149.5 107.5t53.5 312.5z" />
    <glyph glyph-name="e" unicode="e" horiz-adv-x="827" 
d="M786 549h-544q-4 -31 -4 -76q0 -62 6 -118.5t22 -113t40.5 -98t65 -67t91.5 -25.5q53 0 96 29.5t66 71.5t35 78.5t12 58.5h98q0 -17 -10 -50.5t-35.5 -79.5t-61 -86.5t-94.5 -69t-129 -28.5q-57 0 -109.5 13.5t-106.5 48.5t-93.5 89.5t-64.5 143.5t-25 203
q0 215 112 355.5t296 140.5q81 0 143.5 -31t98 -76.5t58 -105.5t30 -109.5t7.5 -97.5zM612 633q-1 3 -4.5 36t-7 55t-15.5 57t-27.5 57t-44.5 38.5t-67 16.5q-87 0 -131 -66.5t-65 -193.5h362z" />
    <glyph glyph-name="f" unicode="f" horiz-adv-x="577" 
d="M741 1401q0 -54 -27 -83.5t-79 -29.5q-32 0 -55 24.5t-23 55.5q0 28 11.5 50.5t11.5 27.5q0 16 -19 26.5t-53 10.5q-73 0 -115 -92q-35 -79 -35 -332v-117h254l-16 -76h-238v-741q0 -19 5.5 -33.5t13 -22t19 -11.5t19.5 -5t18.5 -1.5t12.5 -0.5v-51h-358v51q1 0 10 0.5
t13 1t13.5 3t14.5 5.5t12.5 9t11 13.5t6.5 19.5t3 26v737h-131l16 76h117q0 185 18.5 298t79.5 198q38 54 99 87.5t139 33.5q104 0 167.5 -45t63.5 -113z" />
    <glyph glyph-name="g" unicode="g" horiz-adv-x="862" 
d="M852 -227q0 -75 -36 -135t-96 -97t-133 -56.5t-151 -19.5q-195 0 -305.5 75t-110.5 214q0 93 71.5 170t172.5 90q-18 0 -44 5.5t-59.5 18t-56 40.5t-22.5 67q0 42 36 74t77 44.5t69 10.5q-82 33 -135 126.5t-53 199.5q0 91 30 161.5t81 113t114 64.5t135 22q79 0 129 -25
q7 21 20 44.5t34.5 49.5t54 43t69.5 17q36 0 60 -18t24 -44q0 -74 -86 -74q-3 0 -15.5 0.5t-18 0t-17.5 -3.5t-19 -9t-15.5 -18t-14.5 -29q56 -32 105 -112.5t49 -182.5q0 -88 -30 -159.5t-80 -116.5t-114 -69t-135 -24q-6 0 -24 0.5t-26.5 0t-25.5 -1t-26 -3t-22 -5.5
t-20.5 -9.5t-15 -14.5t-11 -19.5t-3.5 -26.5t3.5 -27.5t8.5 -21.5t15.5 -16t17.5 -11.5t21.5 -8t22 -5t23.5 -2.5t21.5 -1h21h17.5q73 0 143 -15.5t133.5 -47.5t102.5 -90t39 -133zM602 600q0 291 -166 291q-168 0 -168 -291q0 -136 40.5 -217.5t127.5 -81.5t126.5 81
t39.5 218zM657 -242q0 95 -57.5 160.5t-163.5 65.5q-92 0 -158.5 -63.5t-66.5 -162.5q0 -93 59 -156t166 -63t164 62.5t57 156.5z" />
    <glyph glyph-name="h" unicode="h" horiz-adv-x="1017" 
d="M977 0h-375v51q1 0 10.5 0.5t14 1t14.5 3t16 5.5t14 9t12.5 13.5t7.5 19.5t3 26v504q0 41 -1.5 70t-5.5 61.5t-12 53.5t-21 39.5t-33.5 27t-47.5 8.5q-172 0 -221 -258q-6 -34 -10.5 -79t-7 -81t-3.5 -94t-1 -86.5v-92v-79.5q0 -23 7.5 -38.5t21.5 -22t24.5 -9t26 -2.5
h16.5v-51h-375v51q1 0 10.5 0.5t14.5 1t15 3t16 5.5t14 9t12.5 13.5t8 19.5t3.5 26v1296q0 17 -3.5 30t-11 21t-14.5 13.5t-17 8t-16.5 3.5t-15.5 1.5t-10 0.5v45h273v-770q10 24 17.5 40t31.5 47.5t52 51.5t77 36t108 16q146 0 206.5 -84t60.5 -254v-508q0 -23 7.5 -38.5
t21 -22t24 -9t25.5 -2.5h16v-51z" />
    <glyph glyph-name="i" unicode="i" horiz-adv-x="477" 
d="M348 1300q0 -54 -37.5 -91.5t-91.5 -37.5t-90.5 37.5t-36.5 91.5t36.5 92t90.5 38t91.5 -38t37.5 -92zM426 0h-375v51q1 0 10.5 0.5t14 1t14.5 3t16 5.5t14 9t12.5 13.5t7.5 19.5t3 26v684q0 17 -4 30t-11.5 21t-15 13.5t-18 8t-17 3.5t-16 1.5t-10.5 0.5v51h279v-817
q0 -19 6 -33.5t14.5 -21.5t21 -11.5t21 -5.5t20 -1.5t13.5 -0.5v-51z" />
    <glyph glyph-name="j" unicode="j" horiz-adv-x="440" 
d="M348 1288q0 -52 -37 -89.5t-90 -37.5t-90 37.5t-37 89.5t37 89.5t90 37.5t90 -37.5t37 -89.5zM332 -164q0 -39 -4.5 -79.5t-20.5 -94.5t-42 -94.5t-75 -69t-114 -28.5q-62 0 -109 19.5t-71 45.5t-38.5 60t-18 55t-3.5 37q0 43 25.5 85t77.5 42q25 0 42.5 -10t25 -24.5
t10.5 -25.5t3 -20q0 -32 -12 -62.5t-12 -36.5q0 -15 3 -29t10 -30t23.5 -25.5t39.5 -9.5q44 0 58.5 53t14.5 199v1020q0 16 -3.5 29t-11 21t-14 13.5t-17.5 8t-16.5 4t-15.5 1.5l-10 1v51h275v-1106z" />
    <glyph glyph-name="k" unicode="k" horiz-adv-x="903" 
d="M924 0h-375v51h7.5h9t9 0.5t10 1.5t8 3t7 5.5t4.5 8t2 10.5q0 21 -12 43q-56 100 -264 311v-309q0 -19 6 -33.5t14.5 -21.5t21 -11.5t21 -5.5t20 -1.5t13.5 -0.5v-51h-375v51q1 0 10.5 0.5t14 1t14.5 3t16 5.5t14 9t12.5 13.5t7.5 19.5t3 26v1288q0 17 -3.5 30
t-11.5 21.5t-14.5 14t-17.5 8t-17 4t-16 1.5l-10 1v51h277v-1007q39 41 150 149.5t122 120.5q14 17 14 33q0 22 -29 35.5t-57 13.5v51h326v-51q-59 -5 -129 -68q-115 -103 -260 -260q70 -66 171 -196.5t183 -249.5q9 -13 17.5 -23t15.5 -17t15.5 -12t13 -7.5t12.5 -4.5
t11 -2.5t10 -1t8 -0.5v-51z" />
    <glyph glyph-name="l" unicode="l" horiz-adv-x="475" 
d="M424 0h-373v53q1 0 12 0.5t16.5 1.5t16.5 3.5t17.5 7.5t13.5 13t10.5 21t3.5 29v1290q0 17 -4 30t-11 21t-14.5 13.5t-18 8t-16.5 3.5t-15.5 1.5t-10.5 0.5v51h279v-1423q0 -23 7.5 -38.5t21 -22t24 -9t25.5 -2.5h16v-53z" />
    <glyph glyph-name="m" unicode="m" horiz-adv-x="1568" 
d="M1528 0h-375v51q1 0 10.5 0.5t14 1t14.5 3t16 5.5t14 9t12.5 13.5t7.5 19.5t3 26v504q0 49 -2.5 83.5t-10 70t-21 57.5t-37 35.5t-56.5 13.5q-56 0 -98.5 -26t-68.5 -68t-42 -100.5t-22 -117t-6 -124.5v-332q0 -19 6 -33.5t14.5 -21.5t21 -11.5t21 -5.5t20 -1.5
t13.5 -0.5v-51h-381v51q1 0 9.5 0.5t12.5 1t13 2t14.5 4t14 6.5t13 10t9.5 13.5t7.5 18.5t2.5 24v506q0 43 -1 70t-4.5 60t-11.5 53t-21 38.5t-33 26.5t-48 8q-88 0 -140 -64.5t-79 -191.5q-12 -57 -18 -131.5t-6.5 -124t1 -139t1.5 -117.5q0 -19 6 -33.5t14 -21.5
t20.5 -11.5t21 -5.5t19.5 -1.5t13 -0.5v-51h-375v51q1 0 10.5 0.5t14 1t14.5 3t16 5.5t14 9t12.5 13.5t7.5 19.5t3 26v682q0 17 -4 30t-11.5 21.5t-14.5 14t-18.5 8t-17 4t-15.5 1.5l-11 1v51h268v-176q5 24 26 56t55.5 66t90.5 57.5t119 23.5q64 0 113 -16.5t74.5 -39
t41.5 -51.5t20.5 -46.5t6.5 -32.5v-3q4 20 22.5 49t52.5 62t94 55.5t132 22.5q146 0 207.5 -84.5t61.5 -253.5q0 -42 -0.5 -166t-1 -231t-0.5 -109q0 -19 6 -33.5t14 -21.5t20.5 -11.5t21 -5.5t19.5 -1.5t13 -0.5v-51z" />
    <glyph glyph-name="n" unicode="n" horiz-adv-x="1017" 
d="M977 0h-375v51q1 0 10.5 0.5t13.5 1t14 3t16 5.5t13.5 9t12 13.5t7.5 19.5t3 26v504q0 51 -1.5 83.5t-8.5 69.5t-19 58t-35 35t-55 14q-172 0 -221 -256q-11 -55 -16.5 -131t-6.5 -118.5t0 -146t1 -116.5q0 -19 6 -33.5t14.5 -21.5t21 -11.5t21 -5.5t20 -1.5t13.5 -0.5
v-51h-375v51q1 0 10.5 0.5t13.5 1t14 3t16 5.5t13.5 9t12 13.5t7.5 19.5t3 26v686q0 19 -6 33.5t-13 22t-19.5 12.5t-20 6t-19 1.5t-12.5 0.5v51h268v-176q7 25 26.5 55.5t53 65.5t89 58.5t120.5 23.5q153 0 213 -82.5t60 -253.5v-508q0 -19 6 -33.5t14.5 -21.5t21 -11.5
t21 -5.5t20 -1.5t13.5 -0.5v-51z" />
    <glyph glyph-name="o" unicode="o" horiz-adv-x="876" 
d="M836 471q0 -137 -48 -250t-139.5 -180.5t-210.5 -67.5q-127 0 -218.5 68t-135 179t-43.5 251q0 137 47.5 249.5t139 179.5t210.5 67t210.5 -67t139.5 -179.5t48 -249.5zM641 471q0 97 -9.5 169.5t-32 131t-63.5 89t-100 30.5t-100 -30.5t-63.5 -89t-32 -131t-9.5 -169.5
t9.5 -170t32 -132t63.5 -89.5t100 -30.5t100 30.5t63.5 89.5t32 132t9.5 170z" />
    <glyph glyph-name="p" unicode="p" horiz-adv-x="962" 
d="M922 471q0 -207 -112.5 -351.5t-279.5 -144.5q-143 0 -206 119v-483q0 -22 6.5 -36.5t20 -21.5t21.5 -10t25.5 -4.5t18.5 -1.5v-51h-369v51q1 0 10 0.5t15 2t16.5 4t18 8t15 13.5t11.5 21t4 29v1206q0 23 -7.5 38t-21.5 21t-25 8t-25.5 1.5t-16.5 -0.5v53h272v-131
q25 64 88.5 111t143.5 47q174 0 275.5 -142.5t101.5 -355.5zM731 471q0 97 -9.5 170t-32 132t-63.5 89.5t-100 30.5q-96 0 -149 -107.5t-53 -312.5q0 -210 52 -316t150 -106q59 0 100 30.5t63.5 89t32 131t9.5 169.5z" />
    <glyph glyph-name="q" unicode="q" horiz-adv-x="962" 
d="M922 889h-16.5t-25.5 -2.5t-24 -9t-21.5 -22t-7.5 -38.5v-1202q0 -16 4 -29t11.5 -21t15 -13.5t18 -8t17 -4t15.5 -2t10 -0.5v-51h-369v51q1 0 18 1.5t25 4.5t21.5 10t19.5 21.5t6 36.5v483q-63 -119 -207 -119q-110 0 -200 66.5t-140.5 180t-50.5 249.5
q0 213 101.5 355.5t275.5 142.5q80 0 144 -46.5t89 -109.5v129h271v-53zM639 473q0 205 -53.5 312.5t-149.5 107.5q-47 0 -83 -21t-58.5 -57t-36.5 -90.5t-19.5 -115.5t-5.5 -138q0 -97 9 -169.5t31 -131t63 -89t100 -30.5q98 0 150.5 106t52.5 316z" />
    <glyph glyph-name="r" unicode="r" horiz-adv-x="638" 
d="M659 831q0 -41 -22 -75.5t-72 -34.5q-29 0 -49 10t-28 27t-10.5 29t-2.5 24q0 21 12.5 41t12.5 25q0 6 -2 10q-4 8 -31 8h-2q-26 0 -47.5 -17.5t-35.5 -46.5t-21.5 -50.5t-12.5 -43.5q-24 -96 -24 -309v-88v-217q0 -23 7 -38.5t20 -22t22.5 -9t24.5 -2.5h16v-51h-363v51
q1 0 11.5 0.5t16 1.5t16 3.5t16.5 7.5t13 13t10 21t3 29v688q0 19 -5.5 33.5t-12.5 22t-18.5 12.5t-18.5 6t-18.5 1.5t-12.5 0.5v51h252v-143q5 27 16.5 53t32.5 55t58.5 46.5t85.5 17.5q75 0 119 -38t44 -102z" />
    <glyph glyph-name="s" unicode="s" horiz-adv-x="655" 
d="M614 248q0 -122 -80.5 -198.5t-207.5 -76.5q-49 0 -105.5 20.5t-62.5 20.5q-14 0 -17 -14h-59l-62 231l56 13q24 -56 58 -97t66 -59.5t60.5 -29.5t45.5 -12l18 -1q72 0 113.5 43t41.5 113q0 43 -24.5 78.5t-63 61t-85.5 50.5t-94 53.5t-85.5 62t-63 83.5t-24.5 112
q0 120 72 193.5t198 73.5q36 0 65.5 -10.5t48 -20.5t26.5 -10q11 0 14 14h49l61 -207l-55 -10q-20 47 -49 81.5t-56 50.5t-51 25t-38 10l-15 1q-65 0 -100 -37t-35 -100q0 -40 24.5 -73t63 -57t85.5 -48.5t94 -53.5t85.5 -64.5t63 -90t24.5 -121.5z" />
    <glyph glyph-name="t" unicode="t" horiz-adv-x="649" 
d="M633 293q0 -57 -2 -84q-1 -22 -2.5 -33.5t-6.5 -39.5t-13 -45.5t-24.5 -41.5t-38 -38t-55 -24t-75.5 -10q-52 0 -93.5 13t-68.5 32t-46 49.5t-29 57t-15.5 62t-6.5 57.5t-1 51v567h-136l17 76h119v369l184 80v-449h244l-19 -76h-225v-600q0 -119 26 -168t83 -49
q24 0 42.5 12t29 35.5t17.5 45.5t9.5 55.5t3 51t0.5 44.5h82z" />
    <glyph glyph-name="u" unicode="u" horiz-adv-x="1007" 
d="M956 0h-270l2 170q-6 -20 -16 -42.5t-31 -52t-47 -52t-67 -38.5t-89 -16q-53 0 -96.5 12t-74 35t-54 51.5t-38.5 67.5t-24.5 75.5t-14 83.5t-6 83.5t-1.5 83.5v354q0 19 -6.5 33.5t-14.5 22t-21.5 12.5t-22 6t-20.5 1.5t-13 0.5v51h284v-543q0 -43 0.5 -66t3.5 -65.5
t8.5 -68t16.5 -57.5t27 -50t41 -30.5t57 -12.5q103 0 156 121t53 342v305q0 19 -6 33.5t-14.5 21.5t-21 11.5t-21 5.5t-20 1.5t-13.5 0.5v51h284v-813q0 -17 4 -30t11 -21t14.5 -13.5t18 -8t16.5 -3.5t15.5 -1.5t10.5 -0.5v-51z" />
    <glyph glyph-name="v" unicode="v" horiz-adv-x="841" 
d="M862 891q-18 -2 -29 -4.5t-30 -21t-31 -52.5q-5 -13 -309 -840h-92l-308 844q-5 14 -11.5 25t-12.5 18.5t-14 13t-13 8.5t-13 5t-11.5 2.5t-10.5 1t-8 0.5v51h373v-51q-1 0 -9.5 -0.5t-13 -1t-13.5 -2t-14.5 -4t-12.5 -6.5t-10.5 -9.5t-6.5 -13t-1.5 -18t5.5 -23.5
q17 -48 205 -596l205 600q3 17 5 28.5t-6 20t-14 13t-18.5 7t-19.5 3.5t-17 1.5t-12 0.5v51h268v-51z" />
    <glyph glyph-name="w" unicode="w" horiz-adv-x="1263" 
d="M1284 889q-15 -1 -21.5 -2.5t-22.5 -8t-27.5 -23t-20.5 -42.5q-20 -56 -268 -842h-95l-211 688l-188 -688h-92l-275 846q-6 19 -15 32.5t-16.5 20.5t-18.5 11.5t-17 5.5t-16 1.5t-11 0.5v53h377v-53q-2 0 -11 -0.5t-15 -1t-16 -3t-16 -5.5t-13 -9.5t-9.5 -15t-2.5 -22
t5 -29.5q15 -50 162 -545l191 711h98l215 -713l164 547q3 19 5 33t-6 23.5t-13.5 14.5t-18 8.5t-19 4.5t-17 1.5t-11.5 0.5v53h266v-53z" />
    <glyph glyph-name="x" unicode="x" horiz-adv-x="901" 
d="M901 0h-393v51q23 0 49.5 10.5t26.5 34.5q0 16 -11 33q-1 1 -172 250q-38 -54 -86 -122t-70.5 -99.5t-23.5 -34.5q-6 -12 -6 -29q0 -12 6.5 -20.5t19 -12.5t21.5 -6t23 -3l14 -1v-51h-295v51q63 6 109 68l237 332l-254 372q-8 13 -16.5 23t-15 17t-14 12t-12.5 7.5
t-12 4.5t-9.5 2.5t-9 1t-7.5 0.5v51h381v-53q-14 0 -28.5 -2t-31 -12t-16.5 -27q0 -14 12 -35q0 -1 17 -25.5t55 -78t72 -103.5q36 51 75 105t57 79t19 27q11 22 11 31q0 12 -6.5 20t-18 12t-20.5 5.5t-21.5 2.5t-13.5 1v53h284v-53q-12 -1 -16 -1.5t-18 -4.5t-23.5 -10.5
t-24.5 -20.5t-30 -33q-16 -16 -205 -287l281 -407q48 -67 110 -74v-51z" />
    <glyph glyph-name="y" unicode="y" horiz-adv-x="819" 
d="M844 891q-18 -2 -29 -4.5t-30.5 -21t-30.5 -52.5q-1 -4 -93 -276t-190 -560t-111 -323q-30 -80 -49 -109q-52 -75 -149 -75q-76 0 -115 40.5t-39 81.5q0 51 22 80t60 29q78 0 78 -86q0 -5 -4 -19.5t-5.5 -25.5t5 -20t24.5 -9q29 0 46 28t34 83l99 311q-310 839 -314 856
q-5 16 -12 28t-15 19.5t-14.5 12t-16 7t-14.5 3.5t-13 1.5t-9 0.5v51h379v-51l-8 -1q-8 0 -11.5 -0.5t-12 -2t-13 -3t-12 -4.5t-11 -7t-8 -10t-5.5 -13t0 -16.5t5 -20.5q15 -46 199 -584q67 201 113.5 348.5t59.5 194.5l13 47q3 16 4.5 27.5t-6 19.5t-13.5 12.5t-18 7
t-19 3.5t-16.5 1.5t-11.5 0.5v51h277v-51z" />
    <glyph glyph-name="z" unicode="z" horiz-adv-x="794" 
d="M782 221l-59 -221h-703v51l498 817h-149q-63 0 -97 -10t-61 -35q-38 -36 -68 -112q-14 2 -65 10l59 221h617v-51l-490 -819h236q49 0 88 15t64.5 43.5t36.5 46t25 46.5l3 6q14 0 65 -8z" />
    <glyph glyph-name="braceleft" unicode="{" horiz-adv-x="563" 
d="M559 1505h-129q-51 0 -51 -65v-719q0 -47 -13.5 -83t-37 -57t-42.5 -32.5t-42.5 -19.5t-24.5 -9q3 -2 20 -8t33 -13t36.5 -23t35 -36t25 -54.5t10.5 -76.5v-706q0 -64 51 -64h127v-57h-295q-84 0 -84 100v740q0 45 -11 79t-24.5 50.5t-33 27t-28.5 12.5t-20 3v47
q8 0 18 1.5t29 11t33.5 24.5t25.5 46t11 72v764q0 42 19.5 72.5t66.5 30.5h295v-58z" />
    <glyph glyph-name="bar" unicode="|" horiz-adv-x="415" 
d="M270 -512h-125v2048h125v-2048z" />
    <glyph glyph-name="braceright" unicode="}" horiz-adv-x="563" 
d="M516 494q-11 -1 -20 -3t-28.5 -12.5t-33 -27t-24.5 -50.5t-11 -79v-740q0 -100 -84 -100h-295v57h127q54 0 54 64v706q0 50 13 88t35.5 59.5t41.5 33.5t42 20.5t25 9.5q-3 1 -19.5 7.5t-31.5 13t-35.5 22t-35 35t-25 52t-10.5 71.5v719q0 65 -54 65h-129v58h295
q47 0 66.5 -30.5t19.5 -72.5v-764q0 -41 11 -72t25.5 -46t33.5 -24.5t29 -11t18 -1.5v-47z" />
    <glyph glyph-name="asciitilde" unicode="~" horiz-adv-x="997" 
d="M936 631q-14 -46 -32 -81t-47.5 -67.5t-74.5 -49.5t-104 -17q-63 0 -134.5 28t-133.5 56t-101 28q-73 0 -108 -29.5t-54 -78.5l-86 31q14 46 32 81t47.5 67.5t74.5 49.5t104 17q49 0 106 -17.5t99 -39t88 -39t76 -17.5q73 0 109 30t55 79z" />
    <glyph glyph-name="uni00A0" unicode="&#xa0;" horiz-adv-x="1007" 
 />
    <glyph glyph-name="exclamdown" unicode="&#xa1;" horiz-adv-x="378" 
d="M317 842q0 -54 -36.5 -91.5t-90.5 -37.5t-91.5 37.5t-37.5 91.5t37.5 90.5t91.5 36.5t90.5 -36.5t36.5 -90.5zM295 -379q0 -23 -4.5 -45.5t-15 -47t-34 -39.5t-55.5 -15q-53 0 -78.5 45t-25.5 102q0 87 13 230t16 206q16 266 28 533h94l31 -529q5 -84 18 -229.5
t13 -210.5z" />
    <glyph glyph-name="cent" unicode="&#xa2;" horiz-adv-x="778" 
d="M758 289q0 -19 -7.5 -49.5t-27.5 -73t-48.5 -80t-77.5 -67.5t-108 -39v-109h-98v106q-53 6 -101 24.5t-94.5 57t-80 93t-54 137t-20.5 184.5q0 193 98 330t252 162v84h98v-82q26 -3 49.5 -9.5t36.5 -13t23 -11t14.5 -2.5t5.5 11q17 2 54 2l57 -201l-63 -8l-17.5 35
t-22 34.5t-33.5 38.5t-43.5 27t-60.5 19v-834q51 10 90 41t57.5 69.5t27 70t8.5 53.5h86zM391 57v830q-158 -45 -158 -414q0 -368 158 -416z" />
    <glyph glyph-name="sterling" unicode="&#xa3;" horiz-adv-x="948" 
d="M887 266q-6 -32 -41.5 -126t-54.5 -115q-16 -16 -28.5 -20.5t-33.5 -4.5h-14h-654v51q70 3 103 78.5t33 239.5q0 64 -4.5 133.5t-13.5 164t-13 144.5h-105v82h101q-8 140 -8 203q0 182 115.5 289.5t285.5 107.5q89 0 155.5 -22t102 -58.5t52 -77t16.5 -84.5
q0 -40 -22.5 -72t-63.5 -32q-88 0 -88 102q0 3 1 18t1 27q0 123 -152 123q-112 0 -160.5 -80t-48.5 -235q0 -53 12 -209h340v-82h-333q26 -301 26 -442q0 -108 -34.5 -190.5t-59.5 -102.5h61h177q29 0 56 4t47.5 9.5t41 17t34 19.5t29.5 24.5t24 25.5t20.5 28.5t16.5 26.5
t15 27.5t13 24.5z" />
    <glyph glyph-name="currency" unicode="&#xa4;" horiz-adv-x="1036" 
d="M961 356l-66 -67l-137 135q-118 -84 -240 -84q-130 0 -242 84l-135 -135l-67 67l137 131q-82 125 -82 238q0 120 82 238l-137 133l67 67l135 -135q117 84 242 84q123 0 240 -84l137 135l66 -67l-136 -133q82 -121 82 -238q0 -111 -82 -238zM813 727q0 125 -90 208
t-205 83q-123 0 -208 -85.5t-85 -205.5q0 -121 86 -208t207 -87q120 0 207.5 87t87.5 208z" />
    <glyph glyph-name="yen" unicode="&#xa5;" horiz-adv-x="913" 
d="M954 1415q-75 -8 -106 -76q-10 -20 -64 -153t-117 -288.5t-85 -207.5v-6h239v-82h-239v-135h239v-82h-239v-256q0 -17 4.5 -30t12 -21t16 -13.5t19.5 -8t18.5 -3.5t17 -1.5t10.5 -0.5v-51h-391v51q50 4 70 22q22 20 22 60v252h-234v82h234v135h-234v82h234v4
q-205 434 -313 655q-8 15 -16.5 27t-18.5 19.5t-17.5 12.5t-18 7.5t-15.5 3.5t-14 1l-9 1v51h363v-51q-56 0 -56 -39q0 -13 13 -39q24 -54 251 -542l220 542q8 19 8 35q0 43 -58 43v51h254v-51z" />
    <glyph glyph-name="brokenbar" unicode="&#xa6;" horiz-adv-x="415" 
d="M270 666h-125v716h125v-716zM270 -358h-125v716h125v-716z" />
    <glyph glyph-name="section" unicode="&#xa7;" horiz-adv-x="940" 
d="M889 113q0 -100 -31 -180t-78.5 -129t-110.5 -81t-122 -44.5t-117 -12.5q-84 0 -151 23t-105 56t-63.5 73.5t-34 72t-8.5 54.5q0 94 79 94q38 0 57 -29.5t19 -64.5q0 -29 3.5 -55t15 -56t31 -51.5t54.5 -36t81 -14.5q37 0 69.5 10.5t64 35.5t50 75t18.5 120
q0 66 -41.5 155.5t-103.5 177.5t-134.5 193.5t-134.5 202t-103.5 205.5t-41.5 201q0 81 25 147t65.5 109t95 72.5t110.5 42t114 12.5q82 0 146 -20.5t98.5 -49.5t56.5 -65.5t28.5 -63.5t6.5 -49q0 -34 -22 -61t-64 -27q-35 0 -55.5 28.5t-20.5 61.5v29q0 151 -162 151
q-66 0 -103.5 -47.5t-37.5 -132.5q0 -72 41.5 -165t103 -181.5t134 -192.5t134 -198t103 -199.5t41.5 -195.5zM772 84q0 65 -21.5 136t-67 152t-84.5 141t-105 153q-4 5 -39 54t-40.5 57.5t-35.5 52t-37 57t-30.5 52.5t-30 58.5t-21 55t-19 61t-9.5 58t-5 63.5q0 90 25 125
l-4 4q-11 -6 -27 -27.5t-33.5 -72t-17.5 -109.5q0 -65 16 -129t52.5 -137t64.5 -120t82 -131q5 -8 8 -12.5t7 -11t8 -12.5q28 -43 82 -122t85 -128t66.5 -114.5t52.5 -124.5t17 -115q0 -47 -4.5 -83.5t-12.5 -58.5t-14.5 -34t-15.5 -23t-11 -14q119 65 119 299z" />
    <glyph glyph-name="dieresis" unicode="&#xa8;" 
d="M748 1198q0 -39 -28 -66.5t-67 -27.5q-40 0 -67 27t-27 67q0 38 27 65t67 27q39 0 67 -27t28 -65zM467 1198q0 -40 -27 -67t-65 -27q-39 0 -67.5 27.5t-28.5 66.5q0 38 28.5 65t67.5 27q38 0 65 -27t27 -65z" />
    <glyph glyph-name="copyright" unicode="&#xa9;" horiz-adv-x="1503" 
d="M1452 725q0 -204 -95 -378.5t-256 -276t-349 -101.5q-140 0 -269.5 60t-224 161.5t-151 241.5t-56.5 293t56.5 293t151 241.5t224 161.5t269.5 60q188 0 349 -101.5t256 -276t95 -378.5zM1327 727q0 177 -77.5 327t-210.5 237t-289 87t-289 -87t-211 -237t-78 -327
t78 -326.5t211 -236t289 -86.5t289 86.5t210.5 236t77.5 326.5zM1034 573q0 -13 -4.5 -39.5t-15 -68t-32 -82.5t-51 -78.5t-77 -60.5t-104.5 -23q-110 0 -189 72t-115 185t-36 253t36.5 253t115 184t186.5 71q53 0 114 -22l8 -5v15h62l72 -217l-66 -15q-39 79 -84 121.5
t-106 42.5q-97 0 -152 -117t-55 -309q0 -194 55.5 -311t153.5 -117q50 0 90.5 34t62 81.5t32.5 88.5t11 64h88z" />
    <glyph glyph-name="ordfeminine" unicode="&#xaa;" horiz-adv-x="647" 
d="M584 408h-185q-2 14 -2 34q-26 -23 -61.5 -35.5t-57.5 -14.5l-22 -1q-82 0 -138.5 57t-56.5 150q0 60 18 109t49 80t65.5 53.5t74 34t68 16.5t53.5 6q0 26 -1 42.5t-5.5 40.5t-14 38t-27.5 24.5t-44 10.5q-47 0 -77.5 -33t-63.5 -98q-25 2 -78 12l53 190h53l13 -8
q55 25 102 25q45 0 81 -13t59 -32t39 -51t24 -58t12.5 -67t5 -64t0.5 -61v-287q0 -18 6.5 -23.5t22.5 -5.5q17 0 35 -4v-67zM586 201h-496v86h496v-86zM387 647v156q-19 2 -42 -0.5t-51.5 -14t-51.5 -32t-38.5 -60t-15.5 -92.5t21 -87t63 -34q59 0 87 46t28 118z" />
    <glyph glyph-name="guillemotleft" unicode="&#xab;" horiz-adv-x="952" 
d="M877 164l-48 -53l-378 372l378 381l45 -55q-88 -128 -144 -209t-68 -98l-13 -17q31 -37 228 -321zM487 164l-47 -53l-379 372l379 381l45 -55q-88 -128 -144 -209t-69 -98l-12 -17q30 -37 227 -321z" />
    <glyph glyph-name="logicalnot" unicode="&#xac;" horiz-adv-x="997" 
d="M936 301h-127v246h-748v125h875v-371z" />
    <glyph glyph-name="uni00AD" unicode="&#xad;" horiz-adv-x="782" 
d="M721 506h-660v98h660v-98z" />
    <glyph glyph-name="registered" unicode="&#xae;" horiz-adv-x="1503" 
d="M1452 725q0 -204 -95 -378.5t-256 -276t-349 -101.5q-140 0 -269.5 60t-224 161.5t-151 241.5t-56.5 293t56.5 293t151 241.5t224 161.5t269.5 60q188 0 349 -101.5t256 -276t95 -378.5zM1327 727q0 177 -77.5 327t-210.5 237t-289 87t-289 -87t-211 -237t-78 -327
t78 -326.5t211 -236t289 -86.5t289 86.5t210.5 236t77.5 326.5zM1096 254h-187q-19 114 -104.5 286t-142.5 203q0 2 1 29t-1 33q14 0 29 1.5t42 12t46.5 28t34.5 53.5t15 85q0 45 -12 77.5t-29 50t-43 28t-46.5 13t-47.5 3.5h-18v-811q-1 -16 7 -21.5t24 -5.5q2 -1 30 -4
v-61h-243v63q33 0 45 7q12 4 12 26v795q0 16 -6.5 21.5t-22.5 7.5q-14 0 -28 2v61h208q42 0 81 -6t79.5 -23t70.5 -43.5t49 -70.5t19 -101q0 -7 -1 -18.5t-8.5 -43.5t-21 -60t-43 -59.5t-69.5 -49.5q45 -54 107 -176t98 -224q2 -5 6 -12t23.5 -20t46.5 -15v-61z" />
    <glyph glyph-name="macron" unicode="&#xaf;" 
d="M768 1143h-512v112h512v-112z" />
    <glyph glyph-name="degree" unicode="&#xb0;" horiz-adv-x="514" 
d="M453 948q0 -80 -57.5 -137t-139.5 -57q-80 0 -137.5 57.5t-57.5 136.5q0 81 57.5 137t137.5 56q82 0 139.5 -56t57.5 -137zM375 948q0 50 -34.5 84.5t-84.5 34.5q-49 0 -83 -34.5t-34 -84.5t33.5 -83.5t83.5 -33.5t84.5 34t34.5 83z" />
    <glyph glyph-name="plusminus" unicode="&#xb1;" horiz-adv-x="997" 
d="M936 524h-375v-329h-123v329h-377v125h377v332h123v-332h375v-125zM934 -2h-873v125h873v-125z" />
    <glyph glyph-name="twosuperior" unicode="&#xb2;" horiz-adv-x="647" 
d="M586 971q-2 -4 -13.5 -38t-23.5 -64t-19 -40q-14 -20 -55 -20h-10h-2h-361l-20 41q25 12 61.5 39.5t79 71t78.5 93.5t60 113t24 123q0 146 -115 146q-44 0 -73 -12t-40 -31.5t-14.5 -33t-3.5 -28.5v-6h-78v14q0 43 22.5 75t54.5 46.5t64 22.5t54 9l23 1q116 0 183.5 -52
t67.5 -151q0 -65 -31.5 -132t-76 -116t-92.5 -89t-80 -60.5t-39 -22.5h84q87 0 129 19q57 29 102 102z" />
    <glyph glyph-name="threesuperior" unicode="&#xb3;" horiz-adv-x="632" 
d="M571 989q0 -64 -42.5 -110t-102.5 -66t-127 -20q-56 0 -100 9.5t-69 23t-41.5 31.5t-22 33t-5.5 28q0 24 13.5 42.5t40.5 18.5q17 0 29 -5t18 -14.5t9 -16.5t5 -17t2 -11q4 -14 8.5 -22t17 -21t37 -19.5t60.5 -6.5q45 0 84 34t39 109q0 81 -38.5 113.5t-86.5 32.5
q-19 0 -25 -2l-20 59q33 2 53.5 7t42 18.5t31.5 41.5t10 72q0 107 -98 107q-111 0 -111 -78q0 -4 1 -10t1 -7q0 -63 -51 -63q-26 0 -38.5 19.5t-12.5 39.5q0 59 59 105.5t158 46.5q101 0 169.5 -44.5t68.5 -115.5q0 -38 -17.5 -68t-39 -45.5t-52.5 -27t-47 -14.5t-33 -5
q46 -1 82.5 -11.5t59 -26.5t39.5 -35.5t24.5 -38.5t12 -34.5t4.5 -25.5z" />
    <glyph glyph-name="acute" unicode="&#xb4;" 
d="M713 1284q0 -40 -62 -78l-233 -147h-107l230 221q39 38 58.5 50.5t45.5 12.5q29 0 48.5 -16.5t19.5 -42.5z" />
    <glyph glyph-name="mu" unicode="&#xb5;" horiz-adv-x="1007" 
d="M956 0h-270l2 170q-6 -20 -16 -42.5t-31 -52t-47 -52t-67 -38.5t-89 -16q-36 0 -72.5 13t-48.5 30v-301h-190v1106q0 19 -6 33.5t-14.5 22t-21.5 12.5t-21 6t-20 1.5t-13 0.5v51h286v-653q0 -49 7.5 -90t24.5 -76.5t47.5 -55.5t72.5 -20q103 0 156 121t53 342v307
q0 19 -6 33.5t-14.5 21.5t-21 11.5t-21 5.5t-20 1.5t-13.5 0.5v51h284v-815q0 -17 4 -30t11 -21t14.5 -13.5t18 -8t16.5 -3.5t15.5 -1.5t10.5 -0.5v-51z" />
    <glyph glyph-name="paragraph" unicode="&#xb6;" horiz-adv-x="872" 
d="M811 -199h-209v1590h-84v-1590h-213v52l16 1q16 0 26 2.5t24.5 9t22 22t7.5 38.5q-2 39 -4 813h-2q-11 0 -31.5 3.5t-53.5 14.5t-67 27t-69 45t-62 65.5t-44 91t-17 118.5q0 99 34 172t92.5 113.5t127 59.5t148.5 19h358v-51q-1 0 -10.5 -0.5t-16 -1.5t-17 -3.5t-18 -8
t-15 -13.5t-11.5 -21t-4 -30l2 -1409q0 -16 3.5 -29t11 -21t13.5 -13t17.5 -8t16.5 -4t17 -1l11 -1v-52z" />
    <glyph glyph-name="periodcentered" unicode="&#xb7;" horiz-adv-x="378" 
d="M317 479q0 -54 -37.5 -90.5t-91.5 -36.5t-90.5 36.5t-36.5 90.5t36.5 91.5t90.5 37.5t91.5 -37.5t37.5 -91.5z" />
    <glyph glyph-name="cedilla" unicode="&#xb8;" 
d="M678 -209q0 -83 -55.5 -122.5t-135.5 -39.5q-34 0 -64.5 10t-45 19t-37.5 27l43 82q6 -5 17.5 -15.5t17.5 -14.5t16 -10t20.5 -8t24.5 -2q34 0 56 15t22 43q0 21 -15.5 33t-39.5 12q-19 0 -41 -19l-58 23l31 182l84 -10l-16 -84q14 2 43 2q55 0 94 -35.5t39 -87.5z" />
    <glyph glyph-name="onesuperior" unicode="&#xb9;" horiz-adv-x="364" 
d="M303 809h-242v45q50 0 50 47v481q0 12 -3 20.5t-7.5 13t-11 8t-11 4t-10.5 1.5t-7 1v47h189v-578q0 -14 4.5 -23.5t12 -13.5t13.5 -5.5t14 -2t9 -0.5v-45z" />
    <glyph glyph-name="ordmasculine" unicode="&#xba;" horiz-adv-x="692" 
d="M631 768q0 -76 -17 -142t-51 -119t-90 -83.5t-127 -30.5q-76 0 -132.5 30.5t-89 84t-48 118.5t-15.5 142q0 103 29.5 186t95.5 136t160 53q95 0 161 -53.5t95 -136t29 -185.5zM594 211h-492v86h492v-86zM496 768q0 133 -40.5 211t-109.5 78q-70 0 -110.5 -78t-40.5 -211
q0 -131 40.5 -209t110.5 -78q69 0 109.5 77.5t40.5 209.5z" />
    <glyph glyph-name="guillemotright" unicode="&#xbb;" horiz-adv-x="952" 
d="M877 483l-379 -372l-47 53q88 127 144.5 207t69.5 97l13 17q-28 36 -225 324l45 55zM487 483l-378 -372l-48 53q88 127 145 207t70 97l13 17q-29 36 -226 324l46 55z" />
    <glyph glyph-name="onequarter" unicode="&#xbc;" horiz-adv-x="1105" 
d="M303 809h-242v45q50 0 50 47v481q0 12 -3 20.5t-7.5 13t-11 8t-11 4t-10.5 1.5t-7 1v47h189v-578q0 -14 4.5 -23.5t12 -13.5t13.5 -5.5t14 -2t9 -0.5v-45zM872 1468l-614 -1468h-98l612 1464zM1044 244l-12 -70h-92v-164l-137 -28v192h-254l-45 51l332 459l104 -6v-434
h104zM801 242v290l-207 -290h207z" />
    <glyph glyph-name="onehalf" unicode="&#xbd;" horiz-adv-x="1247" 
d="M303 809h-242v45q50 0 50 47v481q0 12 -3 20.5t-7.5 13t-11 8t-11 4t-10.5 1.5t-7 1v47h189v-578q0 -14 4.5 -23.5t12 -13.5t13.5 -5.5t14 -2t9 -0.5v-45zM1186 162q-2 -6 -13.5 -38t-23.5 -63t-19 -41q-16 -20 -55 -20h-10h-2h-361l-20 41q25 12 61.5 39.5t79 71
t78.5 93.5t60 113t24 123q0 146 -115 146q-44 0 -73 -12t-40 -31.5t-14.5 -33t-3.5 -28.5v-6h-77v14q0 43 22.5 75t54 46.5t63.5 22.5t54 9l23 1q114 0 182.5 -52.5t68.5 -150.5q0 -65 -31.5 -131.5t-76 -115.5t-92.5 -89.5t-80 -61t-39 -22.5h84q87 0 129 19q57 29 102 102
zM874 1468l-614 -1468h-98l612 1464z" />
    <glyph glyph-name="threequarters" unicode="&#xbe;" horiz-adv-x="1280" 
d="M571 989q0 -64 -42.5 -110t-102.5 -66t-127 -20q-56 0 -100 9.5t-69 23t-41.5 31.5t-22 33t-5.5 28q0 24 13.5 42.5t40.5 18.5q17 0 29 -5t18 -14.5t9 -16.5t5 -17t2 -11q4 -14 8.5 -22t17 -21t37 -19.5t60.5 -6.5q45 0 84 34t39 109q0 81 -38.5 113.5t-86.5 32.5
q-19 0 -25 -2l-20 59q33 2 53.5 7t42 18.5t31.5 41.5t10 72q0 107 -98 107q-111 0 -111 -78q0 -4 1 -10t1 -7q0 -63 -51 -63q-26 0 -38.5 19.5t-12.5 39.5q0 59 59 105.5t158 46.5q101 0 169.5 -44.5t68.5 -115.5q0 -38 -17.5 -68t-39 -45.5t-52.5 -27t-47 -14.5t-33 -5
q46 -1 82.5 -11.5t59 -26.5t39.5 -35.5t24.5 -38.5t12 -34.5t4.5 -25.5zM1047 1468l-615 -1468h-98l612 1464zM1219 244l-13 -70h-92v-164l-137 -28v192h-254l-45 51l332 459l104 -6v-434h105zM975 242v290l-207 -290h207z" />
    <glyph glyph-name="questiondown" unicode="&#xbf;" horiz-adv-x="790" 
d="M625 844q0 -54 -37.5 -91.5t-91.5 -37.5t-91.5 37.5t-37.5 91.5t37.5 90.5t91.5 36.5t91.5 -36.5t37.5 -90.5zM715 -268q0 -99 -84 -176.5t-234 -77.5q-163 0 -266.5 109t-103.5 270q0 96 38 175.5t90.5 125.5t113 78.5t101 44t58.5 12.5l18 295h95l16 -361h-4
q-14 0 -31 -1.5t-49 -9.5t-60.5 -22t-61 -42t-55.5 -65.5t-38.5 -97t-15.5 -132.5q0 -39 2 -71t7.5 -70t16.5 -66t28 -52.5t43.5 -37.5t61.5 -13q150 0 150 134q0 11 -1 26t-1 17q0 106 82 106q41 0 62.5 -33t21.5 -65z" />
    <glyph glyph-name="Agrave" unicode="&#xc0;" horiz-adv-x="1026" 
d="M1047 0h-390v51q78 0 78 53q0 17 -2 25q-43 179 -110 446h-328q-25 -102 -53 -207.5t-45.5 -169t-18.5 -69.5q-2 -8 -2 -25q0 -53 78 -53v-51h-274v51q1 0 11.5 0.5t16.5 1.5t17.5 5.5t19.5 11.5t17 20.5t14 32.5l377 1372h118l377 -1372q5 -19 14 -32.5t17.5 -20.5
t20.5 -11.5t18.5 -5.5t17 -1.5t11.5 -0.5v-51zM600 653q-71 322 -141 568l-146 -568h287zM686 1583h-106l-234 148q-61 38 -61 77q0 26 19 43t48 17q26 0 45.5 -13t59.5 -51z" />
    <glyph glyph-name="Aacute" unicode="&#xc1;" horiz-adv-x="1026" 
d="M1047 0h-390v51q78 0 78 53q0 17 -2 25q-43 179 -110 446h-328q-25 -102 -53 -207.5t-45.5 -169t-18.5 -69.5q-2 -8 -2 -25q0 -53 78 -53v-51h-274v51q1 0 11.5 0.5t16.5 1.5t17.5 5.5t19.5 11.5t17 20.5t14 32.5l377 1372h118l377 -1372q5 -19 14 -32.5t17.5 -20.5
t20.5 -11.5t18.5 -5.5t17 -1.5t11.5 -0.5v-51zM600 653q-71 322 -141 568l-146 -568h287zM729 1808q0 -39 -61 -77l-234 -148h-106l229 221q40 38 59.5 51t45.5 13q29 0 48 -17t19 -43z" />
    <glyph glyph-name="Acircumflex" unicode="&#xc2;" horiz-adv-x="1026" 
d="M1047 0h-390v51q78 0 78 53q0 17 -2 25q-43 179 -110 446h-328q-25 -102 -53 -207.5t-45.5 -169t-18.5 -69.5q-2 -8 -2 -25q0 -53 78 -53v-51h-274v51q1 0 11.5 0.5t16.5 1.5t17.5 5.5t19.5 11.5t17 20.5t14 32.5l377 1372h118l377 -1372q5 -19 14 -32.5t17.5 -20.5
t20.5 -11.5t18.5 -5.5t17 -1.5t11.5 -0.5v-51zM600 653q-71 322 -141 568l-146 -568h287zM766 1583h-88l-172 166l-168 -166h-90l205 287h106z" />
    <glyph glyph-name="Atilde" unicode="&#xc3;" horiz-adv-x="1026" 
d="M1047 0h-390v51q78 0 78 53q0 17 -2 25q-43 179 -110 446h-328q-25 -102 -53 -207.5t-45.5 -169t-18.5 -69.5q-2 -8 -2 -25q0 -53 78 -53v-51h-274v51q1 0 11.5 0.5t16.5 1.5t17.5 5.5t19.5 11.5t17 20.5t14 32.5l377 1372h118l377 -1372q5 -19 14 -32.5t17.5 -20.5
t20.5 -11.5t18.5 -5.5t17 -1.5t11.5 -0.5v-51zM600 653q-71 322 -141 568l-146 -568h287zM754 1815q0 -76 -36 -130.5t-116 -54.5q-45 0 -90 18t-79.5 36t-53.5 18q-30 0 -52 -16.5t-22 -51.5h-67q0 37 6.5 68t22 59.5t45.5 45t73 16.5q51 0 124 -36t99 -36q35 0 55.5 13
t20.5 51h70z" />
    <glyph glyph-name="Adieresis" unicode="&#xc4;" horiz-adv-x="1026" 
d="M1047 0h-390v51q78 0 78 53q0 17 -2 25q-43 179 -110 446h-328q-25 -102 -53 -207.5t-45.5 -169t-18.5 -69.5q-2 -8 -2 -25q0 -53 78 -53v-51h-274v51q1 0 11.5 0.5t16.5 1.5t17.5 5.5t19.5 11.5t17 20.5t14 32.5l377 1372h118l377 -1372q5 -19 14 -32.5t17.5 -20.5
t20.5 -11.5t18.5 -5.5t17 -1.5t11.5 -0.5v-51zM600 653q-71 322 -141 568l-146 -568h287zM752 1722q0 -39 -28 -66.5t-67 -27.5q-40 0 -67 27t-27 67q0 38 27.5 65.5t66.5 27.5q38 0 66.5 -27.5t28.5 -65.5zM471 1722q0 -40 -27 -67t-65 -27q-39 0 -67.5 27.5t-28.5 66.5
q0 38 28.5 65.5t67.5 27.5q38 0 65 -27.5t27 -65.5z" />
    <glyph glyph-name="Aring" unicode="&#xc5;" horiz-adv-x="1026" 
d="M1047 0h-390v51q78 0 78 53q0 17 -2 25q-43 179 -110 446h-328q-25 -102 -53 -207.5t-45.5 -169t-18.5 -69.5q-2 -8 -2 -25q0 -53 78 -53v-51h-274v51q1 0 11.5 0.5t16.5 1.5t17.5 5.5t19.5 11.5t17 20.5t14 32.5l377 1372h118l377 -1372q5 -19 14 -32.5t17.5 -20.5
t20.5 -11.5t18.5 -5.5t17 -1.5t11.5 -0.5v-51zM600 653q-71 322 -141 568l-146 -568h287zM678 1749q0 -69 -48.5 -117.5t-117.5 -48.5t-117.5 48.5t-48.5 117.5q0 68 49 116t117 48t117 -48t49 -116zM604 1749q0 38 -27 64t-65 26q-37 0 -63.5 -26t-26.5 -64t26.5 -64
t63.5 -26q38 0 65 26t27 64z" />
    <glyph glyph-name="AE" unicode="&#xc6;" horiz-adv-x="1433" 
d="M1434 262q-8 -34 -45 -125t-56 -112q-14 -17 -26 -22t-33 -5h-17h-632v53q13 0 20 0.5t22.5 4t24.5 11t17 23t8 37.5v539h-266l-246 -525q-12 -28 -12 -41q0 -48 77 -51v-51h-290v51q2 0 13 1.5t13 2t11.5 3t13 5t11.5 7.5t13 11.5t12.5 15.5t15 21t15.5 27
q10 20 296 612.5t292 606.5q4 6 4 16q0 18 -14 25q-9 4 -19 6.5t-20 4t-12 1.5v51h327l285 -2h2h2q34 0 49 -28q18 -30 37 -98t21 -93q-19 -6 -54 -10q-31 71 -54 97q-53 59 -163 59h-157v-646h215q3 11 10 29t32.5 57t55.5 60l55 -25q-86 -75 -86 -217q0 -43 8 -76
q-14 -4 -65 -16q-17 37 -17 100v7h-208v-588h153q68 0 120 18t86.5 52t52.5 60.5t39 66.5q1 2 1.5 3.5t1.5 3t2 3.5zM717 743v500l-232 -500h232z" />
    <glyph glyph-name="Ccedilla" unicode="&#xc7;" horiz-adv-x="1034" 
d="M739 -209q0 -83 -55 -122.5t-135 -39.5q-34 0 -65 10t-45.5 19.5t-37.5 26.5l43 82q5 -4 17.5 -15t18 -15t16 -10t21 -8t24.5 -2q34 0 55.5 15t21.5 43q0 21 -15.5 33t-39.5 12q-19 0 -41 -19l-57 23l27 158q-202 44 -321.5 252.5t-119.5 496.5q0 210 65.5 382.5
t189.5 275t284 102.5q50 0 93 -11.5t69 -22.5t34 -11q14 0 17 24h59l94 -284l-59 -10q-27 53 -54.5 91.5t-64.5 73.5t-84.5 53.5t-103.5 18.5q-88 0 -152 -51t-101.5 -145t-55 -214t-17.5 -270q0 -151 17.5 -270.5t54.5 -213.5t101.5 -145t152.5 -51q72 0 132.5 38t96 91
t61 113.5t35 102t9.5 59.5h90q-1 -11 -5.5 -37.5t-18.5 -73.5t-33.5 -95.5t-53.5 -100t-76 -91t-103.5 -65t-133.5 -25.5q-11 0 -17 2l-10 -59q14 2 43 2q55 0 94 -35.5t39 -87.5z" />
    <glyph glyph-name="Egrave" unicode="&#xc8;" horiz-adv-x="868" 
d="M868 262q-6 -31 -42 -123.5t-56 -113.5q-16 -16 -28 -20.5t-33 -4.5h-15h-633v51q1 0 10.5 0.5t14.5 1t15 3t16.5 5.5t14.5 9t12.5 13.5t8 19.5t3.5 26v1200q0 77 -91 86h-4v51h328h285h4q32 0 49 -28q18 -31 35.5 -98t19.5 -93q-16 -6 -51 -10q-31 70 -52 94
q-55 62 -165 62h-158v-475h215q3 11 10.5 29t33 57t55.5 59l55 -37q-86 -75 -86 -207q0 -43 8 -74q-14 -4 -65 -16q-17 37 -17 100v7h-209v-760h152q55 0 100.5 13.5t73.5 31t54.5 48.5t38.5 50.5t29 50.5q5 9 7 13q19 -5 33.5 -10.5t19.5 -8.5zM594 1583h-107l-233 148
q-61 38 -61 77q0 26 19 43t48 17q26 0 45.5 -13t59.5 -51z" />
    <glyph glyph-name="Eacute" unicode="&#xc9;" horiz-adv-x="868" 
d="M868 262q-6 -31 -42 -123.5t-56 -113.5q-16 -16 -28 -20.5t-33 -4.5h-15h-633v51q1 0 10.5 0.5t14.5 1t15 3t16.5 5.5t14.5 9t12.5 13.5t8 19.5t3.5 26v1200q0 77 -91 86h-4v51h328h285h4q32 0 49 -28q18 -31 35.5 -98t19.5 -93q-16 -6 -51 -10q-31 70 -52 94
q-55 62 -165 62h-158v-475h215q3 11 10.5 29t33 57t55.5 59l55 -37q-86 -75 -86 -207q0 -43 8 -74q-14 -4 -65 -16q-17 37 -17 100v7h-209v-760h152q55 0 100.5 13.5t73.5 31t54.5 48.5t38.5 50.5t29 50.5q5 9 7 13q19 -5 33.5 -10.5t19.5 -8.5zM625 1808q0 -39 -62 -77
l-233 -148h-107l230 221q40 38 59 51t45 13q29 0 48.5 -17t19.5 -43z" />
    <glyph glyph-name="Ecircumflex" unicode="&#xca;" horiz-adv-x="868" 
d="M868 262q-6 -31 -42 -123.5t-56 -113.5q-16 -16 -28 -20.5t-33 -4.5h-15h-633v51q1 0 10.5 0.5t14.5 1t15 3t16.5 5.5t14.5 9t12.5 13.5t8 19.5t3.5 26v1200q0 77 -91 86h-4v51h328h285h4q32 0 49 -28q18 -31 35.5 -98t19.5 -93q-16 -6 -51 -10q-31 70 -52 94
q-55 62 -165 62h-158v-475h215q3 11 10.5 29t33 57t55.5 59l55 -37q-86 -75 -86 -207q0 -43 8 -74q-14 -4 -65 -16q-17 37 -17 100v7h-209v-760h152q55 0 100.5 13.5t73.5 31t54.5 48.5t38.5 50.5t29 50.5q5 9 7 13q19 -5 33.5 -10.5t19.5 -8.5zM655 1583h-88l-172 166
l-168 -166h-90l205 287h107z" />
    <glyph glyph-name="Edieresis" unicode="&#xcb;" horiz-adv-x="868" 
d="M868 262q-6 -31 -42 -123.5t-56 -113.5q-16 -16 -28 -20.5t-33 -4.5h-15h-633v51q1 0 10.5 0.5t14.5 1t15 3t16.5 5.5t14.5 9t12.5 13.5t8 19.5t3.5 26v1200q0 77 -91 86h-4v51h328h285h4q32 0 49 -28q18 -31 35.5 -98t19.5 -93q-16 -6 -51 -10q-31 70 -52 94
q-55 62 -165 62h-158v-475h215q3 11 10.5 29t33 57t55.5 59l55 -37q-86 -75 -86 -207q0 -43 8 -74q-14 -4 -65 -16q-17 37 -17 100v7h-209v-760h152q55 0 100.5 13.5t73.5 31t54.5 48.5t38.5 50.5t29 50.5q5 9 7 13q19 -5 33.5 -10.5t19.5 -8.5zM647 1722q0 -39 -27.5 -66.5
t-66.5 -27.5q-40 0 -67 27t-27 67q0 38 27.5 65.5t66.5 27.5q38 0 66 -27.5t28 -65.5zM367 1722q0 -40 -27.5 -67t-65.5 -27q-39 0 -67.5 27.5t-28.5 66.5q0 38 28.5 65.5t67.5 27.5q38 0 65.5 -27.5t27.5 -65.5z" />
    <glyph glyph-name="Igrave" unicode="&#xcc;" horiz-adv-x="516" 
d="M455 0h-394v51q20 1 30.5 3t28 9.5t26 25.5t8.5 46v1196q0 23 -8 40t-16 24.5t-26 12.5t-22 5.5t-21 1.5v51h394v-51q-20 -1 -31.5 -3t-30 -9.5t-28 -25.5t-9.5 -46v-1200q0 -15 3.5 -27t8 -20t13 -14t14.5 -9t17.5 -5.5t15.5 -3t16 -0.5l11 -1v-51zM469 1583h-107
l-233 148q-61 38 -61 77q0 26 19 43t48 17q26 0 45.5 -13t59.5 -51z" />
    <glyph glyph-name="Iacute" unicode="&#xcd;" horiz-adv-x="516" 
d="M455 0h-394v51q20 1 30.5 3t28 9.5t26 25.5t8.5 46v1196q0 23 -8 40t-16 24.5t-26 12.5t-22 5.5t-21 1.5v51h394v-51q-20 -1 -31.5 -3t-30 -9.5t-28 -25.5t-9.5 -46v-1200q0 -15 3.5 -27t8 -20t13 -14t14.5 -9t17.5 -5.5t15.5 -3t16 -0.5l11 -1v-51zM449 1808
q0 -39 -62 -77l-233 -148h-107l229 221q40 38 59.5 51t45.5 13q29 0 48.5 -17t19.5 -43z" />
    <glyph glyph-name="Icircumflex" unicode="&#xce;" horiz-adv-x="516" 
d="M455 0h-394v51q20 1 30.5 3t28 9.5t26 25.5t8.5 46v1196q0 23 -8 40t-16 24.5t-26 12.5t-22 5.5t-21 1.5v51h394v-51q-20 -1 -31.5 -3t-30 -9.5t-28 -25.5t-9.5 -46v-1200q0 -15 3.5 -27t8 -20t13 -14t14.5 -9t17.5 -5.5t15.5 -3t16 -0.5l11 -1v-51zM516 1583h-88
l-172 166l-168 -166h-90l205 287h106z" />
    <glyph glyph-name="Idieresis" unicode="&#xcf;" horiz-adv-x="516" 
d="M455 0h-394v51q20 1 30.5 3t28 9.5t26 25.5t8.5 46v1196q0 23 -8 40t-16 24.5t-26 12.5t-22 5.5t-21 1.5v51h394v-51q-20 -1 -31.5 -3t-30 -9.5t-28 -25.5t-9.5 -46v-1200q0 -15 3.5 -27t8 -20t13 -14t14.5 -9t17.5 -5.5t15.5 -3t16 -0.5l11 -1v-51zM492 1722
q0 -39 -28 -66.5t-67 -27.5q-40 0 -67 27t-27 67q0 38 27.5 65.5t66.5 27.5q38 0 66.5 -27.5t28.5 -65.5zM211 1722q0 -40 -27 -67t-65 -27q-39 0 -67.5 27.5t-28.5 66.5q0 38 28.5 65.5t67.5 27.5q38 0 65 -27.5t27 -65.5z" />
    <glyph glyph-name="Eth" unicode="&#xd0;" horiz-adv-x="1064" 
d="M1022 737q0 -138 -22 -250.5t-56.5 -187.5t-85 -131.5t-100.5 -87.5t-110.5 -50t-106.5 -24.5t-97 -5.5h-374v51q50 4 68 22q22 21 22 60v739h-99v80h99l2 383q0 17 -4 30t-11.5 21.5t-14.5 14t-18.5 8t-17 4t-16.5 1.5l-10 1v51h331q50 0 98 -5.5t112.5 -24.5t119 -50
t110 -87t94 -130t63 -185t24.5 -247zM809 731q0 129 -18 233.5t-46 171.5t-68.5 117t-77.5 75t-83 40t-75 18t-62 3h-17v-437h189v-80h-189v-794h39h5q29 0 47.5 1t53.5 7t59.5 17t58.5 34t57.5 54.5t49 82t41.5 113.5t26 151t10 193z" />
    <glyph glyph-name="Ntilde" unicode="&#xd1;" horiz-adv-x="1077" 
d="M1016 1415q-1 0 -10 -0.5t-13 -1t-14 -3t-15 -5.5t-12.5 -9t-11.5 -13.5t-7 -19.5t-3 -26v-1337h-133l-561 1155v-1030q0 -19 5.5 -33.5t13 -22t19 -11.5t19.5 -5t18.5 -1.5t12.5 -0.5v-51h-263v51q1 0 10 0.5t13 1t13.5 3t14.5 5.5t12.5 9t11 13.5t6.5 19.5t3 26v1337
h164l531 -1138v1013q0 19 -5.5 33.5t-13 22t-19 11.5t-19.5 5t-18.5 1.5t-12.5 0.5v51h264v-51zM807 1815q0 -76 -36 -130.5t-116 -54.5q-45 0 -90 18t-79.5 36t-53.5 18q-30 0 -52 -16.5t-22 -51.5h-67q0 37 6.5 68t22 59.5t45.5 45t73 16.5q51 0 124.5 -36t99.5 -36
q35 0 55 13t20 51h70z" />
    <glyph glyph-name="Ograve" unicode="&#xd2;" horiz-adv-x="1185" 
d="M1135 731q0 -211 -64 -383t-189.5 -275.5t-289.5 -103.5q-99 0 -185.5 39t-151 108.5t-111 164.5t-70 209.5t-23.5 240.5q0 211 63.5 382.5t188.5 274.5t289 103t289.5 -103t189.5 -274.5t64 -382.5zM924 733q0 680 -332 680q-330 0 -330 -680t330 -680q332 0 332 680z
M795 1583h-107l-233 148q-62 38 -62 77q0 26 19.5 43t48.5 17q26 0 45 -13t59 -51z" />
    <glyph glyph-name="Oacute" unicode="&#xd3;" horiz-adv-x="1185" 
d="M1135 731q0 -211 -64 -383t-189.5 -275.5t-289.5 -103.5q-99 0 -185.5 39t-151 108.5t-111 164.5t-70 209.5t-23.5 240.5q0 211 63.5 382.5t188.5 274.5t289 103t289.5 -103t189.5 -274.5t64 -382.5zM924 733q0 680 -332 680q-330 0 -330 -680t330 -680q332 0 332 680z
M795 1808q0 -39 -62 -77l-233 -148h-107l230 221q40 38 59 51t45 13q29 0 48.5 -17t19.5 -43z" />
    <glyph glyph-name="Ocircumflex" unicode="&#xd4;" horiz-adv-x="1185" 
d="M1135 731q0 -211 -64 -383t-189.5 -275.5t-289.5 -103.5q-99 0 -185.5 39t-151 108.5t-111 164.5t-70 209.5t-23.5 240.5q0 211 63.5 382.5t188.5 274.5t289 103t289.5 -103t189.5 -274.5t64 -382.5zM924 733q0 680 -332 680q-330 0 -330 -680t330 -680q332 0 332 680z
M852 1583h-88l-172 166l-168 -166h-90l205 287h106z" />
    <glyph glyph-name="Otilde" unicode="&#xd5;" horiz-adv-x="1185" 
d="M1135 731q0 -211 -64 -383t-189.5 -275.5t-289.5 -103.5q-99 0 -185.5 39t-151 108.5t-111 164.5t-70 209.5t-23.5 240.5q0 211 63.5 382.5t188.5 274.5t289 103t289.5 -103t189.5 -274.5t64 -382.5zM924 733q0 680 -332 680q-330 0 -330 -680t330 -680q332 0 332 680z
M842 1815q0 -76 -36 -130.5t-116 -54.5q-45 0 -90 18t-79.5 36t-53.5 18q-30 0 -52 -16.5t-22 -51.5h-67q0 37 6.5 68t22 59.5t45.5 45t73 16.5q51 0 124 -36t99 -36q35 0 55.5 13t20.5 51h70z" />
    <glyph glyph-name="Odieresis" unicode="&#xd6;" horiz-adv-x="1185" 
d="M1135 731q0 -211 -64 -383t-189.5 -275.5t-289.5 -103.5q-99 0 -185.5 39t-151 108.5t-111 164.5t-70 209.5t-23.5 240.5q0 211 63.5 382.5t188.5 274.5t289 103t289.5 -103t189.5 -274.5t64 -382.5zM924 733q0 680 -332 680q-330 0 -330 -680t330 -680q332 0 332 680z
M817 1722q0 -39 -27.5 -66.5t-66.5 -27.5q-40 0 -67 27t-27 67q0 38 27.5 65.5t66.5 27.5q38 0 66 -27.5t28 -65.5zM537 1722q0 -40 -27.5 -67t-65.5 -27q-39 0 -67.5 27.5t-28.5 66.5q0 38 28.5 65.5t67.5 27.5q38 0 65.5 -27.5t27.5 -65.5z" />
    <glyph glyph-name="multiply" unicode="&#xd7;" horiz-adv-x="997" 
d="M852 743l-266 -266l264 -262l-88 -88l-262 262l-267 -264l-88 88l267 264l-265 264l86 88l267 -264l264 266z" />
    <glyph glyph-name="Oslash" unicode="&#xd8;" horiz-adv-x="1185" 
d="M1128 725q0 -209 -63.5 -379.5t-187 -272.5t-285.5 -102q-31 0 -45 2l-10 -90l-93 11l13 98q-124 39 -215 146t-138 258.5t-47 328.5q0 209 63 379t186.5 271.5t285.5 101.5q31 0 45 -2l12 88l92 -11l-12 -96q186 -58 292.5 -258.5t106.5 -472.5zM920 727q0 528 -201 641
l-162 -1311q24 -4 35 -4q328 0 328 674zM629 1397q-12 2 -37 2q-326 0 -326 -672q0 -528 201 -641z" />
    <glyph glyph-name="Ugrave" unicode="&#xd9;" horiz-adv-x="1054" 
d="M1004 1415q-1 0 -10 -0.5t-13.5 -1t-14.5 -3t-15.5 -5.5t-13 -9t-12 -13.5t-7.5 -19.5t-3 -26v-852q0 -49 -2 -90t-10.5 -96.5t-23 -98.5t-42 -88t-64.5 -75t-93.5 -49t-126.5 -19q-111 0 -196 42t-130 110q-50 75 -67 175t-17 239v798q0 12 -2 22t-5 17.5t-8.5 14
t-9.5 10.5t-11.5 7t-12 5t-13 3t-11.5 1.5t-10.5 1t-8.5 0.5v51h393v-51q-54 -5 -75 -22q-25 -20 -25 -60v-829q0 -66 3 -116.5t12 -104.5t26 -92.5t43 -70t66.5 -47.5t93.5 -16q232 0 235 422v860q0 19 -5.5 33.5t-13 22t-19.5 12.5t-19 6t-18.5 1.5t-12.5 0.5v51h269v-51z
M729 1583h-106l-234 148q-61 38 -61 77q0 26 19 43t48 17q26 0 45.5 -13t59.5 -51z" />
    <glyph glyph-name="Uacute" unicode="&#xda;" horiz-adv-x="1054" 
d="M1004 1415q-1 0 -10 -0.5t-13.5 -1t-14.5 -3t-15.5 -5.5t-13 -9t-12 -13.5t-7.5 -19.5t-3 -26v-852q0 -49 -2 -90t-10.5 -96.5t-23 -98.5t-42 -88t-64.5 -75t-93.5 -49t-126.5 -19q-111 0 -196 42t-130 110q-50 75 -67 175t-17 239v798q0 12 -2 22t-5 17.5t-8.5 14
t-9.5 10.5t-11.5 7t-12 5t-13 3t-11.5 1.5t-10.5 1t-8.5 0.5v51h393v-51q-54 -5 -75 -22q-25 -20 -25 -60v-829q0 -66 3 -116.5t12 -104.5t26 -92.5t43 -70t66.5 -47.5t93.5 -16q232 0 235 422v860q0 19 -5.5 33.5t-13 22t-19.5 12.5t-19 6t-18.5 1.5t-12.5 0.5v51h269v-51z
M780 1808q0 -39 -61 -77l-234 -148h-106l229 221q40 38 59.5 51t45.5 13q29 0 48 -17t19 -43z" />
    <glyph glyph-name="Ucircumflex" unicode="&#xdb;" horiz-adv-x="1054" 
d="M1004 1415q-1 0 -10 -0.5t-13.5 -1t-14.5 -3t-15.5 -5.5t-13 -9t-12 -13.5t-7.5 -19.5t-3 -26v-852q0 -49 -2 -90t-10.5 -96.5t-23 -98.5t-42 -88t-64.5 -75t-93.5 -49t-126.5 -19q-111 0 -196 42t-130 110q-50 75 -67 175t-17 239v798q0 12 -2 22t-5 17.5t-8.5 14
t-9.5 10.5t-11.5 7t-12 5t-13 3t-11.5 1.5t-10.5 1t-8.5 0.5v51h393v-51q-54 -5 -75 -22q-25 -20 -25 -60v-829q0 -66 3 -116.5t12 -104.5t26 -92.5t43 -70t66.5 -47.5t93.5 -16q232 0 235 422v860q0 19 -5.5 33.5t-13 22t-19.5 12.5t-19 6t-18.5 1.5t-12.5 0.5v51h269v-51z
M807 1583h-88l-172 166l-168 -166h-90l205 287h106z" />
    <glyph glyph-name="Udieresis" unicode="&#xdc;" horiz-adv-x="1054" 
d="M1004 1415q-1 0 -10 -0.5t-13.5 -1t-14.5 -3t-15.5 -5.5t-13 -9t-12 -13.5t-7.5 -19.5t-3 -26v-852q0 -49 -2 -90t-10.5 -96.5t-23 -98.5t-42 -88t-64.5 -75t-93.5 -49t-126.5 -19q-111 0 -196 42t-130 110q-50 75 -67 175t-17 239v798q0 12 -2 22t-5 17.5t-8.5 14
t-9.5 10.5t-11.5 7t-12 5t-13 3t-11.5 1.5t-10.5 1t-8.5 0.5v51h393v-51q-54 -5 -75 -22q-25 -20 -25 -60v-829q0 -66 3 -116.5t12 -104.5t26 -92.5t43 -70t66.5 -47.5t93.5 -16q232 0 235 422v860q0 19 -5.5 33.5t-13 22t-19.5 12.5t-19 6t-18.5 1.5t-12.5 0.5v51h269v-51z
M782 1722q0 -39 -27.5 -66.5t-66.5 -27.5q-40 0 -67 27t-27 67q0 38 27 65.5t67 27.5q38 0 66 -27.5t28 -65.5zM502 1722q0 -40 -27 -67t-65 -27q-39 0 -68 27.5t-29 66.5q0 38 29 65.5t68 27.5q38 0 65 -27.5t27 -65.5z" />
    <glyph glyph-name="Yacute" unicode="&#xdd;" horiz-adv-x="931" 
d="M973 1415q-74 -8 -105 -76q-17 -34 -130 -291t-156 -358v-18v-543q0 -17 4.5 -30t12 -21t16 -13.5t19.5 -8t18.5 -3.5t17 -1.5t10.5 -0.5v-51h-391v51q50 4 70 22q22 20 22 60v445v110q-205 434 -313 655q-8 15 -16.5 27t-18.5 19.5t-17.5 12.5t-18 7.5t-15.5 3.5t-14 1
l-9 1v51h363v-51q-56 0 -56 -39q0 -19 10 -39q27 -54 254 -542l238 542q8 16 8 35q0 43 -57 43v51h254v-51zM768 1808q0 -39 -61 -77l-234 -148h-106l229 221q40 38 59 51t45 13q29 0 48.5 -17t19.5 -43z" />
    <glyph glyph-name="Thorn" unicode="&#xde;" horiz-adv-x="946" 
d="M905 911q0 -85 -36.5 -154.5t-90 -112t-119.5 -71.5t-121.5 -40t-99.5 -11h-24v51v21h18q27 0 54 4.5t66.5 23.5t68.5 50.5t50 93.5t21 145q0 85 -20 145.5t-48.5 92t-73.5 49t-79.5 21.5t-83.5 4q-5 0 -16 -1t-15 -1v-1090q0 -15 3.5 -27t8 -20t13 -14t14.5 -9
t17.5 -5.5t15.5 -3t16 -0.5l11 -1v-51h-394v51q20 1 30.5 3t28 9.5t26 25.5t8.5 46v1196q0 23 -8 40t-16 24.5t-26 12.5t-22 5.5t-21 1.5v51h394v-51q-20 -1 -31.5 -3t-30 -9.5t-28 -25.5t-9.5 -46v-31h45q48 0 91.5 -3.5t96 -14t95.5 -27.5t85.5 -47t71.5 -70t46.5 -98
t17.5 -129z" />
    <glyph glyph-name="germandbls" unicode="&#xdf;" horiz-adv-x="1021" 
d="M1001 424q0 -80 -25 -159t-70.5 -145.5t-119.5 -107.5t-163 -41q-93 0 -145 40.5t-52 107.5q0 37 18 65.5t60 28.5q39 0 55 -30t16 -64q0 -35 19.5 -55.5t48.5 -20.5q168 0 168 385q0 108 -24.5 195.5t-59 138t-76 85t-71.5 46.5t-50 14v64q9 0 24 3.5t42 19.5t49 42.5
t38.5 79t16.5 121.5q0 137 -48 195.5t-120 58.5q-99 0 -140.5 -92t-41.5 -299v-1100h-278v53q1 0 10 0.5t14 1t14.5 3t15.5 5t13.5 8.5t12 13.5t7.5 19t3 25.5v737h-142l21 82h121v101q0 150 23.5 237t68.5 148q91 125 287 125q47 0 95 -11.5t94.5 -37t82.5 -61.5t58 -89.5
t22 -116.5q0 -5 -0.5 -14.5t-5.5 -37t-13.5 -53t-27 -58.5t-43.5 -59t-66 -48.5t-92 -32.5q17 -4 50 -19t89 -56t102 -95t80.5 -146t34.5 -200z" />
    <glyph glyph-name="agrave" unicode="&#xe0;" horiz-adv-x="804" 
d="M780 0h-258l-10 129q-11 -44 -38 -76t-57.5 -46t-59 -22.5t-47.5 -8.5l-19 -1q-103 0 -176.5 72t-73.5 191q0 74 22 136t57.5 102t81 71t90.5 47.5t88.5 26t72.5 12t45 0.5q0 3 0.5 21.5t0 29t-1.5 32.5t-4 36.5t-8.5 35.5t-13.5 35t-20 29.5t-28 25t-37.5 15.5t-47.5 6
q-37 0 -70 -15t-53 -32t-41.5 -48t-28 -43.5t-18.5 -37.5q-12 0 -57 8l59 213h49q3 -12 14.5 -13t30.5 5t40.5 13.5t52.5 14.5t59 7q167 0 233 -66q14 -15 25.5 -31.5t19 -39.5t13.5 -38.5t9.5 -46.5t6 -44t3.5 -50t1 -45.5v-50v-45.5v-389q0 -23 7.5 -38.5t21 -22t24 -9
t25.5 -2.5h16v-53zM498 557q-13 0 -33 2t-46 -6t-52.5 -18t-52 -34t-45.5 -54t-32 -79t-12 -108q0 -53 9 -91.5t38 -67t76 -27.5q43 1 74.5 27t46 68.5t21 82t6.5 80.5q2 57 2 225zM561 1059h-106l-234 147q-61 38 -61 78q0 26 19 42.5t48 16.5q26 0 46 -13t59 -50z" />
    <glyph glyph-name="aacute" unicode="&#xe1;" horiz-adv-x="804" 
d="M780 0h-258l-10 129q-11 -44 -38 -76t-57.5 -46t-59 -22.5t-47.5 -8.5l-19 -1q-103 0 -176.5 72t-73.5 191q0 74 22 136t57.5 102t81 71t90.5 47.5t88.5 26t72.5 12t45 0.5q0 3 0.5 21.5t0 29t-1.5 32.5t-4 36.5t-8.5 35.5t-13.5 35t-20 29.5t-28 25t-37.5 15.5t-47.5 6
q-37 0 -70 -15t-53 -32t-41.5 -48t-28 -43.5t-18.5 -37.5q-12 0 -57 8l59 213h49q3 -12 14.5 -13t30.5 5t40.5 13.5t52.5 14.5t59 7q167 0 233 -66q14 -15 25.5 -31.5t19 -39.5t13.5 -38.5t9.5 -46.5t6 -44t3.5 -50t1 -45.5v-50v-45.5v-389q0 -23 7.5 -38.5t21 -22t24 -9
t25.5 -2.5h16v-53zM498 557q-13 0 -33 2t-46 -6t-52.5 -18t-52 -34t-45.5 -54t-32 -79t-12 -108q0 -53 9 -91.5t38 -67t76 -27.5q43 1 74.5 27t46 68.5t21 82t6.5 80.5q2 57 2 225zM602 1284q0 -40 -61 -78l-234 -147h-106l229 221q39 37 59 50t46 13q29 0 48 -16.5
t19 -42.5z" />
    <glyph glyph-name="acircumflex" unicode="&#xe2;" horiz-adv-x="804" 
d="M780 0h-258l-10 129q-11 -44 -38 -76t-57.5 -46t-59 -22.5t-47.5 -8.5l-19 -1q-103 0 -176.5 72t-73.5 191q0 74 22 136t57.5 102t81 71t90.5 47.5t88.5 26t72.5 12t45 0.5q0 3 0.5 21.5t0 29t-1.5 32.5t-4 36.5t-8.5 35.5t-13.5 35t-20 29.5t-28 25t-37.5 15.5t-47.5 6
q-37 0 -70 -15t-53 -32t-41.5 -48t-28 -43.5t-18.5 -37.5q-12 0 -57 8l59 213h49q3 -12 14.5 -13t30.5 5t40.5 13.5t52.5 14.5t59 7q167 0 233 -66q14 -15 25.5 -31.5t19 -39.5t13.5 -38.5t9.5 -46.5t6 -44t3.5 -50t1 -45.5v-50v-45.5v-389q0 -23 7.5 -38.5t21 -22t24 -9
t25.5 -2.5h16v-53zM498 557q-13 0 -33 2t-46 -6t-52.5 -18t-52 -34t-45.5 -54t-32 -79t-12 -108q0 -53 9 -91.5t38 -67t76 -27.5q43 1 74.5 27t46 68.5t21 82t6.5 80.5q2 57 2 225zM651 1059h-88l-172 166l-168 -166h-90l205 287h106z" />
    <glyph glyph-name="atilde" unicode="&#xe3;" horiz-adv-x="804" 
d="M780 0h-258l-10 129q-11 -44 -38 -76t-57.5 -46t-59 -22.5t-47.5 -8.5l-19 -1q-103 0 -176.5 72t-73.5 191q0 74 22 136t57.5 102t81 71t90.5 47.5t88.5 26t72.5 12t45 0.5q0 3 0.5 21.5t0 29t-1.5 32.5t-4 36.5t-8.5 35.5t-13.5 35t-20 29.5t-28 25t-37.5 15.5t-47.5 6
q-37 0 -70 -15t-53 -32t-41.5 -48t-28 -43.5t-18.5 -37.5q-12 0 -57 8l59 213h49q3 -12 14.5 -13t30.5 5t40.5 13.5t52.5 14.5t59 7q167 0 233 -66q14 -15 25.5 -31.5t19 -39.5t13.5 -38.5t9.5 -46.5t6 -44t3.5 -50t1 -45.5v-50v-45.5v-389q0 -23 7.5 -38.5t21 -22t24 -9
t25.5 -2.5h16v-53zM498 557q-13 0 -33 2t-46 -6t-52.5 -18t-52 -34t-45.5 -54t-32 -79t-12 -108q0 -53 9 -91.5t38 -67t76 -27.5q43 1 74.5 27t46 68.5t21 82t6.5 80.5q2 57 2 225zM641 1290q0 -76 -36 -130t-116 -54q-45 0 -90 18t-79.5 36t-53.5 18q-30 0 -51.5 -16.5
t-21.5 -51.5h-68q0 188 147 188q51 0 124.5 -35.5t99.5 -35.5q35 0 55 13t20 50h70z" />
    <glyph glyph-name="adieresis" unicode="&#xe4;" horiz-adv-x="804" 
d="M780 0h-258l-10 129q-11 -44 -38 -76t-57.5 -46t-59 -22.5t-47.5 -8.5l-19 -1q-103 0 -176.5 72t-73.5 191q0 74 22 136t57.5 102t81 71t90.5 47.5t88.5 26t72.5 12t45 0.5q0 3 0.5 21.5t0 29t-1.5 32.5t-4 36.5t-8.5 35.5t-13.5 35t-20 29.5t-28 25t-37.5 15.5t-47.5 6
q-37 0 -70 -15t-53 -32t-41.5 -48t-28 -43.5t-18.5 -37.5q-12 0 -57 8l59 213h49q3 -12 14.5 -13t30.5 5t40.5 13.5t52.5 14.5t59 7q167 0 233 -66q14 -15 25.5 -31.5t19 -39.5t13.5 -38.5t9.5 -46.5t6 -44t3.5 -50t1 -45.5v-50v-45.5v-389q0 -23 7.5 -38.5t21 -22t24 -9
t25.5 -2.5h16v-53zM498 557q-13 0 -33 2t-46 -6t-52.5 -18t-52 -34t-45.5 -54t-32 -79t-12 -108q0 -53 9 -91.5t38 -67t76 -27.5q43 1 74.5 27t46 68.5t21 82t6.5 80.5q2 57 2 225zM625 1198q0 -39 -28 -66.5t-67 -27.5q-40 0 -67 27t-27 67q0 38 27 65t67 27q39 0 67 -27
t28 -65zM344 1198q0 -40 -27 -67t-65 -27q-39 0 -67.5 27.5t-28.5 66.5q0 38 28.5 65t67.5 27q38 0 65 -27t27 -65z" />
    <glyph glyph-name="aring" unicode="&#xe5;" horiz-adv-x="804" 
d="M780 0h-258l-10 129q-11 -44 -38 -76t-57.5 -46t-59 -22.5t-47.5 -8.5l-19 -1q-103 0 -176.5 72t-73.5 191q0 74 22 136t57.5 102t81 71t90.5 47.5t88.5 26t72.5 12t45 0.5q0 3 0.5 21.5t0 29t-1.5 32.5t-4 36.5t-8.5 35.5t-13.5 35t-20 29.5t-28 25t-37.5 15.5t-47.5 6
q-37 0 -70 -15t-53 -32t-41.5 -48t-28 -43.5t-18.5 -37.5q-12 0 -57 8l59 213h49q3 -12 14.5 -13t30.5 5t40.5 13.5t52.5 14.5t59 7q167 0 233 -66q14 -15 25.5 -31.5t19 -39.5t13.5 -38.5t9.5 -46.5t6 -44t3.5 -50t1 -45.5v-50v-45.5v-389q0 -23 7.5 -38.5t21 -22t24 -9
t25.5 -2.5h16v-53zM498 557q-13 0 -33 2t-46 -6t-52.5 -18t-52 -34t-45.5 -54t-32 -79t-12 -108q0 -53 9 -91.5t38 -67t76 -27.5q43 1 74.5 27t46 68.5t21 82t6.5 80.5q2 57 2 225zM547 1225q0 -69 -48.5 -117.5t-117.5 -48.5t-117.5 48.5t-48.5 117.5q0 68 49 116t117 48
t117 -48t49 -116zM473 1225q0 38 -27 64t-65 26q-37 0 -63.5 -26t-26.5 -64t26.5 -64t63.5 -26q38 0 65 26t27 64z" />
    <glyph glyph-name="ae" unicode="&#xe6;" horiz-adv-x="1282" 
d="M1241 549h-547q-4 -31 -4 -76q0 -53 3 -98.5t10.5 -96.5t22.5 -90t36.5 -71.5t55.5 -50t77 -17.5q48 0 89 20.5t66 50t43 64t25.5 61.5t7.5 44h88q0 -17 -8.5 -50.5t-32 -80t-57.5 -87.5t-91.5 -69.5t-127.5 -28.5q-68 0 -125.5 17.5t-90.5 42t-50.5 43t-22.5 28.5
q-1 -1 -14.5 -16.5t-25.5 -27.5t-37 -29.5t-51 -29.5t-66 -21t-84 -9q-289 0 -289 283q0 90 39 161t93.5 110.5t122 65.5t116.5 34t84 8v47q0 217 -158 217q-37 0 -70 -15.5t-52 -31.5t-41 -48.5t-27.5 -42.5t-18.5 -38q-12 2 -57 10l59 213h39h10q3 -14 19 -14
q11 0 71.5 19.5t106.5 19.5q187 0 256 -125q113 125 270 125q81 0 143.5 -31t98 -76.5t58.5 -105t30.5 -109.5t7.5 -98zM1067 633q-1 4 -4 36t-6.5 55t-15 57.5t-27.5 56.5t-44.5 38.5t-66.5 16.5q-88 0 -132.5 -67t-65.5 -193h362zM496 332v217h-9q-30 2 -58 -1.5
t-67 -19.5t-67.5 -45.5t-49 -87t-20.5 -135.5q0 -39 6 -73.5t19 -67t38.5 -51.5t61.5 -19q146 0 146 283z" />
    <glyph glyph-name="ccedilla" unicode="&#xe7;" horiz-adv-x="778" 
d="M598 -209q0 -83 -55 -122.5t-135 -39.5q-34 0 -65 10t-45.5 19.5t-37.5 26.5l43 82q6 -5 17.5 -15.5t17.5 -14.5t16 -10t20.5 -8t24.5 -2q34 0 56 15t22 43q0 21 -15.5 33t-39.5 12q-19 0 -41 -19l-57 23l26 162q-62 13 -114 45t-97.5 87.5t-71.5 146.5t-26 208
q0 140 50.5 252.5t144 178t213.5 65.5q26 0 49.5 -3.5t39.5 -8.5t29.5 -10.5t22 -9.5t15 -6t9.5 0.5t4 10.5q17 2 54 2l57 -201l-63 -8q-12 26 -19 39.5t-27.5 40t-41.5 40.5t-57.5 26t-80.5 12q-62 0 -105 -35t-64 -98.5t-29.5 -131.5t-8.5 -155q0 -75 11 -145.5
t33.5 -134.5t64.5 -103t98 -39q53 0 96 20t67.5 48.5t41 63t22 61t5.5 45.5h96q0 -20 -10 -54.5t-34.5 -80.5t-60 -85t-94.5 -66.5t-129 -27.5h-6l-12 -63q14 2 43 2q55 0 94 -35.5t39 -87.5z" />
    <glyph glyph-name="egrave" unicode="&#xe8;" horiz-adv-x="827" 
d="M786 549h-544q-4 -31 -4 -76q0 -62 6 -118.5t22 -113t40.5 -98t65 -67t91.5 -25.5q53 0 96 29.5t66 71.5t35 78.5t12 58.5h98q0 -17 -10 -50.5t-35.5 -79.5t-61 -86.5t-94.5 -69t-129 -28.5q-57 0 -109.5 13.5t-106.5 48.5t-93.5 89.5t-64.5 143.5t-25 203
q0 215 112 355.5t296 140.5q81 0 143.5 -31t98 -76.5t58 -105.5t30 -109.5t7.5 -97.5zM612 633q-1 3 -4.5 36t-7 55t-15.5 57t-27.5 57t-44.5 38.5t-67 16.5q-87 0 -131 -66.5t-65 -193.5h362zM635 1059h-107l-233 147q-62 38 -62 78q0 26 19.5 42.5t48.5 16.5q26 0 46 -13
t59 -50z" />
    <glyph glyph-name="eacute" unicode="&#xe9;" horiz-adv-x="827" 
d="M786 549h-544q-4 -31 -4 -76q0 -62 6 -118.5t22 -113t40.5 -98t65 -67t91.5 -25.5q53 0 96 29.5t66 71.5t35 78.5t12 58.5h98q0 -17 -10 -50.5t-35.5 -79.5t-61 -86.5t-94.5 -69t-129 -28.5q-57 0 -109.5 13.5t-106.5 48.5t-93.5 89.5t-64.5 143.5t-25 203
q0 215 112 355.5t296 140.5q81 0 143.5 -31t98 -76.5t58 -105.5t30 -109.5t7.5 -97.5zM612 633q-1 3 -4.5 36t-7 55t-15.5 57t-27.5 57t-44.5 38.5t-67 16.5q-87 0 -131 -66.5t-65 -193.5h362zM655 1284q0 -40 -61 -78l-234 -147h-106l229 221q39 37 59 50t46 13
q29 0 48 -16.5t19 -42.5z" />
    <glyph glyph-name="ecircumflex" unicode="&#xea;" horiz-adv-x="827" 
d="M786 549h-544q-4 -31 -4 -76q0 -62 6 -118.5t22 -113t40.5 -98t65 -67t91.5 -25.5q53 0 96 29.5t66 71.5t35 78.5t12 58.5h98q0 -17 -10 -50.5t-35.5 -79.5t-61 -86.5t-94.5 -69t-129 -28.5q-57 0 -109.5 13.5t-106.5 48.5t-93.5 89.5t-64.5 143.5t-25 203
q0 215 112 355.5t296 140.5q81 0 143.5 -31t98 -76.5t58 -105.5t30 -109.5t7.5 -97.5zM612 633q-1 3 -4.5 36t-7 55t-15.5 57t-27.5 57t-44.5 38.5t-67 16.5q-87 0 -131 -66.5t-65 -193.5h362zM702 1059h-88l-172 166l-168 -166h-90l205 287h107z" />
    <glyph glyph-name="edieresis" unicode="&#xeb;" horiz-adv-x="827" 
d="M786 549h-544q-4 -31 -4 -76q0 -62 6 -118.5t22 -113t40.5 -98t65 -67t91.5 -25.5q53 0 96 29.5t66 71.5t35 78.5t12 58.5h98q0 -17 -10 -50.5t-35.5 -79.5t-61 -86.5t-94.5 -69t-129 -28.5q-57 0 -109.5 13.5t-106.5 48.5t-93.5 89.5t-64.5 143.5t-25 203
q0 215 112 355.5t296 140.5q81 0 143.5 -31t98 -76.5t58 -105.5t30 -109.5t7.5 -97.5zM612 633q-1 3 -4.5 36t-7 55t-15.5 57t-27.5 57t-44.5 38.5t-67 16.5q-87 0 -131 -66.5t-65 -193.5h362zM668 1198q0 -39 -28 -66.5t-67 -27.5q-40 0 -67 27t-27 67q0 38 27 65t67 27
q39 0 67 -27t28 -65zM387 1198q0 -40 -27 -67t-65 -27q-39 0 -67.5 27.5t-28.5 66.5q0 38 28.5 65t67.5 27q38 0 65 -27t27 -65z" />
    <glyph glyph-name="igrave" unicode="&#xec;" horiz-adv-x="477" 
d="M426 0h-375v51q1 0 10.5 0.5t14 1t14.5 3t16 5.5t14 9t12.5 13.5t7.5 19.5t3 26v684q0 17 -4 30t-11.5 21t-15 13.5t-18 8t-17 3.5t-16 1.5t-10.5 0.5v51h279v-817q0 -19 6 -33.5t14.5 -21.5t21 -11.5t21 -5.5t20 -1.5t13.5 -0.5v-51zM397 1059h-106l-234 147
q-61 38 -61 78q0 26 19 42.5t48 16.5q26 0 46 -13t59 -50z" />
    <glyph glyph-name="iacute" unicode="&#xed;" horiz-adv-x="477" 
d="M426 0h-375v51q1 0 10.5 0.5t14 1t14.5 3t16 5.5t14 9t12.5 13.5t7.5 19.5t3 26v684q0 17 -4 30t-11.5 21t-15 13.5t-18 8t-17 3.5t-16 1.5t-10.5 0.5v51h279v-817q0 -19 6 -33.5t14.5 -21.5t21 -11.5t21 -5.5t20 -1.5t13.5 -0.5v-51zM438 1284q0 -40 -61 -78l-234 -147
h-106l229 221q39 37 59 50t46 13q29 0 48 -16.5t19 -42.5z" />
    <glyph glyph-name="icircumflex" unicode="&#xee;" horiz-adv-x="477" 
d="M426 0h-375v51q1 0 10.5 0.5t14 1t14.5 3t16 5.5t14 9t12.5 13.5t7.5 19.5t3 26v684q0 17 -4 30t-11.5 21t-15 13.5t-18 8t-17 3.5t-16 1.5t-10.5 0.5v51h279v-817q0 -19 6 -33.5t14.5 -21.5t21 -11.5t21 -5.5t20 -1.5t13.5 -0.5v-51zM481 1059h-88l-172 166l-168 -166
h-90l205 287h106z" />
    <glyph glyph-name="idieresis" unicode="&#xef;" horiz-adv-x="477" 
d="M426 0h-375v51q1 0 10.5 0.5t14 1t14.5 3t16 5.5t14 9t12.5 13.5t7.5 19.5t3 26v684q0 17 -4 30t-11.5 21t-15 13.5t-18 8t-17 3.5t-16 1.5t-10.5 0.5v51h279v-817q0 -19 6 -33.5t14.5 -21.5t21 -11.5t21 -5.5t20 -1.5t13.5 -0.5v-51zM459 1198q0 -39 -27.5 -66.5
t-66.5 -27.5q-40 0 -67.5 27t-27.5 67q0 38 27.5 65t67.5 27q38 0 66 -27t28 -65zM178 1198q0 -40 -27 -67t-65 -27q-39 0 -67.5 27.5t-28.5 66.5q0 38 28.5 65t67.5 27q38 0 65 -27t27 -65z" />
    <glyph glyph-name="eth" unicode="&#xf0;" horiz-adv-x="876" 
d="M834 530q0 -264 -109 -408.5t-291 -144.5q-119 0 -209 67t-136 179t-46 250q0 140 42 250t132 178t217 68q122 0 201 -99q-38 300 -166 484l-170 -101v78l129 78q-42 47 -79.5 66.5t-90.5 19.5q-57 0 -92 -29q-13 14 -19 47q13 19 43 30t54 12l24 1q165 0 258 -90l160 93
v-78l-111 -68q95 -115 155.5 -278t82 -309.5t21.5 -295.5zM635 471q0 210 -52 316t-151 106q-103 0 -153 -113.5t-50 -306.5t50 -306.5t153 -113.5q99 0 151 106t52 312z" />
    <glyph glyph-name="ntilde" unicode="&#xf1;" horiz-adv-x="1017" 
d="M977 0h-375v51q1 0 10.5 0.5t13.5 1t14 3t16 5.5t13.5 9t12 13.5t7.5 19.5t3 26v504q0 51 -1.5 83.5t-8.5 69.5t-19 58t-35 35t-55 14q-172 0 -221 -256q-11 -55 -16.5 -131t-6.5 -118.5t0 -146t1 -116.5q0 -19 6 -33.5t14.5 -21.5t21 -11.5t21 -5.5t20 -1.5t13.5 -0.5
v-51h-375v51q1 0 10.5 0.5t13.5 1t14 3t16 5.5t13.5 9t12 13.5t7.5 19.5t3 26v686q0 19 -6 33.5t-13 22t-19.5 12.5t-20 6t-19 1.5t-12.5 0.5v51h268v-176q7 25 26.5 55.5t53 65.5t89 58.5t120.5 23.5q153 0 213 -82.5t60 -253.5v-508q0 -19 6 -33.5t14.5 -21.5t21 -11.5
t21 -5.5t20 -1.5t13.5 -0.5v-51zM776 1290q0 -76 -35.5 -130t-115.5 -54q-45 0 -90.5 18t-80 36t-53.5 18q-30 0 -51.5 -16.5t-21.5 -51.5h-68q0 80 33.5 134t114.5 54q51 0 124 -35.5t99 -35.5q35 0 55.5 13t20.5 50h69z" />
    <glyph glyph-name="ograve" unicode="&#xf2;" horiz-adv-x="876" 
d="M836 471q0 -137 -48 -250t-139.5 -180.5t-210.5 -67.5q-127 0 -218.5 68t-135 179t-43.5 251q0 137 47.5 249.5t139 179.5t210.5 67t210.5 -67t139.5 -179.5t48 -249.5zM641 471q0 97 -9.5 169.5t-32 131t-63.5 89t-100 30.5t-100 -30.5t-63.5 -89t-32 -131t-9.5 -169.5
t9.5 -170t32 -132t63.5 -89.5t100 -30.5t100 30.5t63.5 89.5t32 132t9.5 170zM639 1059h-107l-233 147q-61 38 -61 78q0 26 19 42.5t48 16.5q26 0 46 -13t59 -50z" />
    <glyph glyph-name="oacute" unicode="&#xf3;" horiz-adv-x="876" 
d="M836 471q0 -137 -48 -250t-139.5 -180.5t-210.5 -67.5q-127 0 -218.5 68t-135 179t-43.5 251q0 137 47.5 249.5t139 179.5t210.5 67t210.5 -67t139.5 -179.5t48 -249.5zM641 471q0 97 -9.5 169.5t-32 131t-63.5 89t-100 30.5t-100 -30.5t-63.5 -89t-32 -131t-9.5 -169.5
t9.5 -170t32 -132t63.5 -89.5t100 -30.5t100 30.5t63.5 89.5t32 132t9.5 170zM659 1284q0 -40 -61 -78l-233 -147h-107l229 221q39 37 59 50t46 13q29 0 48 -16.5t19 -42.5z" />
    <glyph glyph-name="ocircumflex" unicode="&#xf4;" horiz-adv-x="876" 
d="M836 471q0 -137 -48 -250t-139.5 -180.5t-210.5 -67.5q-127 0 -218.5 68t-135 179t-43.5 251q0 137 47.5 249.5t139 179.5t210.5 67t210.5 -67t139.5 -179.5t48 -249.5zM641 471q0 97 -9.5 169.5t-32 131t-63.5 89t-100 30.5t-100 -30.5t-63.5 -89t-32 -131t-9.5 -169.5
t9.5 -170t32 -132t63.5 -89.5t100 -30.5t100 30.5t63.5 89.5t32 132t9.5 170zM696 1059h-88l-172 166l-168 -166h-90l205 287h106z" />
    <glyph glyph-name="otilde" unicode="&#xf5;" horiz-adv-x="876" 
d="M836 471q0 -137 -48 -250t-139.5 -180.5t-210.5 -67.5q-127 0 -218.5 68t-135 179t-43.5 251q0 137 47.5 249.5t139 179.5t210.5 67t210.5 -67t139.5 -179.5t48 -249.5zM641 471q0 97 -9.5 169.5t-32 131t-63.5 89t-100 30.5t-100 -30.5t-63.5 -89t-32 -131t-9.5 -169.5
t9.5 -170t32 -132t63.5 -89.5t100 -30.5t100 30.5t63.5 89.5t32 132t9.5 170zM686 1290q0 -76 -35.5 -130t-115.5 -54q-45 0 -90.5 18t-80 36t-53.5 18q-30 0 -51.5 -16.5t-21.5 -51.5h-68q0 188 147 188q51 0 124.5 -35.5t99.5 -35.5q35 0 55 13t20 50h70z" />
    <glyph glyph-name="odieresis" unicode="&#xf6;" horiz-adv-x="876" 
d="M836 471q0 -137 -48 -250t-139.5 -180.5t-210.5 -67.5q-127 0 -218.5 68t-135 179t-43.5 251q0 137 47.5 249.5t139 179.5t210.5 67t210.5 -67t139.5 -179.5t48 -249.5zM641 471q0 97 -9.5 169.5t-32 131t-63.5 89t-100 30.5t-100 -30.5t-63.5 -89t-32 -131t-9.5 -169.5
t9.5 -170t32 -132t63.5 -89.5t100 -30.5t100 30.5t63.5 89.5t32 132t9.5 170zM672 1198q0 -39 -27.5 -66.5t-66.5 -27.5q-40 0 -67.5 27t-27.5 67q0 38 27.5 65t67.5 27q38 0 66 -27t28 -65zM391 1198q0 -40 -27 -67t-65 -27q-39 0 -67.5 27.5t-28.5 66.5q0 38 28.5 65
t67.5 27q38 0 65 -27t27 -65z" />
    <glyph glyph-name="divide" unicode="&#xf7;" horiz-adv-x="997" 
d="M590 670q0 -39 -28 -68t-66 -29t-66.5 29.5t-28.5 67.5t28.5 66t66.5 28t66 -28t28 -66zM936 412h-875v125h875v-125zM590 260q0 -38 -28 -67t-66 -29t-66.5 29t-28.5 67t28.5 66t66.5 28t66 -28t28 -66z" />
    <glyph glyph-name="oslash" unicode="&#xf8;" horiz-adv-x="876" 
d="M838 469q0 -137 -48.5 -249.5t-140.5 -179.5t-211 -67h-18l-12 -98l-86 10l12 101q-141 37 -217 168.5t-76 314.5q0 138 47.5 250.5t139 180t210.5 67.5h17l12 96l86 -10l-12 -101q136 -39 216.5 -172.5t80.5 -310.5zM641 469q0 320 -113 395l-100 -815h8q59 0 100 30.5
t63.5 89t32 131t9.5 169.5zM444 891h-8q-47 0 -83 -21t-58.5 -57t-36.5 -90.5t-19.5 -115.5t-5.5 -138q0 -319 111 -393z" />
    <glyph glyph-name="ugrave" unicode="&#xf9;" horiz-adv-x="1007" 
d="M956 0h-270l2 170q-6 -20 -16 -42.5t-31 -52t-47 -52t-67 -38.5t-89 -16q-53 0 -96.5 12t-74 35t-54 51.5t-38.5 67.5t-24.5 75.5t-14 83.5t-6 83.5t-1.5 83.5v354q0 19 -6.5 33.5t-14.5 22t-21.5 12.5t-22 6t-20.5 1.5t-13 0.5v51h284v-543q0 -43 0.5 -66t3.5 -65.5
t8.5 -68t16.5 -57.5t27 -50t41 -30.5t57 -12.5q103 0 156 121t53 342v305q0 19 -6 33.5t-14.5 21.5t-21 11.5t-21 5.5t-20 1.5t-13.5 0.5v51h284v-813q0 -17 4 -30t11 -21t14.5 -13.5t18 -8t16.5 -3.5t15.5 -1.5t10.5 -0.5v-51zM684 1059h-106l-234 147q-61 38 -61 78
q0 26 19 42.5t48 16.5q26 0 46 -13t59 -50z" />
    <glyph glyph-name="uacute" unicode="&#xfa;" horiz-adv-x="1007" 
d="M956 0h-270l2 170q-6 -20 -16 -42.5t-31 -52t-47 -52t-67 -38.5t-89 -16q-53 0 -96.5 12t-74 35t-54 51.5t-38.5 67.5t-24.5 75.5t-14 83.5t-6 83.5t-1.5 83.5v354q0 19 -6.5 33.5t-14.5 22t-21.5 12.5t-22 6t-20.5 1.5t-13 0.5v51h284v-543q0 -43 0.5 -66t3.5 -65.5
t8.5 -68t16.5 -57.5t27 -50t41 -30.5t57 -12.5q103 0 156 121t53 342v305q0 19 -6 33.5t-14.5 21.5t-21 11.5t-21 5.5t-20 1.5t-13.5 0.5v51h284v-813q0 -17 4 -30t11 -21t14.5 -13.5t18 -8t16.5 -3.5t15.5 -1.5t10.5 -0.5v-51zM684 1284q0 -40 -61 -78l-234 -147h-106
l229 221q39 38 58.5 50.5t45.5 12.5q29 0 48.5 -16.5t19.5 -42.5z" />
    <glyph glyph-name="ucircumflex" unicode="&#xfb;" horiz-adv-x="1007" 
d="M956 0h-270l2 170q-6 -20 -16 -42.5t-31 -52t-47 -52t-67 -38.5t-89 -16q-53 0 -96.5 12t-74 35t-54 51.5t-38.5 67.5t-24.5 75.5t-14 83.5t-6 83.5t-1.5 83.5v354q0 19 -6.5 33.5t-14.5 22t-21.5 12.5t-22 6t-20.5 1.5t-13 0.5v51h284v-543q0 -43 0.5 -66t3.5 -65.5
t8.5 -68t16.5 -57.5t27 -50t41 -30.5t57 -12.5q103 0 156 121t53 342v305q0 19 -6 33.5t-14.5 21.5t-21 11.5t-21 5.5t-20 1.5t-13.5 0.5v51h284v-813q0 -17 4 -30t11 -21t14.5 -13.5t18 -8t16.5 -3.5t15.5 -1.5t10.5 -0.5v-51zM727 1059h-88l-172 166l-168 -166h-90
l205 287h106z" />
    <glyph glyph-name="udieresis" unicode="&#xfc;" horiz-adv-x="1007" 
d="M956 0h-270l2 170q-6 -20 -16 -42.5t-31 -52t-47 -52t-67 -38.5t-89 -16q-53 0 -96.5 12t-74 35t-54 51.5t-38.5 67.5t-24.5 75.5t-14 83.5t-6 83.5t-1.5 83.5v354q0 19 -6.5 33.5t-14.5 22t-21.5 12.5t-22 6t-20.5 1.5t-13 0.5v51h284v-543q0 -43 0.5 -66t3.5 -65.5
t8.5 -68t16.5 -57.5t27 -50t41 -30.5t57 -12.5q103 0 156 121t53 342v305q0 19 -6 33.5t-14.5 21.5t-21 11.5t-21 5.5t-20 1.5t-13.5 0.5v51h284v-813q0 -17 4 -30t11 -21t14.5 -13.5t18 -8t16.5 -3.5t15.5 -1.5t10.5 -0.5v-51zM711 1198q0 -39 -28 -66.5t-67 -27.5
q-40 0 -67 27t-27 67q0 38 27 65t67 27q39 0 67 -27t28 -65zM430 1198q0 -40 -27 -67t-65 -27q-39 0 -67.5 27.5t-28.5 66.5q0 38 28.5 65t67.5 27q38 0 65 -27t27 -65z" />
    <glyph glyph-name="yacute" unicode="&#xfd;" horiz-adv-x="819" 
d="M844 891q-18 -2 -29 -4.5t-30.5 -21t-30.5 -52.5q-1 -4 -93 -276t-190 -560t-111 -323q-30 -80 -49 -109q-52 -75 -149 -75q-76 0 -115 40.5t-39 81.5q0 51 22 80t60 29q78 0 78 -86q0 -5 -4 -19.5t-5.5 -25.5t5 -20t24.5 -9q29 0 46 28t34 83l99 311q-310 839 -314 856
q-5 16 -12 28t-15 19.5t-14.5 12t-16 7t-14.5 3.5t-13 1.5t-9 0.5v51h379v-51l-8 -1q-8 0 -11.5 -0.5t-12 -2t-13 -3t-12 -4.5t-11 -7t-8 -10t-5.5 -13t0 -16.5t5 -20.5q15 -46 199 -584q67 201 113.5 348.5t59.5 194.5l13 47q3 16 4.5 27.5t-6 19.5t-13.5 12.5t-18 7
t-19 3.5t-16.5 1.5t-11.5 0.5v51h277v-51zM692 1284q0 -40 -61 -78l-234 -147h-106l229 221q39 37 59 50t46 13q29 0 48 -16.5t19 -42.5z" />
    <glyph glyph-name="thorn" unicode="&#xfe;" horiz-adv-x="962" 
d="M924 469q0 -207 -112.5 -351.5t-279.5 -144.5q-145 0 -208 119v-483q0 -22 6.5 -36.5t20 -21.5t21.5 -10t25.5 -4.5t18.5 -1.5v-51h-369v51q1 0 10 0.5t15 2t16.5 4t18 8t15 13.5t11.5 21t4 29v1812q0 23 -7.5 38.5t-21.5 22t-24.5 9t-26 2.5h-16.5v53h283v-719
q24 61 82.5 98.5t140.5 37.5q174 0 275.5 -142.5t101.5 -355.5zM731 469q0 97 -9.5 170t-32 132t-63.5 89.5t-100 30.5q-96 0 -149 -107.5t-53 -312.5q0 -210 52 -316t150 -106q59 0 100 30.5t63.5 89t32 131t9.5 169.5z" />
    <glyph glyph-name="ydieresis" unicode="&#xff;" horiz-adv-x="819" 
d="M844 891q-18 -2 -29 -4.5t-30.5 -21t-30.5 -52.5q-1 -4 -93 -276t-190 -560t-111 -323q-30 -80 -49 -109q-52 -75 -149 -75q-76 0 -115 40.5t-39 81.5q0 51 22 80t60 29q78 0 78 -86q0 -5 -4 -19.5t-5.5 -25.5t5 -20t24.5 -9q29 0 46 28t34 83l99 311q-310 839 -314 856
q-5 16 -12 28t-15 19.5t-14.5 12t-16 7t-14.5 3.5t-13 1.5t-9 0.5v51h379v-51l-8 -1q-8 0 -11.5 -0.5t-12 -2t-13 -3t-12 -4.5t-11 -7t-8 -10t-5.5 -13t0 -16.5t5 -20.5q15 -46 199 -584q67 201 113.5 348.5t59.5 194.5l13 47q3 16 4.5 27.5t-6 19.5t-13.5 12.5t-18 7
t-19 3.5t-16.5 1.5t-11.5 0.5v51h277v-51zM662 1198q0 -39 -28 -66.5t-67 -27.5q-40 0 -67 27t-27 67q0 38 27 65t67 27q39 0 67 -27t28 -65zM381 1198q0 -40 -27 -67t-65 -27q-39 0 -67.5 27.5t-28.5 66.5q0 38 28.5 65t67.5 27q38 0 65 -27t27 -65z" />
    <glyph glyph-name="dotlessi" unicode="&#x131;" horiz-adv-x="477" 
d="M426 0h-375v51q1 0 10.5 0.5t14 1t14.5 3t16 5.5t14 9t12.5 13.5t7.5 19.5t3 26v684q0 17 -4 30t-11.5 21t-15 13.5t-18 8t-17 3.5t-16 1.5t-10.5 0.5v51h279v-817q0 -19 6 -33.5t14.5 -21.5t21 -11.5t21 -5.5t20 -1.5t13.5 -0.5v-51z" />
    <glyph glyph-name="Lslash" unicode="&#x141;" horiz-adv-x="884" 
d="M885 266q-6 -31 -41.5 -125.5t-55.5 -115.5q-16 -16 -27.5 -20.5t-31.5 -4.5h-16h-652v51q1 0 10.5 0.5t14.5 1t15 3t16.5 5.5t14.5 9t12.5 13.5t8 19.5t3.5 26v653l-156 -86v90l156 88v455q0 84 -95 84v51h412v-51q-1 0 -13.5 -0.5t-20.5 -1.5t-21.5 -4t-23 -9
t-19 -14.5t-14.5 -22.5t-5 -32v-342l201 113v-92l-201 -113v-819h164q42 0 79 8t63 18.5t51.5 31t40 34.5t32.5 40.5t24.5 37.5t20.5 37z" />
    <glyph glyph-name="lslash" unicode="&#x142;" horiz-adv-x="475" 
d="M438 967l-108 -64v-778q0 -19 6 -33.5t14.5 -21.5t21 -11.5t21 -5.5t20 -1.5t13.5 -0.5v-51h-375v51q1 0 10.5 0.5t14 1t14.5 3t16 5.5t14 9t12.5 13.5t7.5 19.5t3 26v664l-102 -62v80l102 61v545q0 17 -4 30t-11.5 21.5t-14.5 14t-18.5 8t-17 4t-15.5 1.5l-11 1v51h279
v-565l108 66v-82z" />
    <glyph glyph-name="OE" unicode="&#x152;" horiz-adv-x="1634" 
d="M1634 264q-5 -30 -42.5 -124t-57.5 -115q-16 -16 -27.5 -20.5t-31.5 -4.5h-17h-536v158q-11 -26 -35 -55t-63.5 -60t-100.5 -51.5t-131 -20.5q-99 0 -185.5 39t-151 108.5t-111 164.5t-70 209.5t-23.5 240.5q0 211 63.5 382.5t188.5 274.5t289 103q117 0 209 -61
t121 -123v159h231l285 -2h4q32 0 49 -28q18 -31 36.5 -98.5t20.5 -92.5q-18 -6 -53 -10q-31 70 -52 94q-54 62 -165 62h-158v-475h215q3 11 10.5 29t33 57t55.5 59l55 -37q-86 -75 -86 -205q0 -42 8 -73q-14 -7 -65 -19q-17 37 -17 100v9h-209v-760h152q55 0 101 14
t74.5 31.5t55.5 49t38.5 50.5t29.5 51q4 8 6 11q19 -5 33.5 -10.5t19.5 -8.5zM922 639v197q0 128 -20 232.5t-59.5 182.5t-103.5 121t-147 43q-330 0 -330 -680t330 -680q84 0 148 43.5t103.5 122.5t59 184t19.5 234z" />
    <glyph glyph-name="oe" unicode="&#x153;" horiz-adv-x="1429" 
d="M1389 549h-547q-6 -40 -6 -66v-28q0 -406 204 -406q48 0 89 20.5t67 50t44.5 64t26 61.5t7.5 44h86q0 -13 -6.5 -39t-20.5 -62.5t-39.5 -73.5t-58.5 -69t-83.5 -52t-109.5 -20q-78 0 -162 38t-143 120q-115 -158 -299 -158q-127 0 -218.5 67.5t-135 178t-43.5 250.5
q0 138 47.5 250.5t139 180t210.5 67.5q193 0 307 -170q59 80 140 126t166 46q81 0 143.5 -31t98 -76.5t58.5 -105t30.5 -109.5t7.5 -98zM1212 633q-1 5 -4 36.5t-6.5 54.5t-15 57.5t-27 56.5t-44 38.5t-66.5 16.5q-88 0 -132 -67t-65 -193h360zM641 469q0 97 -9.5 170
t-32 132t-63.5 89.5t-100 30.5t-100 -30.5t-63.5 -89.5t-32 -132t-9.5 -170t9.5 -169.5t32 -131t63.5 -89t100 -30.5t100 30.5t63.5 89t32 131t9.5 169.5z" />
    <glyph glyph-name="Scaron" unicode="&#x160;" horiz-adv-x="901" 
d="M850 358q0 -173 -108.5 -279t-282.5 -106q-65 0 -138.5 25t-82.5 25q-19 0 -25 -23h-63l-119 344l61 16q37 -88 87.5 -152t96 -93t86 -46t64.5 -19l25 -1q101 0 168 72t67 180q0 4 -1 13t-1 14q-6 73 -43 134t-96 110.5t-168 121.5q-54 35 -96 67.5t-85.5 76t-72 87.5
t-46.5 99.5t-18 114.5q0 156 100 254t265 98q48 0 90 -12.5t68.5 -24.5t35.5 -12q18 0 21 26h57l80 -272l-59 -10q-28 65 -69.5 112.5t-80.5 69t-74.5 34t-56.5 14.5l-22 1q-96 0 -149.5 -51t-53.5 -147q0 -4 1 -11.5t1 -11.5q2 -26 10 -52t16 -46.5t28.5 -46t31.5 -40.5
t41.5 -41t42 -36.5t50 -38t48 -34.5t51.5 -36q63 -44 97 -70.5t83 -74t74.5 -89.5t44.5 -103t19 -130zM688 1870l-205 -287h-106l-207 287h90l170 -166l170 166h88z" />
    <glyph glyph-name="scaron" unicode="&#x161;" horiz-adv-x="655" 
d="M614 248q0 -122 -80.5 -198.5t-207.5 -76.5q-49 0 -105.5 20.5t-62.5 20.5q-14 0 -17 -14h-59l-62 231l56 13q24 -56 58 -97t66 -59.5t60.5 -29.5t45.5 -12l18 -1q72 0 113.5 43t41.5 113q0 43 -24.5 78.5t-63 61t-85.5 50.5t-94 53.5t-85.5 62t-63 83.5t-24.5 112
q0 120 72 193.5t198 73.5q36 0 65.5 -10.5t48 -20.5t26.5 -10q11 0 14 14h49l61 -207l-55 -10q-20 47 -49 81.5t-56 50.5t-51 25t-38 10l-15 1q-65 0 -100 -37t-35 -100q0 -40 24.5 -73t63 -57t85.5 -48.5t94 -53.5t85.5 -64.5t63 -90t24.5 -121.5zM565 1346l-205 -287h-106
l-207 287h90l170 -166l170 166h88z" />
    <glyph glyph-name="Ydieresis" unicode="&#x178;" horiz-adv-x="931" 
d="M973 1415q-74 -8 -105 -76q-17 -34 -130 -291t-156 -358v-18v-543q0 -17 4.5 -30t12 -21t16 -13.5t19.5 -8t18.5 -3.5t17 -1.5t10.5 -0.5v-51h-391v51q50 4 70 22q22 20 22 60v445v110q-205 434 -313 655q-8 15 -16.5 27t-18.5 19.5t-17.5 12.5t-18 7.5t-15.5 3.5t-14 1
l-9 1v51h363v-51q-56 0 -56 -39q0 -19 10 -39q27 -54 254 -542l238 542q8 16 8 35q0 43 -57 43v51h254v-51zM727 1722q0 -39 -27.5 -66.5t-66.5 -27.5q-40 0 -67 27t-27 67q0 38 27.5 65.5t66.5 27.5q38 0 66 -27.5t28 -65.5zM446 1722q0 -40 -27 -67t-65 -27
q-39 0 -67.5 27.5t-28.5 66.5q0 38 28.5 65.5t67.5 27.5q38 0 65 -27.5t27 -65.5z" />
    <glyph glyph-name="Zcaron" unicode="&#x17d;" horiz-adv-x="886" 
d="M887 266q-6 -31 -42.5 -125.5t-56.5 -115.5q-16 -16 -29 -20.5t-36 -4.5h-16h-707v45l643 1346h-283q-42 -1 -75 -10.5t-53 -22t-37 -35.5t-25 -38.5t-19 -41.5q-4 -9 -6 -14l-59 10q2 27 19.5 96.5t35.5 100.5q15 30 56 30h677l3 -45l-648 -1345h299q29 0 56 4t47.5 9.5
t41 17t34 19.5t29.5 24.5t24 25.5t20.5 28.5t16.5 26.5t15 27.5t13 24.5zM784 1870l-204 -287h-107l-207 287h90l170 -166l170 166h88z" />
    <glyph glyph-name="zcaron" unicode="&#x17e;" horiz-adv-x="794" 
d="M782 221l-59 -221h-703v51l498 817h-149q-63 0 -97 -10t-61 -35q-38 -36 -68 -112q-14 2 -65 10l59 221h617v-51l-490 -819h236q49 0 88 15t64.5 43.5t36.5 46t25 46.5l3 6q14 0 65 -8zM717 1346l-205 -287h-106l-207 287h90l170 -166l170 166h88z" />
    <glyph glyph-name="florin" unicode="&#x192;" horiz-adv-x="860" 
d="M922 1339q0 -43 -26 -78.5t-65 -35.5q-27 0 -44 8t-23.5 22.5t-8 23.5t-1.5 21v3q0 9 8 34.5t8 38.5q0 39 -61 39q-64 0 -102 -67.5t-72 -212.5q-5 -21 -58 -242h275l2 -82h-293q-74 -305 -260 -1126h-201q80 361 143.5 642.5t86.5 382.5l24 101h-213v82h235l60 254
q38 167 131 254.5t235 87.5q117 0 168.5 -44.5t51.5 -105.5z" />
    <glyph glyph-name="circumflex" unicode="&#x2c6;" 
d="M776 1059h-88l-172 166l-168 -166h-90l205 287h106z" />
    <glyph glyph-name="caron" unicode="&#x2c7;" 
d="M774 1346l-205 -287h-106l-207 287h90l170 -166l170 166h88z" />
    <glyph glyph-name="uni02C9" unicode="&#x2c9;" 
d="M768 1143h-512v112h512v-112z" />
    <glyph glyph-name="breve" unicode="&#x2d8;" 
d="M731 1343q-1 -55 -14 -103.5t-39 -90t-71.5 -66t-104.5 -24.5q-219 0 -223 284h88q20 -149 135 -149q59 0 91.5 34.5t49.5 114.5h88z" />
    <glyph glyph-name="dotaccent" unicode="&#x2d9;" 
d="M649 1200q0 -53 -37.5 -90t-91.5 -37t-90.5 37t-36.5 90q0 54 36.5 91.5t90.5 37.5t91.5 -37.5t37.5 -91.5z" />
    <glyph glyph-name="ring" unicode="&#x2da;" 
d="M682 1225q0 -69 -48.5 -117.5t-117.5 -48.5t-117.5 48.5t-48.5 117.5q0 68 49 116t117 48t117 -48t49 -116zM608 1225q0 38 -27 64t-65 26q-37 0 -63.5 -26t-26.5 -64t26.5 -64t63.5 -26q38 0 65 26t27 64z" />
    <glyph glyph-name="ogonek" unicode="&#x2db;" 
d="M680 -324q-15 -18 -28 -29t-43.5 -21.5t-71.5 -10.5q-78 0 -128.5 38.5t-50.5 110.5q0 136 183 236h102q-91 -77 -119 -109q-47 -57 -47 -114q0 -32 20 -52t48 -20q23 0 39.5 5t24.5 11t27 23q5 4 7 6z" />
    <glyph glyph-name="tilde" unicode="&#x2dc;" 
d="M770 1290q0 -76 -36 -130t-116 -54q-45 0 -90 18t-79.5 36t-53.5 18q-30 0 -51.5 -16.5t-21.5 -51.5h-68q0 188 147 188q51 0 124.5 -35.5t99.5 -35.5q35 0 55 13t20 50h70z" />
    <glyph glyph-name="hungarumlaut" unicode="&#x2dd;" 
d="M870 1284q0 -40 -61 -78l-234 -147h-106l227 221q30 27 42.5 37.5t29 18t35.5 7.5q29 0 48 -16.5t19 -42.5zM567 1284q0 -40 -61 -78l-234 -147h-106l229 221q39 37 59 50t46 13q29 0 48 -16.5t19 -42.5z" />
    <glyph glyph-name="uni03A9" unicode="&#x3a9;" horiz-adv-x="1351" 
d="M1266 0h-478v262q65 35 116 99t80 140.5t43.5 155.5t14.5 156q0 267 -94 420t-272 153q-93 0 -165 -43.5t-116.5 -121.5t-67 -181t-22.5 -227q0 -121 30 -234t92 -202.5t146 -122.5v-254h-487v299h53q0 -33 1.5 -52.5t8 -43.5t19 -37t36 -22t58.5 -9h227v64
q-77 31 -145.5 86t-123 131t-86.5 178t-32 215q0 298 158.5 473.5t417.5 175.5q130 0 239 -52t181.5 -140t112.5 -202.5t40 -240.5q0 -122 -40.5 -241.5t-128.5 -222.5t-210 -152v-72h218q34 0 57.5 9t36 22t19 37t8 43.5t1.5 52.5h54v-299z" />
    <glyph glyph-name="uni03BC" unicode="&#x3bc;" horiz-adv-x="1007" 
d="M956 0h-270l2 170q-6 -20 -16 -42.5t-31 -52t-47 -52t-67 -38.5t-89 -16q-36 0 -72.5 13t-48.5 30v-301h-190v1106q0 19 -6 33.5t-14.5 22t-21.5 12.5t-21 6t-20 1.5t-13 0.5v51h286v-653q0 -49 7.5 -90t24.5 -76.5t47.5 -55.5t72.5 -20q103 0 156 121t53 342v307
q0 19 -6 33.5t-14.5 21.5t-21 11.5t-21 5.5t-20 1.5t-13.5 0.5v51h284v-815q0 -17 4 -30t11 -21t14.5 -13.5t18 -8t16.5 -3.5t15.5 -1.5t10.5 -0.5v-51z" />
    <glyph glyph-name="pi" unicode="&#x3c0;" horiz-adv-x="860" 
d="M817 195q-43 -220 -141 -220q-68 0 -96 64q-16 29 -24.5 78t-9.5 83t-1 93v543h-197v-392q0 -298 -59 -397q-42 -72 -109 -72q-25 0 -44 19.5t-19 48.5q0 55 63 78q55 19 71.5 105t16.5 261v349h-43q-49 0 -76.5 -30t-39.5 -101l-50 12q3 127 54 198.5t137 71.5h543v-151
h-168v-469q0 -149 20 -205q18 -58 53 -58q48 0 82 119z" />
    <glyph glyph-name="endash" unicode="&#x2013;" horiz-adv-x="1120" 
d="M1059 506h-998v98h998v-98z" />
    <glyph glyph-name="emdash" unicode="&#x2014;" horiz-adv-x="1443" 
d="M1382 506h-1321v98h1321v-98z" />
    <glyph glyph-name="quoteleft" unicode="&#x2018;" horiz-adv-x="389" 
d="M328 1118q0 -51 -40 -86t-89 -35h-9q-63 4 -96 53t-33 121v23q6 79 34 148t65 110.5t70 66.5t57 33l20 -69q-56 -28 -90.5 -90.5t-40.5 -151.5q18 6 29 6h8q49 -3 82 -41t33 -88z" />
    <glyph glyph-name="quoteright" unicode="&#x2019;" horiz-adv-x="389" 
d="M328 1356q-6 -79 -34 -148t-65 -111t-70 -67t-57 -33l-20 70q119 63 131 242q-18 -6 -29 -6h-8q-49 4 -82 41.5t-33 87.5q0 52 39.5 86t89.5 34h9q63 -4 96 -53t33 -121v-22z" />
    <glyph glyph-name="quotesinglbase" unicode="&#x201a;" horiz-adv-x="389" 
d="M328 51q-6 -79 -34 -148t-65 -110.5t-70 -66.5t-57 -33l-20 69q56 28 90.5 90.5t40.5 151.5q-18 -6 -29 -6h-8q-49 3 -82 41t-33 88q0 52 39.5 86.5t89.5 34.5h9q63 -4 96 -53t33 -121v-23z" />
    <glyph glyph-name="quotedblleft" unicode="&#x201c;" horiz-adv-x="737" 
d="M676 1118q0 -51 -40 -86t-89 -35h-8q-63 4 -96 53t-33 121v23q5 64 24.5 122t45.5 97t56.5 70t55 47t43.5 22l20 -69q-56 -28 -90.5 -90.5t-40.5 -151.5q18 6 29 6h8q49 -3 82 -41t33 -88zM328 1118q0 -51 -40 -86t-89 -35h-9q-63 4 -96 53t-33 121v23q6 79 34 148
t65 110.5t70 66.5t57 33l20 -69q-56 -28 -90.5 -90.5t-40.5 -151.5q18 6 29 6h8q49 -3 82 -41t33 -88z" />
    <glyph glyph-name="quotedblright" unicode="&#x201d;" horiz-adv-x="737" 
d="M676 1356q-6 -79 -33.5 -148t-65 -111t-70 -67t-56.5 -33l-21 70q119 63 131 242q-18 -6 -29 -6h-8q-49 4 -81.5 41.5t-32.5 87.5q0 52 39.5 86t89.5 34h8q63 -4 96 -53t33 -121v-22zM328 1356q-6 -79 -34 -148t-65 -111t-70 -67t-57 -33l-20 70q119 63 131 242
q-18 -6 -29 -6h-8q-49 4 -82 41.5t-33 87.5q0 52 39.5 86t89.5 34h9q63 -4 96 -53t33 -121v-22z" />
    <glyph glyph-name="quotedblbase" unicode="&#x201e;" horiz-adv-x="737" 
d="M696 51q-5 -64 -24.5 -122t-45.5 -97t-56.5 -70t-55 -47t-43.5 -22l-20 69q56 28 90.5 90.5t40.5 151.5q-18 -6 -29 -6h-8q-49 3 -82 41t-33 88q0 52 39.5 86.5t89.5 34.5h8q63 -4 96 -53t33 -121v-23zM328 51q-6 -79 -34 -148t-65 -110.5t-70 -66.5t-57 -33l-20 69
q56 28 90.5 90.5t40.5 151.5q-18 -6 -29 -6h-8q-49 3 -82 41t-33 88q0 52 39.5 86.5t89.5 34.5h9q63 -4 96 -53t33 -121v-23z" />
    <glyph glyph-name="dagger" unicode="&#x2020;" horiz-adv-x="786" 
d="M725 903l-240 -6l-8 -897h-170l-6 897l-240 6v90l240 6l6 467h170l8 -467l240 -6v-90z" />
    <glyph glyph-name="daggerdbl" unicode="&#x2021;" horiz-adv-x="786" 
d="M725 479l-244 -8l-6 -473h-172l-8 473l-234 8v90l234 6v418l-234 6v91l234 6l8 372h172l6 -372l244 -6v-91l-244 -6v-418l244 -6v-90z" />
    <glyph glyph-name="bullet" unicode="&#x2022;" horiz-adv-x="405" 
d="M395 854q0 -80 -56.5 -136t-135.5 -56q-80 0 -136.5 56.5t-56.5 135.5q0 78 57 134t136 56t135.5 -56t56.5 -134z" />
    <glyph glyph-name="ellipsis" unicode="&#x2026;" horiz-adv-x="1198" 
d="M1137 119q0 -54 -37.5 -90.5t-91.5 -36.5t-90.5 36.5t-36.5 90.5t36.5 91.5t90.5 37.5t91.5 -37.5t37.5 -91.5zM727 119q0 -54 -37.5 -90.5t-91.5 -36.5t-90.5 36.5t-36.5 90.5t36.5 91.5t90.5 37.5t91.5 -37.5t37.5 -91.5zM317 119q0 -54 -37.5 -90.5t-91.5 -36.5
t-90.5 36.5t-36.5 90.5t36.5 91.5t90.5 37.5t91.5 -37.5t37.5 -91.5z" />
    <glyph glyph-name="perthousand" unicode="&#x2030;" horiz-adv-x="2002" 
d="M1942 317q0 -145 -81 -247.5t-198 -102.5t-199 102.5t-82 247.5t82 247t199 102t198 -102t81 -247zM621 1141q0 -145 -81 -246.5t-198 -101.5t-199 101.5t-82 246.5t82 247.5t199 102.5t198 -102.5t81 -247.5zM1026 1468l-614 -1468h-99l613 1464zM1266 317
q0 -145 -81 -247.5t-198 -102.5t-198.5 102.5t-81.5 247.5t81.5 247t198.5 102t198 -102t81 -247zM1796 317q0 136 -33.5 216.5t-101.5 80.5t-101.5 -80.5t-33.5 -216.5q0 -135 33.5 -214.5t101.5 -79.5t101.5 79.5t33.5 214.5zM475 1141q0 136 -33.5 216.5t-101.5 80.5
t-101.5 -80.5t-33.5 -216.5q0 -135 33.5 -215t101.5 -80t101.5 80t33.5 215zM1120 317q0 136 -33.5 216.5t-101.5 80.5t-101.5 -80.5t-33.5 -216.5q0 -135 33.5 -214.5t101.5 -79.5t101.5 79.5t33.5 214.5z" />
    <glyph glyph-name="guilsinglleft" unicode="&#x2039;" horiz-adv-x="548" 
d="M487 164l-47 -53l-379 372l379 381l45 -55q-88 -128 -144 -209t-69 -98l-12 -17q30 -37 227 -321z" />
    <glyph glyph-name="guilsinglright" unicode="&#x203a;" horiz-adv-x="548" 
d="M487 483l-378 -372l-48 53q88 127 145 207t70 97l13 17q-29 36 -226 324l46 55z" />
    <glyph glyph-name="fraction" unicode="&#x2044;" horiz-adv-x="835" 
d="M774 1468l-614 -1468h-99l613 1464z" />
    <glyph glyph-name="Euro" unicode="&#x20ac;" horiz-adv-x="1118" 
d="M1098 457q-1 -11 -5.5 -37.5t-18.5 -73t-33.5 -95t-53.5 -99.5t-76 -90.5t-103.5 -65t-133.5 -25.5q-145 0 -266 90.5t-191 244.5t-76 339h-90v82h84v49q0 22 2 51h-86v82h96q38 260 178 422t347 162q50 0 93.5 -11.5t70 -23.5t34.5 -12q12 0 15 27h61l94 -285l-59 -10
q-58 111 -130 174t-179 63q-281 0 -320 -506h375v-82h-379q0 -13 -1 -23.5t-1 -25.5q0 -8 1 -25.5t1 -25.5h377v-82h-375q5 -273 87 -432.5t237 -159.5q52 0 98.5 20t79.5 52.5t60.5 73.5t45 81.5t29 78.5t16.5 63.5t5 36.5z" />
    <glyph glyph-name="litre" unicode="&#x2113;" horiz-adv-x="698" 
d="M696 225q-75 -250 -264 -250q-101 0 -166 62q-38 37 -58 98t-20 129v162q-11 -13 -108 -125l-45 55q115 128 153 179v491q0 120 30 217t91 156t142 59q89 0 131.5 -55.5t42.5 -149.5q0 -212 -142 -467q-83 -144 -108 -172v-352q0 -92 29 -139t75 -47q88 0 150 176z
M553 1249q0 58 -20 95.5t-64 37.5q-43 0 -68.5 -64.5t-25.5 -197.5v-372q0 1 24.5 45t38.5 73q53 96 84 202t31 181z" />
    <glyph glyph-name="trademark" unicode="&#x2122;" horiz-adv-x="1599" 
d="M1538 469h-262v47h20q38 0 41 29q0 11 1 66.5t1 74.5q-2 78 -2 465l-229 -696h-80l-240 680q0 -86 -1 -269.5t-1 -269.5v-23q-1 -40 4.5 -47t38.5 -10q12 -1 19 -2v-45h-211v47q34 0 45 8q12 9 12 101v843h117l276 -772l254 772h129v-870v-25q-1 -39 7 -46q7 -6 45 -11
q10 -1 16 -2v-45zM600 1309q-8 -2 -19 -8.5t-24 -8.5q-27 63 -61 88t-101 25v-856q0 -10 4 -16.5t13.5 -9.5t15 -4.5t18.5 -2t15 -0.5v-45h-260v47q16 0 22 0.5t18 3t16.5 10t4.5 19.5v854q-69 0 -99.5 -24t-58.5 -89q-13 2 -24 8.5t-19 8.5q1 26 14.5 65t28.5 64
q18 30 56 30h342q39 0 55 -30q15 -24 28.5 -63t14.5 -66z" />
    <glyph glyph-name="Omega" unicode="&#x2126;" horiz-adv-x="1351" 
d="M1266 0h-478v262q65 35 116 99t80 140.5t43.5 155.5t14.5 156q0 267 -94 420t-272 153q-93 0 -165 -43.5t-116.5 -121.5t-67 -181t-22.5 -227q0 -121 30 -234t92 -202.5t146 -122.5v-254h-487v299h53q0 -33 1.5 -52.5t8 -43.5t19 -37t36 -22t58.5 -9h227v64
q-77 31 -145.5 86t-123 131t-86.5 178t-32 215q0 298 158.5 473.5t417.5 175.5q130 0 239 -52t181.5 -140t112.5 -202.5t40 -240.5q0 -122 -40.5 -241.5t-128.5 -222.5t-210 -152v-72h218q34 0 57.5 9t36 22t19 37t8 43.5t1.5 52.5h54v-299z" />
    <glyph glyph-name="estimated" unicode="&#x212e;" horiz-adv-x="1251" 
d="M1176 555h-857v-403q123 -123 304 -123q134 0 243.5 68t182.5 192l53 -31q-63 -93 -127.5 -152.5t-153.5 -95t-198 -35.5q-122 0 -225 45.5t-171.5 124t-106.5 184t-38 226.5t38 226.5t106.5 184t171 124t225.5 45.5q168 0 293 -77.5t189.5 -207.5t70.5 -295zM930 608
v344q-129 129 -309 129t-302 -125v-348h611z" />
    <glyph glyph-name="partialdiff" unicode="&#x2202;" horiz-adv-x="942" 
d="M883 977q0 -121 -28.5 -280t-74.5 -277q-89 -226 -183 -336.5t-230 -110.5q-102 0 -174 56.5t-105 146.5t-33 203q0 154 53 284t155.5 210.5t234.5 80.5q108 0 176.5 -57t91.5 -127h4q6 102 6 168q0 56 -8 110.5t-27 109t-48 95.5t-74.5 67t-102.5 26q-88 0 -153 -38.5
t-125 -111.5l-35 39q31 47 60.5 82.5t75 75t105.5 61t129 21.5q87 0 149 -37t96.5 -107t49.5 -156t15 -198zM754 666q-9 35 -24 67.5t-40 65.5t-65.5 53t-89.5 20q-81 0 -149.5 -69.5t-109 -191.5t-40.5 -269q0 -137 55 -211t135 -74q50 0 96.5 37.5t82 98t65.5 142
t50 163.5t34 168z" />
    <glyph glyph-name="Delta" unicode="&#x2206;" horiz-adv-x="1091" 
d="M1055 0h-1014l442 1458h144zM842 88l-334 1088l-350 -1088h684z" />
    <glyph glyph-name="product" unicode="&#x220f;" horiz-adv-x="1267" 
d="M1196 -268h-434v53h31q31 0 51 12t28.5 36.5t11.5 48.5t3 61v1409h-508v-1409q0 -37 3 -61t11.5 -48.5t28 -36.5t49.5 -12h31v-53h-430v53h30q57 0 75 41t18 117v1280q0 51 -5 81.5t-26.5 53t-61.5 22.5h-30v54h1124v-54h-29q-26 0 -43.5 -8.5t-27.5 -21t-15 -35
t-6.5 -42t-1.5 -50.5v-1280q0 -38 3 -62t11.5 -48.5t28 -36t49.5 -11.5h31v-53z" />
    <glyph glyph-name="summation" unicode="&#x2211;" horiz-adv-x="987" 
d="M954 53l-24 -321h-910l-2 61l455 774l-438 807v60h866l14 -279h-49q-8 114 -33.5 154.5t-103.5 40.5h-504l385 -688l-452 -775h594q82 0 109.5 35t41.5 139z" />
    <glyph glyph-name="minus" unicode="&#x2212;" horiz-adv-x="997" 
d="M936 424h-875v125h875v-125z" />
    <glyph glyph-name="uni2215" unicode="&#x2215;" horiz-adv-x="835" 
d="M774 1468l-614 -1468h-99l613 1464z" />
    <glyph glyph-name="uni2219" unicode="&#x2219;" horiz-adv-x="378" 
d="M317 479q0 -54 -37.5 -90.5t-91.5 -36.5t-90.5 36.5t-36.5 90.5t36.5 91.5t90.5 37.5t91.5 -37.5t37.5 -91.5z" />
    <glyph glyph-name="radical" unicode="&#x221a;" horiz-adv-x="743" 
d="M565 1491l-151 -1516h-103l-194 687l-86 -60l-39 60l198 135l170 -635h2l136 1329h67z" />
    <glyph glyph-name="infinity" unicode="&#x221e;" horiz-adv-x="1323" 
d="M956 293q-104 0 -168 49.5t-116 144.5h-4q-55 -88 -124.5 -141t-168.5 -53q-116 0 -192.5 78.5t-76.5 199.5q0 125 73 205t190 80q175 0 276 -188h2q61 92 128.5 140t172.5 48q111 0 186.5 -77.5t75.5 -198.5q0 -123 -73.5 -205t-180.5 -82zM958 776q-21 0 -40 -3
t-36.5 -11.5t-30 -15t-28 -23t-24 -25.5t-23.5 -32t-21 -32.5t-23 -38t-23 -38.5q46 -91 103.5 -137.5t141.5 -46.5q86 0 134.5 60.5t48.5 139.5q0 89 -45 146t-134 57zM373 776q-86 0 -139.5 -55t-53.5 -146q0 -92 49.5 -147t137.5 -55q35 0 68.5 17t56 37.5t47.5 57.5
t37 58t30 57q-35 74 -93.5 125t-139.5 51z" />
    <glyph glyph-name="integral" unicode="&#x222b;" horiz-adv-x="489" 
d="M465 1432q0 -26 -11.5 -47t-37.5 -21t-54 25q-27 24 -53 24q-41 0 -41 -74q-1 -36 12.5 -134.5t18.5 -166.5q27 -222 27 -506q0 -309 -15 -473q-21 -263 -43 -338q-21 -75 -52.5 -114t-88.5 -39q-43 0 -78 27t-35 69q0 30 17 50t45 20q25 0 47 -31q16 -16 43 -16
q12 0 19.5 5.5t15.5 35t10 84.5q1 23 -5 66t-16 104t-14 94q-20 228 -20 452q0 195 12 420q12 308 35 424q17 79 54.5 119.5t86.5 40.5q53 0 87 -30t34 -70z" />
    <glyph glyph-name="approxequal" unicode="&#x2248;" horiz-adv-x="997" 
d="M938 895q-25 -116 -88 -188t-160 -72q-55 0 -107 19t-122 61q-94 55 -156 55q-63 0 -99.5 -34t-66.5 -115l-82 32q63 260 254 260q91 0 211 -71q111 -64 176 -64q56 0 91.5 36t64.5 114zM938 516q-25 -114 -88 -186t-160 -72q-55 0 -106.5 19t-122.5 59q-94 55 -156 55
q-63 0 -99.5 -34t-66.5 -115l-82 34q64 259 254 259q86 0 211 -70q106 -64 176 -64q56 0 91.5 36t64.5 112z" />
    <glyph glyph-name="notequal" unicode="&#x2260;" horiz-adv-x="997" 
d="M913 336h-462l-136 -313h-129l136 313h-240v125h293l110 246h-403v127h457l139 317h131l-139 -317h243v-127h-299l-108 -246h407v-125z" />
    <glyph glyph-name="lessequal" unicode="&#x2264;" horiz-adv-x="997" 
d="M913 0h-831v125h831v-125zM913 217l-831 381v121l831 379v-137l-675 -302l675 -303v-139z" />
    <glyph glyph-name="greaterequal" unicode="&#x2265;" horiz-adv-x="997" 
d="M913 0h-831v125h831v-125zM913 596l-831 -381v139l678 301l-678 303v140l831 -381v-121z" />
    <glyph glyph-name="lozenge" unicode="&#x25ca;" horiz-adv-x="696" 
d="M688 715l-301 -740h-84l-293 740l293 743h84zM596 715l-250 620l-244 -620l244 -619z" />
    <glyph glyph-name="A.sc" unicode="&#xe000;" horiz-adv-x="831" 
d="M852 0h-330v51q62 0 62 45q0 11 -2 17l-88 340h-252l-86 -340q-4 -16 -4 -19q0 -43 63 -43v-51h-235v51l11 1q11 0 18 2t17.5 7.5t18 17.5t12.5 30l299 1087h117l301 -1087q5 -18 12.5 -30t18.5 -17.5t17.5 -7.5t17.5 -2l12 -1v-51zM473 526l-106 428l-111 -428h217z" />
    <glyph glyph-name="AE.sc" unicode="&#xe001;" horiz-adv-x="1175" 
d="M1176 221q-7 -30 -35.5 -107.5t-44.5 -93.5q-18 -20 -49 -20h-539v51q76 0 76 64v407h-226l-188 -397q-10 -20 -10 -33q0 -40 61 -43v-49h-241v51q23 3 31.5 5t26 19t36.5 52q179 359 465 950q6 12 6 19q0 23 -47 26v52h524q27 0 39 -23q13 -24 28 -83.5t17 -80.5l-53 -8
q-1 2 -8 18.5t-9 20t-10 18t-13.5 19t-15.5 15t-20.5 14.5t-24.5 10t-31.5 8t-37.5 2h-111v-508h158q2 9 7.5 23.5t28.5 46t52 47.5l45 -29q-70 -61 -70 -174q0 -34 6 -61l-61 -13l-4 10q-3 11 -5.5 20.5t-4 25.5t-0.5 30h-152v-450h107q26 0 49 3t42.5 11t34 14t29.5 21
t23 21.5t20 25t15 23.5t14 25.5t12 21.5zM584 596v405l-191 -405h191z" />
    <glyph glyph-name="Aacute.sc" unicode="&#xe002;" horiz-adv-x="831" 
d="M616 1505q0 -40 -61 -78l-233 -147h-107l229 221q40 38 59.5 51t45.5 13q29 0 48 -17t19 -43zM852 0h-330v51q62 0 62 45q0 11 -2 17l-88 340h-252l-86 -340q-4 -16 -4 -19q0 -43 63 -43v-51h-235v51l11 1q11 0 18 2t17.5 7.5t18 17.5t12.5 30l299 1087h117l301 -1087
q5 -18 12.5 -30t18.5 -17.5t17.5 -7.5t17.5 -2l12 -1v-51zM473 526l-106 428l-111 -428h217z" />
    <glyph glyph-name="Acircumflex.sc" unicode="&#xe003;" horiz-adv-x="831" 
d="M674 1280h-88l-172 166l-168 -166h-90l204 287h107zM852 0h-330v51q62 0 62 45q0 11 -2 17l-88 340h-252l-86 -340q-4 -16 -4 -19q0 -43 63 -43v-51h-235v51l11 1q11 0 18 2t17.5 7.5t18 17.5t12.5 30l299 1087h117l301 -1087q5 -18 12.5 -30t18.5 -17.5t17.5 -7.5
t17.5 -2l12 -1v-51zM473 526l-106 428l-111 -428h217z" />
    <glyph glyph-name="Adieresis.sc" unicode="&#xe004;" horiz-adv-x="831" 
d="M649 1419q0 -39 -27.5 -66.5t-66.5 -27.5q-40 0 -67 27t-27 67q0 38 27 65t67 27q38 0 66 -27t28 -65zM369 1419q0 -39 -27.5 -66.5t-65.5 -27.5q-39 0 -67.5 27.5t-28.5 66.5q0 38 28.5 65t67.5 27q38 0 65.5 -27t27.5 -65zM852 0h-330v51q62 0 62 45q0 11 -2 17
l-88 340h-252l-86 -340q-4 -16 -4 -19q0 -43 63 -43v-51h-235v51l11 1q11 0 18 2t17.5 7.5t18 17.5t12.5 30l299 1087h117l301 -1087q5 -18 12.5 -30t18.5 -17.5t17.5 -7.5t17.5 -2l12 -1v-51zM473 526l-106 428l-111 -428h217z" />
    <glyph glyph-name="Agrave.sc" unicode="&#xe005;" horiz-adv-x="831" 
d="M616 1280h-106l-234 147q-61 38 -61 78q0 26 19.5 43t48.5 17q26 0 45 -13t59 -51zM852 0h-330v51q62 0 62 45q0 11 -2 17l-88 340h-252l-86 -340q-4 -16 -4 -19q0 -43 63 -43v-51h-235v51l11 1q11 0 18 2t17.5 7.5t18 17.5t12.5 30l299 1087h117l301 -1087
q5 -18 12.5 -30t18.5 -17.5t17.5 -7.5t17.5 -2l12 -1v-51zM473 526l-106 428l-111 -428h217z" />
    <glyph glyph-name="Aring.sc" unicode="&#xe006;" horiz-adv-x="831" 
d="M582 1446q0 -69 -48.5 -117.5t-117.5 -48.5t-117.5 48.5t-48.5 117.5q0 68 49 116t117 48t117 -48t49 -116zM508 1446q0 38 -27 64t-65 26q-37 0 -63.5 -26t-26.5 -64t26.5 -64t63.5 -26q38 0 65 26t27 64zM852 0h-330v51q62 0 62 45q0 11 -2 17l-88 340h-252l-86 -340
q-4 -16 -4 -19q0 -43 63 -43v-51h-235v51l11 1q11 0 18 2t17.5 7.5t18 17.5t12.5 30l299 1087h117l301 -1087q5 -18 12.5 -30t18.5 -17.5t17.5 -7.5t17.5 -2l12 -1v-51zM473 526l-106 428l-111 -428h217z" />
    <glyph glyph-name="Atilde.sc" unicode="&#xe007;" horiz-adv-x="831" 
d="M674 1511q0 -76 -36 -130t-116 -54q-45 0 -90 18t-79.5 36t-53.5 18q-30 0 -52 -16.5t-22 -51.5h-67q0 37 6.5 68t22 59.5t45.5 45t73 16.5q51 0 124 -36t99 -36q35 0 55.5 13t20.5 50h70zM852 0h-330v51q62 0 62 45q0 11 -2 17l-88 340h-252l-86 -340q-4 -16 -4 -19
q0 -43 63 -43v-51h-235v51l11 1q11 0 18 2t17.5 7.5t18 17.5t12.5 30l299 1087h117l301 -1087q5 -18 12.5 -30t18.5 -17.5t17.5 -7.5t17.5 -2l12 -1v-51zM473 526l-106 428l-111 -428h217z" />
    <glyph glyph-name="B.sc" unicode="&#xe008;" horiz-adv-x="888" 
d="M827 334q0 -152 -99.5 -243t-307.5 -91h-348v51q73 0 73 66v944q0 16 -4.5 27.5t-11 17.5t-16 9.5t-16 4.5t-15.5 1.5t-10 0.5v52h338q43 0 85 -7t86.5 -25.5t77.5 -47t54.5 -76t21.5 -107.5q0 -46 -19 -93.5t-63.5 -89.5t-107.5 -56q17 -4 44.5 -14t71 -37t79 -62
t61.5 -95t26 -130zM631 342q0 70 -20.5 124.5t-46 83.5t-62.5 49.5t-55.5 26t-40.5 9.5v61q57 0 98 55.5t41 145.5q0 84 -46 142.5t-132 58.5q-21 0 -31 -2v-1020h43q126 0 189 65t63 201z" />
    <glyph glyph-name="C.sc" unicode="&#xe009;" horiz-adv-x="888" 
d="M848 358q0 -8 -4 -30t-15 -58.5t-27 -76t-43.5 -80t-61.5 -72.5t-84 -52t-107 -20q-130 0 -232.5 82t-157.5 220.5t-55 306.5q0 167 56 306t158.5 221.5t230.5 82.5q40 0 73 -10t53 -19.5t25 -9.5q8 0 11 20h59l76 -233l-60 -8q-23 46 -40.5 73.5t-45.5 56.5t-65 42.5
t-86 13.5q-84 0 -141 -70.5t-82 -187.5t-25 -276t25 -276t82 -187t141 -70q55 0 102 29t75 69.5t48 87t27.5 79t7.5 46.5h82z" />
    <glyph glyph-name="Ccedilla.sc" unicode="&#xe00a;" horiz-adv-x="888" 
d="M657 -209q0 -83 -55 -122.5t-135 -39.5q-34 0 -65 10t-45.5 19.5t-37.5 26.5l43 82q5 -4 17.5 -15t18 -15t16 -10t21 -8t24.5 -2q34 0 56 15t22 43q0 21 -16 33t-40 12q-19 0 -41 -19l-57 23l27 158q-158 42 -253.5 207.5t-95.5 388.5q0 167 56 306t158.5 221.5
t230.5 82.5q40 0 73 -10t53 -19.5t25 -9.5q8 0 11 20h59l76 -233l-60 -8q-23 46 -40.5 73.5t-45.5 56.5t-65 42.5t-86 13.5q-84 0 -141 -70.5t-82 -187.5t-25 -276t25 -276t82 -187t141 -70q55 0 102 29t75 69.5t48 87t27.5 79t7.5 46.5h82q0 -8 -4 -30t-15 -58.5t-27 -76
t-43.5 -80t-61.5 -72.5t-84 -52t-107 -20h-14l-11 -57q14 2 43 2q55 0 94 -35.5t39 -87.5z" />
    <glyph glyph-name="D.sc" unicode="&#xe00b;" horiz-adv-x="921" 
d="M860 588q0 -110 -17.5 -200t-45 -149.5t-67.5 -105t-80 -70t-88 -39.5t-85 -19.5t-78 -4.5h-327v51q73 0 73 66v938q0 16 -4.5 27.5t-11 17.5t-16 10.5t-16 5t-15.5 1.5t-10 1v53h293q40 0 78.5 -4.5t90 -19.5t95 -39.5t87.5 -69.5t74.5 -104t50 -148t19.5 -198zM662 584
q0 516 -295 516q-21 0 -33 -2v-1026h31q29 0 49 2t53.5 12.5t57.5 29.5t51.5 57t45 90.5t29 135t11.5 185.5z" />
    <glyph glyph-name="Eth.sc" unicode="&#xe00c;" horiz-adv-x="921" 
d="M860 586q0 -110 -17.5 -199.5t-45 -149.5t-68 -105t-80 -69.5t-88 -39t-85 -19t-77.5 -4.5h-327v51q73 0 73 66v547h-73v67h73v324q0 16 -4.5 27.5t-11 17.5t-16 10.5t-16 5t-15.5 1.5t-10 1v53h293q40 0 78.5 -4.5t90 -19.5t95 -40t87.5 -70t74.5 -104.5t50 -148.5
t19.5 -198zM662 582q0 98 -11.5 177.5t-29 132.5t-43.5 92.5t-51.5 61t-56.5 34.5t-54 16.5t-49 3.5q-21 0 -33 -2v-367h170v-67h-170v-592h31q29 0 49 2t54 12t57.5 29t51 56.5t45 90t29 135t11.5 185.5z" />
    <glyph glyph-name="E.sc" unicode="&#xe00d;" horiz-adv-x="737" 
d="M737 219q-7 -30 -35.5 -107.5t-44.5 -93.5q-16 -18 -47 -18h-538v51q75 0 75 62v940q0 14 -3 24.5t-9.5 17.5t-12.5 11.5t-15 7t-13.5 3.5t-13.5 2l-8 1v54h512q26 0 39 -25q13 -24 28 -82.5t17 -79.5l-52 -8q-1 2 -7.5 16.5t-8 18t-8.5 16t-11 17t-12.5 14.5t-16 14
t-19 10.5t-24 9t-29 5t-34.5 2.5h-112v-363h158q3 9 8.5 23.5t29 46t52.5 47.5l43 -29q-68 -60 -68 -174q0 -34 6 -61l-61 -12q-15 24 -15 86h-153v-594h108q53 0 94 13.5t68 40t40 45.5t31 52q5 9 7 13z" />
    <glyph glyph-name="Eacute.sc" unicode="&#xe00e;" horiz-adv-x="737" 
d="M549 1505q0 -40 -62 -78l-233 -147h-107l230 221q40 38 59 51t45 13q29 0 48.5 -17t19.5 -43zM737 219q-7 -30 -35.5 -107.5t-44.5 -93.5q-16 -18 -47 -18h-538v51q75 0 75 62v940q0 14 -3 24.5t-9.5 17.5t-12.5 11.5t-15 7t-13.5 3.5t-13.5 2l-8 1v54h512q26 0 39 -25
q13 -24 28 -82.5t17 -79.5l-52 -8q-1 2 -7.5 16.5t-8 18t-8.5 16t-11 17t-12.5 14.5t-16 14t-19 10.5t-24 9t-29 5t-34.5 2.5h-112v-363h158q3 9 8.5 23.5t29 46t52.5 47.5l43 -29q-68 -60 -68 -174q0 -34 6 -61l-61 -12q-15 24 -15 86h-153v-594h108q53 0 94 13.5t68 40
t40 45.5t31 52q5 9 7 13z" />
    <glyph glyph-name="Ecircumflex.sc" unicode="&#xe00f;" horiz-adv-x="737" 
d="M606 1280h-88l-172 166l-168 -166h-90l205 287h106zM737 219q-7 -30 -35.5 -107.5t-44.5 -93.5q-16 -18 -47 -18h-538v51q75 0 75 62v940q0 14 -3 24.5t-9.5 17.5t-12.5 11.5t-15 7t-13.5 3.5t-13.5 2l-8 1v54h512q26 0 39 -25q13 -24 28 -82.5t17 -79.5l-52 -8
q-1 2 -7.5 16.5t-8 18t-8.5 16t-11 17t-12.5 14.5t-16 14t-19 10.5t-24 9t-29 5t-34.5 2.5h-112v-363h158q3 9 8.5 23.5t29 46t52.5 47.5l43 -29q-68 -60 -68 -174q0 -34 6 -61l-61 -12q-15 24 -15 86h-153v-594h108q53 0 94 13.5t68 40t40 45.5t31 52q5 9 7 13z" />
    <glyph glyph-name="Edieresis.sc" unicode="&#xe010;" horiz-adv-x="737" 
d="M582 1419q0 -39 -28 -66.5t-67 -27.5q-40 0 -67 27t-27 67q0 38 27 65t67 27q39 0 67 -27t28 -65zM301 1419q0 -40 -27 -67t-65 -27q-39 0 -67.5 27.5t-28.5 66.5q0 38 28.5 65t67.5 27q38 0 65 -27t27 -65zM737 219q-7 -30 -35.5 -107.5t-44.5 -93.5q-16 -18 -47 -18
h-538v51q75 0 75 62v940q0 14 -3 24.5t-9.5 17.5t-12.5 11.5t-15 7t-13.5 3.5t-13.5 2l-8 1v54h512q26 0 39 -25q13 -24 28 -82.5t17 -79.5l-52 -8q-1 2 -7.5 16.5t-8 18t-8.5 16t-11 17t-12.5 14.5t-16 14t-19 10.5t-24 9t-29 5t-34.5 2.5h-112v-363h158q3 9 8.5 23.5
t29 46t52.5 47.5l43 -29q-68 -60 -68 -174q0 -34 6 -61l-61 -12q-15 24 -15 86h-153v-594h108q53 0 94 13.5t68 40t40 45.5t31 52q5 9 7 13z" />
    <glyph glyph-name="Egrave.sc" unicode="&#xe011;" horiz-adv-x="737" 
d="M549 1280h-107l-233 147q-62 38 -62 78q0 26 19.5 43t48.5 17q26 0 45 -13t59 -51zM737 219q-7 -30 -35.5 -107.5t-44.5 -93.5q-16 -18 -47 -18h-538v51q75 0 75 62v940q0 14 -3 24.5t-9.5 17.5t-12.5 11.5t-15 7t-13.5 3.5t-13.5 2l-8 1v54h512q26 0 39 -25
q13 -24 28 -82.5t17 -79.5l-52 -8q-1 2 -7.5 16.5t-8 18t-8.5 16t-11 17t-12.5 14.5t-16 14t-19 10.5t-24 9t-29 5t-34.5 2.5h-112v-363h158q3 9 8.5 23.5t29 46t52.5 47.5l43 -29q-68 -60 -68 -174q0 -34 6 -61l-61 -12q-15 24 -15 86h-153v-594h108q53 0 94 13.5t68 40
t40 45.5t31 52q5 9 7 13z" />
    <glyph glyph-name="F.sc" unicode="&#xe012;" horiz-adv-x="677" 
d="M678 987l-53 -8q-26 58 -43 76q-43 47 -129 47h-117v-363h158q3 9 8.5 23.5t26 46t44.5 47.5l56 -29q-70 -61 -70 -174q0 -34 6 -61l-61 -12q-15 31 -15 86h-153v-543q0 -72 94 -72v-51h-358v51q75 0 75 62v940q0 14 -3 24.5t-9.5 17.5t-12.5 11.5t-15 7t-13.5 3.5
t-13.5 2l-8 1v54h522q26 0 39 -25q13 -24 28 -82.5t17 -79.5z" />
    <glyph glyph-name="G.sc" unicode="&#xe013;" horiz-adv-x="1015" 
d="M944 590q-78 0 -78 -66v-401q-59 -72 -148 -112t-192 -40q-144 0 -251 83t-160.5 219.5t-53.5 306.5q0 168 55 306t157.5 220t232.5 82q40 0 73 -9t53 -18.5t25 -9.5q10 0 13 20h61l76 -233l-57 -8q-44 88 -101 137t-143 49q-126 0 -188 -144.5t-62 -389.5
q0 -119 15 -214t47 -168t85.5 -112t126.5 -39q15 0 29 1.5t25 4t21.5 7t17.5 8t15 10t12 10t9.5 10.5t7.5 9.5t7 8.5l4 7v399q0 17 -5.5 29t-13 18.5t-18.5 11t-18.5 5.5t-17.5 1.5t-11 0.5v51h350v-51z" />
    <glyph glyph-name="H.sc" unicode="&#xe014;" horiz-adv-x="942" 
d="M870 0h-338v51q20 1 30.5 2.5t24 8t19.5 21t6 38.5v624h-280v-624q0 -24 5.5 -38.5t19 -21t23.5 -8t30 -2.5v-51h-338v51q73 0 73 66v944q0 14 -5 25t-11.5 17t-16 10t-16.5 5.5t-14 2.5t-8 1v52h338v-52q-80 0 -80 -61v-242h280v242q0 61 -80 61v52h338v-52q-1 0 -8 -1
t-14 -2.5t-16.5 -5.5t-16 -10t-11.5 -17t-5 -25v-944q0 -66 71 -66v-51z" />
    <glyph glyph-name="I.sc" unicode="&#xe015;" horiz-adv-x="485" 
d="M414 0h-342v51q73 0 73 68v936q0 62 -68 67h-5v52h342v-52q-80 0 -80 -67v-938q0 -11 2 -19.5t6 -15t7.5 -11.5t10.5 -8t11 -5t12 -3.5t11.5 -2t11 -1t8.5 -0.5v-51z" />
    <glyph glyph-name="Iacute.sc" unicode="&#xe016;" horiz-adv-x="485" 
d="M442 1505q0 -40 -61 -78l-234 -147h-106l229 221q40 38 59.5 51t45.5 13q29 0 48 -17t19 -43zM414 0h-342v51q73 0 73 68v936q0 62 -68 67h-5v52h342v-52q-80 0 -80 -67v-938q0 -11 2 -19.5t6 -15t7.5 -11.5t10.5 -8t11 -5t12 -3.5t11.5 -2t11 -1t8.5 -0.5v-51z" />
    <glyph glyph-name="Icircumflex.sc" unicode="&#xe017;" horiz-adv-x="485" 
d="M502 1280h-88l-172 166l-168 -166h-90l204 287h107zM414 0h-342v51q73 0 73 68v936q0 62 -68 67h-5v52h342v-52q-80 0 -80 -67v-938q0 -11 2 -19.5t6 -15t7.5 -11.5t10.5 -8t11 -5t12 -3.5t11.5 -2t11 -1t8.5 -0.5v-51z" />
    <glyph glyph-name="Idieresis.sc" unicode="&#xe018;" horiz-adv-x="485" 
d="M477 1419q0 -39 -27.5 -66.5t-66.5 -27.5q-40 0 -67 27t-27 67q0 38 27 65t67 27q38 0 66 -27t28 -65zM197 1419q0 -39 -27.5 -66.5t-65.5 -27.5q-39 0 -67.5 27.5t-28.5 66.5q0 38 28.5 65t67.5 27q38 0 65.5 -27t27.5 -65zM414 0h-342v51q73 0 73 68v936q0 62 -68 67
h-5v52h342v-52q-80 0 -80 -67v-938q0 -11 2 -19.5t6 -15t7.5 -11.5t10.5 -8t11 -5t12 -3.5t11.5 -2t11 -1t8.5 -0.5v-51z" />
    <glyph glyph-name="Igrave.sc" unicode="&#xe019;" horiz-adv-x="485" 
d="M442 1280h-106l-234 147q-61 38 -61 78q0 26 19.5 43t48.5 17q26 0 45 -13t59 -51zM414 0h-342v51q73 0 73 68v936q0 62 -68 67h-5v52h342v-52q-80 0 -80 -67v-938q0 -11 2 -19.5t6 -15t7.5 -11.5t10.5 -8t11 -5t12 -3.5t11.5 -2t11 -1t8.5 -0.5v-51z" />
    <glyph glyph-name="J.sc" unicode="&#xe01a;" horiz-adv-x="647" 
d="M586 1122q-78 0 -78 -65v-819q0 -121 -60 -192t-161 -71q-38 0 -67 9.5t-44 19.5t-20 10q-8 0 -13 -16h-49l-94 270l61 8l19 -40q27 -64 65 -107.5t64 -57.5t41 -14q41 0 54 38t13 120v844q0 16 -4.5 27.5t-11 17.5t-16 10.5t-16 5t-15.5 1.5t-10 1v52h342v-52z" />
    <glyph glyph-name="K.sc" unicode="&#xe01b;" horiz-adv-x="886" 
d="M948 0h-260q-94 250 -178 381q-91 144 -174 242v-508q0 -16 5 -27.5t12 -18t18 -10.5t18 -5t16.5 -2t10.5 -1v-51h-344v51q14 0 28 3t30.5 19.5t16.5 45.5v938q0 16 -5 27.5t-11 17.5t-16.5 10.5t-17 5t-15.5 1.5t-10 1v51h342v-51q-78 0 -78 -65v-410q37 47 184.5 229
t151.5 187q10 13 10 29q0 30 -70 30v51h258v-51q-52 0 -94 -53q-15 -21 -278 -354q195 -201 362 -598q6 -14 12.5 -24.5t14.5 -17t14.5 -11t14.5 -6.5t13 -3t11.5 -1.5t7.5 -0.5v-51z" />
    <glyph glyph-name="L.sc" unicode="&#xe01c;" horiz-adv-x="757" 
d="M758 223q-7 -32 -34.5 -109.5t-43.5 -93.5q-4 -5 -8 -8.5t-8.5 -5.5t-7 -3.5t-9 -2t-8 -0.5h-10.5h-11h-546v51q73 0 73 64v938q0 65 -73 65v53h356v-53h-7h-9.5t-11 -0.5t-12.5 -1.5t-12.5 -3.5t-12.5 -5.5t-10.5 -8t-9 -11.5t-5.5 -15.5t-2 -19v-981h123
q54 0 95.5 14.5t68 40t42 48t31.5 51.5l6 12z" />
    <glyph glyph-name="Lslash.sc" unicode="&#xe01d;" horiz-adv-x="757" 
d="M758 223q-7 -32 -34.5 -109.5t-43.5 -93.5q-4 -5 -8 -8.5t-8.5 -5.5t-7 -3.5t-9 -2t-8 -0.5h-10.5h-11h-546v51q73 0 73 64v501l-73 -43v76l73 45v359q0 65 -73 65v53h356v-53h-7h-9.5t-11 -0.5t-12.5 -1.5t-12.5 -3.5t-12.5 -5.5t-10.5 -8t-9 -11.5t-5.5 -15.5t-2 -19
v-244l166 100v-80l-166 -100v-657h123q54 0 95.5 14.5t68 40t42 48t31.5 51.5l6 12z" />
    <glyph glyph-name="M.sc" unicode="&#xe01e;" horiz-adv-x="1218" 
d="M1147 0h-336v53q74 0 74 62v729l-277 -860h-106l-283 860v-733q0 -19 5.5 -31t16 -17.5t18.5 -7.5t19.5 -2h12.5v-53h-219v53q67 0 67 62v1056h162l305 -933l301 933h160v-1056q0 -16 5 -27.5t12 -17.5t18 -10t18 -5t16.5 -1.5t10.5 -0.5v-53z" />
    <glyph glyph-name="N.sc" unicode="&#xe01f;" horiz-adv-x="921" 
d="M850 1120q-70 0 -70 -61v-1059h-131l-428 891v-780q0 -19 5.5 -31t16 -17.5t18.5 -7.5t19.5 -2h12.5v-53h-221v53q67 0 67 62v1056h150l409 -884v774q0 19 -5.5 31.5t-15.5 17.5t-17.5 7t-18.5 2.5t-12 0.5v51h221v-51z" />
    <glyph glyph-name="Ntilde.sc" unicode="&#xe020;" horiz-adv-x="921" 
d="M719 1511q0 -76 -36 -130t-116 -54q-45 0 -90 18t-79.5 36t-53.5 18q-30 0 -52 -16.5t-22 -51.5h-67q0 37 6.5 68t22 59.5t45.5 45t73 16.5q51 0 124 -36t99 -36q35 0 55.5 13t20.5 50h70zM850 1120q-70 0 -70 -61v-1059h-131l-428 891v-780q0 -19 5.5 -31t16 -17.5
t18.5 -7.5t19.5 -2h12.5v-53h-221v53q67 0 67 62v1056h150l409 -884v774q0 19 -5.5 31.5t-15.5 17.5t-17.5 7t-18.5 2.5t-12 0.5v51h221v-51z" />
    <glyph glyph-name="O.sc" unicode="&#xe021;" horiz-adv-x="995" 
d="M944 580q0 -168 -54.5 -306t-157 -220.5t-234.5 -82.5t-235 82.5t-157.5 220.5t-54.5 306t54.5 306t157.5 220t235 82t234.5 -82t157 -220t54.5 -306zM748 582q0 119 -14 214t-42.5 168t-77.5 112.5t-116 39.5t-116 -39.5t-77.5 -112.5t-42.5 -168t-14 -214
q0 -120 14 -215t42.5 -168t77.5 -112.5t116 -39.5t116 39.5t77.5 112.5t42.5 168t14 215z" />
    <glyph glyph-name="OE.sc" unicode="&#xe022;" horiz-adv-x="1339" 
d="M1339 221q-7 -31 -35 -108t-44 -93q-18 -20 -48 -20h-464v90q-40 -58 -107 -87.5t-143 -29.5q-132 0 -235 82.5t-157.5 220.5t-54.5 306t54.5 306t157.5 220t235 82q79 0 149.5 -32.5t100.5 -78.5v95h438q27 0 39 -23q13 -24 28 -83.5t17 -80.5l-51 -8q-1 2 -8 18.5
t-9 20t-10 18t-13.5 19t-15.5 15t-20.5 14.5t-24.5 10t-31.5 8t-37.5 2h-113v-363h158q3 9 8.5 23.5t29 46t52.5 47.5l43 -29q-68 -60 -68 -174q0 -34 6 -61l-63 -12q-15 45 -12 84h-154v-594h108q24 0 45.5 3.5t38 7.5t33 13.5t27.5 15.5t24 19.5t19 20.5t16.5 23t13.5 21
t12.5 22.5t10.5 19.5zM748 518v131q0 213 -64 340t-186 127q-67 0 -116 -39t-77.5 -111.5t-42.5 -167.5t-14 -214q0 -120 14 -215t42.5 -168t77.5 -112.5t116 -39.5q122 0 186 128t64 341z" />
    <glyph glyph-name="Oacute.sc" unicode="&#xe023;" horiz-adv-x="995" 
d="M698 1505q0 -40 -61 -78l-234 -147h-106l229 221q40 38 59.5 51t45.5 13q29 0 48 -17t19 -43zM944 580q0 -168 -54.5 -306t-157 -220.5t-234.5 -82.5t-235 82.5t-157.5 220.5t-54.5 306t54.5 306t157.5 220t235 82t234.5 -82t157 -220t54.5 -306zM748 582q0 119 -14 214
t-42.5 168t-77.5 112.5t-116 39.5t-116 -39.5t-77.5 -112.5t-42.5 -168t-14 -214q0 -120 14 -215t42.5 -168t77.5 -112.5t116 -39.5t116 39.5t77.5 112.5t42.5 168t14 215z" />
    <glyph glyph-name="Ocircumflex.sc" unicode="&#xe024;" horiz-adv-x="995" 
d="M756 1280h-88l-172 166l-168 -166h-90l204 287h107zM944 580q0 -168 -54.5 -306t-157 -220.5t-234.5 -82.5t-235 82.5t-157.5 220.5t-54.5 306t54.5 306t157.5 220t235 82t234.5 -82t157 -220t54.5 -306zM748 582q0 119 -14 214t-42.5 168t-77.5 112.5t-116 39.5
t-116 -39.5t-77.5 -112.5t-42.5 -168t-14 -214q0 -120 14 -215t42.5 -168t77.5 -112.5t116 -39.5t116 39.5t77.5 112.5t42.5 168t14 215z" />
    <glyph glyph-name="Odieresis.sc" unicode="&#xe025;" horiz-adv-x="995" 
d="M731 1419q0 -39 -27.5 -66.5t-66.5 -27.5q-40 0 -67 27t-27 67q0 38 27 65t67 27q38 0 66 -27t28 -65zM451 1419q0 -39 -27.5 -66.5t-65.5 -27.5q-39 0 -67.5 27.5t-28.5 66.5q0 38 28.5 65t67.5 27q38 0 65.5 -27t27.5 -65zM944 580q0 -168 -54.5 -306t-157 -220.5
t-234.5 -82.5t-235 82.5t-157.5 220.5t-54.5 306t54.5 306t157.5 220t235 82t234.5 -82t157 -220t54.5 -306zM748 582q0 119 -14 214t-42.5 168t-77.5 112.5t-116 39.5t-116 -39.5t-77.5 -112.5t-42.5 -168t-14 -214q0 -120 14 -215t42.5 -168t77.5 -112.5t116 -39.5
t116 39.5t77.5 112.5t42.5 168t14 215z" />
    <glyph glyph-name="Ograve.sc" unicode="&#xe026;" horiz-adv-x="995" 
d="M698 1280h-106l-234 147q-61 38 -61 78q0 26 19.5 43t48.5 17q26 0 45 -13t59 -51zM944 580q0 -168 -54.5 -306t-157 -220.5t-234.5 -82.5t-235 82.5t-157.5 220.5t-54.5 306t54.5 306t157.5 220t235 82t234.5 -82t157 -220t54.5 -306zM748 582q0 119 -14 214t-42.5 168
t-77.5 112.5t-116 39.5t-116 -39.5t-77.5 -112.5t-42.5 -168t-14 -214q0 -120 14 -215t42.5 -168t77.5 -112.5t116 -39.5t116 39.5t77.5 112.5t42.5 168t14 215z" />
    <glyph glyph-name="Oslash.sc" unicode="&#xe027;" horiz-adv-x="995" 
d="M944 582q0 -168 -54.5 -306.5t-157 -221.5t-234.5 -83q-27 0 -39 2l-13 -100l-86 10l15 109q-149 52 -236.5 213.5t-87.5 376.5q0 168 54.5 306t157.5 220t235 82h24l10 92l86 -12l-10 -96q154 -47 245 -210t91 -382zM748 584q0 404 -150 503l-129 -1036q8 -2 29 -2
q67 0 116 39.5t77.5 112.5t42.5 168t14 215zM512 1116h-14q-67 0 -116 -39t-78.5 -111.5t-43.5 -167.5t-14 -214q0 -390 139 -498z" />
    <glyph glyph-name="Otilde.sc" unicode="&#xe028;" horiz-adv-x="995" 
d="M756 1511q0 -76 -36 -130t-116 -54q-45 0 -90 18t-79.5 36t-53.5 18q-30 0 -52 -16.5t-22 -51.5h-67q0 37 6.5 68t22 59.5t45.5 45t73 16.5q51 0 124 -36t99 -36q35 0 55.5 13t20.5 50h70zM944 580q0 -168 -54.5 -306t-157 -220.5t-234.5 -82.5t-235 82.5t-157.5 220.5
t-54.5 306t54.5 306t157.5 220t235 82t234.5 -82t157 -220t54.5 -306zM748 582q0 119 -14 214t-42.5 168t-77.5 112.5t-116 39.5t-116 -39.5t-77.5 -112.5t-42.5 -168t-14 -214q0 -120 14 -215t42.5 -168t77.5 -112.5t116 -39.5t116 39.5t77.5 112.5t42.5 168t14 215z" />
    <glyph glyph-name="P.sc" unicode="&#xe029;" horiz-adv-x="845" 
d="M786 862q0 -75 -29 -134t-71 -92.5t-96.5 -55.5t-98.5 -29.5t-83 -7.5q-21 0 -29 2v71h14q195 0 195 246q0 72 -18 121.5t-50 73.5t-65.5 33.5t-75.5 9.5q-29 0 -43 -2v-981q0 -16 6 -27.5t14 -18t20 -10.5t20 -5t18.5 -2t11.5 -1v-53h-354v53q75 0 75 66v938
q0 16 -5 27.5t-11 17.5t-16.5 10.5t-17 5t-15.5 1.5t-10 1v51h311q403 0 403 -309z" />
    <glyph glyph-name="Thorn.sc" unicode="&#xe02a;" horiz-adv-x="845" 
d="M784 705q0 -75 -29 -134.5t-71 -93.5t-96.5 -56.5t-98.5 -30t-83 -7.5q-21 0 -29 2v72h14q22 0 41.5 3t49.5 17t51 38.5t37 73.5t16 116q0 62 -14.5 107t-36 69.5t-54.5 38.5t-61 18t-64 4h-22v-827q0 -14 3 -24.5t9.5 -17t11.5 -11t15 -6.5t14.5 -3t15 -1.5t11.5 -0.5
v-51h-342v51q73 0 73 68v934q0 62 -68 67h-5v51h342v-51q-80 0 -80 -67v-39h47q403 0 403 -309z" />
    <glyph glyph-name="Q.sc" unicode="&#xe02b;" horiz-adv-x="995" 
d="M944 567q0 -148 -43 -274t-123.5 -211t-187.5 -111v-98q0 -42 6.5 -71t19 -44t20.5 -20.5t21 -11.5l-53 -35q-9 0 -29 4t-51 17.5t-57.5 34t-46 58.5t-19.5 86v80q-106 28 -185.5 113.5t-122 210.5t-42.5 272q0 168 54.5 306t157.5 220.5t235 82.5t234.5 -82.5
t157 -220.5t54.5 -306zM748 569q0 120 -14 215t-42.5 168t-77.5 112.5t-116 39.5t-116 -39.5t-77.5 -112.5t-42.5 -168t-14 -215q0 -119 14 -214t42.5 -167.5t77.5 -111.5t116 -39t116 39t77.5 111.5t42.5 167.5t14 214z" />
    <glyph glyph-name="R.sc" unicode="&#xe02c;" horiz-adv-x="897" 
d="M958 0h-272q-13 81 -68.5 211t-123.5 240.5t-113 134.5v61q15 0 36 4t53 18.5t57.5 38t44 68.5t18.5 103q0 223 -199 223h-57v-989q0 -16 5 -27.5t12 -17.5t18 -10t18 -5t16.5 -1.5t10.5 -0.5v-51h-342v51q73 0 73 66v944q0 16 -4.5 27.5t-11 17.5t-16 9.5t-16 4.5
t-15.5 1.5t-10 0.5v52h362q52 0 99 -7.5t94.5 -27.5t81.5 -50.5t55.5 -79.5t21.5 -112q0 -100 -56.5 -178t-143.5 -103q52 -38 140 -194.5t138 -298.5q1 -3 3 -7.5t9.5 -16t17 -21t27 -17.5t37.5 -10v-51z" />
    <glyph glyph-name="S.sc" unicode="&#xe02d;" horiz-adv-x="763" 
d="M713 283q0 -137 -93 -222.5t-233 -85.5q-53 0 -112 21.5t-66 21.5q-18 0 -21 -18h-63l-94 270l63 15l15 -27q38 -77 93.5 -127t98.5 -66t78 -16q87 0 131.5 53.5t44.5 128.5q0 51 -14.5 91t-51 77.5t-73.5 65.5t-107 74q-60 40 -97 69.5t-78.5 75t-62 101t-20.5 122.5
q0 127 78 205t223 78q52 0 102.5 -19.5t53.5 -19.5q12 0 14 20h62l63 -219l-61 -8l-13 25q-28 54 -89 100.5t-132 46.5t-117.5 -43t-46.5 -121q0 -31 12.5 -60.5t27.5 -50.5t48.5 -49t52.5 -42t63.5 -43.5t60.5 -40.5q47 -34 77.5 -58t69 -62t60.5 -74t37.5 -85.5
t15.5 -103.5z" />
    <glyph glyph-name="Scaron.sc" unicode="&#xe02e;" horiz-adv-x="763" 
d="M621 1567l-205 -287h-107l-207 287h91l169 -166l170 166h89zM713 283q0 -137 -93 -222.5t-233 -85.5q-53 0 -112 21.5t-66 21.5q-18 0 -21 -18h-63l-94 270l63 15l15 -27q38 -77 93.5 -127t98.5 -66t78 -16q87 0 131.5 53.5t44.5 128.5q0 51 -14.5 91t-51 77.5
t-73.5 65.5t-107 74q-60 40 -97 69.5t-78.5 75t-62 101t-20.5 122.5q0 127 78 205t223 78q52 0 102.5 -19.5t53.5 -19.5q12 0 14 20h62l63 -219l-61 -8l-13 25q-28 54 -89 100.5t-132 46.5t-117.5 -43t-46.5 -121q0 -31 12.5 -60.5t27.5 -50.5t48.5 -49t52.5 -42t63.5 -43.5
t60.5 -40.5q47 -34 77.5 -58t69 -62t60.5 -74t37.5 -85.5t15.5 -103.5z" />
    <glyph glyph-name="T.sc" unicode="&#xe02f;" horiz-adv-x="632" 
d="M633 975l-53 -6q-3 6 -10.5 24t-12 27t-13 24t-18 23.5t-22.5 17.5t-30 13t-38 4h-28v-987q0 -16 5 -27.5t12 -18t17.5 -10.5t17.5 -5t16.5 -2t10.5 -1v-51h-340v51q72 0 72 66v985h-24q-31 0 -53.5 -7.5t-37 -24.5t-21.5 -29t-16.5 -38t-13.5 -34l-53 6q3 23 17.5 86.5
t27.5 87.5q12 22 43 22h457q31 0 43 -22q13 -24 27.5 -87.5t17.5 -86.5z" />
    <glyph glyph-name="U.sc" unicode="&#xe030;" horiz-adv-x="903" 
d="M842 1118q-70 0 -70 -61v-670q0 -205 -70 -303q-78 -109 -241 -109q-89 0 -156 32t-102 87q-68 105 -68 332v627q0 12 -2.5 21.5t-6 16t-10 11.5t-11 7.5t-12.5 4.5t-12 2.5t-11.5 1t-8.5 0.5v53h342v-53q-79 0 -79 -65v-641q0 -49 1 -80t4.5 -73t10.5 -68t20 -54.5
t32 -44.5t47.5 -26.5t64.5 -10.5q52 0 88 23t56 68.5t29 105t9 141.5v664q0 16 -4.5 27.5t-10.5 17.5t-15 9.5t-15.5 4.5t-15 1.5t-9.5 0.5v53h226v-53z" />
    <glyph glyph-name="Uacute.sc" unicode="&#xe031;" horiz-adv-x="903" 
d="M672 1505q0 -40 -62 -78l-233 -147h-107l230 221q40 38 59 51t45 13q29 0 48.5 -17t19.5 -43zM842 1118q-70 0 -70 -61v-670q0 -205 -70 -303q-78 -109 -241 -109q-89 0 -156 32t-102 87q-68 105 -68 332v627q0 12 -2.5 21.5t-6 16t-10 11.5t-11 7.5t-12.5 4.5t-12 2.5
t-11.5 1t-8.5 0.5v53h342v-53q-79 0 -79 -65v-641q0 -49 1 -80t4.5 -73t10.5 -68t20 -54.5t32 -44.5t47.5 -26.5t64.5 -10.5q52 0 88 23t56 68.5t29 105t9 141.5v664q0 16 -4.5 27.5t-10.5 17.5t-15 9.5t-15.5 4.5t-15 1.5t-9.5 0.5v53h226v-53z" />
    <glyph glyph-name="Ucircumflex.sc" unicode="&#xe032;" horiz-adv-x="903" 
d="M721 1280h-88l-172 166l-168 -166h-90l205 287h106zM842 1118q-70 0 -70 -61v-670q0 -205 -70 -303q-78 -109 -241 -109q-89 0 -156 32t-102 87q-68 105 -68 332v627q0 12 -2.5 21.5t-6 16t-10 11.5t-11 7.5t-12.5 4.5t-12 2.5t-11.5 1t-8.5 0.5v53h342v-53
q-79 0 -79 -65v-641q0 -49 1 -80t4.5 -73t10.5 -68t20 -54.5t32 -44.5t47.5 -26.5t64.5 -10.5q52 0 88 23t56 68.5t29 105t9 141.5v664q0 16 -4.5 27.5t-10.5 17.5t-15 9.5t-15.5 4.5t-15 1.5t-9.5 0.5v53h226v-53z" />
    <glyph glyph-name="Udieresis.sc" unicode="&#xe033;" horiz-adv-x="903" 
d="M696 1419q0 -39 -27.5 -66.5t-66.5 -27.5q-40 0 -67 27t-27 67q0 38 27 65t67 27q38 0 66 -27t28 -65zM416 1419q0 -40 -27 -67t-65 -27q-39 0 -68 27.5t-29 66.5q0 38 29 65t68 27q38 0 65 -27t27 -65zM842 1118q-70 0 -70 -61v-670q0 -205 -70 -303q-78 -109 -241 -109
q-89 0 -156 32t-102 87q-68 105 -68 332v627q0 12 -2.5 21.5t-6 16t-10 11.5t-11 7.5t-12.5 4.5t-12 2.5t-11.5 1t-8.5 0.5v53h342v-53q-79 0 -79 -65v-641q0 -49 1 -80t4.5 -73t10.5 -68t20 -54.5t32 -44.5t47.5 -26.5t64.5 -10.5q52 0 88 23t56 68.5t29 105t9 141.5v664
q0 16 -4.5 27.5t-10.5 17.5t-15 9.5t-15.5 4.5t-15 1.5t-9.5 0.5v53h226v-53z" />
    <glyph glyph-name="Ugrave.sc" unicode="&#xe034;" horiz-adv-x="903" 
d="M651 1280h-106l-234 147q-61 38 -61 78q0 26 19 43t48 17q26 0 45.5 -13t59.5 -51zM842 1118q-70 0 -70 -61v-670q0 -205 -70 -303q-78 -109 -241 -109q-89 0 -156 32t-102 87q-68 105 -68 332v627q0 12 -2.5 21.5t-6 16t-10 11.5t-11 7.5t-12.5 4.5t-12 2.5t-11.5 1
t-8.5 0.5v53h342v-53q-79 0 -79 -65v-641q0 -49 1 -80t4.5 -73t10.5 -68t20 -54.5t32 -44.5t47.5 -26.5t64.5 -10.5q52 0 88 23t56 68.5t29 105t9 141.5v664q0 16 -4.5 27.5t-10.5 17.5t-15 9.5t-15.5 4.5t-15 1.5t-9.5 0.5v53h226v-53z" />
    <glyph glyph-name="V.sc" unicode="&#xe035;" horiz-adv-x="833" 
d="M854 1120q-1 0 -9 -0.5t-14 -1.5t-15 -4.5t-16 -9.5t-13.5 -17t-10.5 -26l-297 -1077h-119l-303 1077q-4 15 -11 26t-13.5 17t-15.5 9.5t-14.5 4.5t-13.5 1.5t-9 0.5v51h339v-51q-61 0 -61 -43q0 -12 2 -20l213 -809l215 809q2 8 2 20q0 43 -61 43v51h225v-51z" />
    <glyph glyph-name="W.sc" unicode="&#xe036;" horiz-adv-x="1271" 
d="M1292 1120q-1 0 -12.5 -0.5t-19.5 -2.5t-19.5 -7t-20 -17t-12.5 -30l-254 -1079h-116l-197 862l-188 -862h-119l-268 1077q-4 15 -11.5 26t-15 17t-17.5 9.5t-16.5 4.5t-15.5 1.5t-10 0.5v51h339v-51q-65 0 -65 -45q0 -12 2 -18l184 -746l187 879h108l211 -877
q61 296 172 748q2 6 2 18q0 41 -69 41v51h241v-51z" />
    <glyph glyph-name="X.sc" unicode="&#xe037;" horiz-adv-x="802" 
d="M823 0h-354v51q70 0 70 41q0 13 -4 21q-2 4 -24.5 53.5t-61.5 133t-80 167.5q-155 -278 -205 -354q-6 -8 -6 -25q0 -37 71 -37v-51h-249v51q58 0 96 64q129 215 254 438q-54 110 -114 237.5t-93 199.5l-33 73q-25 49 -84 57v51h344v-51q-61 0 -61 -37q0 -12 6 -24
q7 -15 52.5 -113t94.5 -198l174 305q11 22 11 28q0 21 -23 30t-43 9v51h236v-51q-50 -5 -84 -57l-232 -401q57 -116 119 -248.5t96.5 -209t38.5 -87.5q9 -28 39 -47t49 -19v-51z" />
    <glyph glyph-name="Y.sc" unicode="&#xe038;" horiz-adv-x="772" 
d="M793 1120q-59 -8 -84 -61q-63 -136 -226 -506v-440q0 -16 5 -27.5t12 -17.5t18 -10t18 -5t16.5 -1.5t10.5 -0.5v-51h-342v51q76 0 76 66v434q-26 55 -124 276t-105 236q-7 14 -16 24.5t-16.5 16t-17.5 9.5t-15 4.5t-13.5 1.5t-9.5 1v51h319v-51q-43 0 -43 -30
q0 -19 6 -31l176 -410l180 410q7 17 7 26q0 19 -15.5 27t-31.5 8v51h215v-51z" />
    <glyph glyph-name="Yacute.sc" unicode="&#xe039;" horiz-adv-x="772" 
d="M627 1505q0 -40 -62 -78l-233 -147h-107l230 221q40 38 59 51t45 13q29 0 48.5 -17t19.5 -43zM793 1120q-59 -8 -84 -61q-63 -136 -226 -506v-440q0 -16 5 -27.5t12 -17.5t18 -10t18 -5t16.5 -1.5t10.5 -0.5v-51h-342v51q76 0 76 66v434q-26 55 -124 276t-105 236
q-7 14 -16 24.5t-16.5 16t-17.5 9.5t-15 4.5t-13.5 1.5t-9.5 1v51h319v-51q-43 0 -43 -30q0 -19 6 -31l176 -410l180 410q7 17 7 26q0 19 -15.5 27t-31.5 8v51h215v-51z" />
    <glyph glyph-name="Ydieresis.sc" unicode="&#xe03a;" horiz-adv-x="772" 
d="M631 1419q0 -39 -27.5 -66.5t-66.5 -27.5q-40 0 -67.5 27t-27.5 67q0 38 27.5 65t67.5 27q38 0 66 -27t28 -65zM350 1419q0 -40 -27 -67t-65 -27q-39 0 -67.5 27.5t-28.5 66.5q0 38 28.5 65t67.5 27q38 0 65 -27t27 -65zM793 1120q-59 -8 -84 -61q-63 -136 -226 -506
v-440q0 -16 5 -27.5t12 -17.5t18 -10t18 -5t16.5 -1.5t10.5 -0.5v-51h-342v51q76 0 76 66v434q-26 55 -124 276t-105 236q-7 14 -16 24.5t-16.5 16t-17.5 9.5t-15 4.5t-13.5 1.5t-9.5 1v51h319v-51q-43 0 -43 -30q0 -19 6 -31l176 -410l180 410q7 17 7 26q0 19 -15.5 27
t-31.5 8v51h215v-51z" />
    <glyph glyph-name="Z.sc" unicode="&#xe03b;" horiz-adv-x="763" 
d="M743 223q-7 -33 -34 -110t-43 -93q-4 -5 -8.5 -8.5t-10 -5.5t-9 -3.5t-11.5 -2t-10 -0.5h-11.5h-11.5h-574v47l512 1055h-219q-42 0 -72 -9.5t-49 -29.5t-28 -35t-21 -42q-3 -6 -4 -9l-57 6q2 21 17 81.5t28 84.5q14 25 45 25h569v-48l-510 -1054h220q29 0 55 5
t44.5 11.5t36.5 20t28 22.5t22.5 27t17.5 27t15.5 28.5t13.5 24.5z" />
    <glyph glyph-name="Zcaron.sc" unicode="&#xe03c;" horiz-adv-x="763" 
d="M682 1567l-205 -287h-106l-207 287h90l170 -166l170 166h88zM743 223q-7 -33 -34 -110t-43 -93q-4 -5 -8.5 -8.5t-10 -5.5t-9 -3.5t-11.5 -2t-10 -0.5h-11.5h-11.5h-574v47l512 1055h-219q-42 0 -72 -9.5t-49 -29.5t-28 -35t-21 -42q-3 -6 -4 -9l-57 6q2 21 17 81.5
t28 84.5q14 25 45 25h569v-48l-510 -1054h220q29 0 55 5t44.5 11.5t36.5 20t28 22.5t22.5 27t17.5 27t15.5 28.5t13.5 24.5z" />
    <glyph glyph-name="germandbls.sc" unicode="&#xe03d;" horiz-adv-x="1527" 
d="M1477 283q0 -137 -93 -222.5t-233 -85.5q-53 0 -112 21.5t-66 21.5q-18 0 -21 -18h-63l-94 270l63 15l14 -27q55 -110 133 -159.5t138 -49.5q87 0 131.5 53.5t44.5 128.5q0 51 -14.5 91t-51 77.5t-73.5 65.5t-107 74q-60 40 -97 69.5t-78.5 75t-62 101t-20.5 122.5
q0 127 78 205t223 78q52 0 102.5 -19.5t53.5 -19.5q12 0 14 20h62l63 -219l-61 -8l-13 25q-28 54 -89 100.5t-132 46.5t-117.5 -43t-46.5 -121q0 -31 12.5 -60.5t27.5 -50.5t48.5 -49t52.5 -42t63.5 -43.5t60.5 -40.5q47 -34 77.5 -58t69 -62t60.5 -74t37.5 -85.5
t15.5 -103.5zM713 283q0 -137 -93 -222.5t-233 -85.5q-53 0 -112 21.5t-66 21.5q-18 0 -21 -18h-63l-94 270l63 15l15 -27q38 -77 93.5 -127t98.5 -66t78 -16q87 0 131.5 53.5t44.5 128.5q0 51 -14.5 91t-51 77.5t-73.5 65.5t-107 74q-60 40 -97 69.5t-78.5 75t-62 101
t-20.5 122.5q0 127 78 205t223 78q52 0 102.5 -19.5t53.5 -19.5q12 0 14 20h62l63 -219l-61 -8l-13 25q-28 54 -89 100.5t-132 46.5t-117.5 -43t-46.5 -121q0 -31 12.5 -60.5t27.5 -50.5t48.5 -49t52.5 -42t63.5 -43.5t60.5 -40.5q47 -34 77.5 -58t69 -62t60.5 -74
t37.5 -85.5t15.5 -103.5z" />
    <glyph glyph-name="f_i.sc" unicode="&#xe03e;" horiz-adv-x="1163" 
d="M1092 0h-342v51q73 0 73 68v936q0 28 -13 44t-25.5 19t-29.5 4h-5v52h342v-52q-80 0 -80 -67v-938q0 -11 2 -19.5t6 -15t7.5 -11.5t10.5 -8t11 -5t12 -3.5t11.5 -2t11 -1t8.5 -0.5v-51zM678 987l-53 -8q-26 58 -43 76q-43 47 -129 47h-117v-363h158q3 9 8.5 23.5t26 46
t44.5 47.5l56 -29q-70 -61 -70 -174q0 -34 6 -61l-61 -12q-15 31 -15 86h-153v-543q0 -72 94 -72v-51h-358v51q75 0 75 62v940q0 14 -3 24.5t-9.5 17.5t-12.5 11.5t-15 7t-13.5 3.5t-13.5 2l-8 1v54h522q26 0 39 -25q13 -24 28 -82.5t17 -79.5z" />
    <glyph glyph-name="f_l.sc" unicode="&#xe03f;" horiz-adv-x="1435" 
d="M1436 223q-7 -32 -34.5 -109.5t-43.5 -93.5q-4 -5 -8 -8.5t-8.5 -5.5t-7 -3.5t-9 -2t-8 -0.5h-10.5h-11h-546v51q73 0 73 64v940q0 65 -73 65v54h356v-54h-7h-9.5t-11 -0.5t-12.5 -1.5t-12.5 -3.5t-12.5 -5.5t-10.5 -8t-9 -11.5t-5.5 -15.5t-2 -19v-983h123
q54 0 95.5 14.5t68 40t42 48t31.5 51.5l6 12zM678 987l-53 -8q-26 58 -43 76q-43 47 -129 47h-117v-363h158q3 9 8.5 23.5t26 46t44.5 47.5l56 -29q-70 -61 -70 -174q0 -34 6 -61l-61 -12q-15 31 -15 86h-153v-543q0 -72 94 -72v-51h-358v51q75 0 75 62v940q0 14 -3 24.5
t-9.5 17.5t-12.5 11.5t-15 7t-13.5 3.5t-13.5 2l-8 1v54h522q26 0 39 -25q13 -24 28 -82.5t17 -79.5z" />
    <glyph glyph-name="zero.fitted" unicode="&#xe040;" horiz-adv-x="958" 
d="M907 733q0 -162 -25 -295.5t-75 -237.5t-133 -162t-193 -58t-194 58t-134.5 161.5t-76 238t-25.5 295.5q0 128 15.5 239.5t49.5 207t83.5 163.5t121.5 106t160 38q110 0 193 -58t133 -162t75 -238t25 -296zM702 735q0 106 -3 185.5t-11 162t-23.5 139t-39.5 102.5
t-60 68.5t-84 22.5q-41 0 -74 -18t-56 -48.5t-40 -79.5t-27.5 -103.5t-17 -127t-8.5 -143.5t-2 -160t2 -160t8.5 -143.5t17 -127t27.5 -103.5t40 -79.5t56 -48.5t74 -18q48 0 84 22.5t60 68.5t39.5 102.5t23.5 139t11 162t3 185.5z" />
    <glyph glyph-name="one.fitted" unicode="&#xe041;" horiz-adv-x="483" 
d="M422 0h-361v51q1 0 10 0.5t13 1t13.5 3t14.5 5.5t12.5 9t11 13.5t6.5 19.5t3 26v1206q0 15 -3 27t-7.5 20t-11.5 14t-13 9t-14.5 5.5t-13.5 3t-12.5 1t-8.5 0.5v51h273v-1341q0 -19 5.5 -33.5t13 -22t19 -11.5t19.5 -5t18.5 -1.5t12.5 -0.5v-51z" />
    <glyph glyph-name="two.fitted" unicode="&#xe042;" horiz-adv-x="952" 
d="M901 252q-8 -32 -39.5 -110t-50.5 -103q-18 -25 -44 -32t-65 -7h-634l-17 45q43 17 114 83t152 170.5t152.5 224.5t118.5 260t47 261q0 357 -244 357q-68 0 -119 -17t-76.5 -39.5t-41.5 -50.5t-19.5 -45t-3.5 -28h-68v14q0 82 54.5 141t133 85t167.5 26q90 0 163 -26
t121.5 -68.5t81.5 -100.5t47.5 -120t14.5 -128q0 -92 -33.5 -195t-86.5 -193.5t-118.5 -179.5t-130.5 -159t-121.5 -125t-93 -84.5t-43.5 -31.5h209q168 0 242 35q33 16 61 36t50 44t34 39t29 40z" />
    <glyph glyph-name="three.fitted" unicode="&#xe043;" horiz-adv-x="921" 
d="M870 391q0 -178 -121 -296t-325 -118q-87 0 -161 25t-118.5 62t-69 76t-24.5 71q0 26 12.5 47t42.5 21q53 0 76 -68q18 -47 42 -81t74 -60.5t118 -26.5q29 0 57.5 5.5t66 27t64.5 57t46.5 101.5t19.5 155q0 100 -24.5 176.5t-60 119t-82 69t-83.5 35t-72 8.5q-2 0 -7 -1
t-7 -1l-31 59q32 4 53 7.5t57 13.5t60.5 23t53.5 37.5t47 55.5t30 77t12 103q0 41 -8 79t-28 78t-62.5 64.5t-101.5 24.5q-176 0 -176 -127v-24q0 -86 -70 -86q-33 0 -51.5 24.5t-18.5 52.5q0 91 81.5 160.5t230.5 69.5q100 0 179 -28.5t125 -75.5t69.5 -101t23.5 -111
q0 -74 -27 -134.5t-61.5 -94t-81 -58t-72 -32.5t-47.5 -12q81 -13 145 -52t101 -88t61.5 -108.5t33.5 -108.5t9 -92z" />
    <glyph glyph-name="four.fitted" unicode="&#xe044;" horiz-adv-x="933" 
d="M913 436l-20 -78h-154v-233q0 -19 5.5 -33.5t13.5 -22t19.5 -11.5t19.5 -5t19 -1.5t13 -0.5v-51h-364v51q1 0 10 0.5t13 1t14 3t15 5.5t12.5 9t11.5 13.5t7 19.5t3 26v229h-490l-41 41l592 1086h127v-1049h174zM551 436v789l-422 -789h422z" />
    <glyph glyph-name="five.fitted" unicode="&#xe045;" horiz-adv-x="960" 
d="M909 467q0 -99 -31 -186.5t-89 -155t-148.5 -106.5t-202.5 -39q-95 0 -172.5 23.5t-122.5 59.5t-68.5 73.5t-23.5 70.5q0 30 14.5 51t45.5 21q8 0 14.5 -1t12 -4.5t10 -6t9 -8.5t7 -9t6.5 -11l5.5 -11t5.5 -13t5 -12q16 -34 31 -56.5t42.5 -47t70 -36.5t100.5 -12
q45 0 85 12t77.5 41.5t64.5 75.5t43.5 119t16.5 166q0 100 -20.5 178.5t-52 125t-73 77.5t-78.5 42t-73 11q-153 0 -201 -72l-69 19l92 618h430q36 0 61 -22q24 -21 65.5 -109.5t49.5 -120.5l-55 -16q-45 68 -70 93q-88 85 -270 85h-142l-67 -448q1 0 7 4t9 5.5t10.5 5.5
t13.5 6.5t16 6.5t19.5 6t22.5 5t26 4.5t29.5 2.5t34.5 1q62 0 124 -14t127 -50.5t114 -92t80.5 -146t31.5 -203.5z" />
    <glyph glyph-name="six.fitted" unicode="&#xe046;" horiz-adv-x="954" 
d="M903 451q0 -112 -35 -204.5t-93 -150.5t-130 -89.5t-149 -31.5q-90 0 -168.5 32.5t-141 96.5t-99 171t-36.5 245q0 137 26 262t70 221t101.5 178t121.5 139t129.5 97t125 59t108.5 19q11 0 21 -9.5t10 -23.5q0 -29 -86 -62q-64 -25 -104 -45t-111 -84.5t-112.5 -148.5
t-75 -239t-33.5 -355q0 -477 254 -477q96 0 157.5 93.5t61.5 301.5q0 90 -13.5 161.5t-35 115.5t-50 73t-57 40.5t-57.5 11.5q-41 0 -73 -12.5t-45 -25.5t-26 -30l-12 -18l-45 37q17 54 80 89.5t137 35.5q71 0 137.5 -28t123 -82.5t90.5 -148.5t34 -214z" />
    <glyph glyph-name="seven.fitted" unicode="&#xe047;" horiz-adv-x="870" 
d="M850 1415l-440 -1438l-119 23l436 1354h-340q-68 0 -120 -10.5t-80.5 -22.5t-53.5 -38t-33 -40t-24 -45l-56 25q8 33 46 116.5t61 104.5q25 22 63 22h613z" />
    <glyph glyph-name="eight.fitted" unicode="&#xe048;" horiz-adv-x="978" 
d="M928 406q0 -181 -119 -302.5t-320 -121.5t-319.5 121.5t-118.5 302.5q0 135 76 249.5t207 151.5q-104 37 -163.5 130t-59.5 198q0 149 106 250.5t272 101.5t270.5 -101.5t104.5 -250.5q0 -104 -58 -197t-159 -131q129 -40 205 -153.5t76 -247.5zM676 1137q0 130 -50 205
t-139 75q-88 0 -136 -74.5t-48 -205.5t46.5 -211t135.5 -80q191 0 191 291zM735 406q0 155 -69.5 257.5t-180.5 102.5q-115 0 -177 -102.5t-62 -262.5q0 -153 67.5 -247.5t171.5 -94.5q123 0 186.5 93.5t63.5 253.5z" />
    <glyph glyph-name="nine.fitted" unicode="&#xe049;" horiz-adv-x="954" 
d="M903 942q0 -137 -26 -262t-70 -221t-101.5 -178t-121.5 -139t-129.5 -97t-125 -59t-108.5 -19q-11 0 -21 9.5t-10 23.5q0 17 18 30t48 25t69.5 27t83 43t86.5 67t82.5 105t69.5 150.5t48 209.5t18 277q0 477 -254 477q-96 0 -157.5 -93.5t-61.5 -301.5q0 -90 13.5 -161.5
t35 -115.5t50 -73t57 -40.5t57.5 -11.5q41 0 73 12.5t44.5 25.5t25.5 30l12 18l45 -36q-14 -36 -41.5 -61.5t-56.5 -37.5t-56.5 -18.5t-44.5 -6.5l-18 -1q-71 0 -137.5 28t-123 82.5t-90.5 148.5t-34 214q0 112 35.5 204.5t93.5 150.5t130 89t149 31q90 0 168 -32.5
t141 -96.5t99 -171t36 -245z" />
    <glyph glyph-name="ordfeminine.fitted" unicode="&#xe04a;" horiz-adv-x="831" 
d="M735 590h-258v55q1 0 10 1t13 2t10.5 3t9 7t2.5 12q0 1 -1 4.5t-1 5.5l-61 242h-168q-58 -230 -62 -242l-2 -8v-4q0 -7 3 -11t9 -6.5t10.5 -3.5t12.5 -1.5t10 -0.5v-55h-190v55q5 1 13.5 1.5t12 1t9.5 2.5t9.5 5.5t7 10t5.5 16.5l219 805h101l221 -805q3 -11 6 -17.5
t10.5 -10.5t9.5 -5t14.5 -2.5t14.5 -1.5v-55zM438 995l-65 265l-68 -265h133z" />
    <glyph glyph-name="ordmasculine.fitted" unicode="&#xe04b;" horiz-adv-x="798" 
d="M733 1030q0 -125 -40 -228t-117 -165t-177 -62t-176.5 62.5t-116.5 165t-40 227.5q0 126 40 229t116.5 165.5t176.5 62.5t177 -62.5t117 -165.5t40 -229zM571 1032q0 118 -17.5 201.5t-56.5 132.5t-98 49t-98 -49t-56.5 -132.5t-17.5 -201.5q0 -179 42 -280t130 -101
t130 101t42 280z" />
    <glyph glyph-name="asciicircum.fitted" unicode="&#xe04c;" horiz-adv-x="997" 
d="M971 672h-129l-344 669l-342 -669h-127l430 815h88z" />
    <glyph glyph-name="degree.fitted" unicode="&#xe04d;" horiz-adv-x="514" 
d="M453 1294q0 -80 -57.5 -137t-139.5 -57q-80 0 -137.5 57.5t-57.5 136.5q0 81 57.5 137t137.5 56q82 0 139.5 -56t57.5 -137zM375 1294q0 50 -34.5 84.5t-84.5 34.5q-49 0 -83 -34.5t-34 -84.5q0 -49 33.5 -82.5t83.5 -33.5t84.5 33.5t34.5 82.5z" />
    <glyph glyph-name="S.alt" unicode="&#xe04e;" horiz-adv-x="827" 
d="M797 1198l-62 -10q-27 64 -67.5 110.5t-79.5 68t-74 33.5t-56 14l-22 1q-107 0 -165 -69t-58 -183q0 -68 31 -133.5t80 -121t108.5 -111.5t119.5 -114t109 -118t80 -135.5t31 -155.5q0 -69 -23 -124t-58 -88t-80 -55t-85.5 -30t-79.5 -8q-58 0 -104.5 12t-72 24.5
t-33.5 12.5q-14 0 -19 -18h-49l-117 338l64 8q5 -12 14 -32t39.5 -70.5t63.5 -89.5t85 -71t105 -32q176 0 176 191q0 57 -30 113t-78.5 106t-106.5 103t-116.5 113t-107 125t-78.5 150t-30 178q0 90 33.5 161.5t88 114.5t117.5 65t128 22q46 0 86 -8t61.5 -17.5t39 -17.5
t24.5 -8q11 0 14 28h64z" />
    <glyph glyph-name="Scaron.alt" unicode="&#xe04f;" horiz-adv-x="827" 
d="M797 1198l-62 -10q-27 64 -67.5 110.5t-79.5 68t-74 33.5t-56 14l-22 1q-107 0 -165 -69t-58 -183q0 -68 31 -133.5t80 -121t108.5 -111.5t119.5 -114t109 -118t80 -135.5t31 -155.5q0 -69 -23 -124t-58 -88t-80 -55t-85.5 -30t-79.5 -8q-58 0 -104.5 12t-72 24.5
t-33.5 12.5q-14 0 -19 -18h-49l-117 338l64 8q5 -12 14 -32t39.5 -70.5t63.5 -89.5t85 -71t105 -32q176 0 176 191q0 57 -30 113t-78.5 106t-106.5 103t-116.5 113t-107 125t-78.5 150t-30 178q0 90 33.5 161.5t88 114.5t117.5 65t128 22q46 0 86 -8t61.5 -17.5t39 -17.5
t24.5 -8q11 0 14 28h64zM668 1870l-205 -287h-107l-206 287h90l170 -166l170 166h88z" />
    </font>
</defs>
</svg>
