<?xml version="1.0" standalone="no"?>
<!DOCTYPE svg PUBLIC "-//W3C//DTD SVG 1.1//EN" "http://www.w3.org/Graphics/SVG/1.1/DTD/svg11.dtd" >
<svg xmlns="http://www.w3.org/2000/svg" xmlns:xlink="http://www.w3.org/1999/xlink" version="1.1">
<metadata>
Created by FontForge 20170731 at Fri Jan 20 12:51:41 2023
 By Aleksey,,,
Copyright 2005 International Typeface Corporation. All rights reserved.
</metadata>
<defs>
<font id="SteppITCStd-Medium" horiz-adv-x="1024" >
  <font-face 
    font-family="Stepp ITC Std Medium"
    font-weight="400"
    font-stretch="normal"
    units-per-em="2048"
    panose-1="2 0 6 6 6 0 0 2 0 3"
    ascent="1638"
    descent="-410"
    x-height="942"
    cap-height="1466"
    bbox="-164 -539 1837 1888"
    underline-thickness="40"
    underline-position="-312"
    unicode-range="U+0020-FB02"
  />
<missing-glyph 
d="M25 0v1362h972v-1362h-972zM180 1266l332 -498l330 498h-662zM123 1178v-992q0 -1 82.5 123t164.5 249l83 124zM901 1178l-332 -496l332 -498v994zM842 98l-330 496l-332 -496h662z" />
    <glyph glyph-name="f_i" unicode="fi" horiz-adv-x="950" 
d="M879 0h-306v39q1 0 12 0.5t17 1.5t17 3.5t18 7.5t14.5 13t11 21t3.5 29v759h-375v-763q0 -23 7.5 -38.5t21 -22t24 -9t25.5 -2.5h16v-39h-305v39q1 0 12 0.5t16.5 1.5t17 3.5t18 7.5t14 13t11 21t3.5 29v759h-131l12 68h119v160q0 210 80 325q92 132 258 132
q141 0 214 -66.5t73 -149.5q0 -33 -23 -61.5t-59 -28.5q-45 0 -64.5 27t-19.5 61q0 3 2 21t2 31q0 104 -141 104q-111 0 -157 -98t-46 -316v-141h493v-831q0 -23 7.5 -38.5t21.5 -22t24 -9t25.5 -2.5h16.5v-39z" />
    <glyph glyph-name="f_l" unicode="fl" horiz-adv-x="960" 
d="M889 0h-307v39q1 0 10.5 0.5t14 1t14.5 3t16 5.5t14 9t12.5 13.5t7.5 19.5t3 26v1048v32.5v36.5t-1 35t-2.5 38.5t-4.5 35t-7.5 36t-11.5 30.5t-16 29q-43 59 -137 59q-111 0 -157 -98t-46 -316v-141h270l-14 -68h-256v-763q0 -23 7.5 -38.5t21 -22t24 -9t25.5 -2.5h16
v-39h-305v39q1 0 12 0.5t16.5 1.5t17 3.5t18 7.5t14 13t11 21t3.5 29v759h-131l12 68h121v78q0 102 3 158t21 127t54 122q92 132 260 132q40 0 90 -11h191v-1437q0 -23 7.5 -38.5t21.5 -22t24.5 -9t26 -2.5h16.5v-39z" />
    <glyph glyph-name=".notdef" 
d="M25 0v1362h972v-1362h-972zM180 1266l332 -498l330 498h-662zM123 1178v-992q0 -1 82.5 123t164.5 249l83 124zM901 1178l-332 -496l332 -498v994zM842 98l-330 496l-332 -496h662z" />
    <glyph glyph-name=".null" horiz-adv-x="0" 
 />
    <glyph glyph-name="nonmarkingreturn" horiz-adv-x="682" 
 />
    <glyph glyph-name="space" unicode=" " horiz-adv-x="358" 
 />
    <glyph glyph-name="exclam" unicode="!" horiz-adv-x="331" 
d="M240 1366q0 -2 -6 -67.5t-12 -177.5t-7 -224l-6 -526h-80l-6 526q-1 70 -4 142.5t-6.5 127.5t-7.5 99t-6.5 70.5t-2.5 29.5q0 121 74 121q70 0 70 -121zM260 86q0 -38 -28 -66t-66 -28t-66 28t-28 66t28 66t66 28t66 -28t28 -66z" />
    <glyph glyph-name="quotedbl" unicode="&#x22;" horiz-adv-x="612" 
d="M512 1481q0 -43 -6 -86l-43 -281h-47l-41 281q-8 52 -8 86q0 33 21 52t52 19q30 0 51 -19t21 -52zM246 1481q0 -43 -6 -86l-43 -281h-47l-41 281q-9 59 -9 86q0 32 21.5 51.5t52.5 19.5q30 0 51 -19t21 -52z" />
    <glyph glyph-name="numbersign" unicode="#" horiz-adv-x="1105" 
d="M1087 977l-30 -98h-252l-82 -250h272l-30 -99h-275l-172 -530h-88l174 530h-262l-172 -530h-88l174 530h-242l31 99l244 -2l82 252h-265l31 98l264 -2l160 493h86l-160 -493h263l159 493h86l-159 -491h251zM719 879h-262l-82 -252h262z" />
    <glyph glyph-name="dollar" unicode="$" horiz-adv-x="890" 
d="M819 342q0 -159 -91.5 -259.5t-248.5 -109.5v-118h-78v118q-47 7 -99.5 28.5t-63.5 21.5q-15 0 -21 -23h-49l-117 334l49 12q31 -76 72 -133.5t84 -90t77 -49.5t68 -26v655q-56 43 -91 72.5t-81 76.5t-72.5 89t-45.5 98.5t-19 116.5q0 153 88.5 238.5t220.5 95.5v90h78
v-94q43 -6 89.5 -25.5t54.5 -19.5q17 0 20 26h43l78 -258l-47 -10q-42 97 -107.5 147.5t-130.5 65.5v-590l17 -12q45 -35 67 -53t59.5 -49.5t56.5 -52.5t46 -52t40.5 -57t28 -59.5t20 -69t5.5 -74.5zM401 885v536q-93 -5 -148.5 -61.5t-55.5 -169.5q0 -79 53.5 -152
t150.5 -153zM705 317q0 92 -59 167.5t-167 158.5v-604q113 9 169.5 83.5t56.5 194.5z" />
    <glyph glyph-name="percent" unicode="%" horiz-adv-x="1273" 
d="M592 1141q0 -150 -69.5 -250t-188.5 -100q-120 0 -191 100.5t-71 249.5t71 248.5t191 99.5q119 0 188.5 -99t69.5 -249zM985 1466l-612 -1466h-86l614 1464zM1202 319q0 -150 -70 -249t-190 -99t-190 99t-70 249t70 249.5t190 99.5t190 -99.5t70 -249.5zM485 1141
q0 131 -41.5 213t-111.5 82t-113 -82.5t-43 -212.5t43 -212.5t113 -82.5t111.5 82t41.5 213zM1096 319q0 130 -42 212.5t-112 82.5t-113 -82.5t-43 -212.5t43 -211t113 -81t112 81t42 211z" />
    <glyph glyph-name="ampersand" unicode="&#x26;" horiz-adv-x="1060" 
d="M979 764q-25 0 -41.5 -4t-31.5 -21.5t-15 -50.5v-561q-33 -70 -132.5 -114t-213.5 -44q-134 0 -239 48t-169.5 149t-64.5 242q0 77 26 142.5t63.5 107t83.5 72.5t81.5 45.5t62.5 19.5q-30 7 -69.5 29.5t-82 59.5t-71.5 97.5t-29 130.5q0 167 100 271t283 104
q38 0 71.5 -8t47 -14.5t32.5 -17.5q15 -10 20.5 -8t6.5 25h54l94 -284l-53 -11q-43 109 -115 185t-158 76q-102 0 -169.5 -79t-67.5 -235q0 -69 18.5 -124.5t43 -85.5t57.5 -52t52.5 -28.5t37.5 -10.5l-9 -47q-34 -6 -61.5 -14t-68.5 -32.5t-68 -61t-47.5 -102.5t-20.5 -152
q0 -177 89.5 -275t240.5 -98q141 0 207 98v557q0 76 -119 76v39h344v-39z" />
    <glyph glyph-name="quotesingle" unicode="'" horiz-adv-x="342" 
d="M244 1481q0 -43 -6 -86l-43 -281h-48l-41 281q-8 52 -8 86q0 32 21.5 51.5t52.5 19.5q30 0 51 -19t21 -52z" />
    <glyph glyph-name="parenleft" unicode="(" horiz-adv-x="544" 
d="M549 -524h-64q-136 138 -237 436t-101 608q0 307 99 593t243 443h60q-101 -150 -179.5 -445.5t-78.5 -592.5q0 -296 76 -581t182 -461z" />
    <glyph glyph-name="parenright" unicode=")" horiz-adv-x="544" 
d="M395 520q0 -310 -101 -608t-237 -436h-63q106 176 182 461t76 581q0 297 -78.5 592.5t-179.5 445.5h59q144 -157 243 -443t99 -593z" />
    <glyph glyph-name="asterisk" unicode="*" horiz-adv-x="833" 
d="M752 920q0 -14 -7 -25q-16 -23 -43 -23q-26 0 -69 27q-58 38 -189 154q3 -23 12 -81t14 -99t5 -62q0 -55 -18 -76.5t-39 -21.5q-26 0 -42 24.5t-16 73.5q0 59 29 238q-151 -135 -184 -158q-42 -27 -72 -27q-27 0 -41 23q-8 11 -8 24q0 38 57 76q60 40 232 113
q-198 88 -232 110q-59 36 -59 76q0 13 8 25q13 22 41 22q30 0 72 -26q47 -30 188 -156q-31 196 -31 242q0 55 18 75.5t40 20.5q25 0 41 -24t16 -72q0 -63 -29 -242q153 136 183 156q40 26 71 26q29 0 41 -20q9 -18 9 -27q0 -36 -58 -76q-31 -21 -223 -108q191 -85 225 -107
q58 -37 58 -75z" />
    <glyph glyph-name="plus" unicode="+" horiz-adv-x="1034" 
d="M942 430h-379v-399h-92v399h-379v94h379v400h92v-400h379v-94z" />
    <glyph glyph-name="comma" unicode="," horiz-adv-x="337" 
d="M268 43q0 -101 -71 -203q-27 -38 -61 -64t-52 -32l-10 45q42 22 76 81.5t38 125.5q-12 -4 -30 -4q-36 0 -62 30t-26 68q0 40 29.5 65t68.5 25q51 0 75.5 -39t24.5 -98z" />
    <glyph glyph-name="hyphen" unicode="-" horiz-adv-x="778" 
d="M707 518h-635v74h635v-74z" />
    <glyph glyph-name="period" unicode="." horiz-adv-x="337" 
d="M264 86q0 -38 -28 -66t-66 -28q-40 0 -68 28t-28 66t28 66t66 28q40 0 68 -28t28 -66z" />
    <glyph glyph-name="slash" unicode="/" horiz-adv-x="770" 
d="M688 1561l-495 -1604h-111l498 1604h108z" />
    <glyph glyph-name="zero" unicode="0" horiz-adv-x="958" 
d="M887 559q0 -163 -47 -293.5t-141 -209.5t-220 -79t-220 79t-140.5 209.5t-46.5 293.5t46.5 293.5t140.5 209.5t220 79t220 -79t141 -209.5t47 -293.5zM760 559q0 146 -31 261.5t-96 187t-156 71.5t-156 -71.5t-95.5 -187t-30.5 -261.5t30.5 -261t95.5 -186t156 -71
t156 71t96 186t31 261z" />
    <glyph glyph-name="one" unicode="1" horiz-adv-x="448" 
d="M377 0h-305v39q92 0 92 76v880q0 80 -92 80v37h211v-1001q0 -21 6.5 -35t15 -21.5t23.5 -11t24 -4t25 -0.5v-39z" />
    <glyph glyph-name="two" unicode="2" horiz-adv-x="923" 
d="M852 252q-7 -31 -38.5 -109.5t-49.5 -103.5q-13 -18 -35 -27t-37 -10.5t-43 -1.5h-540l-19 37q42 18 108 67t143 127.5t143 167.5t110.5 198.5t44.5 209.5q0 132 -72.5 201t-175.5 69q-70 0 -122 -20t-77 -46t-40 -60t-18 -52t-3 -31h-59q0 29 4.5 57t24.5 69.5t53.5 72
t99 52.5t154.5 22q94 0 174.5 -36.5t134 -114.5t53.5 -185q0 -86 -35.5 -178.5t-89.5 -169.5t-116.5 -147.5t-120 -120t-96 -78.5t-46.5 -31h148q158 0 223 33q42 21 77 52t51.5 52t37.5 53z" />
    <glyph glyph-name="three" unicode="3" horiz-adv-x="919" 
d="M848 -35q0 -99 -29.5 -186t-85.5 -154.5t-145 -107t-199 -39.5q-74 0 -137.5 18.5t-101 45t-58 54t-20.5 48.5q0 20 12.5 36.5t32.5 16.5q24 0 42.5 -16.5t34 -39.5t36.5 -46t62 -39.5t99 -16.5q23 0 45 2.5t56 12.5t63 27t60 49.5t52.5 75.5t35.5 109.5t14 147.5
q0 86 -16.5 157t-42.5 117t-61 81t-70 54t-72.5 30t-64 13.5t-48.5 0.5l-33 55q355 46 355 348q0 43 -11.5 85t-37.5 83t-76.5 66.5t-118.5 25.5q-38 0 -68 -7t-48 -18t-31 -26.5t-18.5 -30t-7.5 -32.5t-1.5 -29.5t1.5 -25t1 -15.5q0 -18 -3.5 -35t-19 -34t-41.5 -17
q-28 0 -44.5 24t-16.5 52q0 47 17.5 90.5t52.5 81.5t95 61t136 23q94 0 165.5 -27t113.5 -73.5t62.5 -102.5t20.5 -119q0 -60 -15 -112t-38 -87t-55 -64.5t-61 -46.5t-60.5 -29.5t-48.5 -17t-31 -7.5q91 -12 161.5 -57.5t108.5 -101.5t62.5 -124.5t31.5 -117.5t7 -89z" />
    <glyph glyph-name="four" unicode="4" horiz-adv-x="983" 
d="M911 63l-20 -71h-152v-475l-118 -49v524h-502l-47 47l590 1079h77v-1055h172zM621 61v846l-461 -846h461z" />
    <glyph glyph-name="five" unicode="5" horiz-adv-x="950" 
d="M879 37q0 -79 -14 -154.5t-49.5 -151.5t-88.5 -132t-138 -91.5t-192 -35.5q-126 0 -225.5 56.5t-99.5 117.5q0 14 15 29.5t28 15.5q24 0 45 -16t40.5 -39t43 -46t63.5 -39t92 -16q55 0 103.5 13.5t95.5 49t81 90.5t54.5 144t20.5 203q0 120 -20 212.5t-51 147.5t-75 89.5
t-86.5 46.5t-89.5 12t-84 -7t-58.5 -18t-34.5 -21t-21.5 -20.5t-10.5 -11.5l-55 18l113 625h350h8q22 0 32 -1t22.5 -6t23.5 -16q23 -23 65 -110t49 -117l-49 -16q-26 40 -40.5 59.5t-41.5 43t-58.5 33t-81.5 16.5t-120 7h-100q-83 -451 -84 -438q1 1 8 5t10.5 6.5t13 7
t17.5 7t22 6t28 5t33.5 3t41.5 1.5q59 0 115 -13t118.5 -51t108.5 -98.5t76.5 -164.5t30.5 -240z" />
    <glyph glyph-name="six" unicode="6" horiz-adv-x="921" 
d="M850 481q0 -236 -107.5 -370t-277.5 -134q-186 0 -289.5 160t-103.5 438q0 158 35 303.5t92 252t127 194t142.5 142t136 83.5t110.5 29q43 0 43 -29q0 -14 -36 -32t-88 -39.5t-123 -73t-126 -121.5q-93 -117 -141.5 -284.5t-48.5 -417.5q0 -256 73.5 -400.5t196.5 -144.5
q122 0 193 111t71 329q0 209 -70.5 314.5t-164.5 105.5q-39 0 -70 -9t-49.5 -23.5t-30 -28t-19.5 -26.5t-10 -15l-49 20q19 69 86 108.5t144 39.5q69 0 131.5 -30.5t112.5 -89t80 -152t30 -210.5z" />
    <glyph glyph-name="seven" unicode="7" horiz-adv-x="944" 
d="M872 1061l-479 -1581l-104 20l491 1501h-350q-193 0 -267 -94q-15 -20 -44 -76l-47 17q9 37 47 129.5t61 112.5q6 5 12 9t11 6.5t11.5 4t10.5 2.5t11.5 1.5t9.5 0.5h10.5h9.5h574z" />
    <glyph glyph-name="eight" unicode="8" horiz-adv-x="917" 
d="M846 426q0 -195 -103.5 -323t-283.5 -128t-283.5 128t-103.5 323q0 98 27 181t89.5 150.5t155.5 96.5q-100 40 -157.5 139.5t-57.5 210.5q0 163 86.5 269t243.5 106q156 0 240.5 -106t84.5 -269q0 -111 -55 -210.5t-151 -139.5q134 -45 201 -160.5t67 -267.5zM670 1206
q0 143 -53.5 228.5t-159.5 85.5t-157.5 -85t-51.5 -229q0 -140 53.5 -228.5t155.5 -88.5q62 0 105.5 27.5t66 75.5t32 100t9.5 114zM727 426q0 76 -16 144t-47.5 124.5t-84.5 89.5t-122 33q-128 0 -197.5 -112.5t-69.5 -282.5q0 -172 71.5 -280.5t199.5 -108.5
q127 0 196.5 110t69.5 283z" />
    <glyph glyph-name="nine" unicode="9" horiz-adv-x="948" 
d="M877 508q0 -141 -27 -272.5t-72.5 -233t-104 -189.5t-122 -150t-127 -106.5t-118 -65.5t-95.5 -21q-45 0 -45 30q0 13 23.5 25.5t64.5 30.5t88.5 42.5t105.5 70.5t105 106q96 123 146.5 296t50.5 431q0 264 -76.5 413.5t-204.5 149.5q-126 0 -199 -115.5t-73 -341.5
q0 -112 21.5 -198t57.5 -135.5t78 -74t86 -24.5q40 0 72 9.5t51.5 24.5t31.5 28.5t20.5 27.5t9.5 15l51 -21q-10 -54 -77 -104t-163 -50q-71 0 -135.5 31.5t-116 91.5t-82 157t-30.5 218q0 245 110.5 383.5t286.5 138.5q192 0 300 -166t108 -452z" />
    <glyph glyph-name="colon" unicode=":" horiz-adv-x="337" 
d="M264 860q0 -38 -28 -66t-66 -28q-40 0 -68 28t-28 66t28 66t66 28q40 0 68 -28t28 -66zM264 86q0 -38 -28 -66t-66 -28q-40 0 -68 28t-28 66t28 66t66 28q40 0 68 -28t28 -66z" />
    <glyph glyph-name="semicolon" unicode=";" horiz-adv-x="337" 
d="M258 860q0 -38 -28 -66t-66 -28q-40 0 -68 28t-28 66t28 66t66 28q40 0 68 -28t28 -66zM270 43q0 -104 -73 -203q-26 -38 -59 -64t-52 -32l-12 45q43 23 77.5 82t38.5 125q-12 -4 -30 -4q-37 0 -63.5 30t-26.5 68q0 40 29.5 65t68.5 25q51 0 76.5 -39t25.5 -98z" />
    <glyph glyph-name="less" unicode="&#x3c;" horiz-adv-x="1034" 
d="M930 -37l-838 463v78l838 463v-95l-733 -407l733 -408v-94z" />
    <glyph glyph-name="equal" unicode="=" horiz-adv-x="1034" 
d="M952 551h-870v92h870v-92zM952 315h-870v93h870v-93z" />
    <glyph glyph-name="greater" unicode="&#x3e;" horiz-adv-x="1034" 
d="M930 422l-838 -463v94l733 408l-733 407v95l838 -463v-78z" />
    <glyph glyph-name="question" unicode="?" horiz-adv-x="782" 
d="M711 1108q0 -104 -35.5 -186.5t-83 -127t-105 -74t-93.5 -38.5t-56 -10l-19 -295h-81l-15 375q20 1 50 6.5t75 19t87.5 40t80.5 63.5t61 96t23 131q0 69 -12.5 125.5t-38.5 102t-71.5 71t-106.5 25.5q-181 0 -181 -134q0 -17 3.5 -38.5t3.5 -22.5q0 -82 -62 -82
q-31 0 -47 24.5t-16 53.5q0 99 80 176.5t223 77.5q87 0 153.5 -31t105 -84.5t58 -120t19.5 -143.5zM373 86q0 -38 -28 -66t-66 -28t-66.5 28t-28.5 66t28.5 66t66.5 28t66 -28t28 -66z" />
    <glyph glyph-name="at" unicode="@" horiz-adv-x="1476" 
d="M1405 971q0 -119 -40 -238t-102 -206.5t-139.5 -142t-148.5 -54.5q-63 0 -102.5 53.5t-34.5 101.5q-21 -47 -51.5 -79.5t-61 -47.5t-54 -20.5t-44.5 -5.5q-18 0 -39 4t-54 22t-58.5 48t-44.5 88.5t-19 136.5q0 125 52 243.5t134 190.5t166 72q72 0 107 -38t40 -91l21 94
h119l-54 -273q-46 -226 -51 -323q-2 -15 -1 -34.5t5 -37.5t18.5 -30.5t39.5 -12.5q42 0 89.5 41.5t89.5 113t69.5 183.5t27.5 238q0 236 -104 351.5t-322 115.5q-143 0 -264.5 -65.5t-203 -176.5t-127.5 -258t-46 -309q0 -138 44.5 -251.5t118.5 -185t166 -110.5t191 -39
q313 0 572 276l30 -55q-132 -140 -274.5 -213.5t-323.5 -73.5q-60 0 -121.5 10t-128 33.5t-126.5 58t-114 88t-93.5 119.5t-62.5 155.5t-23 193.5q0 168 60.5 324.5t164.5 275t253 189.5t316 71q247 0 393 -139.5t146 -380.5zM866 874q0 55 -3 88.5t-13 64t-31 44.5t-55 14
q-52 0 -96.5 -47t-71 -117.5t-41 -146t-14.5 -139.5q0 -240 106 -240q66 0 117.5 76.5t76.5 184t25 218.5z" />
    <glyph glyph-name="A" unicode="A" horiz-adv-x="1044" 
d="M1034 0h-319v37q78 0 78 49q0 10 -4 28.5t-9.5 36t-5.5 19.5l-108 412h-351l-112 -420q-1 -3 -5.5 -19.5t-8 -33t-3.5 -23.5q0 -49 78 -49v-37h-254v37q16 1 22.5 1.5t21 4.5t22 11t16.5 21t14 34l377 1386h78l377 -1386q11 -43 35 -57.5t61 -14.5v-37zM649 647l-160 631
l-161 -631h321z" />
    <glyph glyph-name="B" unicode="B" horiz-adv-x="993" 
d="M922 416q0 -92 -29 -166t-88.5 -131t-159.5 -88t-233 -31h-330v37q50 4 70 22q22 20 22 60v1233q0 78 -92 78v36h285q65 0 123.5 -8.5t118 -31.5t102 -58.5t69.5 -94t27 -134.5q0 -98 -64.5 -186t-173.5 -113q21 -5 55 -18t88.5 -46.5t99 -78t77.5 -119t33 -162.5z
M780 426q0 63 -15 117.5t-37.5 91.5t-54.5 67.5t-60 48t-60.5 30.5t-50 18t-33.5 8v51q9 0 27.5 4t50.5 20t58.5 42.5t46.5 77.5t20 118q0 55 -11.5 99.5t-28.5 73t-43.5 49t-50.5 31t-56 16.5t-52.5 7t-48.5 1q-35 0 -74 -2v-1327q62 -2 101 -2q197 0 284.5 86.5
t87.5 273.5z" />
    <glyph glyph-name="C" unicode="C" horiz-adv-x="1064" 
d="M993 457q-1 -12 -5.5 -38t-17.5 -73t-32 -95t-52.5 -100t-75 -91.5t-102.5 -65t-133 -25.5q-161 0 -276.5 104t-171 274t-55.5 384q0 159 32.5 296t94.5 241t158 163.5t216 59.5q42 0 82 -8.5t63 -18.5t41.5 -16t26.5 -1.5t9 23.5h45l96 -284l-47 -10q-27 53 -56 93.5
t-67.5 78.5t-87.5 58.5t-105 20.5q-116 0 -198.5 -94t-121 -248t-38.5 -352t38.5 -352t121.5 -248t200 -94q72 0 133 39.5t97.5 94.5t63 117.5t36.5 105.5t10 61h78z" />
    <glyph glyph-name="D" unicode="D" horiz-adv-x="1038" 
d="M967 737q0 -138 -22 -250.5t-56.5 -187.5t-85 -131.5t-100.5 -87.5t-110.5 -50t-106.5 -24.5t-97 -5.5h-305v39q50 4 68 22q22 21 22 60v1229q0 80 -92 80v38h264q50 0 98 -5.5t112.5 -24.5t119 -50.5t110 -87.5t94 -130.5t63 -185.5t24.5 -247zM821 731q0 129 -20 234.5
t-50.5 174t-74.5 120t-85.5 78t-89.5 43t-79.5 20.5t-63.5 4h-51v-1339h74q37 0 64 2t76 15.5t85.5 37.5t79.5 73.5t70.5 118t46 176t18.5 242.5z" />
    <glyph glyph-name="E" unicode="E" horiz-adv-x="856" 
d="M836 250q-5 -30 -42.5 -117t-58.5 -108q-18 -18 -30.5 -21.5t-45.5 -3.5h-575v37q52 5 72 22q22 19 22 56v1228q0 78 -93 87h-3v36h557h4.5h5h5t5.5 -0.5t5.5 -1.5t6 -2.5t5.5 -3.5t5.5 -5t5.5 -6.5t5 -8.5q18 -32 37 -93.5t21 -84.5l-39 -9q-31 69 -53 94
q-53 60 -164 60h-187v-496h236q3 12 10 30t32.5 58t55.5 60l43 -37q-58 -51 -76 -121.5t-2 -144.5q-14 -5 -51 -17q-2 4 -5.5 12.5t-8.5 36.5t-4 58h-230v-781h180q55 0 101 13.5t76 33t55 48t39.5 52t29.5 50.5q1 2 1.5 3.5t1.5 3.5t2 3z" />
    <glyph glyph-name="F" unicode="F" horiz-adv-x="770" 
d="M750 1260l-39 -9q-31 69 -53 94q-53 60 -164 60h-187v-496h236q4 12 11 30t33 58t56 60l41 -37q-58 -51 -76 -121.5t-2 -144.5l-51 -17q-2 4 -5 12.5t-7.5 36.5t-3.5 58h-232v-715q0 -92 117 -92v-37h-342v37q17 0 29.5 2t28.5 9t25 24t9 43v1231q0 77 -92 84v36h557h4.5
h5h5t5.5 -0.5t5.5 -1.5t6 -2.5t5.5 -3.5t5.5 -5t5.5 -6.5t5 -8.5q18 -32 37 -93.5t21 -84.5z" />
    <glyph glyph-name="G" unicode="G" horiz-adv-x="1142" 
d="M1071 770q-53 -5 -73 -22q-23 -21 -23 -60v-524q-29 -55 -79 -95.5t-105 -60t-102 -28.5t-87 -9q-106 0 -193.5 39t-149 107.5t-104 164.5t-63 209t-20.5 240q0 215 55 384.5t170.5 273.5t277.5 104q49 0 93.5 -11.5t72 -23.5t35.5 -12q16 0 19 24h47l94 -282l-45 -12
q-27 53 -56 93.5t-67.5 78.5t-87.5 58.5t-105 20.5q-91 0 -161.5 -53.5t-113.5 -149t-65 -219.5t-22 -272q0 -151 21 -272.5t65.5 -217.5t122 -149t182.5 -53q169 0 238 96v551q0 82 -107 82v39h336v-39z" />
    <glyph glyph-name="H" unicode="H" horiz-adv-x="1062" 
d="M981 0h-328v37q24 1 38 3.5t31 10.5t24.5 26.5t7.5 47.5v821h-447v-821q0 -29 7.5 -47.5t24 -26.5t30 -10.5t37.5 -3.5v-37h-324v37q14 1 19 1.5t22.5 6t26 13t16.5 24t8 39.5v1231q0 68 -90 78v36h324v-36q-101 0 -101 -78v-340h447v340q0 78 -99 78v36h324v-36
q-7 0 -18.5 -2.5t-29.5 -9t-30 -24t-12 -42.5v-1231q0 -23 8 -39.5t16.5 -24t26 -13t22.5 -6t19 -1.5v-37z" />
    <glyph glyph-name="I" unicode="I" horiz-adv-x="493" 
d="M412 0h-330v37q19 1 30.5 3.5t28.5 10t26 26t9 46.5v1223q0 20 -4 34.5t-14.5 23.5t-16.5 14t-22 7.5t-18 3t-17 1.5v36h326v-36q-20 -1 -31.5 -3t-30 -9.5t-28 -25.5t-9.5 -46v-1227q0 -12 2.5 -22t5.5 -17.5t9 -14t10.5 -10.5t13 -7t13 -5t13.5 -3t12.5 -1.5t12 -1
t9.5 -0.5v-37z" />
    <glyph glyph-name="J" unicode="J" horiz-adv-x="733" 
d="M651 1430q-16 0 -30.5 -3t-31 -11t-26.5 -25.5t-10 -42.5v-1049q0 -161 -51.5 -245.5t-171.5 -84.5q-48 0 -83 11.5t-53 23.5t-24 12q-10 0 -11.5 -2t-4.5 -16h-37l-117 338l51 10l35 -84q19 -47 45 -86t52.5 -64t54 -42.5t49.5 -25t39 -7.5q57 0 75.5 50t18.5 163v1100
q0 26 -11 44t-28.5 25t-29 9t-23.5 2v36h323v-36z" />
    <glyph glyph-name="K" unicode="K" horiz-adv-x="952" 
d="M1014 0h-209q-18 80 -88 211t-158 258q-143 206 -262 313v-671q0 -25 8 -41.5t23.5 -23t27 -8t29.5 -1.5v-37h-301v37q39 0 61.5 16.5t22.5 61.5v1237q0 78 -86 78v36h303v-36q-88 0 -88 -78v-551q31 40 219.5 287t202.5 264q14 20 14 34q0 23 -29 33.5t-59 10.5v36h281
v-39q-70 -6 -115 -67q-21 -23 -399 -520q132 -117 261.5 -310.5t233.5 -410.5q14 -28 29.5 -46t33.5 -25t23.5 -8t20.5 -3v-37z" />
    <glyph glyph-name="L" unicode="L" horiz-adv-x="884" 
d="M864 252q-5 -29 -42 -119.5t-54 -107.5t-31.5 -21t-44.5 -4h-610v37q94 0 94 80v1226q0 84 -94 84v39h342v-39q-21 0 -37 -2t-36 -9.5t-31 -26t-11 -46.5v-1280h205q55 0 100.5 13.5t73.5 31t54.5 48.5t38.5 50.5t29 50.5q5 9 7 13z" />
    <glyph glyph-name="M" unicode="M" horiz-adv-x="1439" 
d="M1358 0h-324v39q43 0 67.5 15.5t24.5 60.5v1112l-401 -1247h-70l-413 1212v-1081q0 -44 21.5 -58t66.5 -14v-39h-248v39q38 0 61 15t23 61v1353h119l438 -1257l401 1257h136v-1353q0 -25 8.5 -41t25 -23t30.5 -9.5t34 -2.5v-39z" />
    <glyph glyph-name="N" unicode="N" horiz-adv-x="1103" 
d="M1022 1430q-38 0 -61 -16t-23 -62v-1372h-100l-596 1267v-3v-3v-3v-3v-3v-3v-3v-3v-3v-3v-3v-3v-3v-3v-3v-3v-3v-3v-3v-3v-3v-3v-3v-3v-3v-3v-3v-3v-3v-3v-3v-3v-3v-3v-3v-3v-3v-3v-3v-3v-3v-3v-3v-3v-3v-3v-4v-3v-3v-3v-3v-3v-3v-3v-3v-3v-3v-3v-3v-3v-3v-3v-3v-3v-3v-3
v-3v-3v-3v-3v-3v-3v-3v-3v-3v-3v-3v-3v-3v-3v-3v-3v-3v-3v-3v-3v-3v-3v-3v-3v-3v-3v-3v-3v-3v-3v-3v-3v-3v-3v-3v-3v-3v-3v-3v-3v-3v-3v-3v-3v-3v-3v-3v-3v-3v-3v-3v-3v-3v-3v-3v-3v-3v-3v-3v-3v-3v-3v-3v-3v-3v-3v-3v-3v-3v-3v-3v-4v-3v-3v-3v-3v-3v-3v-3v-3v-3v-3v-3v-3
v-3v-3v-3v-3v-3v-3v-3v-3v-3v-3v-3v-3v-3v-3v-3v-3v-3v-3v-3v-3v-3v-3v-3v-3v-3v-3v-3v-3v-3v-3v-3v-3v-3v-3v-3v-3v-3v-3v-3v-3v-3v-3v-3v-3v-3v-3v-3v-3v-3v-3v-3v-3v-3v-3v-3v-3v-3v-3v-3v-3v-3v-3v-3v-3v-3v-3v-3v-3v-3v-3v-3v-3v-3v-3v-3v-3v-4v-3v-3v-3v-3v-3v-3v-3
v-3v-3v-3v-3v-3v-3v-3v-3v-3v-3v-3v-3v-3v-3v-3v-3v-3v-3v-3v-3v-3v-3v-3v-3v-3v-3v-3v-3v-3v-3v-3v-3v-3v-3v-3v-3v-3v-3v-3v-3v-3v-3v-3v-3v-3v-3v-3v-3v-3v-3v-3v-3v-3v-3v-3v-3v-3v-3v-3v-3v-3v-3v-3v-3v-3v-3v-3v-3v-3v-3v-3v-3v-3v-3v-3v-3v-3v-3v-3v-3v-3v-3v-3v-3
v-3v-3v-3v-3v-3v-3v-4v-3v-3v-3v-3v-3v-3v-3v-3v-3v-3v-3v-3v-3v-3v-3v-3v-3v-3v-3v-3v-3v-3v-3v-3v-3v-3v-3v-3v-3v-3v-3v-2v-3v-3v-3v-3v-3v-3v-3v-3v-3v-3v-3v-3v-3v-3v-3v-3v-2v-10q0 -45 24 -59.5t66 -14.5v-39h-250v39q84 0 84 76v1351h121l575 -1241v1131
q0 41 -22 57.5t-66 16.5v36h248v-36z" />
    <glyph glyph-name="O" unicode="O" horiz-adv-x="1157" 
d="M1085 731q0 -127 -20 -240.5t-61 -209t-100 -165t-142 -108.5t-182 -39q-123 0 -221 59.5t-160 164t-94.5 242t-32.5 296.5t32.5 296t94.5 241t160 163.5t221 59.5t220.5 -59.5t159 -163.5t93.5 -240.5t32 -296.5zM944 733q0 148 -22 272t-65.5 219.5t-114.5 149
t-162 53.5q-121 0 -205 -94.5t-122 -247.5t-38 -352t38 -352t122 -247.5t205 -94.5q91 0 162 53.5t114.5 149t65.5 219.5t22 272z" />
    <glyph glyph-name="P" unicode="P" horiz-adv-x="919" 
d="M858 1081q0 -72 -23 -132.5t-61 -101t-84 -71t-96 -47.5t-92 -25t-76 -8q-5 0 -14 1t-13 1v58h23q24 0 49.5 4t61 15t66 34.5t57.5 57.5t43 89.5t16 124.5q0 324 -340 324h-66v-1286q0 -80 113 -80v-39h-340v39q13 0 26 2.5t30 9.5t27.5 25t10.5 45v1233q0 78 -94 78v36
h272q504 0 504 -387z" />
    <glyph glyph-name="Q" unicode="Q" horiz-adv-x="1157" 
d="M1085 729q0 -200 -48.5 -361.5t-151 -268.5t-246.5 -126v-36q0 -208 88 -244l-16 -43q-14 0 -32 3.5t-50 22t-56.5 49t-43.5 92.5t-19 144v12q-142 21 -242.5 128t-148 267.5t-47.5 360.5q0 127 20 240.5t61 209t100.5 165t142.5 108.5t182 39q123 0 221 -59.5
t159.5 -164t94 -241.5t32.5 -297zM942 733q0 148 -22 272t-65.5 219t-114.5 148t-162 53q-121 0 -205 -94t-122 -246.5t-38 -351.5t38 -352t122 -247.5t205 -94.5q91 0 162 53.5t114.5 149t65.5 219.5t22 272z" />
    <glyph glyph-name="R" unicode="R" horiz-adv-x="995" 
d="M1024 0h-225q-17 102 -86 268t-154.5 308.5t-142.5 173.5v45q7 0 19.5 1.5t39 8.5t51.5 18.5t53.5 35t49.5 55.5t35 82t14 112q0 295 -309 295h-60v-1288q0 -76 99 -76v-39h-326v39q92 0 92 80v1235q0 76 -92 76v38h299q64 0 123 -9.5t118 -34t102 -62.5t70 -99t27 -139
q0 -33 -9 -73.5t-32.5 -96t-78 -105.5t-132.5 -77q60 -51 166 -254.5t172 -388.5q13 -39 48.5 -65.5t68.5 -26.5v-37z" />
    <glyph glyph-name="S" unicode="S" horiz-adv-x="911" 
d="M840 342q0 -168 -100.5 -269.5t-272.5 -101.5q-48 0 -93 13t-74.5 26t-41.5 13q-14 0 -20 -23h-50l-116 334l49 12l16 -37q50 -114 148.5 -192t195.5 -78q64 0 112 23t76 63t42 88t14 104q0 54 -20.5 103t-64.5 96t-80 77.5t-101 80.5q-14 11 -21 16q-42 32 -67 51.5
t-64 53.5t-62.5 60t-51.5 63t-43.5 71.5t-26 77.5t-10.5 88q0 160 98 247t238 87q48 0 90 -12.5t68.5 -24.5t35.5 -12q18 0 21 26h43l77 -258l-47 -10l-14 29q-31 63 -88 114q-95 80 -197 80q-100 0 -160.5 -57t-60.5 -174q0 -42 18.5 -85.5t43.5 -77.5t70.5 -77.5t78 -70
t88.5 -70.5q52 -41 76.5 -60.5t66.5 -56.5t62 -60.5t47.5 -60.5t40 -69t22 -73.5t9.5 -86.5z" />
    <glyph glyph-name="T" unicode="T" horiz-adv-x="815" 
d="M774 1247l-39 -10q-14 32 -20.5 46t-25.5 42.5t-37 42t-48.5 25.5t-66.5 12h-68v-1288q0 -14 3.5 -26t9 -20t14.5 -14t16 -9.5t17.5 -5.5t16 -3t14 -1.5t9.5 -0.5v-37h-323v37q92 0 92 84v1284h-64q-25 0 -46.5 -5t-37 -11t-30 -19t-23 -22t-19 -27.5t-14.5 -27
t-12.5 -29.5t-11.5 -27l-39 10q2 25 20.5 92.5t36.5 98.5q3 5 5.5 9t6 7t6.5 5t7 3.5t6 2t6.5 1t6 0.5h6.5h4h512h4.5h5h5t5.5 -0.5t5.5 -1.5t6 -2.5t5.5 -3.5t5.5 -5t5.5 -6.5t5 -8.5q18 -31 36.5 -98.5t20.5 -92.5z" />
    <glyph glyph-name="U" unicode="U" horiz-adv-x="1052" 
d="M981 1430q-88 0 -88 -78v-867q0 -47 -3 -90t-12.5 -96.5t-25 -98t-43 -88.5t-64 -74.5t-90 -49.5t-118.5 -19q-207 0 -297 152q-78 131 -78 414v813q0 27 -9.5 45t-27.5 25t-27 9t-26 3v36h321v-36q-100 0 -100 -82v-865q0 -64 4 -116t14.5 -105t29.5 -92t46.5 -70
t69 -47t94.5 -16q132 0 197 118t65 324v875q0 21 -7 36t-13.5 22t-22.5 11.5t-21.5 5t-21.5 1.5v36h254v-36z" />
    <glyph glyph-name="V" unicode="V" horiz-adv-x="1048" 
d="M1038 1430q-79 0 -98 -72l-362 -1378h-82l-390 1378q-11 42 -35 57t-61 15v36h322v-36q-31 0 -55.5 -12t-24.5 -38q0 -12 16 -73l299 -1119l289 1164q4 20 4 26q0 52 -80 52v36h258v-36z" />
    <glyph glyph-name="W" unicode="W" horiz-adv-x="1593" 
d="M1583 1427q-56 0 -84 -28q-12 -12 -26 -70l-312 -1352h-80l-284 1217l-269 -1217h-75l-336 1377q-18 73 -107 73v39h326v-39q-82 0 -82 -55q0 -14 2 -24l262 -1090l254 1227h78l303 -1227l240 1096q2 6 2 18q0 32 -23.5 43.5t-64.5 11.5v39h276v-39z" />
    <glyph glyph-name="X" unicode="X" horiz-adv-x="976" 
d="M967 0h-338v37q34 0 61 12.5t27 38.5q0 12 -6 27l-240 524l-254 -524q-6 -15 -6 -29q0 -49 86 -49v-37h-287v37q32 0 68.5 22t54.5 58l301 602l-289 637q-27 65 -106 71v39h328v-39q-78 0 -78 -45q0 -17 14 -45l211 -460l227 473q9 15 9 28q0 16 -9.5 26.5t-24.5 15
t-26 6t-22 1.5v39h268v-39q-34 -1 -63.5 -24.5t-47.5 -59.5l-278 -544l313 -680q16 -33 50 -57.5t57 -24.5v-37z" />
    <glyph glyph-name="Y" unicode="Y" horiz-adv-x="993" 
d="M983 1430q-24 0 -55 -18t-49 -58l-295 -664v-571q0 -43 28.5 -61.5t69.5 -18.5v-39h-322v39q59 5 79 32q14 19 14 48v569l-334 670q-36 72 -109 72v36h293v-36q-12 0 -22.5 -2t-21 -11.5t-9.5 -25.5q0 -19 10 -39l281 -578l254 578q8 19 8 34q0 23 -20 33.5t-40 10.5v36
h240v-36z" />
    <glyph glyph-name="Z" unicode="Z" horiz-adv-x="870" 
d="M850 252q-5 -30 -40.5 -118t-55.5 -109q-16 -17 -30.5 -21t-45.5 -4h-658v31l642 1372h-310q-52 0 -90 -12.5t-61 -37.5t-35 -45t-26 -53q-3 -8 -5 -12l-45 10q2 24 20.5 87.5t36.5 95.5q15 30 56 30l622 2v-32l-647 -1373h328q29 0 56 4t47.5 9.5t41 17t34 19.5
t29.5 24.5t24 25.5t20.5 28.5t16.5 26.5t15 27.5t13 24.5z" />
    <glyph glyph-name="bracketleft" unicode="[" horiz-adv-x="544" 
d="M485 -518h-311v2081h311v-45h-180v-1993h180v-43z" />
    <glyph glyph-name="backslash" unicode="\" horiz-adv-x="770" 
d="M688 -43h-110l-496 1604h108z" />
    <glyph glyph-name="bracketright" unicode="]" horiz-adv-x="544" 
d="M383 -518h-311v43h180v1993h-180v45h311v-2081z" />
    <glyph glyph-name="asciicircum" unicode="^" horiz-adv-x="1034" 
d="M977 317h-96l-365 723l-364 -723h-95l424 826h72z" />
    <glyph glyph-name="underscore" unicode="_" 
d="M1022 -221h-1020v71h1020v-71z" />
    <glyph glyph-name="grave" unicode="`" 
d="M690 1059h-74l-231 158q-55 38 -55 75q0 22 15.5 36.5t39.5 14.5q22 0 39.5 -12.5t56.5 -52.5z" />
    <glyph glyph-name="a" unicode="a" horiz-adv-x="802" 
d="M731 0h-205l-6 98q-18 -36 -49 -62.5t-64.5 -38.5t-59 -17t-44.5 -5q-101 0 -171.5 72t-70.5 191q0 91 34 163t82.5 112.5t110.5 67t111 35.5t90 9h27q0 1 0.5 28.5t0 41.5t-3 45t-8.5 50t-17.5 44t-28 39.5t-42 25t-57.5 10.5q-36 0 -69 -14.5t-53.5 -31.5t-41.5 -47.5
t-28.5 -44t-20.5 -40.5q-3 -5 -4 -8l-51 8l60 213h41q3 -14 16 -14q7 0 64 20.5t102 20.5q49 0 87 -7t65 -25.5t46.5 -34.5t31.5 -52.5t18.5 -59.5t9.5 -74.5t3.5 -79.5t0.5 -92v-32v-405q0 -45 23.5 -57.5t70.5 -12.5v-39zM516 305v244q-24 8 -61 8q-34 0 -68 -7.5
t-73 -28.5t-68 -54.5t-48.5 -90.5t-19.5 -130q0 -52 12.5 -95t47.5 -75.5t88 -32.5t91.5 23t59 62t30 83t9.5 94z" />
    <glyph glyph-name="b" unicode="b" horiz-adv-x="946" 
d="M885 475q0 -141 -38 -251t-120.5 -178.5t-198.5 -68.5q-90 0 -152 50t-89 118v-39v-106h-215v37q4 1 20.5 3t26.5 5t23 9.5t19.5 21t6.5 35.5v1323q0 77 -90 77v39h209v-733q30 65 95 110.5t146 45.5q109 0 191.5 -67.5t124 -180t41.5 -250.5zM762 475q0 125 -25 221
t-80 154.5t-133 58.5q-113 0 -175 -112.5t-62 -323.5q0 -207 62 -319.5t175 -112.5q78 0 133 58.5t80 154.5t25 221z" />
    <glyph glyph-name="c" unicode="c" horiz-adv-x="776" 
d="M735 289q0 -21 -8 -55t-30 -80t-54.5 -85t-89.5 -66.5t-127 -27.5q-58 0 -109 14.5t-99 50t-82 90.5t-54.5 143t-20.5 200q0 217 97.5 356.5t267.5 139.5q49 0 88 -10.5t60 -20.5t26 -10q7 0 10 14l39 2l58 -201l-50 -8q-10 21 -13.5 28.5t-17 30t-23.5 34t-29.5 29.5
t-39.5 27t-48 16t-60 7q-63 0 -111 -38t-75.5 -101.5t-41.5 -138t-14 -156.5q0 -59 7 -117t24.5 -116.5t44 -102.5t69 -72t95.5 -28q66 0 116 31t75 76t37 82.5t12 62.5h71z" />
    <glyph glyph-name="d" unicode="d" horiz-adv-x="946" 
d="M874 0h-212v145q-27 -68 -90.5 -118t-153.5 -50q-116 0 -198.5 68.5t-120.5 178.5t-38 251q0 138 41.5 250.5t124 180t191.5 67.5q81 0 146 -45.5t95 -110.5v621q0 73 -90 73v39h209v-1439q0 -74 96 -74v-37zM662 473q0 211 -62.5 323.5t-175.5 112.5q-78 0 -133.5 -58.5
t-81 -154.5t-25.5 -221t25.5 -221t81 -154.5t133.5 -58.5q113 0 175.5 113t62.5 319z" />
    <glyph glyph-name="e" unicode="e" horiz-adv-x="808" 
d="M748 557h-560q-4 -31 -4 -84q0 -79 11.5 -150.5t37.5 -138.5t75.5 -107t117.5 -40q59 0 108 32t75.5 76.5t40.5 83t14 60.5h73q0 -17 -8 -50t-30.5 -79.5t-55.5 -87t-90 -69t-127 -28.5q-56 0 -105.5 13.5t-98 48.5t-83.5 89.5t-56.5 143.5t-21.5 203q0 218 98.5 357
t274.5 139q73 0 130.5 -30t91 -74.5t55.5 -102.5t29.5 -108t7.5 -97zM633 627q-44 280 -199 280q-100 0 -157 -77t-78 -203h434z" />
    <glyph glyph-name="f" unicode="f" horiz-adv-x="534" 
d="M678 1405q0 -34 -18 -59t-58 -25q-25 0 -41 19t-16 44q0 16 10 36.5t10 29.5q0 49 -90 49q-52 0 -86.5 -25.5t-60.5 -78.5q-37 -79 -37 -287v-162h272l-14 -63h-258v-772q0 -16 4 -28t11 -19.5t14.5 -12.5t18 -8t16.5 -4t15.5 -1.5t10.5 -0.5v-37h-293v37q48 4 66 22
q20 19 20 56v768h-133l14 63h119v72q0 165 14.5 263.5t67.5 172.5q35 50 94.5 78.5t126.5 28.5q88 0 144.5 -43t56.5 -113z" />
    <glyph glyph-name="g" unicode="g" horiz-adv-x="833" 
d="M803 -227q0 -122 -113.5 -215t-265.5 -93q-182 0 -282.5 84t-100.5 205q0 79 74.5 163t171.5 97q-18 0 -44 5.5t-59.5 18t-56.5 40.5t-23 67q0 42 36 74t76.5 44.5t68.5 10.5q-82 33 -135.5 126.5t-53.5 199.5q0 152 93.5 256.5t232.5 104.5q73 0 133 -31q8 22 20.5 45.5
t33.5 51.5t53 45.5t69 17.5q32 0 51 -14t19 -40q0 -59 -72 -59q-2 0 -12 0.5t-15.5 0t-16 -2t-17.5 -4.5t-16.5 -9t-16 -14.5t-13 -22t-10.5 -30.5q61 -52 98.5 -129.5t37.5 -165.5q0 -152 -93.5 -257t-232.5 -105q-105 0 -143 -16q-50 -21 -50 -70q0 -24 9.5 -42.5t29 -29
t36.5 -17t43.5 -9t39 -3t33.5 -0.5q95 0 180.5 -30.5t144 -95.5t58.5 -152zM623 600q0 129 -55.5 216t-145.5 87t-145.5 -87t-55.5 -216t55.5 -217t145.5 -88t145.5 88t55.5 217zM678 -242q0 101 -71.5 163.5t-184.5 62.5q-100 0 -179 -59.5t-79 -166.5q0 -101 72.5 -166
t185.5 -65q112 0 184 65t72 166z" />
    <glyph glyph-name="h" unicode="h" horiz-adv-x="999" 
d="M928 0h-305v37q92 0 92 78v518q0 51 -2 85t-11 73t-25.5 62t-46 38.5t-71.5 15.5q-91 0 -162 -75.5t-94 -196.5q-22 -129 -22 -238v-286q0 -74 96 -74v-37h-305v37q18 0 31.5 2.5t28.5 9.5t23.5 23.5t8.5 42.5v1325q0 17 -3.5 30t-10.5 21t-14 13.5t-17 8t-16 3.5
t-15 1.5t-10 0.5v30h203v-792q8 20 19.5 41.5t38 54t58.5 57t82.5 42.5t108.5 18q75 0 124 -21.5t75.5 -67.5t36.5 -104.5t10 -144.5l-3 -520q0 -74 97 -74v-37z" />
    <glyph glyph-name="i" unicode="i" horiz-adv-x="448" 
d="M291 1341q0 -35 -25.5 -60.5t-60.5 -25.5t-59.5 25.5t-24.5 60.5t24.5 60.5t59.5 25.5t60.5 -25.5t25.5 -60.5zM377 0h-305v37q92 0 92 78v710q0 26 -10 43.5t-26.5 24.5t-28.5 9.5t-25 2.5v37h209v-831q0 -25 9 -41t25 -22.5t29 -8.5t31 -2v-37z" />
    <glyph glyph-name="j" unicode="j" horiz-adv-x="346" 
d="M274 1329q0 -35 -24.5 -60.5t-59.5 -25.5t-60.5 25.5t-25.5 60.5t25.5 59.5t60.5 24.5t59.5 -24.5t24.5 -59.5zM264 -172q0 -69 -10 -129t-33.5 -116.5t-69.5 -89t-110 -32.5q-47 0 -83.5 13t-57.5 35.5t-35 45.5t-19.5 50.5t-7.5 43t-2 29.5q0 39 17.5 73t50.5 34
q27 0 41 -20.5t14 -38.5q0 -24 -12.5 -54t-12.5 -37q0 -17 0.5 -25.5t5.5 -28t15 -30.5t31 -20.5t51 -9.5q59 0 84.5 61.5t25.5 202.5v1040q0 78 -90 78v39h207v-1114z" />
    <glyph glyph-name="k" unicode="k" horiz-adv-x="841" 
d="M842 0h-305v37q101 0 59 78q-27 48 -114.5 160.5t-198.5 224.5v-389q0 -45 26 -59.5t70 -14.5v-37h-307v37q92 0 92 78v1317q0 79 -92 79v37h211v-983q31 32 92.5 94t110.5 111.5t59 60.5q14 16 15 29t-7 21t-22 13.5t-25.5 7.5t-22.5 3v37h291v-37q-65 -6 -129 -67
q-44 -40 -266 -279q71 -67 177.5 -205t182.5 -250q46 -67 103 -67v-37z" />
    <glyph glyph-name="l" unicode="l" horiz-adv-x="450" 
d="M379 0h-307v39q92 0 92 78v1315q0 79 -92 79v37h211v-1437q0 -42 24.5 -57t71.5 -15v-39z" />
    <glyph glyph-name="m" unicode="m" horiz-adv-x="1554" 
d="M1483 0h-307v39q92 0 92 76v518q0 33 -0.5 53.5t-2.5 50t-6.5 47.5t-11.5 40t-19 35t-27.5 25t-38 17.5t-50.5 5.5q-93 0 -158 -73.5t-92 -198.5q-28 -130 -28 -410v-114q0 -72 96 -72v-39h-312v39q97 0 97 80v518q0 45 -1 71.5t-5.5 62.5t-14.5 56.5t-26.5 41t-43 29.5
t-63.5 9q-90 0 -159 -74t-95 -196q-22 -110 -22 -242v-284q0 -25 7.5 -40.5t23.5 -22t28.5 -8t34.5 -1.5v-39h-305v39q92 0 92 76v712q0 17 -4 30t-11.5 21t-15.5 13.5t-19 8t-17.5 3.5t-16 1.5t-10.5 0.5v37h211l2 -190q5 24 26.5 58t57 71t93 62.5t122.5 25.5
q45 0 82.5 -9t62 -23t43.5 -34t29 -38.5t16.5 -41t8.5 -36.5t3.5 -29.5t1.5 -16.5q3 16 15 41t38 58.5t60 61.5t86 47.5t111 19.5q60 0 103.5 -15t71.5 -41.5t44 -70t22.5 -93.5t6.5 -118v-520q0 -45 23.5 -58.5t70.5 -13.5v-39z" />
    <glyph glyph-name="n" unicode="n" horiz-adv-x="1003" 
d="M932 0h-305v39q90 0 90 80v487q0 39 -0.5 63t-3.5 59.5t-9 57.5t-17.5 47.5t-27.5 40t-40.5 24t-55.5 9.5q-90 0 -160 -74t-96 -196q-22 -110 -22 -242v-284q0 -25 7.5 -40.5t23.5 -22t28.5 -8t34.5 -1.5v-39h-305v39q92 0 92 76v712q0 17 -4 30t-11.5 21t-15.5 13.5
t-19 8t-17.5 3.5t-16 1.5t-10.5 0.5v37h211l2 -190q5 24 26.5 58.5t57.5 71t94 62t123 25.5q52 0 93 -12t67 -29t44 -45t27 -49.5t13.5 -54.5t5 -48t0.5 -41v-579q0 -72 96 -72v-39z" />
    <glyph glyph-name="o" unicode="o" horiz-adv-x="849" 
d="M788 471q0 -141 -38.5 -251t-122 -178.5t-201.5 -68.5q-77 0 -138.5 25.5t-103.5 70.5t-70 108.5t-40.5 136.5t-12.5 157q0 140 39.5 250.5t123.5 178t202 67.5t201.5 -68t122 -177.5t38.5 -250.5zM662 471q0 125 -25 221t-80 154.5t-133 58.5t-133.5 -58.5t-81 -154.5
t-25.5 -221t25.5 -221t81 -154.5t133.5 -58.5t133 58.5t80 154.5t25 221z" />
    <glyph glyph-name="p" unicode="p" horiz-adv-x="944" 
d="M883 471q0 -138 -41.5 -250.5t-124 -180t-191.5 -67.5q-81 0 -146.5 44.5t-94.5 109.5v-522q0 -26 8.5 -43.5t25 -25t28.5 -10t30 -3.5v-37h-301v39q90 -5 90 76v1230q0 42 -23.5 57t-70.5 15v39h213v-143q27 68 89 118t152 50q88 0 157 -38.5t112 -107t65.5 -157.5
t22.5 -193zM760 471q0 125 -25 221t-80 154.5t-133 58.5q-113 0 -175 -113.5t-62 -320.5q0 -211 62 -323.5t175 -112.5q116 0 177 121.5t61 314.5z" />
    <glyph glyph-name="q" unicode="q" horiz-adv-x="944" 
d="M872 903q-47 0 -70.5 -15t-23.5 -57v-1230q0 -81 90 -76v-39h-301v37q18 1 30 3.5t28.5 10t25 25t8.5 43.5v522q-29 -65 -94.5 -109.5t-146.5 -44.5q-109 0 -191.5 67.5t-124 180t-41.5 250.5q0 104 22.5 193t65.5 157.5t112 107t157 38.5q90 0 152 -50.5t89 -119.5v145
h213v-39zM659 471q0 207 -62 320.5t-175 113.5q-78 0 -133 -58.5t-80 -154.5t-25 -221q0 -193 61 -314.5t177 -121.5q113 0 175 112.5t62 323.5z" />
    <glyph glyph-name="r" unicode="r" horiz-adv-x="610" 
d="M610 831q0 -34 -20 -58.5t-53 -24.5q-37 0 -51.5 19t-14.5 42q0 10 8 29.5t8 31.5q0 11 -2 17q-8 20 -49 20q-21 0 -39.5 -10.5t-29.5 -22t-22.5 -34t-15 -31.5t-10.5 -29q-45 -131 -45 -422v-247q0 -45 23 -58.5t65 -13.5v-39h-290v39q84 0 84 76v712q0 78 -84 78v37
h196v-176q6 31 16 59t30 64t56.5 58t84.5 22q74 0 114.5 -36.5t40.5 -101.5z" />
    <glyph glyph-name="s" unicode="s" horiz-adv-x="686" 
d="M625 244q0 -121 -81 -196t-206 -75q-50 0 -100 20.5t-54 20.5q-11 0 -14 -14h-45l-64 223l41 8l27 -55q23 -49 85.5 -97t131.5 -48q82 0 130 52t48 130q0 48 -24 87.5t-63 67.5t-85.5 54t-93 54t-85.5 60t-63 78t-24 103q0 119 70.5 185.5t167.5 66.5q36 0 68 -10.5
t51.5 -20.5t25.5 -10q9 0 12 16h37l57 -201l-43 -8l-14 33q-23 50 -81 94.5t-122 44.5q-61 0 -100 -40t-39 -115q0 -41 25 -76.5t64.5 -63.5t87.5 -55.5t95.5 -58.5t87 -65.5t64.5 -83t25 -105.5z" />
    <glyph glyph-name="t" unicode="t" horiz-adv-x="653" 
d="M602 291q0 -59 -2 -84q-2 -26 -5.5 -49t-16.5 -59t-34 -61t-60.5 -44t-92.5 -19q-44 0 -80 13t-59 33t-40 49t-25.5 55.5t-13.5 59t-6 52.5t-1 42v602h-135l14 63h119v379l119 53v-432h258l-15 -63h-243v-617q0 -121 27 -175t87 -54q29 0 52 10.5t37.5 25.5t25 40t15 44
t7.5 48.5t3 43v36.5v8h65z" />
    <glyph glyph-name="u" unicode="u" horiz-adv-x="999" 
d="M928 0h-211v182q-7 -26 -22.5 -56.5t-44 -67.5t-76.5 -61t-107 -24q-53 0 -96 11.5t-73 35t-52.5 50.5t-36.5 67t-22.5 74.5t-12.5 83.5t-5 83t-1 83v362q0 26 -8.5 43.5t-24.5 24.5t-30 9.5t-33 2.5v39h213v-485q0 -11 -0.5 -46.5t-0.5 -54t1.5 -54t4.5 -57t9.5 -53
t16 -51t24 -42t33 -35t44 -21t56.5 -8.5q244 0 244 497v299q0 72 -96 72v39h217v-827q0 -78 90 -78v-37z" />
    <glyph glyph-name="v" unicode="v" horiz-adv-x="854" 
d="M854 905q-63 0 -92 -78l-309 -852h-52l-305 856q-27 74 -96 74v37h305v-37q-82 0 -82 -51q0 -12 6 -27l228 -667l225 671q4 10 4 27q0 47 -86 47v37h254v-37z" />
    <glyph glyph-name="w" unicode="w" horiz-adv-x="1273" 
d="M1274 903q-67 0 -92 -78l-269 -852h-51l-235 746l-207 -746h-51l-273 858q-22 72 -96 72v39h309v-39q-86 0 -86 -55q0 -16 6 -31l185 -616l209 770h57l240 -776l180 622q4 20 4 27q0 59 -82 59v39h252v-39z" />
    <glyph glyph-name="x" unicode="x" horiz-adv-x="831" 
d="M831 0h-311v37q23 0 50.5 10.5t27.5 34.5q0 15 -12 33l-199 301l-174 -285q-18 -30 -18 -53q0 -41 81 -41v-37h-276v37q64 3 106 67l240 375l-235 359q-25 39 -49.5 52t-55.5 13v39h305v-39q-78 0 -78 -41q0 -10 3.5 -18.5t14.5 -22t13 -16.5l148 -223q147 244 151 252
q10 17 10 28q0 8 -3.5 14t-10 10t-12.5 7t-15.5 5t-14.5 2.5t-13.5 1.5t-9.5 1v39h264v-39q-19 0 -31.5 -3t-38.5 -27t-55 -70l-182 -283l270 -409q25 -38 56 -54.5t54 -19.5v-37z" />
    <glyph glyph-name="y" unicode="y" horiz-adv-x="837" 
d="M838 903q-66 0 -90 -76l-406 -1218l-4 -13q-4 -13 -6 -18.5t-8 -20t-11.5 -22.5t-14.5 -21t-20 -20.5t-24.5 -15.5t-30.5 -11.5t-37 -3.5q-76 0 -110.5 36.5t-34.5 78.5q0 30 16.5 53t42.5 23q33 0 47.5 -20t14.5 -48q0 -5 -3 -18.5t-4 -22t6 -16.5t23 -8q20 0 35.5 9.5
t27.5 30.5t18 37.5t16 47.5l114 346l-301 839q-26 72 -94 72v39h303v-39q-82 0 -82 -49q0 -12 6 -27l230 -669l205 673q4 20 4 25q0 47 -84 47v39h256v-39z" />
    <glyph glyph-name="z" unicode="z" horiz-adv-x="804" 
d="M754 207l-60 -207h-643v37l541 846h-197q-62 0 -96 -10.5t-61 -36.5q-42 -40 -70 -111l-51 10l59 207h553v-37l-536 -846h292q136 0 204 131q4 8 10 21l3 6z" />
    <glyph glyph-name="braceleft" unicode="{" horiz-adv-x="544" 
d="M500 -518h-228q-84 0 -84 100v740q0 45 -11 79t-24 50.5t-33 27t-28.5 12.5t-19.5 3v47q8 0 18 1.5t28.5 11t33 24.5t25.5 46t11 72v764q0 103 84 103h228v-45h-127q-54 0 -54 -64v-733q0 -39 -9 -71.5t-21.5 -51.5t-31 -35t-31 -22.5t-28.5 -13t-18 -7.5q1 0 23.5 -9.5
t37.5 -20.5t35.5 -33t31.5 -60t11 -88v-721q0 -63 52 -63h129v-43z" />
    <glyph glyph-name="bar" unicode="|" horiz-adv-x="258" 
d="M176 -512h-94v2048h94v-2048z" />
    <glyph glyph-name="braceright" unicode="}" horiz-adv-x="544" 
d="M500 494q-11 -1 -20 -3t-28.5 -12.5t-33 -27t-24.5 -50.5t-11 -79v-740q0 -100 -84 -100h-227v43h129q27 0 39 15t12 48v721q0 50 11 88t31.5 60t35.5 33t37.5 20.5t23.5 9.5q-2 1 -18 7.5t-28.5 13t-31 22.5t-31 35t-21.5 51.5t-9 71.5v733q0 64 -53 64h-127v45h227
q84 0 84 -103v-764q0 -41 11 -72t25.5 -46t33.5 -24.5t29 -11t18 -1.5v-47z" />
    <glyph glyph-name="asciitilde" unicode="~" horiz-adv-x="1034" 
d="M936 621q-55 -189 -240 -189q-49 0 -95 13t-112 43t-86 38q-46 17 -75 17q-130 0 -170 -103l-60 21q55 188 240 188q48 0 95.5 -14.5t110 -42t89.5 -37.5q43 -16 74 -16q132 0 172 102z" />
    <glyph glyph-name="uni00A0" unicode="&#xa0;" horiz-adv-x="958" 
 />
    <glyph glyph-name="exclamdown" unicode="&#xa1;" horiz-adv-x="331" 
d="M254 862q0 -38 -28 -66t-66 -28t-66 28t-28 66t28 66t66 28t66 -28t28 -66zM233 -418q0 -121 -69 -121q-74 0 -74 121q0 3 2.5 29.5t6.5 70.5t7.5 99t6.5 127.5t4 142.5l6 527h80l6 -527q1 -112 7 -224t11.5 -177.5t5.5 -67.5z" />
    <glyph glyph-name="cent" unicode="&#xa2;" horiz-adv-x="819" 
d="M748 285q0 -19 -7 -50.5t-27 -74.5t-48.5 -81t-78 -68t-110.5 -38v-100h-71v100q-46 5 -90.5 23t-89.5 56t-78.5 92t-54.5 138t-21 187q0 196 96 335.5t238 158.5v81h71v-79q21 -2 40.5 -6t33 -8.5t25.5 -9t20 -8t13.5 -4.5t9 1.5t4.5 9.5h39l57 -201l-49 -8
q-11 24 -18 37t-25 39.5t-36.5 42t-48.5 31t-65 20.5v-864q54 9 95.5 42t62 74.5t30 75t9.5 56.5h74zM406 35v866q-54 -10 -95.5 -51t-65.5 -102t-36 -131.5t-12 -147.5q0 -69 11.5 -138t35 -133.5t65.5 -108.5t97 -54z" />
    <glyph glyph-name="sterling" unicode="&#xa3;" horiz-adv-x="913" 
d="M842 252q-5 -30 -41 -118t-56 -109q-16 -17 -30.5 -21t-44.5 -4h-598v37q69 3 102 84.5t33 247.5q0 64 -4.5 135.5t-14 172t-12.5 146.5h-104v70h100q-8 140 -8 203q0 185 100 291t266 106q71 0 130 -23t96 -60.5t57.5 -82t20.5 -90.5q0 -29 -16 -52.5t-48 -23.5
q-61 0 -61 86l1 18q2 18 1 31t-5 35t-16 37.5t-30.5 31t-51.5 24t-76 8.5q-71 0 -119 -23t-74 -69t-37 -103t-11 -135q0 -79 10 -209h377v-70h-371q1 -13 9 -100.5t10.5 -122.5t6 -104t3.5 -127q0 -108 -35 -198.5t-59 -109.5h256q55 0 101 14t74.5 31.5t55.5 49t38.5 50.5
t29.5 51q4 8 6 11z" />
    <glyph glyph-name="currency" unicode="&#xa4;" horiz-adv-x="1107" 
d="M987 354l-57 -57l-135 135q-111 -88 -240 -88q-135 0 -244 88l-133 -135l-57 57l137 131q-84 117 -84 240q0 133 84 240l-137 133l57 57l133 -135q117 86 244 86q129 0 240 -86l135 135l57 -57l-137 -133q86 -113 86 -240q0 -118 -86 -240zM856 727q0 129 -91.5 214
t-209.5 85q-128 0 -215.5 -88.5t-87.5 -210.5q0 -123 89.5 -213t213.5 -90q123 0 212 89.5t89 213.5z" />
    <glyph glyph-name="yen" unicode="&#xa5;" horiz-adv-x="972" 
d="M973 1430q-74 -8 -105 -76l-295 -664v-14h269v-68h-269v-145h269v-68h-269v-280q0 -12 2.5 -22.5t7.5 -18t11 -13t14 -9.5t14 -6.5t15 -4t13.5 -2.5t11.5 -1.5t8 -0.5v-37h-322v37q52 5 72 23q22 21 22 59v276h-276v68h276v145h-276v68h276v12l-333 670q-35 72 -109 72
v36h293v-36q-53 0 -53 -39q0 -19 10 -39l280 -578l254 578q9 21 9 37q0 23 -19.5 32t-40.5 9v36h240v-36z" />
    <glyph glyph-name="brokenbar" unicode="&#xa6;" horiz-adv-x="258" 
d="M176 666h-94v716h94v-716zM176 -358h-94v716h94v-716z" />
    <glyph glyph-name="section" unicode="&#xa7;" horiz-adv-x="905" 
d="M834 113q0 -100 -26.5 -179t-69 -128t-100 -81.5t-113.5 -45.5t-115 -13q-142 0 -242 86q-40 35 -67 91t-27 102q0 86 73 86q34 0 51 -26t17 -60q0 -31 2.5 -56t14 -57.5t31 -54.5t57 -37.5t88.5 -15.5q93 0 146.5 55.5t53.5 193.5q0 66 -39.5 156t-99.5 179t-129 195.5
t-129 204t-99.5 207t-39.5 201.5q0 91 31.5 165t83.5 118.5t113.5 68t125.5 23.5q74 0 133.5 -20.5t93.5 -49.5t56.5 -65t30.5 -64t8 -49q0 -32 -19 -56t-53 -24q-38 0 -54 24t-16 58q0 3 1 15.5t1 21.5q0 150 -180 150q-74 0 -113 -50t-39 -137q0 -63 31 -140t80 -154
t108.5 -160.5t119 -169.5t108.5 -169.5t80 -172t31 -166.5zM750 84q0 65 -21.5 136t-67.5 152.5t-84.5 140.5t-105.5 153q-65 91 -100 144t-80 133t-65.5 151t-20.5 141q0 89 26 125l-6 4q-78 -78 -78 -209q0 -65 16 -129t52.5 -137t64.5 -120t82 -131q5 -8 8 -12.5t7 -11
t8 -12.5q21 -32 68 -104t71 -109.5t60 -100t54 -104.5t32 -93t14 -93q0 -41 -4 -75t-12 -57.5t-13.5 -37.5t-14 -28t-9.5 -15h6q14 8 29 23.5t36 48.5t34.5 92t13.5 135z" />
    <glyph glyph-name="dieresis" unicode="&#xa8;" 
d="M733 1198q0 -34 -24 -58t-58 -24t-58 24t-24 58t24 57t58 23t58 -23t24 -57zM453 1198q0 -34 -23 -58t-57 -24t-59 24t-25 58q0 33 25 56.5t59 23.5t57 -23t23 -57z" />
    <glyph glyph-name="copyright" unicode="&#xa9;" horiz-adv-x="1476" 
d="M1405 725q0 -205 -91 -379.5t-244.5 -275.5t-330.5 -101q-133 0 -256.5 60t-213.5 161t-143.5 241t-53.5 294t53.5 294t143.5 241t213.5 161t256.5 60q177 0 330.5 -101t244.5 -275.5t91 -379.5zM1305 727q0 182 -76 336.5t-207 244t-285 89.5t-285 -89.5t-207.5 -244
t-76.5 -336.5q0 -181 76.5 -335t207.5 -243.5t285 -89.5t285 89.5t207 243.5t76 335zM1016 561q-1 -17 -6.5 -47t-25 -83t-47.5 -96.5t-81 -76.5t-119 -33q-108 0 -185 70.5t-113 182.5t-36 253q0 140 36 252.5t112.5 183t183.5 70.5q62 0 111 -25q8 -4 16 -4q6 0 6 15h45
l68 -203l-47 -10q-83 166 -199 166q-104 0 -162.5 -123t-58.5 -320t58.5 -320.5t164.5 -123.5q54 0 97.5 36t66 86t34 90.5t11.5 59.5h70z" />
    <glyph glyph-name="ordfeminine" unicode="&#xaa;" horiz-adv-x="643" 
d="M559 416h-162q0 10 -1 27t-1 24q-29 -36 -72 -53t-79 -17q-76 0 -129.5 55.5t-53.5 145.5q0 62 19 112t51 80.5t67.5 52t75 32t66.5 14.5t49 4q0 30 -0.5 47.5t-6 47t-15.5 46.5t-31 30t-51 13q-28 0 -51.5 -11.5t-41.5 -33t-30 -41t-25 -47.5l-57 8l49 172l43 2
q4 -10 12 -10q2 0 7.5 2.5t7.5 3.5q51 21 88 21t67.5 -8.5t51.5 -26t37 -37t25.5 -48.5t15.5 -53t8.5 -58.5t3 -56t0.5 -54.5v-295q0 -14 3 -23t11.5 -13t12.5 -5t18.5 -1.5t17.5 -0.5v-47zM561 215h-471v64h471v-64zM387 649v170q-3 0 -12 1t-15 1q-25 0 -48.5 -4.5
t-51.5 -18.5t-48 -37t-34 -63.5t-14 -93.5q0 -58 23 -97.5t73 -39.5q67 0 97 52t30 130z" />
    <glyph glyph-name="guillemotleft" unicode="&#xab;" horiz-adv-x="862" 
d="M791 158l-41 -47l-330 372l330 381l41 -47l-242 -332zM442 158l-41 -47l-329 372l329 381l41 -47l-241 -332z" />
    <glyph glyph-name="logicalnot" unicode="&#xac;" horiz-adv-x="1034" 
d="M952 317h-92v234h-778v92h870v-326z" />
    <glyph glyph-name="uni00AD" unicode="&#xad;" horiz-adv-x="778" 
d="M707 518h-635v74h635v-74z" />
    <glyph glyph-name="registered" unicode="&#xae;" horiz-adv-x="1476" 
d="M1405 725q0 -205 -91 -379.5t-244.5 -275.5t-330.5 -101q-133 0 -256.5 60t-213.5 161t-143.5 241t-53.5 294t53.5 294t143.5 241t213.5 161t256.5 60q177 0 330.5 -101t244.5 -275.5t91 -379.5zM1305 727q0 182 -76 336.5t-207 244t-285 89.5t-285 -89.5t-207.5 -244
t-76.5 -336.5q0 -181 76.5 -335t207.5 -243.5t285 -89.5t285 89.5t207 243.5t76 335zM1077 258h-170q-20 110 -107 285.5t-143 206.5v45q11 0 25.5 2t42 13t48.5 30t37.5 58t16.5 91q0 48 -13 82.5t-31.5 53.5t-46 29.5t-50 13.5t-49.5 3q-8 2 -31 0v-829q0 -12 3.5 -20
t11.5 -12t14 -5.5t18.5 -2t16.5 -1.5v-43h-228v43q22 1 31 2.5t19 11.5t10 29v805q0 9 -1.5 15.5t-5.5 11t-7 7t-10.5 4t-10.5 2t-12.5 1t-12.5 0.5v45h203q42 0 81 -6.5t78.5 -23.5t68.5 -43t47 -68.5t18 -96.5q0 -7 -1 -19t-9 -45t-22.5 -61t-46.5 -58.5t-75 -47.5
q45 -45 112 -174t105 -238q1 -2 2.5 -5.5t7.5 -12t13.5 -15.5t21.5 -13.5t31 -8.5v-41z" />
    <glyph glyph-name="macron" unicode="&#xaf;" 
d="M768 1163h-512v72h512v-72z" />
    <glyph glyph-name="degree" unicode="&#xb0;" horiz-adv-x="536" 
d="M444 969q0 -72 -52 -124t-124 -52t-124 52t-52 124q0 73 51.5 123.5t124.5 50.5t124.5 -50.5t51.5 -123.5zM373 969q0 44 -30.5 75t-74.5 31t-75 -31t-31 -75q0 -43 31 -74t75 -31t74.5 31t30.5 74z" />
    <glyph glyph-name="plusminus" unicode="&#xb1;" horiz-adv-x="1034" 
d="M942 498h-379v-346h-94v346h-379v94h379v348h94v-348h379v-94zM952 0h-870v88h870v-88z" />
    <glyph glyph-name="twosuperior" unicode="&#xb2;" horiz-adv-x="669" 
d="M557 973q-10 -24 -27 -78q-12 -42 -26 -61q-17 -25 -66 -25h-346l-16 37q36 15 89 57.5t108.5 101.5t94 137t38.5 150q0 70 -37.5 110t-106.5 40q-38 0 -65.5 -11.5t-41.5 -26.5t-22.5 -35t-10 -32t-1.5 -22h-49v22q0 75 60 115.5t142 40.5q94 0 161 -54.5t67 -146.5
q0 -68 -31.5 -138.5t-80.5 -127t-91 -94t-80 -64.5q90 0 131 4q57 5 94 36t72 85z" />
    <glyph glyph-name="threesuperior" unicode="&#xb3;" horiz-adv-x="638" 
d="M537 989q0 -51 -23 -90.5t-60.5 -61.5t-80 -33t-86.5 -11q-107 0 -166.5 41t-59.5 84q0 49 41 49q35 0 48 -37q17 -38 36 -53q42 -33 103 -33q55 0 102 36t47 107q0 41 -15.5 71t-40 45.5t-48.5 22.5t-47 7q-16 0 -31 -3l-27 56q38 3 66.5 10t55 22t41 43t14.5 68
q0 45 -30 80t-93 35q-33 0 -57 -10t-35.5 -22t-18 -29t-7.5 -25.5t-1 -16.5q0 -20 -9.5 -36.5t-31.5 -16.5q-21 0 -31 14.5t-10 34.5q0 62 56.5 108t150.5 46q93 0 153 -43t60 -119q0 -34 -13 -62t-35 -46.5t-42 -30t-43 -19.5q47 -4 82 -24.5t52.5 -49.5t25.5 -56t8 -52z
" />
    <glyph glyph-name="acute" unicode="&#xb4;" 
d="M651 1292q0 -37 -55 -75l-231 -158h-74l209 219q39 40 56.5 52.5t39.5 12.5q24 0 39.5 -14.5t15.5 -36.5z" />
    <glyph glyph-name="mu" unicode="&#xb5;" horiz-adv-x="980" 
d="M909 0h-211l2 182q-8 -27 -23.5 -57t-44 -67t-76.5 -61t-107 -24q-124 0 -183 82v-344h-119v1120q0 74 -96 74v39h215v-625q0 -284 189 -284q89 0 147 72t80 198q11 67 15 199t3 231l-2 99q1 24 -7.5 39.5t-25 21.5t-30 8t-33.5 2v39h215v-829q0 -17 4 -30t11.5 -21
t15 -13.5t18 -8t17 -3.5t16 -1.5t10.5 -0.5v-37z" />
    <glyph glyph-name="paragraph" unicode="&#xb6;" horiz-adv-x="847" 
d="M807 -199h-176v1604h-125v-1604h-182v39q51 0 73.5 16t22.5 56v827q-8 -1 -28 2t-52.5 13t-67.5 26t-71.5 45t-64.5 65.5t-46 92t-18 121.5q0 99 34 172t93 113.5t127.5 59.5t148.5 19h332v-38q-1 0 -13 -0.5t-19.5 -1.5t-20 -6t-20 -12.5t-13.5 -22t-6 -33.5v-1438
q0 -46 25.5 -61t66.5 -15v-39z" />
    <glyph glyph-name="periodcentered" unicode="&#xb7;" horiz-adv-x="337" 
d="M264 477q0 -38 -28 -66t-66 -28q-40 0 -68 28t-28 66t28 66t66 28q40 0 68 -28t28 -66z" />
    <glyph glyph-name="cedilla" unicode="&#xb8;" 
d="M602 -211q0 -82 -50.5 -121t-125.5 -39q-12 0 -22.5 1t-20.5 3.5t-17.5 4t-16.5 6t-14 6.5t-13 7.5t-10.5 7t-10 7t-8.5 6.5l33 66q3 -2 9.5 -9t9 -8.5t8 -6.5t8.5 -6.5t8.5 -5t9.5 -4.5l10 -2.5t12.5 -2t14.5 -0.5q38 0 64 18.5t26 53.5q0 28 -19.5 45.5t-46.5 17.5
q-22 0 -45 -20l-41 16l27 176l59 -10l-16 -94q36 8 57 8q51 0 86 -35t35 -86z" />
    <glyph glyph-name="onesuperior" unicode="&#xb9;" horiz-adv-x="391" 
d="M293 807h-195v39q33 0 42.5 7t9.5 28v518q0 22 -12 30.5t-40 8.5v37h142v-596q0 -22 12.5 -28.5t40.5 -6.5v-37z" />
    <glyph glyph-name="ordmasculine" unicode="&#xba;" horiz-adv-x="667" 
d="M606 772q0 -105 -28.5 -187.5t-91 -135t-152.5 -52.5q-139 0 -206 105t-67 270q0 103 29 185.5t92 134t152 51.5q90 0 152.5 -51.5t91 -133.5t28.5 -186zM569 219h-467v64h467v-64zM496 772q0 138 -42.5 221.5t-119.5 83.5q-78 0 -121 -84t-43 -221q0 -138 43 -222.5
t121 -84.5t120 84t42 223z" />
    <glyph glyph-name="guillemotright" unicode="&#xbb;" horiz-adv-x="862" 
d="M791 483l-330 -372l-41 47l242 327l-242 332l41 47zM442 483l-329 -372l-41 47l241 327l-241 332l41 47z" />
    <glyph glyph-name="onequarter" unicode="&#xbc;" horiz-adv-x="1030" 
d="M295 807h-195v39q33 0 42.5 7t9.5 28v518q0 22 -12 30.5t-40 8.5v37h142v-596q0 -22 12.5 -28.5t40.5 -6.5v-37zM784 1468l-616 -1468h-86l614 1468h88zM928 240l-15 -60h-86v-168l-90 -37v205h-280l-31 43l338 459l63 -8v-434h101zM737 240v311l-225 -311h225z" />
    <glyph glyph-name="onehalf" unicode="&#xbd;" horiz-adv-x="1116" 
d="M295 807h-195v39q33 0 42.5 7t9.5 28v518q0 22 -12 30.5t-40 8.5v37h142v-596q0 -22 12.5 -28.5t40.5 -6.5v-37zM784 1468l-616 -1468h-86l614 1468h88zM1032 164q-2 -6 -10 -32.5t-14 -43.5q-15 -42 -27 -61q-17 -25 -66 -25h-346l-16 37q36 15 89 57.5t108.5 101.5
t94 137t38.5 150q0 69 -38 109.5t-106 40.5q-38 0 -65.5 -11.5t-41.5 -26.5t-22.5 -35t-10 -32t-1.5 -22h-49q-1 6 -1 10.5t0.5 7.5t0.5 4q0 75 60.5 115.5t142.5 40.5q94 0 160.5 -54.5t66.5 -146.5q0 -55 -22 -113.5t-53.5 -104t-73 -89.5t-73 -71t-61.5 -48q125 6 131 7
q56 6 93 35.5t73 84.5z" />
    <glyph glyph-name="threequarters" unicode="&#xbe;" horiz-adv-x="1294" 
d="M557 989q0 -51 -23 -90.5t-60.5 -61.5t-80 -33t-86.5 -11q-107 0 -166 41t-59 84q0 49 41 49q34 0 47 -37q16 -37 37 -53q42 -33 102 -33q55 0 102.5 36t47.5 107q0 41 -15.5 71t-40 45.5t-49 22.5t-47.5 7q-16 0 -31 -3l-26 56q38 3 66.5 10t55 22t40.5 43t14 68
q0 45 -30 80t-93 35q-33 0 -57 -10t-35.5 -22t-18 -29t-7.5 -25.5t-1 -16.5q0 -20 -9.5 -36.5t-31.5 -16.5q-21 0 -31 14.5t-10 34.5q0 62 56.5 108t150.5 46q93 0 153 -43t60 -119q0 -34 -13 -62t-35 -46.5t-42 -30t-43 -19.5q47 -4 82 -24.5t52.5 -49.5t25.5 -56t8 -52z
M1049 1468l-617 -1468h-86l615 1468h88zM1192 240l-14 -60h-86v-168l-91 -37v205h-280l-31 43l338 459l64 -8v-434h100zM1001 240v311l-225 -311h225z" />
    <glyph glyph-name="questiondown" unicode="&#xbf;" horiz-adv-x="782" 
d="M563 864q0 -38 -28 -66t-66 -28t-66 28t-28 66t28 66t66 28t66 -28t28 -66zM676 -283q0 -99 -80 -176.5t-223 -77.5q-87 0 -153.5 31t-105 84.5t-58 120t-19.5 143.5q0 76 18.5 140.5t47.5 108t67.5 78.5t74.5 54.5t72.5 32.5t58.5 17.5t34 5.5l18 294h82l14 -374
q-26 -1 -64 -8.5t-95.5 -31.5t-103.5 -60.5t-80 -104t-34 -152.5q0 -93 21.5 -162.5t74.5 -115t134 -45.5q180 0 180 133q0 17 -3 38.5t-3 22.5q0 82 61 82q31 0 47.5 -24.5t16.5 -53.5z" />
    <glyph glyph-name="Agrave" unicode="&#xc0;" horiz-adv-x="1044" 
d="M1034 0h-319v37q78 0 78 49q0 10 -4 28.5t-9.5 36t-5.5 19.5l-108 412h-351l-112 -420q-1 -3 -5.5 -19.5t-8 -33t-3.5 -23.5q0 -49 78 -49v-37h-254v37q16 1 22.5 1.5t21 4.5t22 11t16.5 21t14 34l377 1386h78l377 -1386q11 -43 35 -57.5t61 -14.5v-37zM649 647l-160 631
l-161 -631h321zM676 1583h-74l-231 158q-56 39 -56 76q0 22 15.5 36.5t40.5 14.5q22 0 39.5 -12.5t56.5 -53.5z" />
    <glyph glyph-name="Aacute" unicode="&#xc1;" horiz-adv-x="1044" 
d="M1034 0h-319v37q78 0 78 49q0 10 -4 28.5t-9.5 36t-5.5 19.5l-108 412h-351l-112 -420q-1 -3 -5.5 -19.5t-8 -33t-3.5 -23.5q0 -49 78 -49v-37h-254v37q16 1 22.5 1.5t21 4.5t22 11t16.5 21t14 34l377 1386h78l377 -1386q11 -43 35 -57.5t61 -14.5v-37zM649 647l-160 631
l-161 -631h321zM717 1817q0 -38 -55 -76l-232 -158h-74l209 219q39 41 57 53.5t40 12.5q24 0 39.5 -14.5t15.5 -36.5z" />
    <glyph glyph-name="Acircumflex" unicode="&#xc2;" horiz-adv-x="1044" 
d="M1034 0h-319v37q78 0 78 49q0 10 -4 28.5t-9.5 36t-5.5 19.5l-108 412h-351l-112 -420q-1 -3 -5.5 -19.5t-8 -33t-3.5 -23.5q0 -49 78 -49v-37h-254v37q16 1 22.5 1.5t21 4.5t22 11t16.5 21t14 34l377 1386h78l377 -1386q11 -43 35 -57.5t61 -14.5v-37zM649 647l-160 631
l-161 -631h321zM758 1583h-62l-176 186l-174 -186h-61l188 287h94z" />
    <glyph glyph-name="Atilde" unicode="&#xc3;" horiz-adv-x="1044" 
d="M1034 0h-319v37q78 0 78 49q0 10 -4 28.5t-9.5 36t-5.5 19.5l-108 412h-351l-112 -420q-1 -3 -5.5 -19.5t-8 -33t-3.5 -23.5q0 -49 78 -49v-37h-254v37q16 1 22.5 1.5t21 4.5t22 11t16.5 21t14 34l377 1386h78l377 -1386q11 -43 35 -57.5t61 -14.5v-37zM649 647l-160 631
l-161 -631h321zM764 1812q0 -73 -35.5 -127.5t-112.5 -54.5q-35 0 -72 16.5t-62.5 36t-52.5 36t-46 16.5q-38 0 -57 -30t-19 -69h-59q0 36 6.5 67t21.5 59t44 44.5t69 16.5t84 -26.5t83.5 -52.5t68.5 -26q77 0 77 94h62z" />
    <glyph glyph-name="Adieresis" unicode="&#xc4;" horiz-adv-x="1044" 
d="M1034 0h-319v37q78 0 78 49q0 10 -4 28.5t-9.5 36t-5.5 19.5l-108 412h-351l-112 -420q-1 -3 -5.5 -19.5t-8 -33t-3.5 -23.5q0 -49 78 -49v-37h-254v37q16 1 22.5 1.5t21 4.5t22 11t16.5 21t14 34l377 1386h78l377 -1386q11 -43 35 -57.5t61 -14.5v-37zM649 647l-160 631
l-161 -631h321zM739 1722q0 -34 -24 -58t-58 -24t-58 24t-24 58t24 57t58 23t58 -23t24 -57zM459 1722q0 -34 -23 -58t-57 -24t-59 24t-25 58q0 33 25 56.5t59 23.5t57 -23t23 -57z" />
    <glyph glyph-name="Aring" unicode="&#xc5;" horiz-adv-x="1044" 
d="M1034 0h-319v37q78 0 78 49q0 10 -4 28.5t-9.5 36t-5.5 19.5l-108 412h-351l-112 -420q-1 -3 -5.5 -19.5t-8 -33t-3.5 -23.5q0 -49 78 -49v-37h-254v37q16 1 22.5 1.5t21 4.5t22 11t16.5 21t14 34l377 1386h78l377 -1386q11 -43 35 -57.5t61 -14.5v-37zM649 647l-160 631
l-161 -631h321zM674 1737q0 -63 -45.5 -108.5t-108.5 -45.5t-108 45.5t-45 108.5t45 107t108 44t108.5 -44t45.5 -107zM610 1737q0 38 -26 64t-64 26t-64 -26t-26 -64t26 -64t64 -26t64 26t26 64z" />
    <glyph glyph-name="AE" unicode="&#xc6;" horiz-adv-x="1413" 
d="M1393 250q-5 -29 -42 -116.5t-57 -108.5q-13 -13 -26 -18.5t-20 -6t-31 -0.5h-574v37q1 0 10.5 0.5t14 1t14.5 3t16 5.5t14 9t12.5 13.5t7.5 19.5t3 26v727h-213l-311 -721q-35 -77 70 -84v-37h-271v39q18 1 27 3t28 10.5t36 30.5t32 56l565 1274q-17 9 -57 17v36h557
h4.5h5h5t5.5 -0.5t5.5 -1.5t6 -2.5t5.5 -3.5t5.5 -5t5.5 -6.5t5 -8.5q18 -32 36 -93.5t20 -84.5q-16 -5 -39 -9q-31 69 -53 94q-53 60 -164 60h-185v-496h236q3 12 10 30t32.5 58t55.5 60l41 -37q-58 -51 -76 -121.5t-2 -144.5q-14 -7 -51 -19q-2 5 -5 13.5t-7.5 37
t-3.5 58.5h-230v-781h181q55 0 100 13t74.5 32.5t54 46.5t39.5 51t29 50l6 12zM735 911v426l-188 -426h188z" />
    <glyph glyph-name="Ccedilla" unicode="&#xc7;" horiz-adv-x="1064" 
d="M705 -211q0 -82 -51 -121t-126 -39q-12 0 -22.5 1t-20.5 3.5t-17.5 4t-16.5 6t-14 6.5t-13 7.5t-10.5 7t-10 7t-8.5 6.5l33 66q3 -2 9.5 -9t9 -8.5t8 -6.5t8.5 -6.5t8.5 -5t9.5 -4.5l10 -2.5t12.5 -2t14.5 -0.5q38 0 64 18.5t26 53.5q0 28 -19 45.5t-46 17.5
q-22 0 -45 -20l-41 16l22 150q-131 29 -224.5 136.5t-138 264.5t-44.5 350q0 159 32.5 296t94.5 241t158 163.5t216 59.5q42 0 82 -8.5t63 -18.5t41.5 -16t26.5 -1.5t9 23.5h45l96 -284l-47 -10q-27 53 -56 93.5t-67.5 78.5t-87.5 58.5t-105 20.5q-116 0 -198.5 -94
t-121 -248t-38.5 -352t38.5 -352t121.5 -248t200 -94q72 0 133 39.5t97.5 94.5t63 117.5t36.5 105.5t10 61h78q-1 -12 -5.5 -38t-17.5 -73t-32 -95t-52.5 -100t-75 -91.5t-102.5 -65t-133 -25.5q-6 0 -18 1t-18 1l-13 -69q36 8 58 8q51 0 86 -35t35 -86z" />
    <glyph glyph-name="Egrave" unicode="&#xc8;" horiz-adv-x="856" 
d="M836 250q-5 -30 -42.5 -117t-58.5 -108q-18 -18 -30.5 -21.5t-45.5 -3.5h-575v37q52 5 72 22q22 19 22 56v1228q0 78 -93 87h-3v36h557h4.5h5h5t5.5 -0.5t5.5 -1.5t6 -2.5t5.5 -3.5t5.5 -5t5.5 -6.5t5 -8.5q18 -32 37 -93.5t21 -84.5l-39 -9q-31 69 -53 94
q-53 60 -164 60h-187v-496h236q3 12 10 30t32.5 58t55.5 60l43 -37q-58 -51 -76 -121.5t-2 -144.5q-14 -5 -51 -17q-2 4 -5.5 12.5t-8.5 36.5t-4 58h-230v-781h180q55 0 101 13.5t76 33t55 48t39.5 52t29.5 50.5q1 2 1.5 3.5t1.5 3.5t2 3zM567 1583h-73l-232 158
q-55 38 -55 76q0 22 15.5 36.5t39.5 14.5q22 0 39.5 -12.5t56.5 -53.5z" />
    <glyph glyph-name="Eacute" unicode="&#xc9;" horiz-adv-x="856" 
d="M836 250q-5 -30 -42.5 -117t-58.5 -108q-18 -18 -30.5 -21.5t-45.5 -3.5h-575v37q52 5 72 22q22 19 22 56v1228q0 78 -93 87h-3v36h557h4.5h5h5t5.5 -0.5t5.5 -1.5t6 -2.5t5.5 -3.5t5.5 -5t5.5 -6.5t5 -8.5q18 -32 37 -93.5t21 -84.5l-39 -9q-31 69 -53 94
q-53 60 -164 60h-187v-496h236q3 12 10 30t32.5 58t55.5 60l43 -37q-58 -51 -76 -121.5t-2 -144.5q-14 -5 -51 -17q-2 4 -5.5 12.5t-8.5 36.5t-4 58h-230v-781h180q55 0 101 13.5t76 33t55 48t39.5 52t29.5 50.5q1 2 1.5 3.5t1.5 3.5t2 3zM608 1817q0 -38 -55 -76l-231 -158
h-74l209 219q39 41 56.5 53.5t39.5 12.5q24 0 39.5 -14.5t15.5 -36.5z" />
    <glyph glyph-name="Ecircumflex" unicode="&#xca;" horiz-adv-x="856" 
d="M836 250q-5 -30 -42.5 -117t-58.5 -108q-18 -18 -30.5 -21.5t-45.5 -3.5h-575v37q52 5 72 22q22 19 22 56v1228q0 78 -93 87h-3v36h557h4.5h5h5t5.5 -0.5t5.5 -1.5t6 -2.5t5.5 -3.5t5.5 -5t5.5 -6.5t5 -8.5q18 -32 37 -93.5t21 -84.5l-39 -9q-31 69 -53 94
q-53 60 -164 60h-187v-496h236q3 12 10 30t32.5 58t55.5 60l43 -37q-58 -51 -76 -121.5t-2 -144.5q-14 -5 -51 -17q-2 4 -5.5 12.5t-8.5 36.5t-4 58h-230v-781h180q55 0 101 13.5t76 33t55 48t39.5 52t29.5 50.5q1 2 1.5 3.5t1.5 3.5t2 3zM631 1583h-62l-176 186l-174 -186
h-61l188 287h94z" />
    <glyph glyph-name="Edieresis" unicode="&#xcb;" horiz-adv-x="856" 
d="M836 250q-5 -30 -42.5 -117t-58.5 -108q-18 -18 -30.5 -21.5t-45.5 -3.5h-575v37q52 5 72 22q22 19 22 56v1228q0 78 -93 87h-3v36h557h4.5h5h5t5.5 -0.5t5.5 -1.5t6 -2.5t5.5 -3.5t5.5 -5t5.5 -6.5t5 -8.5q18 -32 37 -93.5t21 -84.5l-39 -9q-31 69 -53 94
q-53 60 -164 60h-187v-496h236q3 12 10 30t32.5 58t55.5 60l43 -37q-58 -51 -76 -121.5t-2 -144.5q-14 -5 -51 -17q-2 4 -5.5 12.5t-8.5 36.5t-4 58h-230v-781h180q55 0 101 13.5t76 33t55 48t39.5 52t29.5 50.5q1 2 1.5 3.5t1.5 3.5t2 3zM629 1722q0 -34 -24 -58t-58 -24
t-58 24t-24 58t24 57t58 23t58 -23t24 -57zM348 1722q0 -34 -23 -58t-57 -24t-59 24t-25 58q0 33 25 56.5t59 23.5t57 -23t23 -57z" />
    <glyph glyph-name="Igrave" unicode="&#xcc;" horiz-adv-x="493" 
d="M412 0h-330v37q19 1 30.5 3.5t28.5 10t26 26t9 46.5v1223q0 20 -4 34.5t-14.5 23.5t-16.5 14t-22 7.5t-18 3t-17 1.5v36h326v-36q-20 -1 -31.5 -3t-30 -9.5t-28 -25.5t-9.5 -46v-1227q0 -12 2.5 -22t5.5 -17.5t9 -14t10.5 -10.5t13 -7t13 -5t13.5 -3t12.5 -1.5t12 -1
t9.5 -0.5v-37zM426 1583h-74l-231 158q-55 38 -55 76q0 22 15.5 36.5t39.5 14.5q22 0 39.5 -12.5t56.5 -53.5z" />
    <glyph glyph-name="Iacute" unicode="&#xcd;" horiz-adv-x="493" 
d="M412 0h-330v37q19 1 30.5 3.5t28.5 10t26 26t9 46.5v1223q0 20 -4 34.5t-14.5 23.5t-16.5 14t-22 7.5t-18 3t-17 1.5v36h326v-36q-20 -1 -31.5 -3t-30 -9.5t-28 -25.5t-9.5 -46v-1227q0 -12 2.5 -22t5.5 -17.5t9 -14t10.5 -10.5t13 -7t13 -5t13.5 -3t12.5 -1.5t12 -1
t9.5 -0.5v-37zM426 1817q0 -38 -55 -76l-232 -158h-73l208 219q39 41 57 53.5t40 12.5q24 0 39.5 -14.5t15.5 -36.5z" />
    <glyph glyph-name="Icircumflex" unicode="&#xce;" horiz-adv-x="493" 
d="M412 0h-330v37q19 1 30.5 3.5t28.5 10t26 26t9 46.5v1223q0 20 -4 34.5t-14.5 23.5t-16.5 14t-22 7.5t-18 3t-17 1.5v36h326v-36q-20 -1 -31.5 -3t-30 -9.5t-28 -25.5t-9.5 -46v-1227q0 -12 2.5 -22t5.5 -17.5t9 -14t10.5 -10.5t13 -7t13 -5t13.5 -3t12.5 -1.5t12 -1
t9.5 -0.5v-37zM483 1583h-61l-176 186l-174 -186h-62l189 287h94z" />
    <glyph glyph-name="Idieresis" unicode="&#xcf;" horiz-adv-x="493" 
d="M412 0h-330v37q19 1 30.5 3.5t28.5 10t26 26t9 46.5v1223q0 20 -4 34.5t-14.5 23.5t-16.5 14t-22 7.5t-18 3t-17 1.5v36h326v-36q-20 -1 -31.5 -3t-30 -9.5t-28 -25.5t-9.5 -46v-1227q0 -12 2.5 -22t5.5 -17.5t9 -14t10.5 -10.5t13 -7t13 -5t13.5 -3t12.5 -1.5t12 -1
t9.5 -0.5v-37zM469 1722q0 -34 -24 -58t-58 -24t-58 24t-24 58t24 57t58 23t58 -23t24 -57zM188 1722q0 -34 -23 -58t-56 -24q-34 0 -59 24t-25 58q0 33 25 56.5t59 23.5t56.5 -23t22.5 -57z" />
    <glyph glyph-name="Eth" unicode="&#xd0;" horiz-adv-x="1038" 
d="M967 737q0 -138 -22 -250.5t-56.5 -187.5t-85 -131.5t-100.5 -87.5t-110.5 -50t-106.5 -24.5t-97 -5.5h-305v39q50 4 68 22q22 21 22 60v758h-74v65h74v406q0 80 -92 80v38h264q50 0 98 -5.5t112.5 -24.5t119 -50.5t110 -87.5t94 -130.5t63 -185.5t24.5 -247zM821 731
q0 129 -20 234.5t-50.5 174t-74.5 120t-85.5 78t-89.5 43t-79.5 20.5t-63.5 4h-51v-461h260v-65h-260v-813h74q37 0 64 2t76 15.5t85.5 37.5t79.5 73.5t70.5 118t46 176t18.5 242.5z" />
    <glyph glyph-name="Ntilde" unicode="&#xd1;" horiz-adv-x="1103" 
d="M1022 1430q-38 0 -61 -16t-23 -62v-1372h-100l-596 1267v-3v-3v-3v-3v-3v-3v-3v-3v-3v-3v-3v-3v-3v-3v-3v-3v-3v-3v-3v-3v-3v-3v-3v-3v-3v-3v-3v-3v-3v-3v-3v-3v-3v-3v-3v-3v-3v-3v-3v-3v-3v-3v-3v-3v-3v-3v-4v-3v-3v-3v-3v-3v-3v-3v-3v-3v-3v-3v-3v-3v-3v-3v-3v-3v-3v-3
v-3v-3v-3v-3v-3v-3v-3v-3v-3v-3v-3v-3v-3v-3v-3v-3v-3v-3v-3v-3v-3v-3v-3v-3v-3v-3v-3v-3v-3v-3v-3v-3v-3v-3v-3v-3v-3v-3v-3v-3v-3v-3v-3v-3v-3v-3v-3v-3v-3v-3v-3v-3v-3v-3v-3v-3v-3v-3v-3v-3v-3v-3v-3v-3v-3v-3v-3v-3v-3v-3v-3v-4v-3v-3v-3v-3v-3v-3v-3v-3v-3v-3v-3v-3
v-3v-3v-3v-3v-3v-3v-3v-3v-3v-3v-3v-3v-3v-3v-3v-3v-3v-3v-3v-3v-3v-3v-3v-3v-3v-3v-3v-3v-3v-3v-3v-3v-3v-3v-3v-3v-3v-3v-3v-3v-3v-3v-3v-3v-3v-3v-3v-3v-3v-3v-3v-3v-3v-3v-3v-3v-3v-3v-3v-3v-3v-3v-3v-3v-3v-3v-3v-3v-3v-3v-3v-3v-3v-3v-3v-3v-4v-3v-3v-3v-3v-3v-3v-3
v-3v-3v-3v-3v-3v-3v-3v-3v-3v-3v-3v-3v-3v-3v-3v-3v-3v-3v-3v-3v-3v-3v-3v-3v-3v-3v-3v-3v-3v-3v-3v-3v-3v-3v-3v-3v-3v-3v-3v-3v-3v-3v-3v-3v-3v-3v-3v-3v-3v-3v-3v-3v-3v-3v-3v-3v-3v-3v-3v-3v-3v-3v-3v-3v-3v-3v-3v-3v-3v-3v-3v-3v-3v-3v-3v-3v-3v-3v-3v-3v-3v-3v-3v-3
v-3v-3v-3v-3v-3v-3v-4v-3v-3v-3v-3v-3v-3v-3v-3v-3v-3v-3v-3v-3v-3v-3v-3v-3v-3v-3v-3v-3v-3v-3v-3v-3v-3v-3v-3v-3v-3v-3v-2v-3v-3v-3v-3v-3v-3v-3v-3v-3v-3v-3v-3v-3v-3v-3v-3v-2v-10q0 -45 24 -59.5t66 -14.5v-39h-250v39q84 0 84 76v1351h121l575 -1241v1131
q0 41 -22 57.5t-66 16.5v36h248v-36zM821 1812q0 -73 -35 -127.5t-112 -54.5q-35 0 -72 16.5t-62.5 36t-53 36t-46.5 16.5q-38 0 -56.5 -30t-18.5 -69h-60q0 36 6.5 67t21.5 59t44 44.5t69 16.5t84 -26.5t84 -52.5t68 -26q78 0 78 94h61z" />
    <glyph glyph-name="Ograve" unicode="&#xd2;" horiz-adv-x="1157" 
d="M1085 731q0 -127 -20 -240.5t-61 -209t-100 -165t-142 -108.5t-182 -39q-123 0 -221 59.5t-160 164t-94.5 242t-32.5 296.5t32.5 296t94.5 241t160 163.5t221 59.5t220.5 -59.5t159 -163.5t93.5 -240.5t32 -296.5zM944 733q0 148 -22 272t-65.5 219.5t-114.5 149
t-162 53.5q-121 0 -205 -94.5t-122 -247.5t-38 -352t38 -352t122 -247.5t205 -94.5q91 0 162 53.5t114.5 149t65.5 219.5t22 272zM760 1583h-74l-231 158q-56 39 -56 76q0 22 15.5 36.5t40.5 14.5q22 0 39.5 -12.5t56.5 -53.5z" />
    <glyph glyph-name="Oacute" unicode="&#xd3;" horiz-adv-x="1157" 
d="M1085 731q0 -127 -20 -240.5t-61 -209t-100 -165t-142 -108.5t-182 -39q-123 0 -221 59.5t-160 164t-94.5 242t-32.5 296.5t32.5 296t94.5 241t160 163.5t221 59.5t220.5 -59.5t159 -163.5t93.5 -240.5t32 -296.5zM944 733q0 148 -22 272t-65.5 219.5t-114.5 149
t-162 53.5q-121 0 -205 -94.5t-122 -247.5t-38 -352t38 -352t122 -247.5t205 -94.5q91 0 162 53.5t114.5 149t65.5 219.5t22 272zM760 1817q0 -38 -55 -76l-232 -158h-74l209 219q39 41 57 53.5t40 12.5q24 0 39.5 -14.5t15.5 -36.5z" />
    <glyph glyph-name="Ocircumflex" unicode="&#xd4;" horiz-adv-x="1157" 
d="M1085 731q0 -127 -20 -240.5t-61 -209t-100 -165t-142 -108.5t-182 -39q-123 0 -221 59.5t-160 164t-94.5 242t-32.5 296.5t32.5 296t94.5 241t160 163.5t221 59.5t220.5 -59.5t159 -163.5t93.5 -240.5t32 -296.5zM944 733q0 148 -22 272t-65.5 219.5t-114.5 149
t-162 53.5q-121 0 -205 -94.5t-122 -247.5t-38 -352t38 -352t122 -247.5t205 -94.5q91 0 162 53.5t114.5 149t65.5 219.5t22 272zM809 1583h-61l-177 186l-174 -186h-61l188 287h94z" />
    <glyph glyph-name="Otilde" unicode="&#xd5;" horiz-adv-x="1157" 
d="M1085 731q0 -127 -20 -240.5t-61 -209t-100 -165t-142 -108.5t-182 -39q-123 0 -221 59.5t-160 164t-94.5 242t-32.5 296.5t32.5 296t94.5 241t160 163.5t221 59.5t220.5 -59.5t159 -163.5t93.5 -240.5t32 -296.5zM944 733q0 148 -22 272t-65.5 219.5t-114.5 149
t-162 53.5q-121 0 -205 -94.5t-122 -247.5t-38 -352t38 -352t122 -247.5t205 -94.5q91 0 162 53.5t114.5 149t65.5 219.5t22 272zM827 1812q0 -73 -35 -127.5t-112 -54.5q-35 0 -72 16.5t-62.5 36t-53 36t-46.5 16.5q-38 0 -56.5 -30t-18.5 -69h-60q0 36 6.5 67t21.5 59
t44.5 44.5t69.5 16.5t84 -26.5t83.5 -52.5t67.5 -26q78 0 78 94h61z" />
    <glyph glyph-name="Odieresis" unicode="&#xd6;" horiz-adv-x="1157" 
d="M1085 731q0 -127 -20 -240.5t-61 -209t-100 -165t-142 -108.5t-182 -39q-123 0 -221 59.5t-160 164t-94.5 242t-32.5 296.5t32.5 296t94.5 241t160 163.5t221 59.5t220.5 -59.5t159 -163.5t93.5 -240.5t32 -296.5zM944 733q0 148 -22 272t-65.5 219.5t-114.5 149
t-162 53.5q-121 0 -205 -94.5t-122 -247.5t-38 -352t38 -352t122 -247.5t205 -94.5q91 0 162 53.5t114.5 149t65.5 219.5t22 272zM801 1722q0 -34 -24 -58t-58 -24t-58 24t-24 58t24 57t58 23t58 -23t24 -57zM520 1722q0 -34 -23 -58t-57 -24t-59 24t-25 58q0 33 25 56.5
t59 23.5t57 -23t23 -57z" />
    <glyph glyph-name="multiply" unicode="&#xd7;" horiz-adv-x="1034" 
d="M866 760l-282 -283l282 -282l-67 -66l-281 283l-282 -283l-68 66l283 282l-283 283l68 65l282 -282l281 282z" />
    <glyph glyph-name="Oslash" unicode="&#xd8;" horiz-adv-x="1157" 
d="M1083 729q0 -160 -32 -296.5t-93.5 -240.5t-159 -163.5t-220.5 -59.5q-18 0 -50 4l-10 -92l-78 8l11 99q-184 54 -281.5 255t-97.5 486q0 160 32 296.5t93.5 240.5t159.5 163.5t221 59.5q26 0 38 -2l9 72l80 -9l-11 -77q187 -51 288 -254.5t101 -489.5zM940 731
q0 253 -64.5 433t-189.5 237l-149 -1358q24 -4 41 -4q91 0 161.5 53t113.5 148t65 219t22 272zM610 1423h-32q-121 0 -205 -94t-122 -246.5t-38 -351.5q0 -249 63 -427t185 -238z" />
    <glyph glyph-name="Ugrave" unicode="&#xd9;" horiz-adv-x="1052" 
d="M981 1430q-88 0 -88 -78v-867q0 -47 -3 -90t-12.5 -96.5t-25 -98t-43 -88.5t-64 -74.5t-90 -49.5t-118.5 -19q-207 0 -297 152q-78 131 -78 414v813q0 27 -9.5 45t-27.5 25t-27 9t-26 3v36h321v-36q-100 0 -100 -82v-865q0 -64 4 -116t14.5 -105t29.5 -92t46.5 -70
t69 -47t94.5 -16q132 0 197 118t65 324v875q0 21 -7 36t-13.5 22t-22.5 11.5t-21.5 5t-21.5 1.5v36h254v-36zM686 1583h-74l-231 158q-55 38 -55 76q0 22 15.5 36.5t39.5 14.5q22 0 39.5 -12.5t56.5 -53.5z" />
    <glyph glyph-name="Uacute" unicode="&#xda;" horiz-adv-x="1052" 
d="M981 1430q-88 0 -88 -78v-867q0 -47 -3 -90t-12.5 -96.5t-25 -98t-43 -88.5t-64 -74.5t-90 -49.5t-118.5 -19q-207 0 -297 152q-78 131 -78 414v813q0 27 -9.5 45t-27.5 25t-27 9t-26 3v36h321v-36q-100 0 -100 -82v-865q0 -64 4 -116t14.5 -105t29.5 -92t46.5 -70
t69 -47t94.5 -16q132 0 197 118t65 324v875q0 21 -7 36t-13.5 22t-22.5 11.5t-21.5 5t-21.5 1.5v36h254v-36zM748 1817q0 -37 -56 -76l-231 -158h-74l209 219q39 41 56.5 53.5t39.5 12.5q25 0 40.5 -14.5t15.5 -36.5z" />
    <glyph glyph-name="Ucircumflex" unicode="&#xdb;" horiz-adv-x="1052" 
d="M981 1430q-88 0 -88 -78v-867q0 -47 -3 -90t-12.5 -96.5t-25 -98t-43 -88.5t-64 -74.5t-90 -49.5t-118.5 -19q-207 0 -297 152q-78 131 -78 414v813q0 27 -9.5 45t-27.5 25t-27 9t-26 3v36h321v-36q-100 0 -100 -82v-865q0 -64 4 -116t14.5 -105t29.5 -92t46.5 -70
t69 -47t94.5 -16q132 0 197 118t65 324v875q0 21 -7 36t-13.5 22t-22.5 11.5t-21.5 5t-21.5 1.5v36h254v-36zM774 1583h-61l-176 186l-175 -186h-61l188 287h95z" />
    <glyph glyph-name="Udieresis" unicode="&#xdc;" horiz-adv-x="1052" 
d="M981 1430q-88 0 -88 -78v-867q0 -47 -3 -90t-12.5 -96.5t-25 -98t-43 -88.5t-64 -74.5t-90 -49.5t-118.5 -19q-207 0 -297 152q-78 131 -78 414v813q0 27 -9.5 45t-27.5 25t-27 9t-26 3v36h321v-36q-100 0 -100 -82v-865q0 -64 4 -116t14.5 -105t29.5 -92t46.5 -70
t69 -47t94.5 -16q132 0 197 118t65 324v875q0 21 -7 36t-13.5 22t-22.5 11.5t-21.5 5t-21.5 1.5v36h254v-36zM756 1722q0 -34 -24 -58t-58 -24t-58 24t-24 58t24 57t58 23t58 -23t24 -57zM475 1722q0 -34 -23 -58t-57 -24t-59 24t-25 58q0 33 25 56.5t59 23.5t57 -23t23 -57
z" />
    <glyph glyph-name="Yacute" unicode="&#xdd;" horiz-adv-x="993" 
d="M983 1430q-24 0 -55 -18t-49 -58l-295 -664v-571q0 -43 28.5 -61.5t69.5 -18.5v-39h-322v39q59 5 79 32q14 19 14 48v569l-334 670q-36 72 -109 72v36h293v-36q-12 0 -22.5 -2t-21 -11.5t-9.5 -25.5q0 -19 10 -39l281 -578l254 578q8 19 8 34q0 23 -20 33.5t-40 10.5v36
h240v-36zM760 1817q0 -38 -55 -76l-232 -158h-74l209 219q39 41 57 53.5t40 12.5q24 0 39.5 -14.5t15.5 -36.5z" />
    <glyph glyph-name="Thorn" unicode="&#xde;" horiz-adv-x="919" 
d="M860 907q0 -85 -33 -153.5t-82 -110t-109.5 -69.5t-112.5 -39t-95 -11q-19 0 -27 2v58q2 0 7 -1t8 -1q18 0 38 2t50.5 10t58 21.5t56 38.5t49 58t34 83.5t13.5 111.5q0 326 -340 326q-4 0 -31.5 -1t-36.5 -1v-1106q0 -29 7.5 -47t24 -25.5t30 -10t37.5 -3.5v-39h-324v39
q92 0 92 82v1231q0 68 -90 78v36h324v-36q-22 -1 -35 -3t-30.5 -9.5t-26.5 -23.5t-9 -42v-56h47q48 0 91.5 -3.5t96 -14t96 -27.5t86 -47.5t71.5 -70t47 -97.5t18 -129z" />
    <glyph glyph-name="germandbls" unicode="&#xdf;" horiz-adv-x="958" 
d="M897 424q0 -82 -19.5 -159.5t-59 -145t-108 -108t-157.5 -40.5q-87 0 -142 34.5t-55 98.5q0 30 15.5 52t38.5 22q63 0 63 -78q0 -71 88 -71q93 0 153 95.5t60 303.5q0 108 -28 196.5t-67 139.5t-85.5 86.5t-79.5 48t-53 14.5v52q9 0 27.5 4t50.5 21t58.5 44.5t46.5 80.5
t20 122q0 141 -49 204.5t-132 63.5q-98 0 -140 -98t-42 -307v-1100h-209v39q1 0 10 0.5t14 1t14.5 3t15.5 5t13.5 8.5t12 13.5t7.5 19t3 25.5v766h-141l18 67h123v101q0 153 20.5 242t61.5 149q40 58 101 88.5t127 30.5q59 0 110.5 -18.5t94 -55.5t67 -99t24.5 -143
q0 -41 -10 -80.5t-33.5 -83.5t-72 -81t-117.5 -58q17 -4 49 -19t85 -55.5t97.5 -95t77.5 -146.5t33 -200z" />
    <glyph glyph-name="agrave" unicode="&#xe0;" horiz-adv-x="802" 
d="M731 0h-205l-6 98q-18 -36 -49 -62.5t-64.5 -38.5t-59 -17t-44.5 -5q-101 0 -171.5 72t-70.5 191q0 91 34 163t82.5 112.5t110.5 67t111 35.5t90 9h27q0 1 0.5 28.5t0 41.5t-3 45t-8.5 50t-17.5 44t-28 39.5t-42 25t-57.5 10.5q-36 0 -69 -14.5t-53.5 -31.5t-41.5 -47.5
t-28.5 -44t-20.5 -40.5q-3 -5 -4 -8l-51 8l60 213h41q3 -14 16 -14q7 0 64 20.5t102 20.5q49 0 87 -7t65 -25.5t46.5 -34.5t31.5 -52.5t18.5 -59.5t9.5 -74.5t3.5 -79.5t0.5 -92v-32v-405q0 -45 23.5 -57.5t70.5 -12.5v-39zM516 305v244q-24 8 -61 8q-34 0 -68 -7.5
t-73 -28.5t-68 -54.5t-48.5 -90.5t-19.5 -130q0 -52 12.5 -95t47.5 -75.5t88 -32.5t91.5 23t59 62t30 83t9.5 94zM541 1059h-74l-231 158q-56 39 -56 75q0 22 15.5 36.5t40.5 14.5q22 0 39.5 -12.5t56.5 -52.5z" />
    <glyph glyph-name="aacute" unicode="&#xe1;" horiz-adv-x="802" 
d="M731 0h-205l-6 98q-18 -36 -49 -62.5t-64.5 -38.5t-59 -17t-44.5 -5q-101 0 -171.5 72t-70.5 191q0 91 34 163t82.5 112.5t110.5 67t111 35.5t90 9h27q0 1 0.5 28.5t0 41.5t-3 45t-8.5 50t-17.5 44t-28 39.5t-42 25t-57.5 10.5q-36 0 -69 -14.5t-53.5 -31.5t-41.5 -47.5
t-28.5 -44t-20.5 -40.5q-3 -5 -4 -8l-51 8l60 213h41q3 -14 16 -14q7 0 64 20.5t102 20.5q49 0 87 -7t65 -25.5t46.5 -34.5t31.5 -52.5t18.5 -59.5t9.5 -74.5t3.5 -79.5t0.5 -92v-32v-405q0 -45 23.5 -57.5t70.5 -12.5v-39zM516 305v244q-24 8 -61 8q-34 0 -68 -7.5
t-73 -28.5t-68 -54.5t-48.5 -90.5t-19.5 -130q0 -52 12.5 -95t47.5 -75.5t88 -32.5t91.5 23t59 62t30 83t9.5 94zM582 1292q0 -36 -56 -75l-231 -158h-74l209 219q39 40 56.5 52.5t39.5 12.5q25 0 40.5 -14.5t15.5 -36.5z" />
    <glyph glyph-name="acircumflex" unicode="&#xe2;" horiz-adv-x="802" 
d="M731 0h-205l-6 98q-18 -36 -49 -62.5t-64.5 -38.5t-59 -17t-44.5 -5q-101 0 -171.5 72t-70.5 191q0 91 34 163t82.5 112.5t110.5 67t111 35.5t90 9h27q0 1 0.5 28.5t0 41.5t-3 45t-8.5 50t-17.5 44t-28 39.5t-42 25t-57.5 10.5q-36 0 -69 -14.5t-53.5 -31.5t-41.5 -47.5
t-28.5 -44t-20.5 -40.5q-3 -5 -4 -8l-51 8l60 213h41q3 -14 16 -14q7 0 64 20.5t102 20.5q49 0 87 -7t65 -25.5t46.5 -34.5t31.5 -52.5t18.5 -59.5t9.5 -74.5t3.5 -79.5t0.5 -92v-32v-405q0 -45 23.5 -57.5t70.5 -12.5v-39zM516 305v244q-24 8 -61 8q-34 0 -68 -7.5
t-73 -28.5t-68 -54.5t-48.5 -90.5t-19.5 -130q0 -52 12.5 -95t47.5 -75.5t88 -32.5t91.5 23t59 62t30 83t9.5 94zM616 1059h-61l-176 186l-174 -186h-62l189 287h94z" />
    <glyph glyph-name="atilde" unicode="&#xe3;" horiz-adv-x="802" 
d="M731 0h-205l-6 98q-18 -36 -49 -62.5t-64.5 -38.5t-59 -17t-44.5 -5q-101 0 -171.5 72t-70.5 191q0 91 34 163t82.5 112.5t110.5 67t111 35.5t90 9h27q0 1 0.5 28.5t0 41.5t-3 45t-8.5 50t-17.5 44t-28 39.5t-42 25t-57.5 10.5q-36 0 -69 -14.5t-53.5 -31.5t-41.5 -47.5
t-28.5 -44t-20.5 -40.5q-3 -5 -4 -8l-51 8l60 213h41q3 -14 16 -14q7 0 64 20.5t102 20.5q49 0 87 -7t65 -25.5t46.5 -34.5t31.5 -52.5t18.5 -59.5t9.5 -74.5t3.5 -79.5t0.5 -92v-32v-405q0 -45 23.5 -57.5t70.5 -12.5v-39zM516 305v244q-24 8 -61 8q-34 0 -68 -7.5
t-73 -28.5t-68 -54.5t-48.5 -90.5t-19.5 -130q0 -52 12.5 -95t47.5 -75.5t88 -32.5t91.5 23t59 62t30 83t9.5 94zM629 1288q0 -73 -35.5 -127.5t-112.5 -54.5q-35 0 -72 16t-62.5 36t-52.5 36t-46 16q-38 0 -57 -29.5t-19 -68.5h-59q0 36 6.5 66.5t21.5 59t44 44.5t69 16
t84 -26t83.5 -52t67.5 -26q78 0 78 94h62z" />
    <glyph glyph-name="adieresis" unicode="&#xe4;" horiz-adv-x="802" 
d="M731 0h-205l-6 98q-18 -36 -49 -62.5t-64.5 -38.5t-59 -17t-44.5 -5q-101 0 -171.5 72t-70.5 191q0 91 34 163t82.5 112.5t110.5 67t111 35.5t90 9h27q0 1 0.5 28.5t0 41.5t-3 45t-8.5 50t-17.5 44t-28 39.5t-42 25t-57.5 10.5q-36 0 -69 -14.5t-53.5 -31.5t-41.5 -47.5
t-28.5 -44t-20.5 -40.5q-3 -5 -4 -8l-51 8l60 213h41q3 -14 16 -14q7 0 64 20.5t102 20.5q49 0 87 -7t65 -25.5t46.5 -34.5t31.5 -52.5t18.5 -59.5t9.5 -74.5t3.5 -79.5t0.5 -92v-32v-405q0 -45 23.5 -57.5t70.5 -12.5v-39zM516 305v244q-24 8 -61 8q-34 0 -68 -7.5
t-73 -28.5t-68 -54.5t-48.5 -90.5t-19.5 -130q0 -52 12.5 -95t47.5 -75.5t88 -32.5t91.5 23t59 62t30 83t9.5 94zM592 1198q0 -34 -24 -58t-58 -24t-58 24t-24 58t24 57t58 23t58 -23t24 -57zM311 1198q0 -34 -23 -58t-57 -24t-59 24t-25 58q0 33 25 56.5t59 23.5t57 -23
t23 -57z" />
    <glyph glyph-name="aring" unicode="&#xe5;" horiz-adv-x="802" 
d="M731 0h-205l-6 98q-18 -36 -49 -62.5t-64.5 -38.5t-59 -17t-44.5 -5q-101 0 -171.5 72t-70.5 191q0 91 34 163t82.5 112.5t110.5 67t111 35.5t90 9h27q0 1 0.5 28.5t0 41.5t-3 45t-8.5 50t-17.5 44t-28 39.5t-42 25t-57.5 10.5q-36 0 -69 -14.5t-53.5 -31.5t-41.5 -47.5
t-28.5 -44t-20.5 -40.5q-3 -5 -4 -8l-51 8l60 213h41q3 -14 16 -14q7 0 64 20.5t102 20.5q49 0 87 -7t65 -25.5t46.5 -34.5t31.5 -52.5t18.5 -59.5t9.5 -74.5t3.5 -79.5t0.5 -92v-32v-405q0 -45 23.5 -57.5t70.5 -12.5v-39zM516 305v244q-24 8 -61 8q-34 0 -68 -7.5
t-73 -28.5t-68 -54.5t-48.5 -90.5t-19.5 -130q0 -52 12.5 -95t47.5 -75.5t88 -32.5t91.5 23t59 62t30 83t9.5 94zM524 1212q0 -63 -45 -108t-108 -45t-108.5 45t-45.5 108t45.5 107.5t108.5 44.5t108 -44.5t45 -107.5zM461 1212q0 38 -26 64.5t-64 26.5t-64 -26.5t-26 -64.5
t26 -64t64 -26t64 26t26 64z" />
    <glyph glyph-name="ae" unicode="&#xe6;" horiz-adv-x="1251" 
d="M1190 287q0 -17 -8 -50t-30.5 -80t-55.5 -87.5t-90 -69.5t-127 -29q-56 0 -106 16t-81 39t-54 48t-33 42t-11 23q-27 -67 -68 -103q-73 -65 -196 -65q-111 0 -190 73t-79 192q0 91 31 162.5t77 112.5t105.5 68t108.5 36.5t94 9.5h37q0 1 0.5 28t0 41.5t-3 44.5t-8.5 48.5
t-17.5 43.5t-28 39t-42 24.5t-57.5 10.5q-37 0 -70.5 -15.5t-54.5 -34.5t-43 -50t-29.5 -45.5t-19.5 -38.5l-51 8l60 213h43q3 -14 14 -14q4 0 54.5 20.5t98.5 20.5q182 0 244 -164q57 87 136.5 124.5t144.5 37.5q70 0 125 -30t88 -75t54.5 -103.5t29.5 -109t8 -96.5h-547
q-6 -46 -6 -84q0 -61 7.5 -120t26 -117t45 -101.5t68.5 -70.5t93 -27q48 0 89.5 22t68 53.5t46 68t27.5 65t8 45.5h74zM1083 623q-44 280 -198 280q-90 0 -151 -79.5t-81 -200.5h430zM514 303v248q-1 0 -22.5 -0.5t-34 -1t-40 -4t-46 -9t-45.5 -17t-46 -26.5t-39.5 -38.5
t-33 -52.5t-21 -69t-8.5 -87q0 -80 41 -142.5t119 -62.5q176 0 176 262z" />
    <glyph glyph-name="ccedilla" unicode="&#xe7;" horiz-adv-x="776" 
d="M561 -211q0 -82 -50.5 -121t-125.5 -39q-12 0 -22.5 1t-20.5 3.5t-17.5 4t-16.5 6t-14 6.5t-13 7.5t-10.5 7t-10 7t-8.5 6.5l33 66q3 -2 9.5 -9t9 -8.5t8 -6.5t8.5 -6.5t8.5 -5t9.5 -4.5l10 -2.5t12.5 -2t14.5 -0.5q38 0 64 18.5t26 53.5q0 28 -19.5 45.5t-46.5 17.5
q-22 0 -45 -20l-41 16l23 156q-59 13 -106.5 45t-86.5 88.5t-60.5 146t-21.5 207.5q0 217 97.5 356.5t267.5 139.5q49 0 88 -10.5t60 -20.5t26 -10q7 0 10 14l39 2l58 -201l-50 -8q-10 21 -13.5 28.5t-17 30t-23.5 34t-29.5 29.5t-39.5 27t-48 16t-60 7q-63 0 -111 -38
t-75.5 -101.5t-41.5 -138t-14 -156.5q0 -59 7 -117t24.5 -116.5t44 -102.5t69 -72t95.5 -28q66 0 116 31t75 76t37 82.5t12 62.5h71q0 -21 -8 -55t-30 -80t-54.5 -85t-89.5 -66.5t-127 -27.5q-21 0 -31 2l-12 -75q36 8 57 8q51 0 86 -35t35 -86z" />
    <glyph glyph-name="egrave" unicode="&#xe8;" horiz-adv-x="808" 
d="M748 557h-560q-4 -31 -4 -84q0 -79 11.5 -150.5t37.5 -138.5t75.5 -107t117.5 -40q59 0 108 32t75.5 76.5t40.5 83t14 60.5h73q0 -17 -8 -50t-30.5 -79.5t-55.5 -87t-90 -69t-127 -28.5q-56 0 -105.5 13.5t-98 48.5t-83.5 89.5t-56.5 143.5t-21.5 203q0 218 98.5 357
t274.5 139q73 0 130.5 -30t91 -74.5t55.5 -102.5t29.5 -108t7.5 -97zM633 627q-44 280 -199 280q-100 0 -157 -77t-78 -203h434zM584 1059h-74l-231 158q-56 39 -56 75q0 22 15.5 36.5t40.5 14.5q22 0 39.5 -12.5t56.5 -52.5z" />
    <glyph glyph-name="eacute" unicode="&#xe9;" horiz-adv-x="808" 
d="M748 557h-560q-4 -31 -4 -84q0 -79 11.5 -150.5t37.5 -138.5t75.5 -107t117.5 -40q59 0 108 32t75.5 76.5t40.5 83t14 60.5h73q0 -17 -8 -50t-30.5 -79.5t-55.5 -87t-90 -69t-127 -28.5q-56 0 -105.5 13.5t-98 48.5t-83.5 89.5t-56.5 143.5t-21.5 203q0 218 98.5 357
t274.5 139q73 0 130.5 -30t91 -74.5t55.5 -102.5t29.5 -108t7.5 -97zM633 627q-44 280 -199 280q-100 0 -157 -77t-78 -203h434zM604 1292q0 -37 -55 -75l-232 -158h-73l209 219q39 40 56.5 52.5t39.5 12.5q24 0 39.5 -14.5t15.5 -36.5z" />
    <glyph glyph-name="ecircumflex" unicode="&#xea;" horiz-adv-x="808" 
d="M748 557h-560q-4 -31 -4 -84q0 -79 11.5 -150.5t37.5 -138.5t75.5 -107t117.5 -40q59 0 108 32t75.5 76.5t40.5 83t14 60.5h73q0 -17 -8 -50t-30.5 -79.5t-55.5 -87t-90 -69t-127 -28.5q-56 0 -105.5 13.5t-98 48.5t-83.5 89.5t-56.5 143.5t-21.5 203q0 218 98.5 357
t274.5 139q73 0 130.5 -30t91 -74.5t55.5 -102.5t29.5 -108t7.5 -97zM633 627q-44 280 -199 280q-100 0 -157 -77t-78 -203h434zM662 1059h-62l-176 186l-174 -186h-62l189 287h94z" />
    <glyph glyph-name="edieresis" unicode="&#xeb;" horiz-adv-x="808" 
d="M748 557h-560q-4 -31 -4 -84q0 -79 11.5 -150.5t37.5 -138.5t75.5 -107t117.5 -40q59 0 108 32t75.5 76.5t40.5 83t14 60.5h73q0 -17 -8 -50t-30.5 -79.5t-55.5 -87t-90 -69t-127 -28.5q-56 0 -105.5 13.5t-98 48.5t-83.5 89.5t-56.5 143.5t-21.5 203q0 218 98.5 357
t274.5 139q73 0 130.5 -30t91 -74.5t55.5 -102.5t29.5 -108t7.5 -97zM633 627q-44 280 -199 280q-100 0 -157 -77t-78 -203h434zM647 1198q0 -34 -24 -58t-58 -24t-58 24t-24 58t24 57t58 23t58 -23t24 -57zM367 1198q0 -34 -23 -58t-57 -24t-59 24t-25 58q0 33 25 56.5
t59 23.5t57 -23t23 -57z" />
    <glyph glyph-name="igrave" unicode="&#xec;" horiz-adv-x="448" 
d="M377 0h-305v37q92 0 92 78v710q0 26 -10 43.5t-26.5 24.5t-28.5 9.5t-25 2.5v37h209v-831q0 -25 9 -41t25 -22.5t29 -8.5t31 -2v-37zM362 1059h-73l-232 158q-55 38 -55 75q0 22 15.5 36.5t39.5 14.5q22 0 40.5 -12.5t56.5 -52.5z" />
    <glyph glyph-name="iacute" unicode="&#xed;" horiz-adv-x="448" 
d="M377 0h-305v37q92 0 92 78v710q0 26 -10 43.5t-26.5 24.5t-28.5 9.5t-25 2.5v37h209v-831q0 -25 9 -41t25 -22.5t29 -8.5t31 -2v-37zM403 1292q0 -37 -55 -75l-231 -158h-74l209 219q39 40 56.5 52.5t39.5 12.5q24 0 39.5 -14.5t15.5 -36.5z" />
    <glyph glyph-name="icircumflex" unicode="&#xee;" horiz-adv-x="448" 
d="M377 0h-305v37q92 0 92 78v710q0 26 -10 43.5t-26.5 24.5t-28.5 9.5t-25 2.5v37h209v-831q0 -25 9 -41t25 -22.5t29 -8.5t31 -2v-37zM440 1059h-61l-176 186l-174 -186h-62l189 287h94z" />
    <glyph glyph-name="idieresis" unicode="&#xef;" horiz-adv-x="448" 
d="M377 0h-305v37q92 0 92 78v710q0 26 -10 43.5t-26.5 24.5t-28.5 9.5t-25 2.5v37h209v-831q0 -25 9 -41t25 -22.5t29 -8.5t31 -2v-37zM426 1198q0 -34 -24 -58t-58 -24t-58 24t-24 58t24 57t58 23t58 -23t24 -57zM145 1198q0 -34 -23 -58t-56 -24q-34 0 -59 24t-25 58
q0 33 25 56.5t59 23.5t56.5 -23t22.5 -57z" />
    <glyph glyph-name="eth" unicode="&#xf0;" horiz-adv-x="849" 
d="M791 502q0 -258 -104 -392.5t-263 -134.5q-116 0 -199.5 68t-123.5 179t-40 251q0 138 43 250t126.5 179t193.5 67q146 0 219 -95q-18 141 -61.5 270.5t-106.5 219.5l-160 -94l-2 65l125 74q-90 100 -190 100q-63 0 -94 -26l-19 30q36 46 123 46q145 0 256 -105l129 78
v-68l-90 -53q66 -79 114.5 -195.5t74 -243t37.5 -243.5t12 -227zM659 471q0 211 -62 323.5t-175 112.5q-78 0 -133 -58.5t-80 -154.5t-25 -221t25 -221t80 -154.5t133 -58.5q113 0 175 112.5t62 319.5z" />
    <glyph glyph-name="ntilde" unicode="&#xf1;" horiz-adv-x="1003" 
d="M932 0h-305v39q90 0 90 80v487q0 39 -0.5 63t-3.5 59.5t-9 57.5t-17.5 47.5t-27.5 40t-40.5 24t-55.5 9.5q-90 0 -160 -74t-96 -196q-22 -110 -22 -242v-284q0 -25 7.5 -40.5t23.5 -22t28.5 -8t34.5 -1.5v-39h-305v39q92 0 92 76v712q0 17 -4 30t-11.5 21t-15.5 13.5
t-19 8t-17.5 3.5t-16 1.5t-10.5 0.5v37h211l2 -190q5 24 26.5 58.5t57.5 71t94 62t123 25.5q52 0 93 -12t67 -29t44 -45t27 -49.5t13.5 -54.5t5 -48t0.5 -41v-579q0 -72 96 -72v-39zM750 1288q0 -73 -35.5 -127.5t-112.5 -54.5q-35 0 -72 16t-62.5 36t-52.5 36t-46 16
q-38 0 -57 -29.5t-19 -68.5h-60q0 78 32.5 132t109.5 54q40 0 84 -26t83.5 -52t67.5 -26q78 0 78 94h62z" />
    <glyph glyph-name="ograve" unicode="&#xf2;" horiz-adv-x="849" 
d="M788 471q0 -141 -38.5 -251t-122 -178.5t-201.5 -68.5q-77 0 -138.5 25.5t-103.5 70.5t-70 108.5t-40.5 136.5t-12.5 157q0 140 39.5 250.5t123.5 178t202 67.5t201.5 -68t122 -177.5t38.5 -250.5zM662 471q0 125 -25 221t-80 154.5t-133 58.5t-133.5 -58.5t-81 -154.5
t-25.5 -221t25.5 -221t81 -154.5t133.5 -58.5t133 58.5t80 154.5t25 221zM604 1059h-74l-231 158q-55 38 -55 75q0 22 15.5 36.5t39.5 14.5q22 0 39.5 -12.5t56.5 -52.5z" />
    <glyph glyph-name="oacute" unicode="&#xf3;" horiz-adv-x="849" 
d="M788 471q0 -141 -38.5 -251t-122 -178.5t-201.5 -68.5q-77 0 -138.5 25.5t-103.5 70.5t-70 108.5t-40.5 136.5t-12.5 157q0 140 39.5 250.5t123.5 178t202 67.5t201.5 -68t122 -177.5t38.5 -250.5zM662 471q0 125 -25 221t-80 154.5t-133 58.5t-133.5 -58.5t-81 -154.5
t-25.5 -221t25.5 -221t81 -154.5t133.5 -58.5t133 58.5t80 154.5t25 221zM625 1292q0 -36 -56 -75l-231 -158h-74l209 219q39 40 56.5 52.5t39.5 12.5q25 0 40.5 -14.5t15.5 -36.5z" />
    <glyph glyph-name="ocircumflex" unicode="&#xf4;" horiz-adv-x="849" 
d="M788 471q0 -141 -38.5 -251t-122 -178.5t-201.5 -68.5q-77 0 -138.5 25.5t-103.5 70.5t-70 108.5t-40.5 136.5t-12.5 157q0 140 39.5 250.5t123.5 178t202 67.5t201.5 -68t122 -177.5t38.5 -250.5zM662 471q0 125 -25 221t-80 154.5t-133 58.5t-133.5 -58.5t-81 -154.5
t-25.5 -221t25.5 -221t81 -154.5t133.5 -58.5t133 58.5t80 154.5t25 221zM664 1059h-62l-176 186l-174 -186h-62l189 287h94z" />
    <glyph glyph-name="otilde" unicode="&#xf5;" horiz-adv-x="849" 
d="M788 471q0 -141 -38.5 -251t-122 -178.5t-201.5 -68.5q-77 0 -138.5 25.5t-103.5 70.5t-70 108.5t-40.5 136.5t-12.5 157q0 140 39.5 250.5t123.5 178t202 67.5t201.5 -68t122 -177.5t38.5 -250.5zM662 471q0 125 -25 221t-80 154.5t-133 58.5t-133.5 -58.5t-81 -154.5
t-25.5 -221t25.5 -221t81 -154.5t133.5 -58.5t133 58.5t80 154.5t25 221zM678 1288q0 -73 -35.5 -127.5t-112.5 -54.5q-35 0 -72 16t-62.5 36t-52.5 36t-46 16q-38 0 -57 -29.5t-19 -68.5h-59q0 36 6.5 66.5t21.5 59t44 44.5t69 16t84 -26t84 -52t68 -26q77 0 77 94h62z" />
    <glyph glyph-name="odieresis" unicode="&#xf6;" horiz-adv-x="849" 
d="M788 471q0 -141 -38.5 -251t-122 -178.5t-201.5 -68.5q-77 0 -138.5 25.5t-103.5 70.5t-70 108.5t-40.5 136.5t-12.5 157q0 140 39.5 250.5t123.5 178t202 67.5t201.5 -68t122 -177.5t38.5 -250.5zM662 471q0 125 -25 221t-80 154.5t-133 58.5t-133.5 -58.5t-81 -154.5
t-25.5 -221t25.5 -221t81 -154.5t133.5 -58.5t133 58.5t80 154.5t25 221zM647 1198q0 -34 -24 -58t-58 -24t-58 24t-24 58t24 57t58 23t58 -23t24 -57zM367 1198q0 -34 -23 -58t-57 -24t-59 24t-25 58q0 33 25 56.5t59 23.5t57 -23t23 -57z" />
    <glyph glyph-name="divide" unicode="&#xf7;" horiz-adv-x="1034" 
d="M590 655q0 -32 -23.5 -54.5t-54.5 -22.5q-32 0 -55 22.5t-23 54.5t23 55t55 23q31 0 54.5 -23t23.5 -55zM965 428h-895v92h895v-92zM590 276q0 -32 -23.5 -54.5t-54.5 -22.5q-32 0 -55 22.5t-23 54.5t23 55t55 23q31 0 54.5 -23t23.5 -55z" />
    <glyph glyph-name="oslash" unicode="&#xf8;" horiz-adv-x="849" 
d="M788 467q0 -140 -39 -250t-123 -178t-202 -68h-21l-10 -92l-65 8l10 93q-96 22 -159.5 93t-90.5 169.5t-27 224.5q0 141 39 251t122.5 178.5t201.5 68.5h22l9 86l65 -9l-10 -88q135 -34 206.5 -167t71.5 -320zM662 467q0 154 -40.5 265.5t-117.5 150.5l-94 -850h12
q78 0 133.5 58.5t81 154.5t25.5 221zM438 901h-16q-78 0 -133 -58.5t-80 -154.5t-25 -221q0 -156 41.5 -268.5t120.5 -149.5z" />
    <glyph glyph-name="ugrave" unicode="&#xf9;" horiz-adv-x="999" 
d="M928 0h-211v182q-7 -26 -22.5 -56.5t-44 -67.5t-76.5 -61t-107 -24q-53 0 -96 11.5t-73 35t-52.5 50.5t-36.5 67t-22.5 74.5t-12.5 83.5t-5 83t-1 83v362q0 26 -8.5 43.5t-24.5 24.5t-30 9.5t-33 2.5v39h213v-485q0 -11 -0.5 -46.5t-0.5 -54t1.5 -54t4.5 -57t9.5 -53
t16 -51t24 -42t33 -35t44 -21t56.5 -8.5q244 0 244 497v299q0 72 -96 72v39h217v-827q0 -78 90 -78v-37zM649 1059h-74l-231 158q-55 38 -55 75q0 22 15.5 36.5t39.5 14.5q22 0 39.5 -12.5t56.5 -52.5z" />
    <glyph glyph-name="uacute" unicode="&#xfa;" horiz-adv-x="999" 
d="M928 0h-211v182q-7 -26 -22.5 -56.5t-44 -67.5t-76.5 -61t-107 -24q-53 0 -96 11.5t-73 35t-52.5 50.5t-36.5 67t-22.5 74.5t-12.5 83.5t-5 83t-1 83v362q0 26 -8.5 43.5t-24.5 24.5t-30 9.5t-33 2.5v39h213v-485q0 -11 -0.5 -46.5t-0.5 -54t1.5 -54t4.5 -57t9.5 -53
t16 -51t24 -42t33 -35t44 -21t56.5 -8.5q244 0 244 497v299q0 72 -96 72v39h217v-827q0 -78 90 -78v-37zM680 1292q0 -37 -55 -75l-232 -158h-74l209 219q38 40 56.5 52.5t40.5 12.5q24 0 39.5 -14.5t15.5 -36.5z" />
    <glyph glyph-name="ucircumflex" unicode="&#xfb;" horiz-adv-x="999" 
d="M928 0h-211v182q-7 -26 -22.5 -56.5t-44 -67.5t-76.5 -61t-107 -24q-53 0 -96 11.5t-73 35t-52.5 50.5t-36.5 67t-22.5 74.5t-12.5 83.5t-5 83t-1 83v362q0 26 -8.5 43.5t-24.5 24.5t-30 9.5t-33 2.5v39h213v-485q0 -11 -0.5 -46.5t-0.5 -54t1.5 -54t4.5 -57t9.5 -53
t16 -51t24 -42t33 -35t44 -21t56.5 -8.5q244 0 244 497v299q0 72 -96 72v39h217v-827q0 -78 90 -78v-37zM713 1059h-62l-176 186l-174 -186h-61l188 287h94z" />
    <glyph glyph-name="udieresis" unicode="&#xfc;" horiz-adv-x="999" 
d="M928 0h-211v182q-7 -26 -22.5 -56.5t-44 -67.5t-76.5 -61t-107 -24q-53 0 -96 11.5t-73 35t-52.5 50.5t-36.5 67t-22.5 74.5t-12.5 83.5t-5 83t-1 83v362q0 26 -8.5 43.5t-24.5 24.5t-30 9.5t-33 2.5v39h213v-485q0 -11 -0.5 -46.5t-0.5 -54t1.5 -54t4.5 -57t9.5 -53
t16 -51t24 -42t33 -35t44 -21t56.5 -8.5q244 0 244 497v299q0 72 -96 72v39h217v-827q0 -78 90 -78v-37zM711 1198q0 -34 -24 -58t-58 -24t-58 24t-24 58t24 57t58 23t58 -23t24 -57zM430 1198q0 -34 -23 -58t-57 -24t-59 24t-25 58q0 33 25 56.5t59 23.5t57 -23t23 -57z
" />
    <glyph glyph-name="yacute" unicode="&#xfd;" horiz-adv-x="837" 
d="M838 903q-66 0 -90 -76l-406 -1218l-4 -13q-4 -13 -6 -18.5t-8 -20t-11.5 -22.5t-14.5 -21t-20 -20.5t-24.5 -15.5t-30.5 -11.5t-37 -3.5q-76 0 -110.5 36.5t-34.5 78.5q0 30 16.5 53t42.5 23q33 0 47.5 -20t14.5 -48q0 -5 -3 -18.5t-4 -22t6 -16.5t23 -8q20 0 35.5 9.5
t27.5 30.5t18 37.5t16 47.5l114 346l-301 839q-26 72 -94 72v39h303v-39q-82 0 -82 -49q0 -12 6 -27l230 -669l205 673q4 20 4 25q0 47 -84 47v39h256v-39zM680 1292q0 -37 -55 -75l-232 -158h-74l209 219q38 40 56.5 52.5t40.5 12.5q24 0 39.5 -14.5t15.5 -36.5z" />
    <glyph glyph-name="thorn" unicode="&#xfe;" horiz-adv-x="944" 
d="M883 469q0 -138 -41.5 -250.5t-124 -180t-191.5 -67.5q-81 0 -146.5 44.5t-94.5 109.5v-522q0 -80 92 -80v-39h-301v39q41 0 65.5 15.5t24.5 60.5v1839q0 32 -15.5 48.5t-32.5 19.5t-46 3v39h213v-751q27 68 89 118t152 50q88 0 157 -38.5t112 -107t65.5 -157.5
t22.5 -193zM760 469q0 125 -25 221t-80 154.5t-133 58.5q-113 0 -175 -112.5t-62 -319.5q0 -211 62 -323.5t175 -112.5q78 0 133 58.5t80 154.5t25 221z" />
    <glyph glyph-name="ydieresis" unicode="&#xff;" horiz-adv-x="837" 
d="M838 903q-66 0 -90 -76l-406 -1218l-4 -13q-4 -13 -6 -18.5t-8 -20t-11.5 -22.5t-14.5 -21t-20 -20.5t-24.5 -15.5t-30.5 -11.5t-37 -3.5q-76 0 -110.5 36.5t-34.5 78.5q0 30 16.5 53t42.5 23q33 0 47.5 -20t14.5 -48q0 -5 -3 -18.5t-4 -22t6 -16.5t23 -8q20 0 35.5 9.5
t27.5 30.5t18 37.5t16 47.5l114 346l-301 839q-26 72 -94 72v39h303v-39q-82 0 -82 -49q0 -12 6 -27l230 -669l205 673q4 20 4 25q0 47 -84 47v39h256v-39zM657 1198q0 -34 -24 -58t-58 -24t-57.5 24t-23.5 58t23.5 57t57.5 23t58 -23t24 -57zM377 1198q0 -34 -23 -58
t-57 -24t-59 24t-25 58q0 33 25 56.5t59 23.5t57 -23t23 -57z" />
    <glyph glyph-name="dotlessi" unicode="&#x131;" horiz-adv-x="448" 
d="M377 0h-305v37q92 0 92 78v710q0 26 -10 43.5t-26.5 24.5t-28.5 9.5t-25 2.5v37h209v-831q0 -25 9 -41t25 -22.5t29 -8.5t31 -2v-37z" />
    <glyph glyph-name="Lslash" unicode="&#x141;" horiz-adv-x="884" 
d="M864 252q-5 -29 -40.5 -116.5t-55.5 -110.5q-5 -6 -10 -10.5t-11 -7t-9 -4.5t-11 -2.5t-10.5 -0.5h-13h-13.5h-608v37q1 0 9.5 0.5t12 1t13 2t14.5 4l13 6.5t13 10t9.5 14t7 18.5t2.5 23.5v696l-156 -94l3 78l153 92v454q0 84 -94 84v39h342v-39q-21 0 -37 -2t-36 -9.5
t-31 -26t-11 -46.5v-374l183 110v-78l-183 -110v-830h203q55 0 101 14t74.5 31.5t55.5 49t38.5 50.5t29.5 51q4 8 6 11z" />
    <glyph glyph-name="lslash" unicode="&#x142;" horiz-adv-x="450" 
d="M387 954l-104 -61v-782q0 -74 96 -74v-37h-307v37q44 0 68 16t24 62v706l-107 -63v65l107 66v543q0 77 -90 77v39h209v-590l104 62v-66z" />
    <glyph glyph-name="OE" unicode="&#x152;" horiz-adv-x="1630" 
d="M1610 250q-5 -28 -43 -116t-58 -109q-13 -13 -25 -18.5t-19.5 -6t-30.5 -0.5h-549v37q36 0 50.5 18t14.5 60v80q-145 -226 -372 -226q-99 0 -182 39t-142.5 108.5t-100.5 165t-61 209t-20 240.5q0 160 32 296.5t93.5 240.5t159.5 163.5t221 59.5q71 0 128 -16t101.5 -48
t77 -69.5t67.5 -91.5v77q0 28 -6 46t-18 26t-20 10.5t-23 4.5v36h528h4.5h5h5t5.5 -0.5t5.5 -1.5t6 -2.5t5.5 -3.5t5.5 -5t5.5 -6.5t5 -8.5q18 -32 37 -93.5t21 -84.5l-39 -9q-31 69 -53 94q-53 60 -164 60h-187v-496h236q3 12 10 30t32.5 58t55.5 60l43 -37
q-58 -51 -76 -121.5t-2 -144.5l-51 -19q-2 5 -5 13.5t-7.5 37t-3.5 58.5h-232v-781h181q89 0 154.5 36.5t90.5 70.5t55 88q3 7 5 10zM942 733q0 148 -22 272t-65.5 219.5t-114.5 149t-162 53.5q-121 0 -205 -94.5t-122 -247.5t-38 -352t38 -352t122 -247.5t205 -94.5
q91 0 162 53.5t114.5 149t65.5 219.5t22 272z" />
    <glyph glyph-name="oe" unicode="&#x153;" horiz-adv-x="1406" 
d="M1346 287q0 -17 -8 -50t-31 -80t-56 -87.5t-90 -69.5t-127 -29q-55 0 -107.5 17t-108 64t-91.5 120q-44 -94 -121.5 -146.5t-181.5 -52.5q-95 0 -166.5 38.5t-113.5 108t-62.5 157.5t-20.5 194q0 141 39 251t122.5 178.5t201.5 68.5q109 0 187 -56t122 -157
q52 99 132 155t175 56q69 0 124.5 -30t88.5 -75.5t55 -103t30 -108.5t8 -97h-547q-6 -46 -6 -82q0 -77 13 -150t39.5 -139.5t74.5 -106.5t112 -40q59 0 108.5 32t76 76.5t41 83t14.5 60.5h74zM1239 623q-44 282 -199 282q-89 0 -150 -80.5t-81 -201.5h430zM662 471
q0 125 -25.5 221t-81 154.5t-133.5 58.5t-133 -58.5t-80 -154.5t-25 -221t25 -221t80 -154.5t133 -58.5t133.5 58.5t81 154.5t25.5 221z" />
    <glyph glyph-name="Scaron" unicode="&#x160;" horiz-adv-x="911" 
d="M840 342q0 -168 -100.5 -269.5t-272.5 -101.5q-48 0 -93 13t-74.5 26t-41.5 13q-14 0 -20 -23h-50l-116 334l49 12l16 -37q50 -114 148.5 -192t195.5 -78q64 0 112 23t76 63t42 88t14 104q0 54 -20.5 103t-64.5 96t-80 77.5t-101 80.5q-14 11 -21 16q-42 32 -67 51.5
t-64 53.5t-62.5 60t-51.5 63t-43.5 71.5t-26 77.5t-10.5 88q0 160 98 247t238 87q48 0 90 -12.5t68.5 -24.5t35.5 -12q18 0 21 26h43l77 -258l-47 -10l-14 29q-31 63 -88 114q-95 80 -197 80q-100 0 -160.5 -57t-60.5 -174q0 -42 18.5 -85.5t43.5 -77.5t70.5 -77.5t78 -70
t88.5 -70.5q52 -41 76.5 -60.5t66.5 -56.5t62 -60.5t47.5 -60.5t40 -69t22 -73.5t9.5 -86.5zM692 1870l-188 -287h-94l-191 287h62l176 -187l174 187h61z" />
    <glyph glyph-name="scaron" unicode="&#x161;" horiz-adv-x="686" 
d="M625 244q0 -121 -81 -196t-206 -75q-50 0 -100 20.5t-54 20.5q-11 0 -14 -14h-45l-64 223l41 8l27 -55q23 -49 85.5 -97t131.5 -48q82 0 130 52t48 130q0 48 -24 87.5t-63 67.5t-85.5 54t-93 54t-85.5 60t-63 78t-24 103q0 119 70.5 185.5t167.5 66.5q36 0 68 -10.5
t51.5 -20.5t25.5 -10q9 0 12 16h37l57 -201l-43 -8l-14 33q-23 50 -81 94.5t-122 44.5q-61 0 -100 -40t-39 -115q0 -41 25 -76.5t64.5 -63.5t87.5 -55.5t95.5 -58.5t87 -65.5t64.5 -83t25 -105.5zM569 1346l-188 -287h-94l-191 287h62l176 -187l174 187h61z" />
    <glyph glyph-name="Ydieresis" unicode="&#x178;" horiz-adv-x="993" 
d="M983 1430q-24 0 -55 -18t-49 -58l-295 -664v-571q0 -43 28.5 -61.5t69.5 -18.5v-39h-322v39q59 5 79 32q14 19 14 48v569l-334 670q-36 72 -109 72v36h293v-36q-12 0 -22.5 -2t-21 -11.5t-9.5 -25.5q0 -19 10 -39l281 -578l254 578q8 19 8 34q0 23 -20 33.5t-40 10.5v36
h240v-36zM739 1722q0 -34 -24 -58t-58 -24t-58 24t-24 58t24 57t58 23t58 -23t24 -57zM459 1722q0 -34 -23 -58t-57 -24t-59 24t-25 58q0 33 25 56.5t59 23.5t57 -23t23 -57z" />
    <glyph glyph-name="Zcaron" unicode="&#x17d;" horiz-adv-x="870" 
d="M850 252q-5 -30 -40.5 -118t-55.5 -109q-16 -17 -30.5 -21t-45.5 -4h-658v31l642 1372h-310q-52 0 -90 -12.5t-61 -37.5t-35 -45t-26 -53q-3 -8 -5 -12l-45 10q2 24 20.5 87.5t36.5 95.5q15 30 56 30l622 2v-32l-647 -1373h328q29 0 56 4t47.5 9.5t41 17t34 19.5
t29.5 24.5t24 25.5t20.5 28.5t16.5 26.5t15 27.5t13 24.5zM723 1870l-188 -287h-95l-190 287h61l176 -187l175 187h61z" />
    <glyph glyph-name="zcaron" unicode="&#x17e;" horiz-adv-x="804" 
d="M754 207l-60 -207h-643v37l541 846h-197q-62 0 -96 -10.5t-61 -36.5q-42 -40 -70 -111l-51 10l59 207h553v-37l-536 -846h292q136 0 204 131q4 8 10 21l3 6zM680 1346l-188 -287h-95l-190 287h61l176 -187l174 187h62z" />
    <glyph glyph-name="florin" unicode="&#x192;" horiz-adv-x="806" 
d="M868 1339q0 -41 -18 -64.5t-51 -23.5q-28 0 -43 21.5t-15 40.5q0 6 4.5 23t6 31t-2 28.5t-22 23t-51.5 8.5q-37 0 -66.5 -14.5t-50 -37.5t-38 -63t-29 -79t-25.5 -98l-57 -242h274l-6 -68h-281l-264 -1140h-133l262 1140h-221l2 68h233l60 254q38 159 124.5 250.5
t209.5 91.5q92 0 145 -45t53 -105z" />
    <glyph glyph-name="circumflex" unicode="&#x2c6;" 
d="M653 1059h-61l-176 186l-174 -186h-62l189 287h94z" />
    <glyph glyph-name="caron" unicode="&#x2c7;" 
d="M743 1346l-188 -287h-94l-191 287h62l176 -187l174 187h61z" />
    <glyph glyph-name="uni02C9" unicode="&#x2c9;" 
d="M768 1163h-512v72h512v-72z" />
    <glyph glyph-name="breve" unicode="&#x2d8;" 
d="M711 1327q-3 -55 -15 -100t-35.5 -83t-64 -59.5t-94.5 -21.5q-108 0 -154.5 68.5t-48.5 195.5h47q11 -83 47.5 -126.5t108.5 -43.5q73 0 108 41.5t54 128.5h47z" />
    <glyph glyph-name="dotaccent" unicode="&#x2d9;" 
d="M588 1194q0 -38 -28 -66t-66 -28t-66.5 28t-28.5 66t28.5 66t66.5 28t66 -28t28 -66z" />
    <glyph glyph-name="ring" unicode="&#x2da;" 
d="M666 1212q0 -63 -45.5 -108t-108.5 -45t-108.5 45t-45.5 108t45.5 107.5t108.5 44.5t108.5 -44.5t45.5 -107.5zM602 1212q0 38 -26 64.5t-64 26.5t-64 -26.5t-26 -64.5t26 -64t64 -26t64 26t26 64z" />
    <glyph glyph-name="ogonek" unicode="&#x2db;" 
d="M668 -328q-33 -27 -61.5 -38t-69.5 -11q-64 0 -116 35.5t-52 103.5q0 141 176 238h71q-3 -3 -20 -18t-22 -19.5t-20 -19t-20.5 -20.5t-17.5 -20t-16.5 -23t-12.5 -23t-11.5 -25.5t-6 -26t-2.5 -28.5q0 -39 22.5 -63.5t55.5 -24.5q24 0 40 5t24.5 11.5t29.5 24.5z" />
    <glyph glyph-name="tilde" unicode="&#x2dc;" 
d="M680 1288q0 -73 -35.5 -127.5t-112.5 -54.5q-35 0 -72 16t-62.5 36t-52.5 36t-46 16q-38 0 -57 -29.5t-19 -68.5h-59q0 36 6.5 66.5t21.5 59t44 44.5t69 16t84 -26t84 -52t68 -26q77 0 77 94h62z" />
    <glyph glyph-name="hungarumlaut" unicode="&#x2dd;" 
d="M817 1292q0 -37 -55 -75l-232 -158h-73l209 219q39 40 56.5 52.5t39.5 12.5q24 0 39.5 -14.5t15.5 -36.5zM563 1292q0 -37 -55 -75l-232 -158h-73l209 219q39 40 56.5 52.5t39.5 12.5q24 0 39.5 -14.5t15.5 -36.5z" />
    <glyph glyph-name="uni03A9" unicode="&#x3a9;" horiz-adv-x="1417" 
d="M1327 0h-475v215q109 49 185.5 149.5t109.5 211t33 223.5q0 171 -50 303t-157 212.5t-260 80.5q-118 0 -210 -46t-148.5 -127.5t-85.5 -189t-29 -235.5q0 -122 38.5 -240.5t118 -215t185.5 -132.5v-209h-492v250h41q0 -79 21.5 -112.5t97.5 -33.5h264v62
q-171 64 -288 236.5t-117 388.5q0 160 46 287.5t128 210t192 126t240 43.5q134 0 247 -51.5t188.5 -140t118 -206t42.5 -249.5q0 -87 -23 -178.5t-68.5 -180t-123 -163.5t-176.5 -117v-68h247q77 0 98 33.5t21 112.5h41v-250z" />
    <glyph glyph-name="uni03BC" unicode="&#x3bc;" horiz-adv-x="980" 
d="M909 0h-211l2 182q-8 -27 -23.5 -57t-44 -67t-76.5 -61t-107 -24q-124 0 -183 82v-344h-119v1120q0 74 -96 74v39h215v-625q0 -284 189 -284q89 0 147 72t80 198q11 67 15 199t3 231l-2 99q1 24 -7.5 39.5t-25 21.5t-30 8t-33.5 2v39h215v-829q0 -17 4 -30t11.5 -21
t15 -13.5t18 -8t17 -3.5t16 -1.5t10.5 -0.5v-37z" />
    <glyph glyph-name="pi" unicode="&#x3c0;" horiz-adv-x="966" 
d="M907 170q-18 -87 -56.5 -141t-92.5 -54q-66 0 -103 62t-37 254v586h-243v-435q0 -293 -64 -393q-51 -74 -125 -74q-23 0 -40 16.5t-17 37.5q0 52 68 69q69 16 90.5 109t21.5 276v394h-59q-119 0 -144 -140l-40 8q3 115 55 178.5t153 63.5h613v-110h-203v-539
q0 -143 27 -205q20 -55 65 -55q58 0 103 115z" />
    <glyph glyph-name="endash" unicode="&#x2013;" horiz-adv-x="1116" 
d="M1044 518h-972v74h972v-74z" />
    <glyph glyph-name="emdash" unicode="&#x2014;" horiz-adv-x="1439" 
d="M1368 518h-1296v74h1296v-74z" />
    <glyph glyph-name="quoteleft" unicode="&#x2018;" horiz-adv-x="342" 
d="M270 1206q0 -40 -29.5 -65t-68.5 -25q-50 0 -75 39t-25 98q0 104 73 203q26 38 59 64t52 32l10 -45q-42 -22 -76 -81.5t-38 -125.5q15 5 30 5q36 0 62 -30.5t26 -68.5z" />
    <glyph glyph-name="quoteright" unicode="&#x2019;" horiz-adv-x="342" 
d="M270 1415q0 -101 -71 -203q-27 -38 -61 -64t-52 -32l-10 45q42 22 76 81.5t38 125.5q-12 -4 -30 -4q-36 0 -62 30t-26 68q0 40 29.5 65t68.5 25q51 0 75.5 -39t24.5 -98z" />
    <glyph glyph-name="quotesinglbase" unicode="&#x201a;" horiz-adv-x="342" 
d="M270 43q0 -101 -71 -203q-27 -38 -61 -64t-52 -32l-10 45q42 22 76 81.5t38 125.5q-12 -4 -30 -4q-36 0 -62 30t-26 68q0 40 29.5 65t68.5 25q51 0 75.5 -39t24.5 -98z" />
    <glyph glyph-name="quotedblleft" unicode="&#x201c;" horiz-adv-x="612" 
d="M541 1206q0 -40 -30 -65t-69 -25q-51 0 -75.5 39t-24.5 98q0 100 72 203q27 38 60.5 64t51.5 32l11 -45q-43 -22 -77 -81.5t-38 -125.5q15 5 31 5q36 0 62 -30.5t26 -68.5zM270 1206q0 -40 -29.5 -65t-68.5 -25q-51 0 -75.5 39t-24.5 98q0 101 71 203q27 38 61 64t52 32
l10 -45q-42 -22 -76 -81.5t-38 -125.5q15 5 30 5q36 0 62 -30.5t26 -68.5z" />
    <glyph glyph-name="quotedblright" unicode="&#x201d;" horiz-adv-x="612" 
d="M541 1415q0 -100 -72 -203q-27 -38 -61 -64t-52 -32l-10 45q43 22 77 81.5t38 125.5q-8 -4 -31 -4q-36 0 -62 30t-26 68q0 40 29.5 65t68.5 25q51 0 76 -39t25 -98zM270 1415q0 -101 -71 -203q-27 -38 -61 -64t-52 -32l-10 45q42 22 76 81.5t38 125.5q-8 -4 -30 -4
q-36 0 -62 30t-26 68q0 40 29.5 65t68.5 25q51 0 75.5 -39t24.5 -98z" />
    <glyph glyph-name="quotedblbase" unicode="&#x201e;" horiz-adv-x="612" 
d="M541 41q0 -100 -72 -203q-27 -38 -61 -64t-52 -32l-10 45q43 22 77 81.5t38 125.5q-12 -4 -31 -4q-36 0 -62 30t-26 68q0 40 29.5 65t68.5 25q51 0 76 -39t25 -98zM270 41q0 -101 -71 -203q-27 -38 -61 -64t-52 -32l-10 45q42 22 76 81.5t38 125.5q-12 -4 -30 -4
q-36 0 -62 30t-26 68q0 40 29.5 65t68.5 25q51 0 75.5 -39t24.5 -98z" />
    <glyph glyph-name="dagger" unicode="&#x2020;" horiz-adv-x="759" 
d="M678 909l-242 -6l-6 -903h-102l-6 903l-240 6v76l240 8l6 473h102l6 -473l242 -8v-76z" />
    <glyph glyph-name="daggerdbl" unicode="&#x2021;" horiz-adv-x="759" 
d="M676 485l-244 -6l-6 -479h-102l-9 479l-233 6v76l233 8v430l-233 7v75l233 9l9 378h102l6 -378l244 -9v-75l-244 -7v-430l244 -8v-76z" />
    <glyph glyph-name="bullet" unicode="&#x2022;" horiz-adv-x="405" 
d="M356 854q0 -64 -45 -109t-108 -45t-108.5 45t-45.5 109q0 63 45.5 107.5t108.5 44.5t108 -44.5t45 -107.5z" />
    <glyph glyph-name="ellipsis" unicode="&#x2026;" horiz-adv-x="995" 
d="M924 86q0 -38 -28.5 -66t-66.5 -28t-66 28t-28 66t28 66t66 28t66.5 -28t28.5 -66zM592 86q0 -38 -28 -66t-66 -28t-66.5 28t-28.5 66t28.5 66t66.5 28t66 -28t28 -66zM260 86q0 -38 -28 -66t-66 -28t-66 28t-28 66t28 66t66 28t66 -28t28 -66z" />
    <glyph glyph-name="perthousand" unicode="&#x2030;" horiz-adv-x="1908" 
d="M1837 319q0 -150 -70 -249t-190 -99t-190 99t-70 249t70 249.5t190 99.5t190 -99.5t70 -249.5zM592 1141q0 -150 -69.5 -250t-188.5 -100q-120 0 -191 100.5t-71 249.5t71 248.5t191 99.5q119 0 188.5 -99t69.5 -249zM985 1466l-612 -1466h-86l614 1466h84zM1202 319
q0 -150 -70 -249t-190 -99t-190 99t-70 249t70 249.5t190 99.5t190 -99.5t70 -249.5zM1731 319q0 130 -42 212.5t-112 82.5t-113 -82.5t-43 -212.5t43 -211t113 -81t112 81t42 211zM485 1141q0 131 -41.5 213t-111.5 82t-113 -82.5t-43 -212.5t43 -212.5t113 -82.5t111.5 82
t41.5 213zM1096 319q0 130 -42 212.5t-112 82.5t-113 -82.5t-43 -212.5t43 -211t113 -81t112 81t42 211z" />
    <glyph glyph-name="guilsinglleft" unicode="&#x2039;" horiz-adv-x="514" 
d="M442 158l-41 -47l-329 372l329 381l41 -47l-241 -332z" />
    <glyph glyph-name="guilsinglright" unicode="&#x203a;" horiz-adv-x="514" 
d="M442 483l-329 -372l-41 47l241 327l-241 332l41 47z" />
    <glyph glyph-name="fraction" unicode="&#x2044;" horiz-adv-x="710" 
d="M762 1468l-617 -1468h-86l615 1468h88z" />
    <glyph glyph-name="Euro" unicode="&#x20ac;" horiz-adv-x="1144" 
d="M1073 457q-1 -12 -5 -38t-17 -73t-32 -95t-52 -100t-74.5 -91.5t-102.5 -65t-133 -25.5q-146 0 -261 90.5t-176.5 246t-61.5 347.5h-86v68h80v45q0 12 4 74h-84v67h92q15 123 53.5 228t99 185t147.5 125.5t191 45.5q48 0 93 -11.5t73 -22.5t35 -11q9 0 13 4.5t5 19.5h48
l94 -284l-45 -10q-27 53 -56 93.5t-67.5 78.5t-87.5 58.5t-105 20.5q-75 0 -137 -41t-105 -112.5t-71 -164.5t-39 -202h442v-67h-448q-2 -31 -2 -72v-47h446v-68h-442q0 -167 44 -306.5t126.5 -223.5t187.5 -84q72 0 133 39.5t97.5 94.5t63 117.5t36.5 105.5t10 61h76z" />
    <glyph glyph-name="litre" unicode="&#x2113;" horiz-adv-x="825" 
d="M768 197q-103 -222 -279 -222q-101 0 -163 62q-72 72 -72 225v207q-15 -18 -135 -145l-43 47q129 135 176 196v502q0 180 65 284.5t168 104.5q87 0 129.5 -59t42.5 -146q0 -101 -45 -226.5t-114 -240.5q-98 -153 -121 -178v-356q0 -97 39 -150t96 -53q114 0 199 178z
M594 1253h-2q0 140 -103 140q-51 0 -81.5 -64.5t-30.5 -198.5v-409q31 43 74 119q143 238 143 413z" />
    <glyph glyph-name="trademark" unicode="&#x2122;" horiz-adv-x="1613" 
d="M1532 469h-236v45q2 0 9.5 0.5t10 1t9 1t9.5 2t7.5 3.5t7 5t5 6.5t3.5 9t1 12.5q-2 5 0 678l-252 -778h-62l-260 757v-659q0 -12 3 -20t10 -11.5t12.5 -4.5t17.5 -1.5t17 -1.5v-45h-187v45q38 2 46 11q10 9 10 30v913h98l285 -817l262 817h108v-913q0 -12 3.5 -20t12 -12
t14.5 -5.5t18.5 -2t17.5 -1.5v-45zM594 1305l-41 -11q-12 25 -16.5 34.5t-17.5 29t-24 27t-29.5 15t-41.5 7.5h-35v-848q0 -13 3 -21.5t13 -13t14 -6t20 -3t18 -1.5v-43h-236v43q18 2 27 3.5t21 12.5t12 31v846h-31q-15 0 -28.5 -3t-22.5 -6t-18.5 -11.5t-14.5 -13.5
t-12 -17.5t-9.5 -18.5t-10 -22t-9.5 -21l-43 11q2 21 15 68.5t26 70.5q12 24 43 24h344q31 0 45 -24q13 -24 26 -71.5t13 -67.5z" />
    <glyph glyph-name="Omega" unicode="&#x2126;" horiz-adv-x="1417" 
d="M1327 0h-475v215q109 49 185.5 149.5t109.5 211t33 223.5q0 171 -50 303t-157 212.5t-260 80.5q-118 0 -210 -46t-148.5 -127.5t-85.5 -189t-29 -235.5q0 -122 38.5 -240.5t118 -215t185.5 -132.5v-209h-492v250h41q0 -79 21.5 -112.5t97.5 -33.5h264v62
q-171 64 -288 236.5t-117 388.5q0 160 46 287.5t128 210t192 126t240 43.5q134 0 247 -51.5t188.5 -140t118 -206t42.5 -249.5q0 -87 -23 -178.5t-68.5 -180t-123 -163.5t-176.5 -117v-68h247q77 0 98 33.5t21 112.5h41v-250z" />
    <glyph glyph-name="estimated" unicode="&#x212e;" horiz-adv-x="1323" 
d="M1251 594h-917v-428q133 -133 325 -133q292 0 457 278l58 -32q-66 -99 -133 -162t-164 -102.5t-218 -39.5q-172 0 -305.5 84t-203.5 224t-70 311q0 173 69 313t203 223.5t310 83.5q135 0 245.5 -48.5t184 -133t114.5 -196.5t45 -242zM989 653v369q-138 135 -330 135
t-325 -133v-371h655z" />
    <glyph glyph-name="partialdiff" unicode="&#x2202;" horiz-adv-x="995" 
d="M934 956q0 -127 -27 -280.5t-76 -278.5q-28 -70 -56.5 -126t-69 -114.5t-84 -97t-101 -63.5t-121.5 -25q-106 0 -183 61t-112.5 153t-35.5 200q0 155 55.5 284t162 207t244.5 78q118 0 200 -59.5t112 -132.5h4q8 96 8 172q0 63 -9 121.5t-30.5 116t-54 100t-84.5 68.5
t-117 26q-101 0 -176.5 -42.5t-142.5 -121.5l-35 35q35 45 66 78t80.5 72t111 60t131.5 21q90 0 156.5 -37.5t106 -107t58.5 -161t19 -206.5zM829 659q-12 38 -33.5 75t-55 73t-84 58t-109.5 22q-146 0 -251.5 -147.5t-105.5 -372.5q0 -156 68 -242t170 -86q76 0 144 57
t117 151t84 197.5t56 214.5z" />
    <glyph glyph-name="Delta" unicode="&#x2206;" horiz-adv-x="1189" 
d="M1157 0h-1122l536 1458h70zM999 76l-421 1167l-443 -1167h864z" />
    <glyph glyph-name="product" unicode="&#x220f;" horiz-adv-x="1351" 
d="M1272 -268h-426v43h39q71 0 91.5 36t20.5 111l2 1446h-649v-1446q0 -74 21.5 -110.5t91.5 -36.5h37v-43h-422v43h37q71 0 91.5 36t20.5 111v1321q0 31 -1.5 49.5t-7.5 40t-17.5 32.5t-32.5 18.5t-51 7.5h-39v43h1194v-43h-35q-73 0 -94 -35.5t-21 -112.5v-1321
q0 -75 21.5 -111t91.5 -36h37v-43z" />
    <glyph glyph-name="summation" unicode="&#x2211;" horiz-adv-x="1103" 
d="M1061 4l-27 -272h-1022l-4 49l543 811l-524 797v45h972l19 -248h-39q-8 101 -39 140.5t-123 39.5h-637l482 -723l-535 -799h715q52 0 83 7t51 28.5t29 50.5t17 82z" />
    <glyph glyph-name="minus" unicode="&#x2212;" horiz-adv-x="1034" 
d="M944 430h-854v94h854v-94z" />
    <glyph glyph-name="uni2215" unicode="&#x2215;" horiz-adv-x="710" 
d="M762 1468l-617 -1468h-86l615 1468h88z" />
    <glyph glyph-name="uni2219" unicode="&#x2219;" horiz-adv-x="337" 
d="M264 477q0 -38 -28 -66t-66 -28q-40 0 -68 28t-28 66t28 66t66 28q40 0 68 -28t28 -66z" />
    <glyph glyph-name="radical" unicode="&#x221a;" horiz-adv-x="905" 
d="M631 1491l-164 -1516h-90l-217 709l-111 -72l-33 54l205 131l199 -654h4l145 1348h62z" />
    <glyph glyph-name="infinity" unicode="&#x221e;" horiz-adv-x="1452" 
d="M1053 272q-115 0 -189 61t-129 167h-4q-28 -48 -56 -83.5t-67 -71t-89 -54.5t-107 -19q-124 0 -205.5 85t-81.5 216q0 136 78 221t203 85q199 0 309 -220h2q30 50 58.5 85.5t68 68.5t90.5 49.5t113 16.5q118 0 198 -83t80 -216t-79 -220.5t-193 -87.5zM1055 805h2
q-51 0 -90.5 -14.5t-72.5 -48.5t-55.5 -66.5t-57.5 -90.5q-9 -15 -13 -22q51 -105 118.5 -161t164.5 -56q100 0 154.5 69t54.5 158q0 101 -52 166.5t-153 65.5zM410 805q-99 0 -159.5 -62.5t-60.5 -164.5q0 -105 57.5 -168.5t153.5 -63.5q40 0 78.5 18.5t66 43.5t55.5 64
t43.5 65.5t33.5 62.5q-17 38 -40 71.5t-55.5 65t-77.5 50t-95 18.5z" />
    <glyph glyph-name="integral" unicode="&#x222b;" horiz-adv-x="518" 
d="M481 1442q0 -21 -10.5 -37t-30.5 -16q-4 0 -8 0.5t-6.5 0.5t-6 1.5t-5 2t-5.5 3t-5 3t-6.5 4.5t-6.5 5q-4 2 -12 8.5t-12.5 9t-12.5 5t-18 2.5q-49 0 -49 -97q-2 -29 0 -67t7 -106t7 -134q12 -242 12 -516q0 -279 -8 -446q-8 -255 -35 -351q-19 -74 -49.5 -111.5
t-89.5 -37.5q-41 0 -73.5 24t-32.5 62q0 27 13.5 42t37.5 15q20 0 43 -26q19 -19 45 -19q13 0 22.5 7t19.5 44.5t13 106.5q1 44 0 65.5t-5 83t-5 84.5q-12 262 -12 453q0 199 6 430q9 350 24 444q13 74 49 111t89 37q48 0 82 -27.5t34 -62.5z" />
    <glyph glyph-name="approxequal" unicode="&#x2248;" horiz-adv-x="1034" 
d="M965 858q-28 -95 -90.5 -153t-157.5 -58t-238 82q-90 53 -164 53q-70 0 -108.5 -34t-73.5 -107l-63 29q61 213 252 213q97 0 219 -74q105 -61 184 -61q60 0 101 35t73 106zM965 473q-28 -95 -90.5 -153t-157.5 -58q-98 0 -238 80q-84 53 -164 53q-70 0 -109 -34t-73 -107
l-63 31q60 211 252 211q94 0 219 -72q102 -62 184 -62q60 0 100.5 35.5t73.5 106.5z" />
    <glyph glyph-name="notequal" unicode="&#x2260;" horiz-adv-x="1034" 
d="M948 332h-502l-141 -318h-96l143 318h-266v92h307l135 295h-442v92h485l150 332h94l-149 -332h282v-92h-323l-136 -295h459v-92z" />
    <glyph glyph-name="lessequal" unicode="&#x2264;" horiz-adv-x="1034" 
d="M948 0h-862v92h862v-92zM948 205l-862 403v76l862 406v-103l-737 -340l737 -340v-102z" />
    <glyph glyph-name="greaterequal" unicode="&#x2265;" horiz-adv-x="1034" 
d="M948 0h-862v92h862v-92zM948 608l-862 -403v102l737 338l-737 340v105l862 -406v-76z" />
    <glyph glyph-name="lozenge" unicode="&#x25ca;" horiz-adv-x="849" 
d="M807 715l-340 -740h-92l-330 740l330 743h94zM723 715l-301 655l-293 -655l293 -654z" />
    <glyph glyph-name="A.sc" unicode="&#xe000;" horiz-adv-x="806" 
d="M827 0h-282v37q67 0 67 39q0 11 -3 24.5t-9 35t-8 28.5q-31 113 -82 295h-272l-82 -301q-2 -9 -7 -25t-8.5 -29t-3.5 -22q0 -45 68 -45v-37h-225v37q1 0 12.5 0.5t20 2.5t20 7t20 17t13.5 30l299 1102h75l303 -1102q5 -18 13.5 -30t19.5 -17t19.5 -7t19.5 -2.5t12 -0.5
v-37zM498 518l-123 492l-127 -492h250z" />
    <glyph glyph-name="AE.sc" unicode="&#xe001;" horiz-adv-x="1146" 
d="M1106 205q-6 -27 -34.5 -98.5t-45.5 -88.5q-6 -7 -10.5 -11t-11 -5.5t-9.5 -2t-13.5 0t-14.5 0.5h-482v37q82 0 82 61v568h-166l-247 -564q-27 -62 61 -65v-37h-235v37q40 4 61 19q25 20 43 61q3 6 107 238t214.5 479.5t131.5 295.5q-23 13 -45 13v31h458q29 0 43 -25
q13 -25 28 -77.5t17 -70.5l-39 -8q-27 59 -45 79q-43 46 -129 46h-147v-391h188q3 9 8.5 23.5t26.5 46t45 47.5l33 -29q-47 -41 -62 -97.5t-2 -115.5l-41 -14q-12 33 -12 80h-184v-611h143q71 0 123 28.5t72.5 55.5t43.5 70q3 7 5 10zM567 729v326l-145 -326h145z" />
    <glyph glyph-name="Aacute.sc" unicode="&#xe002;" horiz-adv-x="806" 
d="M604 1520q0 -38 -55 -76l-232 -158h-73l209 219q39 41 56.5 53.5t39.5 12.5q24 0 39.5 -14.5t15.5 -36.5zM827 0h-282v37q67 0 67 39q0 11 -3 24.5t-9 35t-8 28.5q-31 113 -82 295h-272l-82 -301q-2 -9 -7 -25t-8.5 -29t-3.5 -22q0 -45 68 -45v-37h-225v37q1 0 12.5 0.5
t20 2.5t20 7t20 17t13.5 30l299 1102h75l303 -1102q5 -18 13.5 -30t19.5 -17t19.5 -7t19.5 -2.5t12 -0.5v-37zM498 518l-123 492l-127 -492h250z" />
    <glyph glyph-name="Acircumflex.sc" unicode="&#xe003;" horiz-adv-x="806" 
d="M639 1286h-61l-177 187l-174 -187h-61l188 287h95zM827 0h-282v37q67 0 67 39q0 11 -3 24.5t-9 35t-8 28.5q-31 113 -82 295h-272l-82 -301q-2 -9 -7 -25t-8.5 -29t-3.5 -22q0 -45 68 -45v-37h-225v37q1 0 12.5 0.5t20 2.5t20 7t20 17t13.5 30l299 1102h75l303 -1102
q5 -18 13.5 -30t19.5 -17t19.5 -7t19.5 -2.5t12 -0.5v-37zM498 518l-123 492l-127 -492h250z" />
    <glyph glyph-name="Adieresis.sc" unicode="&#xe004;" horiz-adv-x="806" 
d="M625 1425q0 -34 -24 -58t-58 -24t-58 24t-24 58t24 57t58 23t58 -23t24 -57zM344 1425q0 -34 -23 -58t-57 -24t-59 24t-25 58q0 33 25 56.5t59 23.5t57 -23t23 -57zM827 0h-282v37q67 0 67 39q0 11 -3 24.5t-9 35t-8 28.5q-31 113 -82 295h-272l-82 -301q-2 -9 -7 -25
t-8.5 -29t-3.5 -22q0 -45 68 -45v-37h-225v37q1 0 12.5 0.5t20 2.5t20 7t20 17t13.5 30l299 1102h75l303 -1102q5 -18 13.5 -30t19.5 -17t19.5 -7t19.5 -2.5t12 -0.5v-37zM498 518l-123 492l-127 -492h250z" />
    <glyph glyph-name="Agrave.sc" unicode="&#xe005;" horiz-adv-x="806" 
d="M563 1286h-74l-231 158q-55 38 -55 76q0 22 15.5 36.5t39.5 14.5q22 0 39.5 -12.5t56.5 -53.5zM827 0h-282v37q67 0 67 39q0 11 -3 24.5t-9 35t-8 28.5q-31 113 -82 295h-272l-82 -301q-2 -9 -7 -25t-8.5 -29t-3.5 -22q0 -45 68 -45v-37h-225v37q1 0 12.5 0.5t20 2.5
t20 7t20 17t13.5 30l299 1102h75l303 -1102q5 -18 13.5 -30t19.5 -17t19.5 -7t19.5 -2.5t12 -0.5v-37zM498 518l-123 492l-127 -492h250z" />
    <glyph glyph-name="Aring.sc" unicode="&#xe006;" horiz-adv-x="806" 
d="M547 1440q0 -63 -45.5 -108.5t-108.5 -45.5t-108 45.5t-45 108.5t45 107t108 44t108.5 -44t45.5 -107zM483 1440q0 38 -26 64t-64 26t-64 -26t-26 -64t26 -64t64 -26t64 26t26 64zM827 0h-282v37q67 0 67 39q0 11 -3 24.5t-9 35t-8 28.5q-31 113 -82 295h-272l-82 -301
q-2 -9 -7 -25t-8.5 -29t-3.5 -22q0 -45 68 -45v-37h-225v37q1 0 12.5 0.5t20 2.5t20 7t20 17t13.5 30l299 1102h75l303 -1102q5 -18 13.5 -30t19.5 -17t19.5 -7t19.5 -2.5t12 -0.5v-37zM498 518l-123 492l-127 -492h250z" />
    <glyph glyph-name="Atilde.sc" unicode="&#xe007;" horiz-adv-x="806" 
d="M662 1516q0 -73 -35.5 -128t-112.5 -55q-45 0 -91 26.5t-83 52.5t-59 26q-38 0 -57 -30t-19 -69h-60q0 36 6.5 67t21.5 59t44.5 44.5t69.5 16.5q32 0 66.5 -16.5t60 -36t55.5 -36t53 -16.5q78 0 78 95h62zM827 0h-282v37q67 0 67 39q0 11 -3 24.5t-9 35t-8 28.5
q-31 113 -82 295h-272l-82 -301q-2 -9 -7 -25t-8.5 -29t-3.5 -22q0 -45 68 -45v-37h-225v37q1 0 12.5 0.5t20 2.5t20 7t20 17t13.5 30l299 1102h75l303 -1102q5 -18 13.5 -30t19.5 -17t19.5 -7t19.5 -2.5t12 -0.5v-37zM498 518l-123 492l-127 -492h250z" />
    <glyph glyph-name="B.sc" unicode="&#xe008;" horiz-adv-x="825" 
d="M764 334q0 -154 -97.5 -244t-316.5 -90h-278v37q82 0 82 65v973q0 16 -5.5 27.5t-12.5 17.5t-18 10t-18.5 5t-17 1.5t-10.5 0.5v37h241q58 0 107 -7t97.5 -25t82 -46.5t54 -75t20.5 -107.5q0 -56 -20 -101t-44 -69t-58 -42t-48 -22t-29 -7q22 -4 52 -14.5t73.5 -36.5
t78.5 -61.5t60 -95t25 -130.5zM637 344q0 70 -22.5 125t-50 84t-68 50t-59.5 26.5t-42 9.5v47q7 0 21 3.5t38.5 16.5t45 34t36 62.5t15.5 94.5q0 45 -9 79.5t-21.5 56.5t-35.5 38t-40 23t-47 11t-44.5 4.5t-44.5 0.5h-37v-1049l74 -2q152 -4 221.5 65.5t69.5 219.5z" />
    <glyph glyph-name="C.sc" unicode="&#xe009;" horiz-adv-x="874" 
d="M813 365q0 -9 -3 -30t-12.5 -58.5t-24 -76t-41.5 -79t-61 -72t-85.5 -52t-112.5 -20.5q-104 0 -184 47.5t-129 131.5t-74 192.5t-25 237.5t24.5 237.5t73.5 192t128.5 131t181.5 47.5q34 0 66 -7t50 -14.5t33 -13t21.5 -2t7.5 18.5h43l76 -226l-45 -12q-99 197 -252 197
q-71 0 -125.5 -41.5t-88 -116.5t-50.5 -173t-17 -216t17.5 -216.5t52 -173.5t89.5 -117t126 -42q58 0 106.5 30.5t77.5 73.5t49.5 91.5t28.5 82.5t8 48h70z" />
    <glyph glyph-name="Ccedilla.sc" unicode="&#xe00a;" horiz-adv-x="874" 
d="M612 -211q0 -82 -50.5 -121t-125.5 -39q-12 0 -22.5 1t-20.5 3.5t-17.5 4t-16.5 6t-14 6.5t-13 7.5t-10.5 7t-10 7t-8.5 6.5l33 66q3 -2 9.5 -9t9 -8.5t8 -6.5t8.5 -6.5t8.5 -5t9.5 -4.5l10 -2.5t12.5 -2t14.5 -0.5q38 0 64 18.5t26 53.5q0 28 -19 45.5t-46 17.5
q-22 0 -45 -20l-41 16l22 158q-109 23 -184 109.5t-108.5 210t-33.5 278.5q0 129 24.5 237.5t73.5 192t128.5 131t181.5 47.5q34 0 66 -7t50 -14.5t33 -13t21.5 -2t7.5 18.5h43l76 -226l-45 -12q-99 197 -252 197q-71 0 -125.5 -41.5t-88 -116.5t-50.5 -173t-17 -216
t17.5 -216.5t52 -173.5t89.5 -117t126 -42q58 0 106.5 30.5t77.5 73.5t49.5 91.5t28.5 82.5t8 48h70q0 -9 -3 -30t-12.5 -58.5t-24 -76t-41.5 -79t-61 -72t-85.5 -52t-112.5 -20.5h-27l-12 -75q36 8 58 8q51 0 85.5 -35t34.5 -86z" />
    <glyph glyph-name="D.sc" unicode="&#xe00b;" horiz-adv-x="860" 
d="M799 590q0 -110 -16.5 -200t-43.5 -150t-67 -105t-79.5 -70.5t-88.5 -40.5t-88.5 -19.5t-83.5 -4.5h-258v39q78 0 78 65v967q0 14 -3.5 24.5t-10 17t-13.5 11.5t-16 7t-15 3.5t-13.5 2t-8.5 0.5v37h223q44 0 85 -4.5t93.5 -19.5t96 -40t87.5 -69.5t74 -104t49 -148.5
t19 -198zM670 586q0 103 -15.5 187t-39.5 138t-59 94t-67 60.5t-70.5 33t-63 15t-50.5 2.5h-41v-1057h60q23 0 38 0.5t44.5 5.5t51 14t51 27.5t50 44t43 66t36.5 91.5t23 122t9 156z" />
    <glyph glyph-name="Eth.sc" unicode="&#xe00c;" horiz-adv-x="860" 
d="M799 590q0 -110 -16.5 -200t-43.5 -150t-67 -105t-79.5 -70.5t-88.5 -40.5t-88.5 -19.5t-83.5 -4.5h-258v39q78 0 78 65v570h-80v59h80v338q0 14 -3.5 24.5t-10 17t-13.5 11.5t-16 7t-15 3.5t-13.5 2t-8.5 0.5v37h223q44 0 85 -4.5t93.5 -19.5t96 -40t87.5 -69.5t74 -104
t49 -148.5t19 -198zM670 586q0 103 -15.5 187t-39.5 138t-59 94t-67 60.5t-70.5 33t-63 15t-50.5 2.5h-41v-383h225v-59h-225v-615h60q23 0 38 0.5t44.5 5.5t51 14t51 27.5t50 44t43 66t36.5 91.5t23 122t9 156z" />
    <glyph glyph-name="E.sc" unicode="&#xe00d;" horiz-adv-x="733" 
d="M692 205q-6 -28 -33.5 -98t-44.5 -87q-4 -5 -7.5 -8.5t-8.5 -5.5t-7 -3.5t-8.5 -2t-8 -0.5h-10.5h-11h-479v37q80 0 80 61v969q0 11 -2 20t-6.5 15.5t-9.5 11.5t-12 8.5l-12 6t-12.5 4t-11.5 2.5t-10 1l-6 1v37h465q31 0 45 -25q13 -24 27 -76.5t16 -71.5l-39 -8
q-2 4 -5 11q-12 27 -20.5 41.5t-27 34.5t-48.5 29t-71 9h-142v-389h181q3 9 8.5 23.5t26 46t44.5 47.5l33 -31q-90 -78 -61 -211l-41 -16q-14 33 -14 80h-177v-611h138q70 0 121.5 28.5t69 52.5t43.5 71q2 2 2.5 4t2 4t2.5 4z" />
    <glyph glyph-name="Eacute.sc" unicode="&#xe00e;" horiz-adv-x="733" 
d="M516 1520q0 -38 -55 -76l-232 -158h-73l209 219q39 41 56.5 53.5t39.5 12.5q24 0 39.5 -14.5t15.5 -36.5zM692 205q-6 -28 -33.5 -98t-44.5 -87q-4 -5 -7.5 -8.5t-8.5 -5.5t-7 -3.5t-8.5 -2t-8 -0.5h-10.5h-11h-479v37q80 0 80 61v969q0 11 -2 20t-6.5 15.5t-9.5 11.5
t-12 8.5l-12 6t-12.5 4t-11.5 2.5t-10 1l-6 1v37h465q31 0 45 -25q13 -24 27 -76.5t16 -71.5l-39 -8q-2 4 -5 11q-12 27 -20.5 41.5t-27 34.5t-48.5 29t-71 9h-142v-389h181q3 9 8.5 23.5t26 46t44.5 47.5l33 -31q-90 -78 -61 -211l-41 -16q-14 33 -14 80h-177v-611h138
q70 0 121.5 28.5t69 52.5t43.5 71q2 2 2.5 4t2 4t2.5 4z" />
    <glyph glyph-name="Ecircumflex.sc" unicode="&#xe00f;" horiz-adv-x="733" 
d="M571 1286h-61l-176 187l-174 -187h-62l189 287h94zM692 205q-6 -28 -33.5 -98t-44.5 -87q-4 -5 -7.5 -8.5t-8.5 -5.5t-7 -3.5t-8.5 -2t-8 -0.5h-10.5h-11h-479v37q80 0 80 61v969q0 11 -2 20t-6.5 15.5t-9.5 11.5t-12 8.5l-12 6t-12.5 4t-11.5 2.5t-10 1l-6 1v37h465
q31 0 45 -25q13 -24 27 -76.5t16 -71.5l-39 -8q-2 4 -5 11q-12 27 -20.5 41.5t-27 34.5t-48.5 29t-71 9h-142v-389h181q3 9 8.5 23.5t26 46t44.5 47.5l33 -31q-90 -78 -61 -211l-41 -16q-14 33 -14 80h-177v-611h138q70 0 121.5 28.5t69 52.5t43.5 71q2 2 2.5 4t2 4t2.5 4z
" />
    <glyph glyph-name="Edieresis.sc" unicode="&#xe010;" horiz-adv-x="733" 
d="M557 1425q0 -34 -24 -58t-58 -24t-58 24t-24 58t24 57t58 23t58 -23t24 -57zM276 1425q0 -34 -23 -58t-56 -24q-34 0 -59 24t-25 58q0 33 25 56.5t59 23.5t56.5 -23t22.5 -57zM692 205q-6 -28 -33.5 -98t-44.5 -87q-4 -5 -7.5 -8.5t-8.5 -5.5t-7 -3.5t-8.5 -2t-8 -0.5
h-10.5h-11h-479v37q80 0 80 61v969q0 11 -2 20t-6.5 15.5t-9.5 11.5t-12 8.5l-12 6t-12.5 4t-11.5 2.5t-10 1l-6 1v37h465q31 0 45 -25q13 -24 27 -76.5t16 -71.5l-39 -8q-2 4 -5 11q-12 27 -20.5 41.5t-27 34.5t-48.5 29t-71 9h-142v-389h181q3 9 8.5 23.5t26 46t44.5 47.5
l33 -31q-90 -78 -61 -211l-41 -16q-14 33 -14 80h-177v-611h138q70 0 121.5 28.5t69 52.5t43.5 71q2 2 2.5 4t2 4t2.5 4z" />
    <glyph glyph-name="Egrave.sc" unicode="&#xe011;" horiz-adv-x="733" 
d="M496 1286h-74l-232 158q-55 38 -55 76q0 22 15.5 36.5t39.5 14.5q22 0 40 -12.5t57 -53.5zM692 205q-6 -28 -33.5 -98t-44.5 -87q-4 -5 -7.5 -8.5t-8.5 -5.5t-7 -3.5t-8.5 -2t-8 -0.5h-10.5h-11h-479v37q80 0 80 61v969q0 11 -2 20t-6.5 15.5t-9.5 11.5t-12 8.5l-12 6
t-12.5 4t-11.5 2.5t-10 1l-6 1v37h465q31 0 45 -25q13 -24 27 -76.5t16 -71.5l-39 -8q-2 4 -5 11q-12 27 -20.5 41.5t-27 34.5t-48.5 29t-71 9h-142v-389h181q3 9 8.5 23.5t26 46t44.5 47.5l33 -31q-90 -78 -61 -211l-41 -16q-14 33 -14 80h-177v-611h138q70 0 121.5 28.5
t69 52.5t43.5 71q2 2 2.5 4t2 4t2.5 4z" />
    <glyph glyph-name="F.sc" unicode="&#xe012;" horiz-adv-x="669" 
d="M629 1001l-39 -8q-27 59 -45 79q-43 46 -129 46h-142v-389h183q3 9 8 23.5t25.5 46t44.5 47.5l32 -31q-90 -78 -61 -211l-41 -16q-14 33 -14 80h-177v-559q0 -72 99 -72v-37h-301v37q84 0 84 61v971q0 14 -3.5 24.5t-11 17.5t-14 12t-16.5 7.5t-15.5 3.5t-14.5 2l-9 1v37
h469q27 0 41 -25q13 -25 29 -78t18 -70z" />
    <glyph glyph-name="G.sc" unicode="&#xe013;" horiz-adv-x="948" 
d="M877 610q-15 0 -29.5 -3t-31.5 -19t-17 -45v-412q-43 -72 -124 -113t-181 -41q-92 0 -165 31.5t-122.5 86t-83 132t-48 167t-14.5 192.5q0 129 25 237.5t74 192t129 131t184 47.5q34 0 65.5 -6.5t49 -14t32 -12.5t20.5 -1.5t7 18.5h45l78 -228l-45 -8q-97 195 -252 195
q-73 0 -128.5 -42t-88.5 -117.5t-49.5 -173t-16.5 -216.5q0 -121 16 -217t51 -172.5t96 -118t145 -41.5q131 0 180 70v434q0 17 -5.5 29.5t-12.5 19t-18 10.5t-18 5t-17 2t-11 1v37h281v-37z" />
    <glyph glyph-name="H.sc" unicode="&#xe014;" horiz-adv-x="888" 
d="M817 0h-287v37q17 1 25 1.5t22.5 4.5t21 10.5t12 20t5.5 32.5v646h-344v-646q0 -19 5.5 -32.5t12 -20t21 -10.5t22.5 -4.5t25 -1.5v-37h-286v37q10 0 21 2t26.5 7.5t25 20.5t9.5 37v971q0 14 -5.5 25t-13.5 17t-19 10.5t-19 6t-16 2.5t-9 1v37h286v-37q-86 0 -86 -62
v-266h344v262q0 22 -10 36.5t-26.5 20.5t-27.5 7.5t-22 1.5v37h283v-37l-7 -1q-6 -1 -12 -2.5t-15 -4.5t-16 -8t-13.5 -11.5t-10.5 -16.5t-4 -22v-967q0 -22 9.5 -37t25 -20.5t26.5 -7.5t21 -2v-37z" />
    <glyph glyph-name="I.sc" unicode="&#xe015;" horiz-adv-x="432" 
d="M362 0h-292v37q84 0 84 67v965q0 61 -72 67q-2 0 -5 1h-5v37h288v-37q-86 0 -86 -68v-967q0 -12 3 -21.5t7.5 -16t11.5 -11.5t13 -7.5t15.5 -4.5t14 -2.5t13.5 -1t10 -0.5v-37z" />
    <glyph glyph-name="Iacute.sc" unicode="&#xe016;" horiz-adv-x="432" 
d="M395 1520q0 -38 -55 -76l-231 -158h-74l209 219q39 41 56.5 53.5t39.5 12.5q24 0 39.5 -14.5t15.5 -36.5zM362 0h-292v37q84 0 84 67v965q0 61 -72 67q-2 0 -5 1h-5v37h288v-37q-86 0 -86 -68v-967q0 -12 3 -21.5t7.5 -16t11.5 -11.5t13 -7.5t15.5 -4.5t14 -2.5t13.5 -1
t10 -0.5v-37z" />
    <glyph glyph-name="Icircumflex.sc" unicode="&#xe017;" horiz-adv-x="432" 
d="M453 1286h-62l-176 187l-174 -187h-61l188 287h94zM362 0h-292v37q84 0 84 67v965q0 61 -72 67q-2 0 -5 1h-5v37h288v-37q-86 0 -86 -68v-967q0 -12 3 -21.5t7.5 -16t11.5 -11.5t13 -7.5t15.5 -4.5t14 -2.5t13.5 -1t10 -0.5v-37z" />
    <glyph glyph-name="Idieresis.sc" unicode="&#xe018;" horiz-adv-x="432" 
d="M438 1425q0 -34 -24 -58t-58 -24t-58 24t-24 58t24 57t58 23t58 -23t24 -57zM158 1425q0 -34 -23 -58t-57 -24t-59 24t-25 58q0 33 25 56.5t59 23.5t57 -23t23 -57zM362 0h-292v37q84 0 84 67v965q0 61 -72 67q-2 0 -5 1h-5v37h288v-37q-86 0 -86 -68v-967q0 -12 3 -21.5
t7.5 -16t11.5 -11.5t13 -7.5t15.5 -4.5t14 -2.5t13.5 -1t10 -0.5v-37z" />
    <glyph glyph-name="Igrave.sc" unicode="&#xe019;" horiz-adv-x="432" 
d="M395 1286h-73l-232 158q-55 38 -55 76q0 22 15.5 36.5t39.5 14.5q22 0 39.5 -12.5t56.5 -53.5zM362 0h-292v37q84 0 84 67v965q0 61 -72 67q-2 0 -5 1h-5v37h288v-37q-86 0 -86 -68v-967q0 -12 3 -21.5t7.5 -16t11.5 -11.5t13 -7.5t15.5 -4.5t14 -2.5t13.5 -1t10 -0.5
v-37z" />
    <glyph glyph-name="J.sc" unicode="&#xe01a;" horiz-adv-x="632" 
d="M561 1137q-86 0 -86 -64v-833q0 -263 -184 -263q-39 0 -66.5 9.5t-42 18.5t-22.5 9q-10 0 -13 -14h-34l-93 270l46 9l30 -68q30 -67 83.5 -119.5t96.5 -52.5q48 0 63 36.5t15 127.5v870q0 16 -5 27.5t-12 18t-18 10.5t-18 5t-16.5 2t-10.5 1v37h287v-37z" />
    <glyph glyph-name="K.sc" unicode="&#xe01b;" horiz-adv-x="784" 
d="M846 0h-180q-29 129 -199 375q-117 170 -209 250v-529q0 -19 5.5 -31.5t15.5 -17.5t17.5 -7t19 -2.5t12.5 -0.5v-37h-254v37h14.5t16.5 3t18.5 9t12 18.5t5.5 30.5v977q0 16 -4.5 27.5t-10 17.5t-15 10t-15.5 5t-14.5 1.5t-9.5 0.5v37h256v-37q-70 0 -70 -62v-434
l338 434q10 13 10 29q0 33 -69 33v37h231v-39q-49 0 -92 -54q-18 -19 -318 -403q108 -93 213.5 -249.5t186.5 -328.5q6 -13 13.5 -23t15.5 -16.5t14 -11t14.5 -7t12 -3.5t10.5 -1l8 -1v-37z" />
    <glyph glyph-name="L.sc" unicode="&#xe01c;" horiz-adv-x="737" 
d="M717 209q-6 -29 -33.5 -100.5t-44.5 -88.5q-4 -5 -7.5 -8.5t-8.5 -5.5t-7 -3.5t-8.5 -2t-8 -0.5h-10.5h-11h-506v37q80 0 80 65v967q0 23 -9.5 38t-25 21t-25.5 7.5t-20 1.5v37h301v-37q-101 0 -101 -68v-1012h164q26 0 49 3t42 11t34 15t28.5 20t22.5 21.5t19.5 25
t15 24t13.5 24.5t12 22z" />
    <glyph glyph-name="Lslash.sc" unicode="&#xe01d;" horiz-adv-x="737" 
d="M717 209q-6 -29 -33.5 -100.5t-44.5 -88.5q-4 -5 -7.5 -8.5t-8.5 -5.5t-7 -3.5t-8.5 -2t-8 -0.5h-10.5h-11h-506v37q80 0 80 65v537l-80 -47v65l80 48v364q0 23 -9.5 38t-25 21t-25.5 7.5t-20 1.5v37h301v-37q-101 0 -101 -68v-293l195 115v-66l-195 -114v-654h164
q26 0 49 3t42 11t34 15t28.5 20t22.5 21.5t19.5 25t15 24t13.5 24.5t12 22z" />
    <glyph glyph-name="M.sc" unicode="&#xe01e;" horiz-adv-x="1191" 
d="M1120 0h-286v37q81 0 81 61v858l-315 -972h-61l-324 952v-840q0 -19 6.5 -31.5t17.5 -17.5t20 -7t21 -2.5t13 -0.5v-37h-221v37q75 0 75 61v1076h107l344 -984l313 984h123v-1076q0 -19 7 -31.5t20 -18t22.5 -8t22.5 -2.5l14 -1v-37z" />
    <glyph glyph-name="N.sc" unicode="&#xe01f;" horiz-adv-x="921" 
d="M850 1137q-72 0 -72 -62v-1077h-104l-461 995v-897q0 -19 6.5 -31.5t17.5 -17.5t20 -7t21 -2.5t13 -0.5v-37h-217v37q73 0 73 61v1076h111l453 -994v897q0 19 -6.5 31.5t-18 18t-20.5 7.5t-21.5 2.5t-13.5 0.5v37h219v-37z" />
    <glyph glyph-name="Ntilde.sc" unicode="&#xe020;" horiz-adv-x="921" 
d="M729 1516q0 -73 -35 -128t-112 -55q-45 0 -91 26.5t-83.5 52.5t-59.5 26q-38 0 -57 -30t-19 -69h-59q0 36 6.5 67t21.5 59t44 44.5t69 16.5t84 -26t83.5 -52.5t68.5 -26.5q78 0 78 95h61zM850 1137q-72 0 -72 -62v-1077h-104l-461 995v-897q0 -19 6.5 -31.5t17.5 -17.5
t20 -7t21 -2.5t13 -0.5v-37h-217v37q73 0 73 61v1076h111l453 -994v897q0 19 -6.5 31.5t-18 18t-20.5 7.5t-21.5 2.5t-13.5 0.5v37h219v-37z" />
    <glyph glyph-name="O.sc" unicode="&#xe021;" horiz-adv-x="946" 
d="M885 586q0 -129 -24.5 -237.5t-73.5 -192.5t-130 -131.5t-186 -47.5t-185.5 47.5t-128.5 131.5t-72 192.5t-24 237.5q0 103 14.5 192.5t46.5 166.5t79.5 132t116 86t153.5 31q105 0 186 -47.5t130 -131t73.5 -192t24.5 -237.5zM758 588q0 119 -17 217.5t-51 175
t-90 119.5t-129 43t-128.5 -42.5t-88.5 -119.5t-49.5 -175.5t-16.5 -217.5t16.5 -218t49.5 -176t88.5 -120t128.5 -43t129 43t90 120t51 176t17 218z" />
    <glyph glyph-name="OE.sc" unicode="&#xe022;" horiz-adv-x="1345" 
d="M1305 205q-6 -27 -34.5 -98.5t-45.5 -88.5q-6 -7 -10.5 -11t-11.5 -5.5t-9.5 -2t-13.5 0t-15 0.5h-446v37q11 0 16.5 1t15 5.5t14.5 18.5t5 36v8q1 8 1.5 21t0.5 27q-117 -179 -299 -179q-105 0 -185.5 47.5t-129 131.5t-73 192.5t-24.5 237.5t24 237t73 192.5
t129.5 131.5t185.5 47q108 0 174.5 -45.5t124.5 -134.5v55q0 23 -5.5 38t-16.5 21.5t-16 8t-15 2.5v37h430q29 0 43 -25q13 -25 28 -77.5t17 -70.5l-39 -8q-27 59 -45 79q-44 46 -129 46h-139v-391h180q3 9 8.5 23.5t26.5 46t45 47.5l33 -29q-47 -41 -62 -97.5t-2 -115.5
l-41 -14q-12 33 -12 80h-176v-611h135q71 0 123 28.5t72.5 55.5t43.5 70q3 7 5 10zM758 586q0 119 -16.5 216.5t-50 173t-89.5 117.5t-129 42q-97 0 -164 -74t-97 -195t-30 -280t30 -280t97 -195t164 -74q73 0 129 42t89.5 117.5t50 173t16.5 216.5z" />
    <glyph glyph-name="Oacute.sc" unicode="&#xe023;" horiz-adv-x="946" 
d="M653 1520q0 -38 -55 -76l-231 -158h-74l209 219q39 41 56.5 53.5t39.5 12.5q24 0 39.5 -14.5t15.5 -36.5zM885 586q0 -129 -24.5 -237.5t-73.5 -192.5t-130 -131.5t-186 -47.5t-185.5 47.5t-128.5 131.5t-72 192.5t-24 237.5q0 103 14.5 192.5t46.5 166.5t79.5 132
t116 86t153.5 31q105 0 186 -47.5t130 -131t73.5 -192t24.5 -237.5zM758 588q0 119 -17 217.5t-51 175t-90 119.5t-129 43t-128.5 -42.5t-88.5 -119.5t-49.5 -175.5t-16.5 -217.5t16.5 -218t49.5 -176t88.5 -120t128.5 -43t129 43t90 120t51 176t17 218z" />
    <glyph glyph-name="Ocircumflex.sc" unicode="&#xe024;" horiz-adv-x="946" 
d="M711 1286h-62l-176 187l-174 -187h-61l188 287h94zM885 586q0 -129 -24.5 -237.5t-73.5 -192.5t-130 -131.5t-186 -47.5t-185.5 47.5t-128.5 131.5t-72 192.5t-24 237.5q0 103 14.5 192.5t46.5 166.5t79.5 132t116 86t153.5 31q105 0 186 -47.5t130 -131t73.5 -192
t24.5 -237.5zM758 588q0 119 -17 217.5t-51 175t-90 119.5t-129 43t-128.5 -42.5t-88.5 -119.5t-49.5 -175.5t-16.5 -217.5t16.5 -218t49.5 -176t88.5 -120t128.5 -43t129 43t90 120t51 176t17 218z" />
    <glyph glyph-name="Odieresis.sc" unicode="&#xe025;" horiz-adv-x="946" 
d="M694 1425q0 -34 -24 -58t-58 -24t-58 24t-24 58t24 57t58 23t58 -23t24 -57zM414 1425q0 -34 -23 -58t-57 -24t-59 24t-25 58q0 33 25 56.5t59 23.5t57 -23t23 -57zM885 586q0 -129 -24.5 -237.5t-73.5 -192.5t-130 -131.5t-186 -47.5t-185.5 47.5t-128.5 131.5
t-72 192.5t-24 237.5q0 103 14.5 192.5t46.5 166.5t79.5 132t116 86t153.5 31q105 0 186 -47.5t130 -131t73.5 -192t24.5 -237.5zM758 588q0 119 -17 217.5t-51 175t-90 119.5t-129 43t-128.5 -42.5t-88.5 -119.5t-49.5 -175.5t-16.5 -217.5t16.5 -218t49.5 -176t88.5 -120
t128.5 -43t129 43t90 120t51 176t17 218z" />
    <glyph glyph-name="Ograve.sc" unicode="&#xe026;" horiz-adv-x="946" 
d="M653 1286h-73l-232 158q-55 38 -55 76q0 22 15.5 36.5t39.5 14.5q22 0 39.5 -12.5t56.5 -53.5zM885 586q0 -129 -24.5 -237.5t-73.5 -192.5t-130 -131.5t-186 -47.5t-185.5 47.5t-128.5 131.5t-72 192.5t-24 237.5q0 103 14.5 192.5t46.5 166.5t79.5 132t116 86t153.5 31
q105 0 186 -47.5t130 -131t73.5 -192t24.5 -237.5zM758 588q0 119 -17 217.5t-51 175t-90 119.5t-129 43t-128.5 -42.5t-88.5 -119.5t-49.5 -175.5t-16.5 -217.5t16.5 -218t49.5 -176t88.5 -120t128.5 -43t129 43t90 120t51 176t17 218z" />
    <glyph glyph-name="Oslash.sc" unicode="&#xe027;" horiz-adv-x="946" 
d="M887 584q0 -129 -24.5 -237.5t-73.5 -192.5t-130 -131.5t-186 -47.5q-5 0 -13.5 1t-13.5 1l-10 -94l-78 8l13 99q-79 22 -139 76.5t-97 133.5t-55.5 175.5t-18.5 208.5q0 129 24.5 237.5t73 193t129 132t185.5 47.5q5 0 15 -1t14 -1l8 84l78 -8l-10 -88
q154 -41 231.5 -202.5t77.5 -393.5zM760 586q0 199 -47 341t-142 191l-118 -1085q4 0 10 -1t10 -1q73 0 129 43t90 119.5t51 175t17 217.5zM496 1141h-23q-73 0 -129 -43t-89.5 -119.5t-50 -175t-16.5 -217.5q0 -199 47 -340.5t142 -190.5z" />
    <glyph glyph-name="Otilde.sc" unicode="&#xe028;" horiz-adv-x="946" 
d="M731 1516q0 -73 -35 -128t-112 -55q-45 0 -91 26.5t-83.5 52.5t-59.5 26q-38 0 -57 -30t-19 -69h-59q0 36 6.5 67t21.5 59t44 44.5t69 16.5t84 -26t83.5 -52.5t68.5 -26.5q78 0 78 95h61zM885 586q0 -129 -24.5 -237.5t-73.5 -192.5t-130 -131.5t-186 -47.5t-185.5 47.5
t-128.5 131.5t-72 192.5t-24 237.5q0 103 14.5 192.5t46.5 166.5t79.5 132t116 86t153.5 31q105 0 186 -47.5t130 -131t73.5 -192t24.5 -237.5zM758 588q0 119 -17 217.5t-51 175t-90 119.5t-129 43t-128.5 -42.5t-88.5 -119.5t-49.5 -175.5t-16.5 -217.5t16.5 -218
t49.5 -176t88.5 -120t128.5 -43t129 43t90 120t51 176t17 218z" />
    <glyph glyph-name="P.sc" unicode="&#xe029;" horiz-adv-x="774" 
d="M713 862q0 -67 -25.5 -122.5t-64 -90t-86.5 -58t-91.5 -33t-80.5 -9.5q-4 0 -12.5 1t-12.5 1v53h16q24 0 48 3.5t59.5 18.5t61.5 40t45.5 74.5t19.5 115.5q0 68 -19 118t-47 77t-66.5 43t-71.5 19.5t-69 2.5q-8 -2 -43 -2v-1010q0 -16 6.5 -27.5t15.5 -18t22 -11
t21.5 -5.5t19.5 -2t12 -1v-39h-299v39q80 0 80 65v971q0 16 -5 27.5t-12 17.5t-18 10t-18 5t-16.5 1.5t-10.5 0.5v37h231q410 0 410 -312z" />
    <glyph glyph-name="Thorn.sc" unicode="&#xe02a;" horiz-adv-x="774" 
d="M713 707q0 -67 -25 -123t-63 -90.5t-86 -58.5t-91 -34t-81 -10q-19 0 -27 2v53q1 0 6 -1t10 -1q23 0 47.5 3.5t60 19t62 41t45.5 75t19 115.5q0 136 -69 198t-202 62h-45v-856q0 -12 3 -21.5t7 -16t11.5 -11.5t13 -7.5t14.5 -4.5t13.5 -2.5t13.5 -1t10 -0.5v-37h-288v37
q82 0 82 67v965q0 61 -72 67q-2 0 -5 1h-5v37h286v-37q-84 0 -84 -68v-53h29q62 0 112.5 -5.5t108.5 -25t97.5 -52t65.5 -90.5t26 -136z" />
    <glyph glyph-name="Q.sc" unicode="&#xe02b;" horiz-adv-x="946" 
d="M885 582q0 -162 -35.5 -289t-116.5 -214t-201 -104v-73q0 -42 5.5 -70t18 -42t18.5 -18t20 -10l-14 -43q-9 0 -25 4t-41 18t-46 34.5t-36.5 58.5t-15.5 86v55q-120 17 -201.5 104t-117.5 214t-36 289q0 129 24 237t73 192.5t129.5 131.5t185.5 47t185.5 -47t129.5 -131.5
t73 -192.5t24 -237zM758 584q0 119 -16.5 217.5t-50 175t-89.5 119.5t-129 43t-129 -43t-89.5 -119.5t-50 -175t-16.5 -217.5t16.5 -217.5t50 -175t89.5 -119.5t129 -43t129 43t89.5 119.5t50 175t16.5 217.5z" />
    <glyph glyph-name="R.sc" unicode="&#xe02c;" horiz-adv-x="821" 
d="M862 0h-211q-24 141 -129.5 350t-177.5 248v37q10 0 27 2.5t51 17t61.5 39t48.5 75t21 118.5q0 62 -16.5 106.5t-39.5 67.5t-59 36t-62.5 16t-62.5 3h-43v-1016q0 -19 7 -31.5t20 -18t22.5 -8t22.5 -2.5l14 -1v-39h-284v39q80 0 80 65v973q0 19 -6.5 31.5t-18 18
t-20.5 7.5t-21.5 2.5t-13.5 0.5v37h252q73 0 133 -13t113 -42.5t82.5 -86t29.5 -135.5q0 -62 -20.5 -113.5t-44 -79t-59.5 -50.5t-48 -27.5t-29 -10.5q51 -37 139.5 -199.5t139.5 -307.5q1 -3 3 -7.5t10.5 -16t19 -21t29 -17.5t40.5 -10v-37z" />
    <glyph glyph-name="S.sc" unicode="&#xe02d;" horiz-adv-x="731" 
d="M670 287q0 -135 -84.5 -222.5t-220.5 -87.5q-52 0 -106 20.5t-60 20.5q-16 0 -19 -18h-45l-94 268l47 11l27 -54q36 -73 110 -129.5t146 -56.5q97 0 144.5 63t47.5 166q0 60 -32.5 115t-77 93.5t-113.5 82.5q-58 37 -98 68.5t-82.5 76.5t-64 98.5t-21.5 115.5
q0 131 77 202.5t199 71.5q52 0 102.5 -19.5t53.5 -19.5q11 0 14 21h43l62 -207l-43 -9l-25 43q-18 34 -68 74q-73 55 -147 55q-80 0 -126 -43t-46 -137q0 -45 18 -85t58.5 -78t72 -61.5t91.5 -63.5q129 -86 194.5 -171.5t65.5 -203.5z" />
    <glyph glyph-name="Scaron.sc" unicode="&#xe02e;" horiz-adv-x="731" 
d="M582 1573l-189 -287h-94l-190 287h61l176 -187l174 187h62zM670 287q0 -135 -84.5 -222.5t-220.5 -87.5q-52 0 -106 20.5t-60 20.5q-16 0 -19 -18h-45l-94 268l47 11l27 -54q36 -73 110 -129.5t146 -56.5q97 0 144.5 63t47.5 166q0 60 -32.5 115t-77 93.5t-113.5 82.5
q-58 37 -98 68.5t-82.5 76.5t-64 98.5t-21.5 115.5q0 131 77 202.5t199 71.5q52 0 102.5 -19.5t53.5 -19.5q11 0 14 21h43l62 -207l-43 -9l-25 43q-18 34 -68 74q-73 55 -147 55q-80 0 -126 -43t-46 -137q0 -45 18 -85t58.5 -78t72 -61.5t91.5 -63.5q129 -86 194.5 -171.5
t65.5 -203.5z" />
    <glyph glyph-name="T.sc" unicode="&#xe02f;" horiz-adv-x="638" 
d="M618 991l-36 -8q-14 30 -22.5 46t-28 40.5t-47 36.5t-62.5 12h-45v-1016q0 -16 5.5 -27.5t13 -18t19 -11t18.5 -5.5t17 -2l11 -1v-37h-285v37q10 0 20.5 2t25.5 7.5t24.5 20.5t9.5 37v1014h-43q-23 0 -41.5 -4t-32.5 -13.5t-24 -17.5t-19.5 -24.5t-14 -24.5t-12.5 -27
t-10 -24l-39 8q2 19 17.5 76.5t28.5 81.5q14 25 43 25h423q27 0 41 -25q13 -24 28 -81t17 -77z" />
    <glyph glyph-name="U.sc" unicode="&#xe030;" horiz-adv-x="880" 
d="M819 1137q-78 0 -78 -62v-688q0 -410 -290 -410q-177 0 -248 119q-60 101 -60 330v645q0 12 -3 21.5t-7 16t-11 11.5t-12.5 8t-14 5t-13 2.5t-12.5 1t-9 0.5v37h287v-37q-11 0 -22 -1.5t-27.5 -7.5t-26.5 -20.5t-10 -36.5v-668q0 -63 4 -111.5t16.5 -98.5t34 -82.5
t58.5 -53t88 -20.5q106 0 157.5 91t51.5 255v692q0 16 -5 27.5t-11.5 17.5t-16.5 10t-17 5t-16 1.5t-10 0.5v37h223v-37z" />
    <glyph glyph-name="Uacute.sc" unicode="&#xe031;" horiz-adv-x="880" 
d="M641 1520q0 -38 -55 -76l-232 -158h-73l208 219q39 41 57 53.5t40 12.5q24 0 39.5 -14.5t15.5 -36.5zM819 1137q-78 0 -78 -62v-688q0 -410 -290 -410q-177 0 -248 119q-60 101 -60 330v645q0 12 -3 21.5t-7 16t-11 11.5t-12.5 8t-14 5t-13 2.5t-12.5 1t-9 0.5v37h287
v-37q-11 0 -22 -1.5t-27.5 -7.5t-26.5 -20.5t-10 -36.5v-668q0 -63 4 -111.5t16.5 -98.5t34 -82.5t58.5 -53t88 -20.5q106 0 157.5 91t51.5 255v692q0 16 -5 27.5t-11.5 17.5t-16.5 10t-17 5t-16 1.5t-10 0.5v37h223v-37z" />
    <glyph glyph-name="Ucircumflex.sc" unicode="&#xe032;" horiz-adv-x="880" 
d="M678 1286h-62l-176 187l-174 -187h-61l188 287h94zM819 1137q-78 0 -78 -62v-688q0 -410 -290 -410q-177 0 -248 119q-60 101 -60 330v645q0 12 -3 21.5t-7 16t-11 11.5t-12.5 8t-14 5t-13 2.5t-12.5 1t-9 0.5v37h287v-37q-11 0 -22 -1.5t-27.5 -7.5t-26.5 -20.5
t-10 -36.5v-668q0 -63 4 -111.5t16.5 -98.5t34 -82.5t58.5 -53t88 -20.5q106 0 157.5 91t51.5 255v692q0 16 -5 27.5t-11.5 17.5t-16.5 10t-17 5t-16 1.5t-10 0.5v37h223v-37z" />
    <glyph glyph-name="Udieresis.sc" unicode="&#xe033;" horiz-adv-x="880" 
d="M672 1425q0 -34 -24 -58t-58 -24t-58 24t-24 58t24 57t58 23t58 -23t24 -57zM391 1425q0 -34 -23 -58t-57 -24t-59 24t-25 58q0 33 25 56.5t59 23.5t57 -23t23 -57zM819 1137q-78 0 -78 -62v-688q0 -410 -290 -410q-177 0 -248 119q-60 101 -60 330v645q0 12 -3 21.5
t-7 16t-11 11.5t-12.5 8t-14 5t-13 2.5t-12.5 1t-9 0.5v37h287v-37q-11 0 -22 -1.5t-27.5 -7.5t-26.5 -20.5t-10 -36.5v-668q0 -63 4 -111.5t16.5 -98.5t34 -82.5t58.5 -53t88 -20.5q106 0 157.5 91t51.5 255v692q0 16 -5 27.5t-11.5 17.5t-16.5 10t-17 5t-16 1.5t-10 0.5
v37h223v-37z" />
    <glyph glyph-name="Ugrave.sc" unicode="&#xe034;" horiz-adv-x="880" 
d="M610 1286h-73l-232 158q-55 38 -55 76q0 22 15.5 36.5t39.5 14.5q22 0 39.5 -12.5t56.5 -53.5zM819 1137q-78 0 -78 -62v-688q0 -410 -290 -410q-177 0 -248 119q-60 101 -60 330v645q0 12 -3 21.5t-7 16t-11 11.5t-12.5 8t-14 5t-13 2.5t-12.5 1t-9 0.5v37h287v-37
q-11 0 -22 -1.5t-27.5 -7.5t-26.5 -20.5t-10 -36.5v-668q0 -63 4 -111.5t16.5 -98.5t34 -82.5t58.5 -53t88 -20.5q106 0 157.5 91t51.5 255v692q0 16 -5 27.5t-11.5 17.5t-16.5 10t-17 5t-16 1.5t-10 0.5v37h223v-37z" />
    <glyph glyph-name="V.sc" unicode="&#xe035;" horiz-adv-x="829" 
d="M840 1137l-12 -1q-12 0 -20 -2.5t-20 -7.5t-20.5 -17t-13.5 -30l-289 -1097h-78l-313 1097q-5 18 -13.5 30t-20 17.5t-19.5 7.5t-19 2l-12 1v37h284v-37q-69 0 -69 -39q0 -15 2 -23l248 -903l225 903q2 6 2 17q0 45 -70 45v37h228v-37z" />
    <glyph glyph-name="W.sc" unicode="&#xe036;" horiz-adv-x="1265" 
d="M1276 1137l-13 -1q-13 0 -22 -2.5t-22 -7.5t-22 -17t-13 -30l-252 -1095h-78l-219 948l-211 -948h-72l-270 1093q-4 15 -11.5 26t-16 17t-19.5 10t-18 5t-16.5 1.5t-10.5 0.5v37h289v-37q-9 0 -18.5 -1.5t-23 -5.5t-22 -14.5t-8.5 -25.5q0 -13 2 -19l205 -850l200 971h68
l238 -963l188 848q2 6 2 17q0 43 -74 43v37h240v-37z" />
    <glyph glyph-name="X.sc" unicode="&#xe037;" horiz-adv-x="772" 
d="M782 0h-299v37q78 0 78 41q0 8 -6 20l-182 412l-205 -410q-4 -8 -4 -20q0 -43 76 -43v-37h-250v37q76 11 104 65l246 478l-229 499q-24 48 -91 58v37h289v-37q-67 0 -67 -39q0 -11 6 -23l164 -354l170 354q6 12 6 21q0 17 -16 27t-29.5 12t-26.5 2v37h236v-37
q-23 0 -51 -16t-42 -42q-125 -230 -217 -428l246 -551q11 -26 36.5 -44.5t57.5 -18.5v-37z" />
    <glyph glyph-name="Y.sc" unicode="&#xe038;" horiz-adv-x="788" 
d="M799 1137q-66 -9 -90 -60q-135 -292 -238 -526v-453q0 -19 7 -31.5t20 -18t22.5 -8t23.5 -2.5l13 -1v-37h-287v37q82 0 82 65v449q-28 60 -147.5 292.5t-120.5 235.5q-7 14 -16.5 24.5t-17.5 16t-19 9.5t-16.5 5t-14.5 2l-10 1v37h262v-37q-10 0 -18.5 -1.5t-20 -8
t-11 -19t8.5 -33.5l223 -446l199 446q16 36 -3.5 49t-43.5 13v37h213v-37z" />
    <glyph glyph-name="Yacute.sc" unicode="&#xe039;" horiz-adv-x="788" 
d="M573 1520q0 -38 -55 -76l-231 -158h-74l209 219q39 41 56.5 53.5t39.5 12.5q24 0 39.5 -14.5t15.5 -36.5zM799 1137q-66 -9 -90 -60q-135 -292 -238 -526v-453q0 -19 7 -31.5t20 -18t22.5 -8t23.5 -2.5l13 -1v-37h-287v37q82 0 82 65v449q-28 60 -147.5 292.5
t-120.5 235.5q-7 14 -16.5 24.5t-17.5 16t-19 9.5t-16.5 5t-14.5 2l-10 1v37h262v-37q-10 0 -18.5 -1.5t-20 -8t-11 -19t8.5 -33.5l223 -446l199 446q16 36 -3.5 49t-43.5 13v37h213v-37z" />
    <glyph glyph-name="Ydieresis.sc" unicode="&#xe03a;" horiz-adv-x="788" 
d="M616 1425q0 -34 -23.5 -58t-57.5 -24t-58 24t-24 58t24 57t58 23t57.5 -23t23.5 -57zM336 1425q0 -34 -23 -58t-57 -24t-59 24t-25 58q0 33 25 56.5t59 23.5t57 -23t23 -57zM799 1137q-66 -9 -90 -60q-135 -292 -238 -526v-453q0 -19 7 -31.5t20 -18t22.5 -8t23.5 -2.5
l13 -1v-37h-287v37q82 0 82 65v449q-28 60 -147.5 292.5t-120.5 235.5q-7 14 -16.5 24.5t-17.5 16t-19 9.5t-16.5 5t-14.5 2l-10 1v37h262v-37q-10 0 -18.5 -1.5t-20 -8t-11 -19t8.5 -33.5l223 -446l199 446q16 36 -3.5 49t-43.5 13v37h213v-37z" />
    <glyph glyph-name="Z.sc" unicode="&#xe03b;" horiz-adv-x="700" 
d="M690 209q-6 -29 -33.5 -100.5t-44.5 -88.5q-4 -5 -7.5 -8.5t-8.5 -5.5t-7 -3.5t-8.5 -2t-8 -0.5h-10.5h-11h-541v31l516 1085h-241q-18 0 -34.5 -2.5t-29 -5t-24.5 -9.5t-19.5 -11.5t-16 -15t-13 -15t-11.5 -17.5t-8.5 -16.5t-8 -18t-7.5 -16.5l-45 6q2 19 17 74.5
t28 79.5q14 25 43 25h514v-31l-518 -1086h254q26 0 49 3t42.5 11t34 14t29.5 21t23 21.5t20 25t15 23.5t14 25.5t12 21.5z" />
    <glyph glyph-name="Zcaron.sc" unicode="&#xe03c;" horiz-adv-x="700" 
d="M616 1573l-188 -287h-94l-191 287h62l176 -187l174 187h61zM690 209q-6 -29 -33.5 -100.5t-44.5 -88.5q-4 -5 -7.5 -8.5t-8.5 -5.5t-7 -3.5t-8.5 -2t-8 -0.5h-10.5h-11h-541v31l516 1085h-241q-18 0 -34.5 -2.5t-29 -5t-24.5 -9.5t-19.5 -11.5t-16 -15t-13 -15
t-11.5 -17.5t-8.5 -16.5t-8 -18t-7.5 -16.5l-45 6q2 19 17 74.5t28 79.5q14 25 43 25h514v-31l-518 -1086h254q26 0 49 3t42.5 11t34 14t29.5 21t23 21.5t20 25t15 23.5t14 25.5t12 21.5z" />
    <glyph glyph-name="germandbls.sc" unicode="&#xe03d;" horiz-adv-x="1462" 
d="M1401 287q0 -135 -84.5 -222.5t-220.5 -87.5q-52 0 -106 20.5t-60 20.5q-16 0 -19 -18h-45l-94 268l47 11l27 -54q36 -73 110 -129.5t146 -56.5q97 0 144.5 63t47.5 166q0 60 -32.5 115t-77 93.5t-113.5 82.5q-58 37 -98 68.5t-82.5 76.5t-64 98.5t-21.5 115.5
q0 131 77 202.5t199 71.5q52 0 102.5 -19.5t53.5 -19.5q11 0 14 21h43l62 -207l-43 -9l-25 43q-18 35 -67 74q-73 55 -148 55q-80 0 -126 -43t-46 -137q0 -45 18 -85t58.5 -78t72 -61.5t91.5 -63.5q129 -86 194.5 -171.5t65.5 -203.5zM670 287q0 -135 -84.5 -222.5
t-220.5 -87.5q-52 0 -106 20.5t-60 20.5q-16 0 -19 -18h-45l-94 268l47 11l27 -54q36 -73 110 -129.5t146 -56.5q97 0 144.5 63t47.5 166q0 60 -32.5 115t-77 93.5t-113.5 82.5q-58 37 -98 68.5t-82.5 76.5t-64 98.5t-21.5 115.5q0 131 77 202.5t199 71.5q52 0 102.5 -19.5
t53.5 -19.5q11 0 14 21h43l62 -207l-43 -9l-25 43q-18 34 -68 74q-73 55 -147 55q-80 0 -126 -43t-46 -137q0 -45 18 -85t58.5 -78t72 -61.5t91.5 -63.5q129 -86 194.5 -171.5t65.5 -203.5z" />
    <glyph glyph-name="f_i.sc" unicode="&#xe03e;" horiz-adv-x="1101" 
d="M1032 0h-293v37q84 0 84 67v965q0 22 -8.5 36.5t-21 20t-24.5 8t-23 3.5h-5v37h289v-37q-86 0 -86 -68v-967q0 -12 3 -21.5t7.5 -16t11.5 -11.5t13 -7.5t15.5 -4.5t14 -2.5t13.5 -1t10 -0.5v-37zM629 1001l-39 -8q-27 59 -45 79q-43 46 -129 46h-142v-389h183q3 9 8 23.5
t25.5 46t44.5 47.5l32 -31q-90 -78 -61 -211l-41 -16q-14 33 -14 80h-177v-559q0 -72 99 -72v-37h-301v37q84 0 84 61v971q0 14 -3.5 24.5t-11 17.5t-14 12t-16.5 7.5t-15.5 3.5t-14.5 2l-9 1v37h469q27 0 41 -25q13 -25 29 -78t18 -70z" />
    <glyph glyph-name="f_l.sc" unicode="&#xe03f;" horiz-adv-x="1406" 
d="M1386 209q-7 -29 -34 -101t-43 -88q-4 -5 -8 -8.5t-8.5 -5.5t-7 -3.5t-9 -2t-8 -0.5h-10.5h-11h-506v37q80 0 80 65v967q0 23 -9.5 38t-25 21t-25.5 7.5t-20 1.5v37h301v-37q-100 0 -100 -68v-1012h164q29 0 55 5t44.5 11.5t37 20t28.5 22t23.5 27.5t18 26.5t15.5 28.5
t13 25zM629 1001l-39 -8q-27 59 -45 79q-43 46 -129 46h-142v-389h183q3 9 8 23.5t25.5 46t44.5 47.5l32 -31q-90 -78 -61 -211l-41 -16q-14 33 -14 80h-177v-559q0 -72 99 -72v-37h-301v37q84 0 84 61v971q0 14 -3.5 24.5t-11 17.5t-14 12t-16.5 7.5t-15.5 3.5t-14.5 2
l-9 1v37h469q27 0 41 -25q13 -25 29 -78t18 -70z" />
    <glyph glyph-name="zero.fitted" unicode="&#xe040;" horiz-adv-x="929" 
d="M858 733q0 -163 -22 -296t-67 -237.5t-122 -162t-180 -57.5t-180.5 58t-123.5 162t-68.5 237.5t-22.5 295.5t22.5 295.5t68.5 238t123.5 162.5t180.5 58t180 -58t122 -162.5t67 -237.5t22 -296zM723 735q0 103 -4.5 186.5t-14.5 165t-29 141.5t-46.5 107t-68.5 71t-93 24
t-93 -24t-69 -70.5t-47.5 -107t-30.5 -142t-15.5 -165.5t-4.5 -186t4.5 -186t15.5 -165t30.5 -141.5t47.5 -107t69 -70.5t93 -24t93 24t68.5 70.5t46.5 106.5t29 141.5t14.5 165t4.5 186.5z" />
    <glyph glyph-name="one.fitted" unicode="&#xe041;" horiz-adv-x="454" 
d="M373 0h-291v39q1 0 11.5 0.5t15.5 1.5t15.5 3.5t16 7.5t12.5 13t10 21t3 29v1235q0 15 -3 27t-7.5 20t-11.5 14t-13 9t-14.5 5.5t-13.5 3t-12.5 1t-8.5 0.5v36h203v-1355q0 -23 6.5 -38.5t19.5 -22t22.5 -9t24.5 -2.5h15v-39z" />
    <glyph glyph-name="two.fitted" unicode="&#xe042;" horiz-adv-x="905" 
d="M834 252q-8 -32 -38 -110t-48 -103t-43 -32t-62 -7h-555l-16 37q41 17 111 84t150 173.5t151 227.5t118 262.5t47 262.5q0 70 -13.5 132.5t-42 117.5t-79.5 87.5t-119 32.5q-70 0 -122 -18.5t-77 -42.5t-40 -55.5t-18 -48t-3 -29.5h-51q0 129 91.5 197.5t232.5 68.5
q101 0 176 -38.5t116 -103.5t60.5 -140t19.5 -160q0 -121 -55.5 -265.5t-134 -266t-161 -226t-140.5 -164.5t-68 -62h176q165 0 230 33q19 9 35.5 20.5t31.5 26t26 25.5t23.5 28.5t18.5 26t17.5 26t13.5 21.5z" />
    <glyph glyph-name="three.fitted" unicode="&#xe043;" horiz-adv-x="929" 
d="M858 391q0 -184 -108.5 -299t-313.5 -115q-80 0 -151 25t-116 62t-71 76.5t-26 70.5q0 21 12 37t37 16q39 0 57 -53q28 -73 89 -123.5t161 -50.5q295 0 295 352q0 100 -28.5 178t-70 121t-94 71t-93.5 37t-77 9h-14l-33 45q357 44 357 336q0 39 -11.5 79t-36.5 79.5
t-75 64.5t-117 25q-194 0 -194 -146v-20q0 -27 -13 -49.5t-45 -22.5q-26 0 -40.5 19t-14.5 45q0 90 80 159.5t221 69.5q96 0 169.5 -26.5t116 -71t64 -96.5t21.5 -109q0 -63 -18.5 -116.5t-49 -89t-63.5 -62.5t-69 -42.5t-58 -23t-37 -10.5q81 -16 145.5 -53t103.5 -83.5
t64.5 -103.5t35 -108.5t9.5 -102.5z" />
    <glyph glyph-name="four.fitted" unicode="&#xe044;" horiz-adv-x="927" 
d="M866 424l-20 -66h-154v-247q0 -23 6.5 -38.5t19.5 -22t22.5 -9t24.5 -2.5h15v-39h-293v39q1 0 11.5 0.5t15.5 1.5t15.5 3.5t16 7.5t12.5 13t10 21t3 29v243h-489l-41 41l594 1086h57v-1061h174zM571 422v827l-442 -827h442z" />
    <glyph glyph-name="five.fitted" unicode="&#xe045;" horiz-adv-x="952" 
d="M881 467q0 -100 -27.5 -187t-81 -154.5t-141 -106.5t-199.5 -39q-82 0 -153 24t-114.5 60t-68 74.5t-24.5 70.5q0 55 43 55q13 0 23 -4.5t18 -15t12 -19t12 -26.5q16 -34 33 -58.5t45.5 -50t73 -39.5t102.5 -14q49 0 92 11t86.5 41t74.5 76.5t50 123.5t19 176
q0 100 -20.5 179t-53.5 127t-77.5 79t-88 43t-90.5 12q-48 0 -85 -7t-58.5 -18t-34 -21t-21 -20.5t-10.5 -11.5l-55 19l92 618h389q37 0 62 -22q23 -21 64.5 -109.5t49.5 -120.5l-43 -16q-3 5 -15.5 24t-17 26t-18 25t-22.5 26t-26.5 23t-32.5 22t-38 17t-47 15t-55 8.5
t-66 3.5h-127l-69 -468l12 8q11 7 17.5 10.5t23.5 10.5t33 10.5t41.5 6.5t54.5 3q53 0 108.5 -12t120 -47t113.5 -88t82 -145t33 -208z" />
    <glyph glyph-name="six.fitted" unicode="&#xe046;" horiz-adv-x="937" 
d="M866 451q0 -113 -30.5 -205t-83 -150.5t-120.5 -89.5t-145 -31q-84 0 -157.5 32.5t-132 96.5t-92 171t-33.5 245q0 137 26 262t69.5 221t101 178t119.5 139t125 97t118 59t98 19q29 0 29 -25q0 -11 -15.5 -23t-42.5 -23.5t-63 -30.5t-76.5 -42.5t-83 -61t-83 -83
t-76.5 -113t-63 -146.5t-42.5 -187t-15.5 -232q0 -129 24 -226.5t66 -153t92 -82.5t108 -27q111 0 182.5 99t71.5 308q0 112 -21 195t-56.5 128t-76 66t-85.5 21q-33 0 -62 -6t-48 -14.5t-36 -21t-25.5 -21t-16.5 -18.5t-9 -11l-43 27q33 62 103 94.5t139 32.5
q68 0 130.5 -27t115.5 -80.5t84.5 -146.5t31.5 -213z" />
    <glyph glyph-name="seven.fitted" unicode="&#xe047;" horiz-adv-x="835" 
d="M815 1415l-438 -1435l-90 20l436 1370h-348q-193 0 -268 -96q-15 -20 -44 -76l-43 25q8 32 47 116t62 105q25 22 64 22h577z" />
    <glyph glyph-name="eight.fitted" unicode="&#xe048;" horiz-adv-x="950" 
d="M879 403q0 -182 -108.5 -302.5t-295.5 -120.5t-295 120.5t-108 302.5q0 135 76.5 250t207.5 152q-104 37 -164.5 131t-60.5 199q0 149 96 250.5t248 101.5t246 -101t94 -251q0 -104 -58 -197t-159 -131q129 -40 205 -155t76 -249zM696 1137q0 130 -60.5 211.5
t-162.5 81.5q-101 0 -159 -81t-58 -212t56.5 -215t158.5 -84q115 0 170 82t55 217zM756 403q0 155 -80.5 261t-204.5 106q-129 0 -201.5 -106t-72.5 -265q0 -154 78 -255t196 -101q136 0 210.5 100t74.5 260z" />
    <glyph glyph-name="nine.fitted" unicode="&#xe049;" horiz-adv-x="937" 
d="M866 944q0 -137 -26 -262t-69.5 -221t-101 -178t-119.5 -139t-125 -97t-118 -59t-98 -19q-29 0 -29 25q0 11 15.5 23t42.5 23.5t63 30.5t76.5 42.5t83 61t83 83t76.5 113t63 146.5t42.5 187t15.5 232q0 129 -24 226.5t-66 153t-92 82.5t-108 27q-111 0 -182.5 -99
t-71.5 -308q0 -112 21 -195t56.5 -128t76 -66t85.5 -21q33 0 62 6t48 14.5t36 21t25.5 21t16.5 18.5t9 11l43 -26q-30 -64 -105.5 -95.5t-136.5 -31.5q-66 0 -128 27t-115.5 80.5t-86 146.5t-32.5 213q0 113 30.5 204.5t83 150t120.5 89.5t145 31q84 0 157.5 -32.5
t132 -96.5t92 -171t33.5 -245z" />
    <glyph glyph-name="ordfeminine.fitted" unicode="&#xe04a;" horiz-adv-x="634" 
d="M635 592h-223v47q49 0 49 23q0 9 -8 32t-9 29l-57 205h-182l-53 -195q-19 -69 -19 -71q0 -23 51 -23v-47h-184v47q3 0 11.5 0.5t12 1t10 1.5t10 3.5t7.5 6t7 9t5 13.5l220 815h69l223 -815q2 -9 6 -15.5t7 -9.5t10.5 -5.5t10 -3t13.5 -1t13 -0.5v-47zM375 989l-78 309
l-78 -309h156z" />
    <glyph glyph-name="ordmasculine.fitted" unicode="&#xe04b;" horiz-adv-x="759" 
d="M688 1032q0 -96 -18 -176.5t-54 -144.5t-96.5 -100t-140.5 -36t-140 36.5t-96 100.5t-53.5 144.5t-17.5 175.5q0 96 17.5 176.5t53.5 144.5t96 100t140 36t140.5 -36t96.5 -100t54 -144.5t18 -176.5zM578 1034q0 117 -21 205t-66.5 140.5t-111.5 52.5q-96 0 -145.5 -109
t-49.5 -289t49.5 -289.5t145.5 -109.5q66 0 111.5 52.5t66.5 141t21 205.5z" />
    <glyph glyph-name="degree.fitted" unicode="&#xe04c;" horiz-adv-x="536" 
d="M444 1315q0 -72 -52 -124t-124 -52t-124 52t-52 124q0 73 51.5 123.5t124.5 50.5t124.5 -50.5t51.5 -123.5zM373 1315q0 44 -30.5 75t-74.5 31t-75 -31t-31 -75q0 -43 31 -74t75 -31t74.5 31t30.5 74z" />
    <glyph glyph-name="asciicircum.fitted" unicode="&#xe04d;" horiz-adv-x="1034" 
d="M977 664h-96l-365 722l-366 -722h-93l424 825h70z" />
    <glyph glyph-name="S.alt" unicode="&#xe04e;" horiz-adv-x="872" 
d="M801 1206l-49 -10q-27 65 -67.5 113t-78.5 70.5t-72 35t-54 13.5l-21 2q-120 0 -183 -68.5t-63 -204.5q0 -72 30.5 -141.5t79.5 -128t108 -116.5t118.5 -116.5t108.5 -117.5t79.5 -129.5t30.5 -143.5q0 -69 -23 -123t-57 -85.5t-78.5 -52t-82 -27.5t-72.5 -7
q-58 0 -104.5 12t-72.5 24.5t-34 12.5q-14 0 -19 -18h-37l-116 336l51 10q23 -63 53 -114.5t59.5 -83t60 -54.5t56.5 -33.5t46.5 -16.5t31.5 -6l12 -1q199 0 199 211q0 58 -30 117.5t-78.5 112.5t-106.5 109t-116.5 117t-107 125.5t-78.5 145t-30 166.5q0 88 30 157t80 110
t110 62t124 21q59 0 107 -13.5t74 -26.5t32 -13q12 0 15 28h49z" />
    <glyph glyph-name="Scaron.alt" unicode="&#xe04f;" horiz-adv-x="872" 
d="M801 1206l-49 -10q-27 65 -67.5 113t-78.5 70.5t-72 35t-54 13.5l-21 2q-120 0 -183 -68.5t-63 -204.5q0 -72 30.5 -141.5t79.5 -128t108 -116.5t118.5 -116.5t108.5 -117.5t79.5 -129.5t30.5 -143.5q0 -69 -23 -123t-57 -85.5t-78.5 -52t-82 -27.5t-72.5 -7
q-58 0 -104.5 12t-72.5 24.5t-34 12.5q-14 0 -19 -18h-37l-116 336l51 10q23 -63 53 -114.5t59.5 -83t60 -54.5t56.5 -33.5t46.5 -16.5t31.5 -6l12 -1q199 0 199 211q0 58 -30 117.5t-78.5 112.5t-106.5 109t-116.5 117t-107 125.5t-78.5 145t-30 166.5q0 88 30 157t80 110
t110 62t124 21q59 0 107 -13.5t74 -26.5t32 -13q12 0 15 28h49zM672 1870l-189 -287h-94l-190 287h61l176 -187l174 187h62z" />
    </font>
</defs>
</svg>
